<?xml version="1.0" standalone="no"?>
<!DOCTYPE svg PUBLIC "-//W3C//DTD SVG 1.1//EN" "http://www.w3.org/Graphics/SVG/1.1/DTD/svg11.dtd" >
<svg xmlns="http://www.w3.org/2000/svg" xmlns:xlink="http://www.w3.org/1999/xlink" version="1.1">
<metadata>
Created by FontForge 20161013 at Sun Aug  1 23:18:07 1999
 By ,,,
URW Software, Copyright 1994 by URW
</metadata>
<defs>
<font id="Octopuss" horiz-adv-x="500" >
  <font-face 
    font-family="Octopuss"
    font-weight="400"
    font-stretch="normal"
    units-per-em="1000"
    panose-1="0 0 4 0 0 0 0 0 0 0"
    ascent="800"
    descent="-200"
    x-height="476"
    cap-height="668"
    bbox="-143 -301 1006 798"
    underline-thickness="110"
    underline-position="-269"
    unicode-range="U+0020-F002"
  />
<missing-glyph 
d="M63 0v798h375v-798h-375zM125 63h250v673h-250v-673z" />
    <glyph glyph-name=".notdef" 
d="M63 0v798h375v-798h-375zM125 63h250v673h-250v-673z" />
    <glyph glyph-name=".null" horiz-adv-x="0" 
 />
    <glyph glyph-name="nonmarkingreturn" horiz-adv-x="300" 
 />
    <glyph glyph-name="space" unicode=" " horiz-adv-x="300" 
 />
    <glyph glyph-name="exclam" unicode="!" horiz-adv-x="298" 
d="M251 552l-17 -273q-3 -54 -8.5 -74t-19.5 -31q-30 13 -60 13q-29 0 -56 -12q-23 18 -25 67l-17 336q0 101 102 101t102 -107q0 -4 -1 -20zM149 174q43 0 71 -25t28 -63q0 -39 -28 -63.5t-73 -24.5q-44 0 -72 25t-28 65q0 38 28.5 62t73.5 24z" />
    <glyph glyph-name="quotedbl" unicode="&#x22;" horiz-adv-x="394" 
d="M178 542v-46q0 -62 3.5 -78t21.5 -36q-27 -14 -58 -14q-57 0 -79 42q-8 16 -8 86v46q0 36 -2.5 45.5t-17.5 31.5q-12 18 -12 31q0 24 23.5 40.5t58.5 16.5q30 0 56 -15q-18 -22 -18 -43q0 -17 14 -36.5t16 -28.5t2 -42zM330 594v-20l1 -41q1 -38 15 -59q22 -27 22 -42
q0 -28 -25 -46t-64 -18q-57 0 -79 42q-8 16 -8 86v46q0 36 -2.5 45.5t-17.5 31.5q-12 18 -12 31q0 24 23.5 40.5t58.5 16.5q66 0 83 -52q5 -15 5 -61z" />
    <glyph glyph-name="numbersign" unicode="#" horiz-adv-x="562" 
d="M90 129l7 50q-64 3 -64 59q0 58 67 58h14l10 75q-64 3 -64 59q0 58 68 58h13l9 67q8 58 61 58q26 0 44 -17t18 -42q0 -8 -2 -17l-6 -49h75l9 67q8 58 62 58q26 0 43.5 -17t17.5 -42q0 -10 -1 -17l-7 -49q64 -5 64 -58q0 -59 -67 -59h-14l-10 -75q64 -5 64 -57
q0 -60 -67 -60h-14l-9 -67q-8 -58 -60 -58q-27 0 -45 17t-18 42q0 9 1 16l7 50h-75l-9 -67q-8 -58 -60 -58q-28 0 -45.5 17t-17.5 43q0 8 1 15zM240 380l-13 -93h94l13 93h-94z" />
    <glyph glyph-name="dollar" unicode="$" horiz-adv-x="511" 
d="M265 262l-11 7q14 32 14 49q0 42 -31 72t-74 30q-39 0 -70 -21q-32 43 -32 96q0 130 130 172q5 71 76 71q51 0 65 -37q4 -10 5 -34q49 -13 79 -43.5t30 -67.5q0 -35 -25 -59.5t-60 -24.5q-34 0 -62.5 23t-39.5 23q-24 0 -24 -26q0 -17 17 -30t93.5 -54.5t108.5 -87.5
t32 -114q0 -125 -98 -181q-17 -10 -45 -20q-1 -35 -10 -49q-19 -30 -63 -30q-33 0 -53.5 18t-20.5 47q0 5 1 9q-81 19 -128 79.5t-47 143.5q0 77 40 130t99 53q39 0 66 -25t27 -61q0 -27 -26 -73q-11 -20 -11 -34q0 -16 13 -27.5t30 -11.5t30 11.5t13 27.5q0 25 -38 49z" />
    <glyph glyph-name="percent" unicode="%" horiz-adv-x="577" 
d="M478 585l-125 -243q-36 -20 -59 -63.5t-24 -96.5l-70 -138q-16 -32 -23 -40q-15 -18 -39 -18q-22 0 -38 15t-16 35q0 16 21 57l120 233q77 44 82 159l75 146q26 50 58 50q21 0 37.5 -14t16.5 -33q0 -18 -16 -49zM158 674q61 0 98.5 -49t37.5 -128q0 -78 -38 -126.5
t-99 -48.5q-62 0 -99.5 48t-37.5 127q0 80 38 128.5t100 48.5zM157 569q-31 0 -31 -77q0 -27 9 -46t22 -19q31 0 31 72q0 70 -31 70zM421 345q61 0 98.5 -49t37.5 -128q0 -78 -38 -126.5t-99 -48.5q-62 0 -99.5 48t-37.5 127q0 80 38 128.5t100 48.5zM420 240q-31 0 -31 -77
q0 -27 9 -46t22 -19q31 0 31 72q0 70 -31 70z" />
    <glyph glyph-name="ampersand" unicode="&#x26;" horiz-adv-x="599" 
d="M110 381l-18 18q-38 38 -38 105q0 80 56 126.5t152 46.5q88 0 142.5 -47t54.5 -123q0 -66 -43 -115q-29 9 -47 9q-49 0 -81.5 -27.5t-32.5 -68.5q0 -4 3 -25q-44 -16 -44 -57q0 -43 41 -43q39 0 39 38q0 15 -11 36q-16 31 -16 52q0 35 29 59.5t72 24.5q54 0 91.5 -45
t37.5 -110q0 -47 -19.5 -96.5t-51.5 -82.5q-62 -65 -165 -65q-106 0 -172 59t-66 154q0 89 57 149q4 4 30 28zM263 451q36 27 36 48q0 32 -33 32q-32 0 -32 -34q0 -23 29 -46zM522 189l32 -35q31 -34 31 -74q0 -36 -26 -62t-62 -26q-41 0 -76 42q70 62 87 172q3 -5 14 -17z
" />
    <glyph glyph-name="quotesingle" unicode="'" horiz-adv-x="261" 
d="M196 594v-20l1 -41q1 -38 15 -59q22 -27 22 -42q0 -28 -25 -46t-64 -18q-57 0 -79 42q-8 16 -8 86v46q0 36 -2.5 45.5t-17.5 31.5q-12 18 -12 31q0 24 23.5 40.5t58.5 16.5q66 0 83 -52q5 -15 5 -61z" />
    <glyph glyph-name="parenleft" unicode="(" horiz-adv-x="371" 
d="M257 707q35 0 61 -24.5t26 -58.5q0 -27 -25 -63q-64 -93 -84 -142.5t-20 -115.5q0 -92 42 -171q4 -7 66 -95q21 -30 21 -59q0 -34 -26 -59.5t-61 -25.5q-73 0 -149 138q-75 135 -75 272q0 162 104 317q58 87 120 87z" />
    <glyph glyph-name="parenright" unicode=")" horiz-adv-x="371" 
d="M115 707q72 0 147.5 -137t75.5 -273q0 -164 -104 -317q-59 -87 -119 -87q-36 0 -62 24.5t-26 58.5q0 27 25 63q64 93 84 142.5t20 115.5q0 92 -42 171q-4 7 -66 95q-21 30 -21 60q0 34 26 59t62 25z" />
    <glyph glyph-name="asterisk" unicode="*" horiz-adv-x="374" 
d="M268 508l42 -23q31 -17 31 -44q0 -16 -11.5 -28t-27.5 -12q-14 0 -34 12l-38 23v-43q0 -55 -41 -55t-41 55v46l-47 -28q-13 -8 -28 -8q-16 0 -28 12t-12 28q0 25 26 40l44 25l-35 20q-33 19 -33 44q0 16 12 28t28 12q13 0 36 -13l37 -21v50q0 49 40 49q42 0 42 -50v-46
l44 26q12 7 26 7q17 0 28.5 -12t11.5 -29q0 -24 -26 -39z" />
    <glyph glyph-name="plus" unicode="+" 
d="M316 266v-94q0 -76 -67 -76q-66 0 -66 77v93h-94q-76 0 -76 68q0 66 77 66h93v95q0 34 18.5 54.5t49.5 20.5q65 0 65 -75v-95h95q34 0 54.5 -18.5t20.5 -49.5q0 -66 -75 -66h-95z" />
    <glyph glyph-name="comma" unicode="," horiz-adv-x="275" 
d="M127 2q-34 0 -57.5 23.5t-23.5 56.5q0 38 27 63.5t67 25.5q47 0 79 -35.5t32 -87.5q0 -69 -44.5 -118t-106.5 -49q-48 0 -48 41q0 18 13 27q5 4 30 13.5t32 39.5z" />
    <glyph glyph-name="hyphen" unicode="-" horiz-adv-x="222" 
d="M146 187h-69q-77 0 -77 62t74 62h72q42 0 59 -18t17 -42q0 -64 -76 -64z" />
    <glyph glyph-name="hyphen" unicode="&#x2010;" horiz-adv-x="222" 
d="M146 187h-69q-77 0 -77 62t74 62h72q42 0 59 -18t17 -42q0 -64 -76 -64z" />
    <glyph glyph-name="period" unicode="." horiz-adv-x="275" 
d="M139 165q44 0 71.5 -24.5t27.5 -64.5q0 -39 -27.5 -62.5t-73.5 -23.5q-45 0 -72.5 24t-27.5 64q0 39 28 63t74 24z" />
    <glyph glyph-name="slash" unicode="/" horiz-adv-x="408" 
d="M378 602l-208 -630q-6 -20 -19 -51q-17 -29 -53 -29q-25 0 -43.5 17.5t-18.5 40.5q0 13 16 61l207 627q23 70 68 70q25 0 43.5 -16t18.5 -39q0 -18 -11 -51z" />
    <glyph glyph-name="zero" unicode="0" horiz-adv-x="560" 
d="M283 675q116 0 188.5 -95.5t72.5 -247.5t-73 -246t-191 -94t-190.5 93.5t-72.5 246.5q0 156 72.5 249.5t193.5 93.5zM279 486q-32 0 -51.5 -44t-19.5 -118q0 -63 20.5 -103t52.5 -40t52 43t20 112q0 67 -20.5 108.5t-53.5 41.5z" />
    <glyph glyph-name="one" unicode="1" horiz-adv-x="332" 
d="M90 149v295q-37 2 -58.5 23.5t-21.5 54.5q0 48 57.5 97.5t107.5 49.5q57 0 85 -43q15 -23 15 -81v-301q0 -53 4 -68.5t26 -55.5q13 -23 13 -44q0 -33 -31 -55t-77 -22q-70 0 -100 44q-20 30 -20 106z" />
    <glyph glyph-name="two" unicode="2" horiz-adv-x="495" 
d="M153 262h9q46 0 78 27.5t32 68.5q0 19 -9 41q14 28 14 49q0 42 -38 42q-34 0 -34 -31q0 -13 37 -52q18 -19 18 -49q0 -35 -28.5 -59.5t-69.5 -24.5q-63 0 -106 52t-43 128q0 94 66.5 157t167.5 63q97 0 157 -60.5t60 -157.5q0 -68 -29.5 -125t-114.5 -156q12 1 47 9t46 8
q32 0 50.5 -19.5t18.5 -53.5q0 -59 -36 -94q-26 -25 -76 -25h-210q-109 0 -109 94q0 33 16 61q9 17 38 53q26 32 48 54z" />
    <glyph glyph-name="three" unicode="3" horiz-adv-x="502" 
d="M261 277l-8 6q12 21 12 42q0 53 -42 81q11 16 30 30q29 22 29 39q0 12 -9.5 21t-22.5 9q-18 0 -47.5 -25.5t-61.5 -25.5q-33 0 -55 23.5t-22 58.5q0 59 56 99.5t138 40.5q90 0 146.5 -51.5t56.5 -133.5q0 -84 -68 -125q91 -46 91 -162q0 -89 -67 -151t-164 -62
q-103 0 -170 67.5t-67 171.5q0 78 41.5 129.5t103.5 51.5q41 0 66.5 -24t25.5 -64q0 -22 -31 -65q-13 -18 -13 -38q0 -45 42 -45q18 0 30 12t12 31q0 35 -32 59z" />
    <glyph glyph-name="four" unicode="4" horiz-adv-x="559" 
d="M457 558v-262q96 -2 96 -84q0 -36 -20.5 -58.5t-53.5 -22.5q22 -36 22 -56q0 -34 -31 -56.5t-76 -22.5q-46 0 -78 21q-36 24 -43 67q-2 11 -2 36q109 0 109 93q0 56 -45 83q-15 9 -52 12l-12 1v85l-63 -98h53q49 0 71 -14q35 -22 35 -70q0 -50 -38 -70q-20 -11 -83 -11
h-107q-58 0 -85 22q-41 33 -41 96q0 53 46 123l133 203q39 59 61 74q33 22 87 22q62 0 89.5 -26t27.5 -87z" />
    <glyph glyph-name="five" unicode="5" horiz-adv-x="505" 
d="M255 495v-35q112 -14 171.5 -75t59.5 -161t-66 -165.5t-167 -65.5q-104 0 -171.5 67.5t-67.5 173.5q0 77 40.5 127t103.5 50q39 0 65 -24t26 -59q0 -26 -29 -67q-12 -17 -12 -39q0 -20 12 -32.5t31 -12.5q20 0 33.5 14.5t13.5 36.5q0 40 -38 56l-7 3q8 25 8 41
q0 40 -30 68t-71 28q-45 0 -93 -34l19 171q7 65 31.5 85.5t94.5 20.5h113q79 0 111 -33t32 -79q0 -34 -20 -56.5t-50 -22.5q-13 0 -33 7q-25 9 -33 10q-11 2 -28 2h-49z" />
    <glyph glyph-name="six" unicode="6" horiz-adv-x="510" 
d="M212 290q-6 -28 -6 -49q0 -28 13.5 -46t35.5 -18q20 0 33 13.5t13 32.5q0 31 -39 50q-33 16 -45 31.5t-12 41.5q0 42 30 69t77 27q74 0 127.5 -62t53.5 -149q0 -101 -69 -169.5t-170 -68.5q-106 0 -173.5 70t-67.5 180q0 94 40 197t105 176q51 57 119 57q47 0 75 -21
t28 -56q0 -22 -8.5 -36t-42.5 -52q-22 -24 -45 -57q-32 -9 -48 -20q-43 -31 -43 -84q0 -28 19 -57z" />
    <glyph glyph-name="seven" unicode="7" horiz-adv-x="468" 
d="M254 494h-44q-37 0 -98 -19q-19 -6 -38 -6q-30 0 -50 24t-20 60q0 75 61 103q24 11 81 11h192q57 0 87 -19.5t30 -68.5q0 -40 -25 -109l-99 -275q-22 -60 -24 -103q-3 -49 -19 -67q-28 -30 -102 -30q-99 0 -99 80q0 25 25 84z" />
    <glyph glyph-name="eight" unicode="8" horiz-adv-x="506" 
d="M398 366q30 -20 43 -35q47 -51 47 -128q0 -93 -67 -152.5t-172 -59.5q-103 0 -168 59t-65 153q0 114 91 163q-30 14 -48 48.5t-18 76.5q0 80 59.5 132.5t150.5 52.5q95 0 154 -51t59 -133q0 -88 -66 -126zM252 507q-16 0 -27 -10t-11 -25t11.5 -25.5t27.5 -10.5
q38 0 38 36q0 35 -39 35zM250 279q-20 0 -33.5 -15.5t-13.5 -38.5q0 -52 49 -52q22 0 35.5 15t13.5 38t-14.5 38t-36.5 15z" />
    <glyph glyph-name="nine" unicode="9" horiz-adv-x="505" 
d="M231 214q85 29 85 102q0 28 -22 61q4 35 4 46q0 29 -14 47.5t-36 18.5q-19 0 -32 -12.5t-13 -32.5q0 -27 26 -43q23 -13 47 -26q26 -21 26 -59q0 -41 -31 -67.5t-78 -26.5q-74 0 -128 62.5t-54 148.5q0 103 68.5 171t172.5 68q107 0 173.5 -69t66.5 -181
q0 -157 -109 -349q-26 -45 -52 -62.5t-67 -17.5q-48 0 -77.5 22.5t-29.5 59.5q0 27 29 73q22 33 45 66z" />
    <glyph glyph-name="colon" unicode=":" horiz-adv-x="275" 
d="M139 446q44 0 71.5 -24.5t27.5 -64.5q0 -39 -27.5 -62.5t-73.5 -23.5q-45 0 -72.5 24t-27.5 64q0 39 28 63t74 24zM139 165q44 0 71.5 -24.5t27.5 -64.5q0 -39 -27.5 -62.5t-73.5 -23.5q-45 0 -72.5 24t-27.5 64q0 39 28 63t74 24z" />
    <glyph glyph-name="semicolon" unicode=";" horiz-adv-x="275" 
d="M128 2q-34 0 -57.5 23.5t-23.5 56.5q0 38 27 63.5t67 25.5q47 0 79 -35.5t32 -87.5q0 -69 -44.5 -118t-106.5 -49q-48 0 -48 41q0 16 7.5 22.5t36.5 18.5q24 9 31 39zM139 446q44 0 71.5 -24.5t27.5 -64.5q0 -39 -27.5 -62.5t-73.5 -23.5q-45 0 -72.5 24t-27.5 64
q0 39 28 63t74 24z" />
    <glyph glyph-name="less" unicode="&#x3c;" 
d="M466 658v-189l-233 -131l233 -132v-187l-433 241v158z" />
    <glyph glyph-name="equal" unicode="=" 
d="M90 500h322q34 0 54.5 -18.5t20.5 -49.5q0 -66 -75 -66h-323q-76 0 -76 68q0 66 77 66zM90 300h322q34 0 54.5 -18.5t20.5 -49.5q0 -66 -75 -66h-323q-76 0 -76 68q0 66 77 66z" />
    <glyph glyph-name="greater" unicode="&#x3e;" 
d="M33 19v189l233 131l-232 132l-1 187l433 -241v-158z" />
    <glyph glyph-name="question" unicode="?" horiz-adv-x="481" 
d="M174 160q-12 20 -12 44q0 19 12 56q43 4 67 22q36 27 36 68q0 32 -16 55q15 24 15 41q0 39 -34 39q-13 0 -23 -9.5t-10 -23.5q0 -12 30 -39q25 -23 25 -61q0 -35 -27 -57.5t-70 -22.5q-65 0 -107.5 51t-42.5 128q0 97 64.5 159.5t165.5 62.5q96 0 156.5 -57.5
t60.5 -150.5q0 -63 -33 -121q-6 -11 -49 -67q-40 -52 -55 -117q-41 24 -80 24q-38 0 -73 -24zM250 170q43 0 72.5 -26t29.5 -64t-28.5 -62t-72.5 -24q-45 0 -73 24.5t-28 64.5q0 39 28 63t72 24z" />
    <glyph glyph-name="at" unicode="@" horiz-adv-x="758" 
d="M431 310v22q0 61 -40 61q-42 0 -42 -44q0 -46 66 -48q18 -1 31 -15.5t13 -34.5q0 -28 -23 -46t-58 -18q-56 0 -92 39.5t-36 101.5q0 64 35.5 107t87.5 43q32 0 65 -25q18 25 44 25q35 0 48 -26q5 -10 5 -44v-76q0 -35 21 -35t39 33.5t18 72.5q0 58 -49 108
q-70 71 -169 71q-103 0 -174 -72t-71 -176t70.5 -176t173.5 -72q122 0 232 54q31 15 43 15q17 0 29.5 -15.5t12.5 -36.5q0 -35 -54 -61q-122 -59 -266 -59q-145 0 -248 103t-103 248t103.5 247.5t249.5 102.5q130 0 227.5 -81.5t97.5 -191.5q0 -94 -61.5 -159t-150.5 -65
q-36 0 -56 16q22 19 22 48q0 41 -41 59z" />
    <glyph glyph-name="A" unicode="A" horiz-adv-x="808" 
d="M460 97l-13 -60q-21 -98 -53 -141q-59 -79 -164 -79q-97 0 -160.5 63t-63.5 160q0 101 66.5 176.5t154.5 75.5q57 0 96.5 -33.5t39.5 -82.5q0 -43 -36 -71q-22 -18 -81 -19q-62 -2 -62 -53q0 -35 29 -35q17 0 26 14t21 61q18 1 49 8q67 26 67 99q0 59 -57 98l78 270
q19 66 33 84q31 40 91 40q55 0 86 -40q18 -23 38 -85l104 -325q13 -40 23 -63q4 -10 8 -16l17 -29q11 -19 11 -39q0 -34 -29 -56t-74 -22q-71 0 -100 52q-7 13 -15 39l-4 9h-126zM489 222h66l-34 140z" />
    <glyph glyph-name="B" unicode="B" horiz-adv-x="717" 
d="M602 344l6 -5l16 -9q33 -19 54 -60t21 -88q0 -101 -71 -151q-44 -31 -132 -31h-116q-49 0 -62 2q-57 8 -76 55q-10 24 -10 83v50q87 30 87 111q0 66 -80 99l-7 4v91q-51 -4 -51 -49q0 -20 12 -32t50 -29q64 -28 64 -84q0 -43 -33.5 -73.5t-80.5 -30.5q-82 0 -136 64
t-54 161q0 78 37.5 138t102.5 86q53 21 157 21h146q59 0 83 -3q44 -7 78.5 -28.5t56 -62.5t21.5 -87q0 -96 -83 -142zM417 252v-81h40q55 0 55 40q0 27 -23 36q-10 5 -40 5h-32zM417 495v-78h28q23 0 31 4q21 10 21 36q0 38 -44 38h-36z" />
    <glyph glyph-name="C" unicode="C" horiz-adv-x="503" 
d="M296 675q76 0 130.5 -42t54.5 -100q0 -39 -24 -65.5t-59 -26.5q-19 0 -66 22q-19 9 -39 9q-35 0 -58 -36.5t-23 -94.5q0 -55 24 -92t60 -37q20 0 47 14q50 26 68 26q34 0 60 -29t26 -67q0 -67 -61.5 -115.5t-145.5 -48.5q-119 0 -193 95t-74 248q0 152 75.5 246t197.5 94
z" />
    <glyph glyph-name="D" unicode="D" horiz-adv-x="735" 
d="M232 134v57q87 32 87 111q0 55 -47 84l-40 18v90q-51 -3 -51 -48q0 -37 56 -57q70 -25 70 -88q0 -43 -34 -73.5t-83 -30.5q-79 0 -133.5 64.5t-54.5 157.5q0 134 98 203q64 45 206 45h67q149 0 226 -64q113 -94 113 -277q0 -100 -36.5 -180t-98.5 -115q-54 -31 -160 -31
h-51q-75 0 -104.5 28.5t-29.5 105.5zM417 488v-314h6q45 0 72.5 41.5t27.5 109.5q0 148 -106 163z" />
    <glyph glyph-name="E" unicode="E" horiz-adv-x="674" 
d="M416 418h84q51 0 75 -9q44 -17 44 -75q0 -59 -49 -75q-21 -7 -79 -7h-75v-81h34q39 0 99 19q19 6 37 6q32 0 52.5 -22.5t20.5 -58.5q0 -38 -19.5 -67t-51.5 -40q-24 -8 -99 -8h-94q-53 0 -69 2q-40 5 -62 24q-25 21 -31 63q-1 6 -1 47v55q87 31 87 112q0 66 -77 97l-10 4
v90q-50 -2 -50 -47q0 -34 55 -58q69 -30 69 -86q0 -43 -34 -74t-81 -31q-79 0 -133.5 64.5t-54.5 159.5q0 110 69.5 178t181.5 68h23h15q9 -1 12 -1h112q82 0 108 -2.5t52 -12.5q70 -27 70 -106q0 -33 -19 -54t-49 -21q-14 0 -52 13q-29 10 -63 10h-47v-76z" />
    <glyph glyph-name="F" unicode="F" horiz-adv-x="673" 
d="M434 419h73q73 0 95 -14q36 -23 36 -69q0 -84 -97 -84q-12 0 -22 1h-85v-175q0 -103 -19 -147q-49 -115 -188 -115q-97 0 -158.5 66.5t-61.5 172.5q0 97 55.5 163t138.5 66q52 0 86 -30t34 -76q0 -54 -54 -79q-5 -3 -41 -15q-45 -14 -45 -52q0 -16 10 -27t25 -11
q27 0 31 38q2 9 2 46q85 26 85 100q0 81 -85 111v159q0 39 -3 53t-18 35q-20 29 -20 54q0 61 76 73q22 4 72 4h106q102 0 136 -15q66 -29 66 -104q0 -34 -19 -55.5t-50 -21.5q-14 0 -51 14q-26 10 -64 10h-46v-76z" />
    <glyph glyph-name="G" unicode="G" horiz-adv-x="532" 
d="M315 232v10q0 24 -3.5 35t-21.5 42q-9 16 -9 33q0 37 30 60.5t77 23.5q76 0 100 -57q10 -24 10 -102v-209q0 -60 -3 -82q-6 -43 -27 -77q-58 -93 -201 -93q-105 0 -174.5 59.5t-69.5 149.5q0 54 29.5 87t76.5 33q52 0 74 -36q10 -16 27 -83q8 -32 42 -32q43 0 43 57
l-9 -1q-33 -7 -47 -7q-10 0 -21 2l-4 14q-15 53 -31 70q-27 29 -72 29q-41 0 -73 -24q-49 82 -49 202q0 165 86 260q73 81 200 81q86 0 142 -37.5t56 -95.5q0 -35 -25 -60t-60 -25q-25 0 -59 10q-48 14 -61 14q-41 0 -64.5 -38t-23.5 -102q0 -56 20.5 -91t54.5 -35
q16 0 40 15z" />
    <glyph glyph-name="H" unicode="H" horiz-adv-x="751" 
d="M433 432h77q0 55 -4 71t-27 49q-13 19 -13 38q0 35 31 58t78 23q86 0 110 -61q9 -23 9 -94v-257q0 -65 4.5 -83.5t30.5 -67.5q9 -17 9 -35q0 -34 -30.5 -55.5t-77.5 -21.5q-74 0 -105 53q-15 26 -15 95v120h-77v-177q0 -76 -4 -105q-9 -56 -41 -95q-59 -71 -160 -71
q-98 0 -160 66t-62 171q0 99 55.5 164.5t140.5 65.5q53 0 86 -30t33 -77q0 -63 -74 -86q-39 -12 -53 -24t-14 -32q0 -17 10.5 -29t25.5 -12q23 0 29 22q3 10 3 40v23q86 24 86 98q0 82 -86 113v164q0 41 -3 53.5t-18 34.5q-21 30 -21 53q0 33 31 55t77 22q55 0 88 -33
q22 -22 28 -51q3 -16 3 -58v-97z" />
    <glyph glyph-name="I" unicode="I" horiz-adv-x="473" 
d="M232 407v89q-50 -2 -50 -47q0 -34 48 -55q76 -33 76 -90q0 -43 -33 -73t-80 -30q-82 0 -136 63t-54 158q0 80 38.5 140.5t106.5 86.5q50 19 142 19q64 0 92 -21t33 -63q1 -9 1 -54v-285q0 -57 3 -72.5t20 -42.5q21 -33 21 -53q0 -34 -31 -56.5t-78 -22.5q-79 0 -107 60
q-12 26 -12 90v46q87 29 87 111q0 43 -32 71q-14 12 -44 26z" />
    <glyph glyph-name="J" unicode="J" horiz-adv-x="472" 
d="M249 288v137q0 48 -5 59.5t-19 11.5q-11 0 -33 -9q-51 -21 -73 -21q-29 0 -49.5 25t-20.5 60q0 68 58 101q26 15 89 15h88q48 0 65 -3q36 -6 57.5 -28t26.5 -59q1 -8 1 -64v-426q0 -81 -4 -110.5t-21 -60.5q-53 -101 -182 -101q-97 0 -158.5 67.5t-61.5 173.5
q0 95 56 160.5t138 65.5q54 0 87.5 -29.5t33.5 -76.5q0 -38 -29 -63q-17 -15 -66 -30q-45 -14 -45 -51q0 -16 10 -27.5t24 -11.5q33 0 33 66v19q84 20 84 98q0 88 -84 112z" />
    <glyph glyph-name="K" unicode="K" horiz-adv-x="734" 
d="M590 349l80 -160q14 -28 32 -52q29 -39 29 -66q0 -34 -26.5 -55t-69.5 -21q-77 0 -121 92l-81 170v-190q0 -100 -25 -149q-52 -102 -182 -102q-96 0 -157.5 67t-61.5 172q0 96 55.5 162t137.5 66q53 0 87 -30t34 -77q0 -66 -80 -89q-35 -10 -47.5 -21.5t-12.5 -33.5
q0 -39 36 -39q32 0 32 60v24q84 29 84 99q0 46 -31 80q-17 19 -53 32v162q0 42 -3.5 55t-23.5 43q-16 25 -16 45q0 33 31 55.5t77 22.5q80 0 109 -62q10 -21 10 -70v-116l32 71q6 13 17 50l4 21l2 28q2 35 30.5 56t72.5 21q47 0 77 -24.5t30 -61.5q0 -24 -27 -77z" />
    <glyph glyph-name="L" unicode="L" horiz-adv-x="619" 
d="M231 403v90q-22 0 -36.5 -13.5t-14.5 -34.5q0 -22 18 -37q4 -4 53 -28q54 -25 54 -76q0 -46 -33 -76.5t-83 -30.5q-79 0 -133 63.5t-54 155.5q0 127 82 194q68 55 202 55q82 0 110 -40q13 -19 16 -37t3 -85v-279q0 -35 5 -44.5t18 -9.5t39 11q44 19 65 19
q33 0 53.5 -23.5t20.5 -61.5q0 -61 -54 -97q-27 -18 -96 -18h-92q-82 0 -110 24q-33 28 -33 95v71q39 13 63 43.5t24 67.5q0 62 -76 97z" />
    <glyph glyph-name="M" unicode="M" horiz-adv-x="817" 
d="M504 518l32 43q51 68 74.5 88.5t55.5 20.5q65 0 85 -52q9 -23 9 -70v-307q0 -75 23 -112q21 -33 21 -55q0 -35 -30.5 -57t-78.5 -22q-80 0 -109 63q-11 24 -11 83v206l-20 -28q-32 -45 -51 -45q-13 0 -39 33l-32 40v-265q0 -110 -21 -156q-49 -109 -187 -109
q-95 0 -156.5 66.5t-61.5 169.5q0 99 55.5 164.5t138.5 65.5q51 0 85.5 -30.5t34.5 -76.5q0 -35 -18.5 -54.5t-67.5 -35.5q-53 -17 -53 -52q0 -16 9.5 -28t23.5 -12q33 0 33 48v36q38 13 54 26q32 26 32 72q0 65 -51 97q-10 6 -35 17v156q0 41 -3.5 53.5t-24.5 46.5
q-14 23 -14 45q0 34 28.5 56.5t72.5 22.5q49 0 88 -31q10 -8 74 -81z" />
    <glyph glyph-name="N" unicode="N" horiz-adv-x="738" 
d="M431 234v-153q0 -83 -8 -117q-16 -68 -69 -108t-129 -40q-97 0 -157.5 65.5t-60.5 170.5q0 100 55 165t139 65q52 0 86 -30t34 -76q0 -65 -75 -87q-35 -10 -47 -20q-18 -15 -18 -36q0 -17 10 -28.5t24 -11.5q33 0 33 57v27q85 28 85 100q0 78 -77 108l-8 4v167
q0 36 -4.5 50.5t-29.5 52.5q-9 14 -9 33q0 33 30.5 55.5t74.5 22.5q80 0 121 -81l85 -169v41q0 44 -22 75t-22 55q0 33 31.5 55.5t78.5 22.5q82 0 107 -57q11 -25 11 -95v-397q0 -55 -11 -79q-21 -46 -74 -46q-35 0 -56 18.5t-51 74.5z" />
    <glyph glyph-name="O" unicode="O" horiz-adv-x="614" 
d="M311 675q68 0 128 -33.5t98 -92.5q56 -88 56 -212q0 -151 -79.5 -248t-203.5 -97q-134 0 -216 106q-73 94 -73 243q0 151 79.5 242.5t210.5 91.5zM306 496q-42 0 -68 -41.5t-26 -108.5q0 -73 27 -118.5t69 -45.5q43 0 68.5 43.5t25.5 116.5q0 70 -26.5 112t-69.5 42z" />
    <glyph glyph-name="P" unicode="P" horiz-adv-x="709" 
d="M249 288v109q0 73 -2.5 93t-14.5 39q-24 38 -24 60q0 51 49 68q30 10 94 10h69q142 0 207 -56q76 -65 76 -178q0 -76 -38.5 -135.5t-101.5 -82.5q-36 -13 -128 -17v-122q0 -66 -4 -92q-7 -49 -32 -85q-58 -83 -171 -83q-99 0 -160 65t-61 171q0 98 55 164t137 66
q55 0 89 -30t34 -78q0 -60 -80 -86q-60 -19 -60 -56q0 -15 10.5 -26.5t23.5 -11.5q33 0 33 62v21q86 30 86 101q0 57 -48 92q-11 8 -38 18zM435 492v-117h13q71 0 71 58q0 40 -33 53q-16 6 -51 6z" />
    <glyph glyph-name="Q" unicode="Q" horiz-adv-x="610" 
d="M536 150q76 -11 114.5 -33.5t61 -59t22.5 -75.5q0 -44 -29.5 -75t-71.5 -31q-51 0 -99 56q-40 47 -70.5 58t-60.5 11q-16 0 -48.5 -2.5t-48.5 -2.5q-136 0 -218 94t-82 251q0 151 80 245t208 94q123 0 204 -94.5t81 -238.5q0 -105 -43 -197zM289 495q-41 0 -66 -40
t-25 -106q0 -76 26 -119.5t70 -43.5q43 0 68 40t25 111q0 74 -26 116t-72 42z" />
    <glyph glyph-name="R" unicode="R" horiz-adv-x="741" 
d="M433 222v-158q0 -66 -3.5 -89.5t-18.5 -52.5q-55 -107 -183 -107q-100 0 -160.5 65.5t-60.5 173.5q0 97 55.5 162.5t137.5 65.5q52 0 86 -29.5t34 -75.5q0 -64 -76 -89q-62 -20 -62 -57q0 -16 9.5 -27t23.5 -11q23 0 30 22q3 11 3 43v19q85 24 85 99t-76 109l-9 4v138
q0 57 -4 72t-26 50q-11 17 -11 42q0 42 36 61q28 15 119 15h76q136 0 198 -47q79 -60 79 -164q0 -107 -81 -161l-9 -6q32 -32 61 -101q8 -21 29 -63q19 -32 19 -50q0 -35 -29.5 -57.5t-75.5 -22.5q-66 0 -94 43q-9 14 -36 95q-26 78 -66 89zM433 491v-110h21q37 0 54.5 14
t17.5 42q0 55 -76 55q-9 0 -17 -1z" />
    <glyph glyph-name="S" unicode="S" horiz-adv-x="534" 
d="M158 294q-41 34 -60 57q-44 53 -44 123q0 86 65 143t163 57q83 0 141.5 -42t58.5 -101q0 -39 -26.5 -68t-61.5 -29q-24 0 -45 14q-9 6 -37 33q-14 13 -29 13q-30 0 -30 -27q0 -20 32 -42q93 -65 161 -141q82 -92 82 -219q0 -121 -78 -194q-69 -65 -182 -65
q-117 0 -190 71t-73 185q0 95 55 159.5t137 64.5q54 0 87.5 -29.5t33.5 -77.5q0 -54 -70 -85q-29 -13 -39.5 -25t-10.5 -33q0 -23 17.5 -38t42.5 -15q32 0 53.5 25t21.5 63q0 25 -16 60q13 26 13 52q0 50 -36.5 82.5t-92.5 32.5q-15 0 -43 -4z" />
    <glyph glyph-name="T" unicode="T" horiz-adv-x="610" 
d="M432 492v-414q0 -67 -3 -93q-7 -49 -32 -86q-55 -82 -171 -82q-100 0 -159.5 65t-59.5 175q0 97 55 161t139 64q51 0 85 -29.5t34 -74.5q0 -51 -43 -75q-12 -7 -47 -18q-49 -16 -49 -52q0 -38 32 -38q34 0 34 56v29q85 23 85 100q0 81 -85 109v203q-19 0 -49 -14
q-35 -17 -53 -17q-32 0 -53.5 25t-21.5 62q0 70 61 103q29 16 104 16h206q47 0 65 -3q34 -5 59 -25q44 -34 44 -91q0 -38 -21 -62t-54 -24q-18 0 -48 13.5t-54 16.5z" />
    <glyph glyph-name="U" unicode="U" horiz-adv-x="714" 
d="M680 511v-280q0 -91 -27.5 -138t-79.5 -74t-116 -27q-74 0 -128.5 32.5t-79.5 91.5q-12 29 -16 77q86 29 86 111q0 60 -73 94l-13 6v90q-51 -5 -51 -47q0 -23 18 -38q7 -6 49 -26q58 -28 58 -82q0 -42 -34 -72.5t-80 -30.5q-82 0 -136 63t-54 160q0 119 79 187
q67 58 193 58q84 0 111 -25q24 -22 29 -58q1 -7 1 -67v-257q0 -65 6 -77q10 -20 33 -20q33 0 39 35q2 22 2 64v188q0 48 -3.5 61t-26.5 45q-14 20 -14 38q0 35 30.5 57t77.5 22q65 0 97 -41q16 -20 19.5 -39t3.5 -81z" />
    <glyph glyph-name="V" unicode="V" horiz-adv-x="726" 
d="M466 304l35 156q12 53 12 80q0 7 -4 39v9q0 36 31 59t79 23t77.5 -23.5t29.5 -61.5q0 -24 -19 -88l-105 -354q-24 -81 -46 -107q-35 -41 -90 -41q-96 0 -133 131l-34 119q18 32 18 58q0 36 -22 64q-11 15 -42 30l-14 51q-11 39 -25 39q-32 0 -32 -37q0 -34 44.5 -54
t57.5 -35q20 -23 20 -56q0 -45 -33 -74.5t-83 -29.5q-81 0 -133.5 64.5t-52.5 162.5q0 107 71 175q67 64 199 64q71 0 101 -29q21 -21 42 -111z" />
    <glyph glyph-name="W" unicode="W" horiz-adv-x="1006" 
d="M774 356l15 82q12 66 12 95q0 10 -4 29t-4 29q0 36 27 57t74 21q112 0 112 -87q0 -25 -16 -91l-87 -357q-13 -55 -21.5 -74t-24.5 -34q-33 -31 -85 -31q-50 0 -77.5 30t-43.5 102l-41 181l-37 -182q-15 -72 -34 -95q-29 -35 -88 -35q-51 0 -79 27.5t-46 96.5l-31 116
q22 36 22 67q0 44 -34 72q-5 4 -28 19l-13 49q-11 43 -28 43q-13 0 -23 -11.5t-10 -25.5q0 -25 19 -42q6 -5 42 -21q63 -27 63 -84q0 -46 -33 -75t-84 -29q-80 0 -132.5 63.5t-52.5 161.5q0 120 82 187q67 55 194 55q78 0 106 -47q15 -26 31 -102l33 -160l37 181
q14 69 34 93q29 35 84 35q65 0 96 -44q15 -22 30 -83z" />
    <glyph glyph-name="X" unicode="X" horiz-adv-x="701" 
d="M382 594l39 -78q21 28 28 78q10 75 108 75q46 0 74.5 -23t28.5 -59q0 -44 -51 -125l-72 -114l90 -145q12 -19 22 -33q2 -3 12 -16q43 -55 43 -84q0 -34 -28 -54t-77 -20q-43 0 -68 17t-49 63l-61 115q-36 -62 -39 -104t-19 -59q-31 -34 -89 -34q-50 0 -80 25t-30 66
q0 38 45 106q53 7 78 25q45 34 45 89q0 56 -50 91l-40 62q-21 33 -33 33q-11 0 -19.5 -11t-8.5 -26q0 -21 12 -32t48 -22q79 -24 79 -95q0 -47 -35.5 -75t-93.5 -28q-83 0 -135.5 62.5t-52.5 162.5q0 110 67.5 176t180.5 66q51 0 80.5 -16.5t50.5 -58.5z" />
    <glyph glyph-name="Y" unicode="Y" horiz-adv-x="663" 
d="M415 488l7 13q25 46 29 78q6 44 21 61q26 29 82 29q49 0 79 -24t30 -63q0 -31 -35 -89l-133 -221v-16q0 -66 5 -85t33 -69q6 -10 6 -29q0 -34 -31 -56.5t-78 -22.5q-88 0 -112 70q-8 24 -8 87v73q30 35 30 78q0 80 -82 105l-29 56q-11 22 -22 22q-10 0 -18 -11t-8 -25
q0 -20 14 -32.5t62 -23.5q32 -7 51 -32.5t19 -59.5q0 -46 -35.5 -75t-91.5 -29q-48 0 -93 25t-71 67q-35 56 -35 131q0 113 68.5 180.5t182.5 67.5q46 0 69 -14.5t42 -54.5z" />
    <glyph glyph-name="Z" unicode="Z" horiz-adv-x="454" 
d="M403 489l-154 -318q50 1 83 13.5t44 12.5q34 0 54.5 -24t20.5 -64q0 -65 -55 -93q-31 -16 -114 -16h-160q-104 0 -104 85q0 23 27 79l159 330q-50 -1 -102 -21q-10 -4 -27 -4q-31 0 -51.5 25t-20.5 63q0 66 57 97q24 13 94 13h158q120 0 120 -88q0 -30 -29 -90z" />
    <glyph glyph-name="bracketleft" unicode="[" horiz-adv-x="388" 
d="M231 566v-534h24q45 0 65 -20t20 -50q0 -38 -31 -58q-17 -11 -54 -11h-54q-56 0 -97.5 40.5t-41.5 129.5v474q0 88 41 129t98 41h53q44 0 65 -21t21 -50q0 -28 -21 -49t-64 -21h-24z" />
    <glyph glyph-name="backslash" unicode="\" horiz-adv-x="408" 
d="M238 -28l-208 630q-10 30 -10 51q0 23 18.5 39t43.5 16q45 0 68 -70l207 -627q15 -45 15 -61q0 -23 -18.5 -40.5t-43.5 -17.5q-36 0 -52 29q-4 6 -20 51z" />
    <glyph glyph-name="bracketright" unicode="]" horiz-adv-x="388" 
d="M157 34v534h-24q-45 0 -65 20t-20 50q0 38 31 58q17 11 54 11h54q56 0 97.5 -40.5t41.5 -129.5v-474q0 -88 -41 -129t-98 -41h-53q-44 0 -65 21t-21 50q0 28 21 49t64 21h24z" />
    <glyph glyph-name="asciicircum" unicode="^" 
d="M171 337h-165l139 335h209l140 -335h-165l-79 207z" />
    <glyph glyph-name="underscore" unicode="_" 
d="M0 -49h500v-110h-500v110z" />
    <glyph glyph-name="grave" unicode="`" 
d="M213 702q34 0 59 -41q28 -46 28 -79q0 -23 -16 -39t-40 -16q-34 0 -56 30q-35 47 -35 85q0 25 17.5 42.5t42.5 17.5z" />
    <glyph glyph-name="a" unicode="a" horiz-adv-x="534" 
d="M317 194v44q0 57 -15 80t-52 23q-31 0 -51 -20.5t-20 -52.5q0 -55 49 -73q19 -7 61 -8q30 -1 52 -25.5t22 -57.5q0 -46 -38 -76.5t-97 -30.5q-94 0 -153.5 66t-59.5 169q0 106 59 178t146 72q52 0 109 -42q28 41 74 41q41 0 64.5 -22.5t23.5 -60.5v-17q-1 -7 -1 -16v-155
q0 -44 3 -56.5t18 -30.5q22 -27 22 -47q0 -33 -30 -56t-73 -23q-49 0 -87 29q33 32 33 78q0 64 -59 90z" />
    <glyph glyph-name="b" unicode="b" horiz-adv-x="528" 
d="M211 533v-84q47 32 96 32q88 0 147 -73t59 -183q0 -100 -60.5 -164.5t-153.5 -64.5q-59 0 -97 30.5t-38 77.5q0 42 32 67q13 10 22 12t53 5q35 2 56 23t21 55q0 31 -20.5 52.5t-50.5 21.5q-49 0 -62 -47q-4 -16 -4 -57v-42q-61 -28 -61 -89q0 -40 34 -81q-32 -28 -66 -28
q-80 0 -80 106v370q0 34 -3 45.5t-16 32.5q-21 33 -21 51q0 29 29 49t72 20q69 0 97 -46q15 -25 15 -91z" />
    <glyph glyph-name="c" unicode="c" horiz-adv-x="439" 
d="M257 484q70 0 119.5 -36t49.5 -87q0 -34 -23.5 -58t-55.5 -24q-23 0 -60 32q-17 15 -40 15q-27 0 -46 -21t-19 -52q0 -32 20.5 -54.5t48.5 -22.5q14 0 55 19q24 11 47 11q35 0 60.5 -25.5t25.5 -61.5q0 -46 -39 -80q-54 -47 -148 -47q-103 0 -170 69t-67 174
q0 109 68 179t174 70z" />
    <glyph glyph-name="d" unicode="d" horiz-adv-x="535" 
d="M317 448v41q0 36 -24 70q-16 23 -16 38q0 31 29 51.5t74 20.5q85 0 105 -68q5 -17 5 -109v-289q0 -39 3.5 -52.5t20.5 -33.5q19 -23 19 -40q0 -34 -30 -57.5t-73 -23.5q-44 0 -86 28q32 40 32 78q0 66 -59 91v44q0 52 -8 68q-17 35 -58 35q-31 0 -51.5 -21t-20.5 -52
q0 -45 34 -67q19 -12 63 -14q48 -2 69 -30q18 -24 18 -53q0 -47 -38 -77t-97 -30q-92 0 -153 65.5t-61 164.5q0 109 59 181.5t147 72.5q48 0 97 -32z" />
    <glyph glyph-name="e" unicode="e" horiz-adv-x="473" 
d="M370 213h-177q21 -43 76 -43q23 0 55.5 12.5t45.5 12.5q29 0 52 -23t23 -52q0 -55 -54 -91.5t-134 -36.5q-105 0 -173.5 70t-68.5 179q0 105 63 173t160 68q65 0 118 -28.5t82 -78.5q25 -44 25 -86q0 -62 -51 -73q-12 -3 -42 -3zM178 299h83q45 0 45 24q0 16 -17.5 27.5
t-42.5 11.5q-62 0 -68 -63z" />
    <glyph glyph-name="f" unicode="f" horiz-adv-x="333" 
d="M221 480v-24q32 -1 44 -7q34 -16 34 -63q0 -67 -71 -73q-1 -14 -1 -26q0 -102 2 -116q3 -17 7.5 -25.5t28.5 -40.5q9 -12 9 -29q0 -34 -31 -56.5t-78 -22.5q-41 0 -70 18t-37 48q-4 15 -4 78v172q-60 13 -60 72q0 63 60 71q0 58 3 80q8 62 52 97.5t111 35.5
q66 0 110 -32.5t44 -81.5q0 -25 -18.5 -44t-42.5 -19q-13 0 -45 13q-12 5 -23 5q-24 0 -24 -30z" />
    <glyph glyph-name="g" unicode="g" horiz-adv-x="480" 
d="M235 27q-18 0 -51 7q-5 -10 -5 -20q0 -34 43 -34q42 0 42 39q0 5 -7 35q-3 13 -3 21q0 33 24.5 55.5t59.5 22.5q47 0 81.5 -41t34.5 -99q0 -72 -51 -128q-58 -64 -164 -64q-96 0 -157 52.5t-61 134.5q0 55 33 109q-43 60 -43 132q0 80 54 146q62 75 176 80l48 2
q20 1 55 13q46 16 65 16q27 0 47 -22.5t20 -52.5q0 -57 -58 -68q45 -55 45 -125q0 -59 -35 -116l-14 14q-30 30 -79 30q-37 0 -65.5 -26.5t-28.5 -60.5q0 -25 9 -52h-15zM236 318q-28 0 -48 -20.5t-20 -49.5t20 -49.5t49 -20.5t49 20.5t20 50.5q0 29 -20.5 49t-49.5 20z" />
    <glyph glyph-name="h" unicode="h" horiz-adv-x="523" 
d="M212 543v-88q52 26 105 26q67 0 112 -38.5t45 -129.5v-99q0 -40 4 -54q4 -18 26 -45q17 -23 17 -40q0 -33 -32 -56t-78 -23q-61 0 -92 39q-13 16 -16 32.5t-3 63.5v120q0 44 -5 55q-11 24 -41 24q-25 0 -42 -17v-105q0 -42 4.5 -55t26.5 -40q15 -18 15 -38
q0 -32 -32 -55.5t-77 -23.5q-65 0 -95 46q-11 17 -13 31t-2 71v299q0 59 -2 69q-3 17 -28 55q-10 15 -10 33q0 30 30 50t74 20q75 0 100 -57q9 -20 9 -70z" />
    <glyph glyph-name="i" unicode="i" horiz-adv-x="271" 
d="M45 138v142q0 38 -3.5 50.5t-25.5 46.5q-11 17 -11 33q0 29 31 50t74 21q70 0 97 -53q11 -22 11 -74v-125q0 -53 4 -68.5t27 -45.5q16 -21 16 -39q0 -34 -32 -57t-79 -23q-76 0 -101 55q-8 17 -8 87zM117 670q43 0 71.5 -25t28.5 -63t-28.5 -62.5t-72.5 -24.5t-72.5 25
t-28.5 64q0 38 28.5 62t73.5 24z" />
    <glyph glyph-name="j" unicode="j" horiz-adv-x="271" 
d="M237 330v-297q0 -59 -2 -77q-6 -43 -27 -71q-46 -59 -138 -59q-63 0 -106 30.5t-43 75.5q0 29 18 47t48 18q7 0 22 -1.5t22 -1.5q33 0 33 55v229q0 40 -3.5 51.5t-22.5 39.5q-14 20 -14 38q0 31 29.5 51t73.5 20q76 0 101 -55q9 -20 9 -93zM136 668q43 0 71.5 -25
t28.5 -62q0 -39 -28 -63.5t-72 -24.5q-45 0 -73.5 25t-28.5 65q0 38 28 61.5t74 23.5z" />
    <glyph glyph-name="k" unicode="k" 
d="M386 266l35 -69q15 -29 44 -63q35 -41 35 -67q0 -30 -29 -51t-70 -21q-52 0 -82 35q-5 6 -29 50l-77 142q-1 -10 -1 -23q0 -46 17 -69q26 -35 26 -55q0 -33 -30 -55.5t-76 -22.5q-68 0 -95 48q-11 19 -13 34.5t-2 74.5v298q0 51 -3 64.5t-20 40.5t-17 43q0 31 29 51
t75 20q72 0 98 -51q12 -24 12 -83v-226l38 43q21 24 22 59q2 70 88 70q51 0 80.5 -20.5t29.5 -55.5t-33 -76z" />
    <glyph glyph-name="l" unicode="l" horiz-adv-x="267" 
d="M213 529v-276q0 -45 2 -73.5t19 -50.5q20 -25 23.5 -32t3.5 -21q0 -35 -31.5 -57.5t-79.5 -22.5q-73 0 -100 52q-7 14 -8.5 28.5t-1.5 79.5v307q0 46 -3 58t-22 39q-15 21 -15 38q0 30 30 51t73 21q84 0 104 -65q6 -19 6 -76z" />
    <glyph glyph-name="m" unicode="m" horiz-adv-x="720" 
d="M42 132v138q0 59 -18 90.5t-18 47.5q0 31 27.5 52t66.5 21q52 0 88 -42q52 41 110 41q59 0 105 -41q50 40 116 40q107 0 142 -89q14 -36 14 -126v-71q0 -34 3.5 -45t25.5 -42q14 -20 14 -38q0 -31 -30 -52t-74 -21q-71 0 -94 52q-12 27 -12 120v86q0 35 -4 46
q-8 23 -32 23q-10 0 -31 -9v-108q0 -41 2.5 -52t16.5 -29q26 -35 26 -54q0 -31 -30 -53t-74 -22q-55 0 -85 35q-23 27 -23 102v108q0 36 -2 49q-5 32 -35 32q-11 0 -30 -8v-98q0 -38 3 -53q5 -23 23.5 -48.5t18.5 -43.5q0 -32 -28 -53t-70 -21q-76 0 -100 51q-12 26 -12 85z
" />
    <glyph glyph-name="n" unicode="n" horiz-adv-x="530" 
d="M198 441l8 4l24 14q36 21 92 21q101 0 142 -76q17 -31 17 -112v-93q0 -49 20 -74q26 -32 26 -52q0 -34 -31 -56.5t-78 -22.5q-63 0 -94 41q-12 17 -14.5 30t-2.5 68v115q0 44 -6 58q-10 23 -42 23q-22 0 -40 -14v-110q0 -57 21 -83q25 -30 25 -48q0 -32 -32.5 -55.5
t-77.5 -23.5q-68 0 -97 49q-13 23 -13 80v144q0 47 -4 61t-27 51q-9 14 -9 30q0 30 29 50t72 20q34 0 51.5 -7t40.5 -32z" />
    <glyph glyph-name="o" unicode="o" horiz-adv-x="503" 
d="M256 483q100 0 166.5 -71t66.5 -177q0 -104 -67 -173t-169 -69q-105 0 -171.5 68.5t-66.5 177.5q0 107 67.5 175.5t173.5 68.5zM252 342q-32 0 -53.5 -23.5t-21.5 -57.5q0 -35 21.5 -58.5t54.5 -23.5t54 23.5t21 59.5q0 35 -21.5 57.5t-54.5 22.5z" />
    <glyph glyph-name="p" unicode="p" horiz-adv-x="533" 
d="M41 -20v291q0 45 -4 59t-28 53q-8 13 -8 29q0 29 29 49t72 20q62 0 95 -43q56 44 114 44q87 0 147 -73t60 -179q0 -102 -59 -168t-151 -66q-62 0 -100.5 29.5t-38.5 76.5q0 80 86 85q39 2 52 6.5t26 19.5q20 23 20 53q0 32 -19.5 53t-50.5 21q-42 0 -57 -30
q-9 -19 -9 -60v-58q-61 -26 -61 -90q0 -61 61 -98q5 -26 25.5 -52.5t20.5 -44.5q0 -34 -32 -56.5t-79 -22.5q-73 0 -99 49q-12 23 -12 103z" />
    <glyph glyph-name="q" unicode="q" horiz-adv-x="530" 
d="M318 192v48q0 39 -5 56q-13 44 -61 44q-31 0 -51.5 -21t-20.5 -53q0 -54 46 -72q17 -7 66 -9q28 -1 50 -25.5t22 -55.5q0 -49 -38.5 -79.5t-100.5 -30.5q-92 0 -151 67t-59 170q0 127 81 199q58 51 123 51q50 0 100 -35q6 -3 10 -7q28 42 76 42q55 0 78 -44q9 -18 9 -66
v-305q0 -55 4 -72t20 -38q24 -31 24 -49q0 -34 -32 -56t-80 -22q-80 0 -103 57q-7 17 -7 55v63q58 34 58 101q0 60 -58 87z" />
    <glyph glyph-name="r" unicode="r" horiz-adv-x="374" 
d="M217 304v-89q0 -43 4 -56.5t28 -44.5q15 -20 15 -38q0 -34 -32 -57t-78 -23q-71 0 -98 47q-9 16 -11 30t-2 69v135q0 42 -4 56t-29 54q-6 10 -6 22q0 32 30 52t76 20q42 0 71 -23q-24 -27 -24 -65q0 -63 60 -89zM271 480q44 0 72 -24.5t28 -63.5q0 -40 -27.5 -63.5
t-74.5 -23.5q-45 0 -73 24t-28 64q0 39 28.5 63t74.5 24z" />
    <glyph glyph-name="s" unicode="s" horiz-adv-x="433" 
d="M208 334q-25 0 -25 -23q0 -26 84 -34q68 -7 96 -24q54 -33 54 -106q0 -68 -55.5 -111t-143.5 -43q-85 0 -143.5 37.5t-58.5 91.5q0 33 23 58t54 25q24 0 78 -29q32 -17 47 -17q23 0 23 21q0 27 -56 32q-73 6 -112 30q-53 32 -53 99q0 65 52 104t140 39q83 0 137 -34
t54 -86q0 -30 -21 -51.5t-50 -21.5q-27 0 -70 21.5t-54 21.5z" />
    <glyph glyph-name="t" unicode="t" horiz-adv-x="306" 
d="M56 139v198q-59 22 -59 74q0 29 16.5 48.5t42.5 21.5v4q0 13 -16 47q-8 17 -8 32q0 32 25.5 51t69.5 19q47 0 74.5 -25t27.5 -67v-61q72 -3 72 -69q0 -69 -72 -75v-115q0 -44 4.5 -61t23.5 -41t19 -43q0 -34 -31.5 -57t-78.5 -23q-73 0 -98 48q-12 23 -12 94z" />
    <glyph glyph-name="u" unicode="u" horiz-adv-x="529" 
d="M309 160v98q0 49 -3 62.5t-19 34.5q-23 30 -23 50q0 32 31 54t76 22q68 0 97 -46q15 -24 15 -85v-136q0 -52 3.5 -66.5t26.5 -50.5q10 -16 10 -34q0 -29 -29.5 -48.5t-73.5 -19.5q-55 0 -91 40q-61 -39 -124 -39q-109 0 -146 85q-13 30 -13 106v92q0 33 -4 45.5t-22.5 36
t-18.5 43.5q0 34 30.5 56t77.5 22q65 0 95 -40q11 -15 13.5 -29t2.5 -56v-125q0 -40 4 -54q9 -31 45 -31q18 0 40 13z" />
    <glyph glyph-name="v" unicode="v" horiz-adv-x="479" 
d="M220 304l35 -85q11 -26 20 -26q11 0 21.5 20.5t10.5 41.5q0 26 -15 41q-11 13 -51 18q-33 4 -53 26t-20 56q0 43 33.5 69.5t86.5 26.5q80 0 128.5 -54.5t48.5 -144.5q0 -137 -112 -239q-63 -57 -124 -57q-37 0 -57.5 18t-41.5 68l-66 159q-24 58 -31 71.5t-25 34.5
q-34 40 -34 60q0 31 28 51.5t70 20.5q62 0 91 -44q-9 -21 -9 -41q0 -70 66 -91z" />
    <glyph glyph-name="w" unicode="w" horiz-adv-x="705" 
d="M672 318v-114q0 -78 -14 -111q-42 -99 -162 -99q-81 0 -132 52q-63 -51 -138 -51q-113 0 -159 87q-22 42 -22 122v95q0 25 -5 35.5t-28 39.5q-12 15 -12 38q0 30 27.5 48.5t72.5 18.5q73 0 99 -50q12 -24 12 -83v-116q0 -34 3 -45q6 -25 30 -25q23 0 29 23q3 8 3 35v48
q0 58 -20 84q-23 30 -23 54q0 32 27 53.5t69 21.5q77 0 101 -58q11 -27 11 -76v-108q0 -39 2 -48q6 -29 31 -29q21 0 28 22q4 13 4 43v58q0 32 -4.5 44t-29.5 43q-11 14 -11 36q0 32 27.5 52.5t71.5 20.5q75 0 100 -54q12 -26 12 -107z" />
    <glyph glyph-name="x" unicode="x" horiz-adv-x="470" 
d="M347 254l62 -92q9 -10 44 -52q14 -17 14 -39q0 -32 -28 -53.5t-69 -21.5q-65 0 -101 59l-42 68q-21 -27 -28 -52q-12 -46 -34 -59q-26 -16 -62 -16q-44 0 -72 22.5t-28 57.5q0 34 38 82l76 96l-35 51q-23 24 -63 74q-9 15 -9 33q0 31 27.5 50t71.5 19q68 0 105 -67
l19 -34q9 10 13 21t8 28q12 51 88 51q47 0 76 -22t29 -57q0 -29 -38 -74z" />
    <glyph glyph-name="y" unicode="y" horiz-adv-x="517" 
d="M311 173v77q0 57 -3.5 70.5t-25.5 39.5q-18 22 -18 41q0 31 32 54.5t76 23.5q74 0 100 -55q11 -23 11 -69v-296q0 -88 -18 -127q-23 -50 -79.5 -80t-126.5 -30q-80 0 -135 39.5t-55 96.5q0 37 25 63.5t59 26.5t74 -33q27 -22 45 -22q36 0 39 51q-41 -16 -75 -19
q-45 36 -84 36q-19 0 -39 -10q-69 34 -67 145l1 56q1 41 -2 56q-5 23 -24.5 48t-19.5 44q0 34 31 56.5t77 22.5q80 0 104 -55q8 -18 8 -72v-109q0 -39 5 -56q8 -26 38 -26q22 0 47 12z" />
    <glyph glyph-name="z" unicode="z" horiz-adv-x="439" 
d="M384 342l-145 -204q5 -1 11 -1q18 0 49 20q47 30 71 30q27 0 45 -21.5t18 -54.5q0 -71 -53 -100q-19 -11 -68 -11h-217q-52 0 -70 25q-16 22 -16 51q0 18 30 62l140 204q-21 -1 -51 -21q-33 -22 -52 -22q-28 0 -45.5 21t-17.5 54q0 48 37 82q23 20 79 20h201q82 0 82 -66
q0 -29 -28 -68z" />
    <glyph glyph-name="braceleft" unicode="{" horiz-adv-x="388" 
d="M231 571v-212q0 -30 -37 -59q37 -29 37 -59v-212q25 0 48 -5q56 -12 56 -65q0 -37 -30 -56q-16 -10 -50 -10h-9q-100 0 -126 13q-50 25 -50 105v152q0 46 -37 60q-50 19 -50 77q0 33 12.5 50t45.5 30q29 11 29 57v152q0 80 50 105q26 13 126 13h9q35 0 52 -11
q28 -18 28 -55q0 -70 -99 -70h-5z" />
    <glyph glyph-name="bar" unicode="|" 
d="M155 667h191v-834h-191v834z" />
    <glyph glyph-name="braceright" unicode="}" horiz-adv-x="388" 
d="M157 29v212q0 30 37 59q-37 29 -37 59v212q-25 0 -48 5q-56 12 -56 65q0 37 30 56q16 10 50 10h9q100 0 126 -13q50 -25 50 -105v-152q0 -46 37 -60q50 -19 50 -77q0 -33 -12.5 -50t-45.5 -30q-29 -11 -29 -57v-152q0 -80 -50 -105q-26 -13 -126 -13h-9q-35 0 -52 11
q-28 18 -28 55q0 70 99 70h5z" />
    <glyph glyph-name="asciitilde" unicode="~" horiz-adv-x="667" 
d="M182 536l-90 77q59 149 156 149q27 0 147 -45q19 -7 32 -7q32 0 61 55l90 -76q-33 -81 -69 -115t-88 -34q-34 0 -112 31q-50 20 -68 20q-29 0 -59 -55z" />
    <glyph glyph-name="nonbreakingspace" unicode="&#xa0;" horiz-adv-x="300" 
 />
    <glyph glyph-name="exclamdown" unicode="&#xa1;" horiz-adv-x="298" 
d="M47 121l17 273q3 53 9 73t20 31q29 -13 60 -13q29 0 56 13q21 -17 24 -68l16 -300q1 -19 1 -34q0 -103 -101 -103q-102 0 -102 113v15zM153 674q42 0 70 -25.5t28 -63.5t-28 -62.5t-72 -24.5t-72.5 25t-28.5 64t28.5 63t74.5 24z" />
    <glyph glyph-name="cent" unicode="&#xa2;" horiz-adv-x="471" 
d="M193 572v12q0 74 63 74q41 0 56 -37q5 -13 4 -49q54 -10 87.5 -42t33.5 -72q0 -35 -22.5 -59t-55.5 -24q-26 0 -60 32q-16 15 -40 15q-28 0 -47 -21t-19 -51q0 -33 20 -55.5t49 -22.5q14 0 54 18q24 11 46 11q36 0 62 -25.5t26 -61.5q0 -41 -36.5 -73.5t-97.5 -44.5
q-2 -47 -15.5 -67t-44.5 -20q-63 0 -63 73v14q-80 25 -123.5 85.5t-43.5 147.5q0 88 45.5 154t121.5 89z" />
    <glyph glyph-name="sterling" unicode="&#xa3;" horiz-adv-x="581" 
d="M298 399v-8q0 -57 77 -96q-2 -29 -23 -45.5t-54 -15.5q-2 -24 -10 -64q40 -1 102 12l7 1q41 9 59 9q35 0 57 -21t22 -55q0 -53 -34 -89q-18 -19 -49 -25q-15 -2 -57 -2h-206q-46 0 -67 12q-35 20 -35 63q0 22 15 74q12 41 14 85q-49 0 -69 15q-30 22 -30 67q0 80 75 83
q-8 45 -8 66q0 87 62.5 145t156.5 58q101 0 166.5 -57t65.5 -145q0 -69 -36 -113.5t-92 -44.5q-38 0 -66.5 25.5t-28.5 59.5q0 17 16 44q8 14 8 23q0 33 -32 33q-37 0 -37 -49q0 -9 6 -45h25z" />
    <glyph glyph-name="currency" unicode="&#xa4;" horiz-adv-x="729" 
d="M126 450l-22 22q-30 30 -30 64q0 35 24.5 60.5t58.5 25.5q33 0 65 -32l22 -22q60 28 120 28q62 0 118 -28l22 22q31 31 65 31q35 0 60.5 -25t25.5 -59q0 -32 -33 -65l-22 -22q28 -59 28 -117q0 -62 -30 -119l23 -23q33 -33 33 -66q0 -35 -24.5 -60t-59.5 -25
q-34 0 -68 34l-23 23q-56 -26 -115 -26t-116 27l-24 -25q-32 -33 -67 -33t-60 24.5t-25 58.5t35 69l22 22q-29 58 -29 120q0 56 26 116zM362 455q-49 0 -85 -35.5t-36 -85.5t36.5 -86t86.5 -36q51 0 87 36t36 87q0 50 -36.5 85t-88.5 35z" />
    <glyph glyph-name="yen" unicode="&#xa5;" horiz-adv-x="549" 
d="M362 250h78q65 0 65 -44q0 -41 -60 -41h-78q3 -16 23 -47q14 -22 14 -40q0 -36 -29 -59t-75 -23q-64 0 -97 43q-23 30 -23 87v39h-76q-32 0 -43 5q-24 11 -24 38q0 42 69 42h74v23l-14 30h-61q-37 0 -49 8q-16 11 -16 34q0 28 24 38q10 4 34 4h26l-41 80q-13 26 -49 61
q-25 24 -25 61q0 38 28 59.5t77 21.5q75 0 106 -71l50 -113q36 63 39 100q6 84 107 84q118 0 118 -84q0 -30 -26 -74l-75 -125h22q52 0 52 -43q0 -33 -31 -39q-8 -2 -34 -2h-60l-20 -30v-23z" />
    <glyph glyph-name="brokenbar" unicode="&#xa6;" 
d="M155 667h191v-362h-191v362zM155 153h191v-320h-191v320z" />
    <glyph glyph-name="section" unicode="&#xa7;" horiz-adv-x="415" 
d="M243 349q8 17 8 34q0 35 -25 57.5t-64 22.5q1 0 -27 -2q-38 31 -52 55.5t-14 58.5q0 57 42.5 94.5t107.5 37.5q55 0 93.5 -28t38.5 -66q0 -26 -17.5 -45.5t-40.5 -19.5q-21 0 -42 20t-31 20q-20 0 -20 -18q0 -14 22 -28q103 -67 140 -125q33 -52 33 -127q0 -60 -40 -101
t-98 -41q-36 0 -58 19.5t-22 50.5q0 37 45 57q32 14 32 34q0 13 -11 40zM172 251q-9 -15 -9 -34q0 -36 24.5 -58t64.5 -22q3 0 29 2q65 -51 65 -114q0 -57 -43 -94.5t-108 -37.5q-54 0 -93 28t-39 66q0 26 17.5 45.5t40.5 19.5q22 0 43 -20t31 -20q20 0 20 18q0 14 -22 28
q-103 67 -140 125q-33 52 -33 127q0 60 40 101t98 41q36 0 58 -19t22 -51q0 -37 -46 -57q-31 -14 -31 -34q0 -14 11 -40z" />
    <glyph glyph-name="dieresis" unicode="&#xa8;" 
d="M351 676q30 0 51.5 -22t21.5 -52q0 -31 -21.5 -53t-52.5 -22t-53 22t-22 53t22 52.5t54 21.5zM152 675q30 0 51.5 -22t21.5 -52q0 -31 -21.5 -52.5t-52.5 -21.5t-52.5 22t-21.5 53q0 30 22 51.5t53 21.5z" />
    <glyph glyph-name="copyright" unicode="&#xa9;" horiz-adv-x="762" 
d="M387 682q140 0 240.5 -103t100.5 -246q0 -144 -101.5 -246t-244.5 -102t-245 102t-102 246q0 146 102 247.5t250 101.5zM380 604q-107 0 -183.5 -79.5t-76.5 -190.5q0 -112 77 -191.5t185 -79.5t184.5 79t76.5 191q0 113 -76.5 192t-186.5 79zM390 538q45 0 77.5 -25
t32.5 -60q0 -23 -14.5 -39t-34.5 -16q-11 0 -40 13q-11 5 -23 5q-21 0 -34.5 -22t-13.5 -56q0 -33 14 -55t36 -22q13 0 28 8q30 16 41 16q20 0 35.5 -17.5t15.5 -40.5q0 -40 -37 -69t-87 -29q-71 0 -115.5 57t-44.5 148t45 147.5t119 56.5z" />
    <glyph glyph-name="ordfeminine" unicode="&#xaa;" horiz-adv-x="348" 
d="M202 389v22q0 57 -37 57q-40 0 -40 -40q0 -42 56 -44q18 -1 31 -16t13 -37q0 -29 -21 -47.5t-54 -18.5q-59 0 -97 40t-38 102q0 64 37.5 107.5t93.5 43.5q34 0 66 -23q18 22 47 22q39 0 53 -27q5 -10 5 -45v-91q0 -35 12 -49q15 -18 15 -30q0 -21 -19.5 -35.5
t-48.5 -14.5q-34 0 -59 14q22 22 22 52q0 42 -37 58z" />
    <glyph glyph-name="guillemotleft" unicode="&#xab;" horiz-adv-x="323" 
d="M243 251l41 -89q13 -28 13 -38q0 -17 -13.5 -28.5t-33.5 -11.5q-21 0 -42 22q5 11 5 20q0 13 -16 46l-38 79l42 88q11 23 11 38q0 8 -4 20q21 22 44 22q16 0 30 -13.5t14 -29.5q0 -14 -11 -37zM144 251l41 -85q14 -29 14 -40q0 -18 -13 -30t-33 -12q-30 0 -70 58l-33 48
q-23 33 -23 64q0 23 25 59l47 68q26 38 56 38q17 0 31 -13t14 -29q0 -10 -11 -33z" />
    <glyph glyph-name="logicalnot" unicode="&#xac;" 
d="M281 0v132h-248v166h433v-298h-185z" />
    <glyph glyph-name="sfthyphen" unicode="&#xad;" horiz-adv-x="222" 
d="M146 187h-69q-77 0 -77 62t74 62h72q42 0 59 -18t17 -42q0 -64 -76 -64z" />
    <glyph glyph-name="registered" unicode="&#xae;" horiz-adv-x="762" 
d="M387 682q140 0 240.5 -103t100.5 -246q0 -144 -101.5 -246t-244.5 -102t-245 102t-102 246q0 146 102 247.5t250 101.5zM380 604q-107 0 -183.5 -79.5t-76.5 -190.5q0 -112 77 -191.5t185 -79.5t184.5 79t76.5 191q0 113 -76.5 192t-186.5 79zM365 266v-46q0 -39 -7 -54
q-17 -36 -64 -36q-28 0 -46.5 13.5t-18.5 34.5q0 12 13 32.5t13 44.5v135q0 34 -2 43t-16 29q-7 11 -7 26q0 25 22 36q17 9 72 9h46q81 0 119 -28q47 -35 47 -98q0 -68 -49 -97l-5 -3q19 -19 37 -61q5 -12 18 -38q11 -18 11 -30q0 -21 -17.5 -34.5t-45.5 -13.5q-41 0 -57 26
q-3 5 -21 57t-42 53zM367 428v-66h13q43 0 43 33t-47 33h-9z" />
    <glyph glyph-name="macron" unicode="&#xaf;" 
d="M343 561h-188q-62 0 -62 43q0 40 59 40h191q31 0 44 -8q19 -12 19 -33q0 -23 -18 -34q-13 -8 -45 -8z" />
    <glyph glyph-name="macron" unicode="&#x2c9;" 
d="M343 561h-188q-62 0 -62 43q0 40 59 40h191q31 0 44 -8q19 -12 19 -33q0 -23 -18 -34q-13 -8 -45 -8z" />
    <glyph glyph-name="degree" unicode="&#xb0;" 
d="M253 676q67 0 114.5 -48.5t47.5 -116.5q0 -69 -48 -117.5t-116 -48.5q-69 0 -117.5 48.5t-48.5 116.5q0 70 48.5 118t119.5 48zM249 574q-25 0 -43 -19t-18 -44q0 -26 18.5 -45t43.5 -19t43.5 19t18.5 44q0 26 -18.5 45t-44.5 19z" />
    <glyph glyph-name="plusminus" unicode="&#xb1;" 
d="M90 134h86q20 -51 73 -51q56 0 75 51h88q34 0 54.5 -18.5t20.5 -49.5q0 -66 -75 -66h-323q-76 0 -76 68q0 66 77 66zM316 266v-94q0 -76 -67 -76q-66 0 -66 77v93h-94q-76 0 -76 68q0 66 77 66h93v95q0 34 18.5 54.5t49.5 20.5q65 0 65 -75v-95h95q34 0 54.5 -18.5
t20.5 -49.5q0 -66 -75 -66h-95z" />
    <glyph glyph-name="twosuperior" unicode="&#xb2;" horiz-adv-x="324" 
d="M102 428h7q28 0 46 15.5t18 38.5q0 12 -5 27q9 14 9 26q0 21 -20 21q-17 0 -17 -16q0 -8 13 -27q8 -10 8 -28q0 -43 -53 -43q-40 0 -67.5 28t-27.5 69q0 56 43 94t106 38q62 0 100.5 -36.5t38.5 -95.5q0 -40 -17 -72.5t-67 -88.5q41 9 48 9q47 0 47 -46q0 -74 -74 -74
h-130q-72 0 -72 58q0 31 35 71q7 8 31 32z" />
    <glyph glyph-name="threesuperior" unicode="&#xb3;" horiz-adv-x="328" 
d="M141 512q9 12 23.5 21t14.5 18q0 14 -16 14q-9 0 -27.5 -15.5t-39.5 -15.5q-22 0 -37 15t-15 37q0 37 36 61.5t89 24.5q57 0 93 -31.5t36 -80.5q0 -52 -39 -73q53 -30 53 -96q0 -54 -42.5 -91.5t-104.5 -37.5q-66 0 -108.5 41t-42.5 104q0 47 23.5 78t58.5 31
q26 0 42.5 -15.5t16.5 -39.5q0 -14 -13 -41q-4 -8 -4 -19q0 -24 25 -24q22 0 22 22q0 17 -22 38q5 15 5 25q0 34 -27 50z" />
    <glyph glyph-name="acute" unicode="&#xb4;" 
d="M289 702q23 0 40.5 -17.5t17.5 -41.5q0 -39 -35 -86q-22 -30 -56 -30q-24 0 -40 16t-16 39q0 33 28 79q25 41 61 41z" />
    <glyph glyph-name="mu" unicode="&#xb5;" horiz-adv-x="529" 
d="M184 -3v-35q0 -54 -2 -67.5t-11 -26.5q-23 -33 -74 -33q-39 0 -64 18t-25 46q0 14 22 42q15 19 15 40v28l1 31v239q0 33 -4 45.5t-22.5 36t-18.5 43.5q0 34 30.5 56t77.5 22q65 0 95 -40q11 -15 13.5 -29t2.5 -56v-125q0 -40 4 -54q9 -31 45 -31q18 0 40 13v98
q0 49 -3 62.5t-19 34.5q-23 30 -23 50q0 32 31 54t76 22q68 0 97 -46q15 -24 15 -85v-136q0 -52 3.5 -66.5t26.5 -50.5q10 -16 10 -34q0 -29 -29.5 -48.5t-73.5 -19.5q-55 0 -91 40q-59 -39 -122 -39q-13 0 -23 1z" />
    <glyph glyph-name="mu" unicode="&#x3bc;" horiz-adv-x="529" 
d="M184 -3v-35q0 -54 -2 -67.5t-11 -26.5q-23 -33 -74 -33q-39 0 -64 18t-25 46q0 14 22 42q15 19 15 40v28l1 31v239q0 33 -4 45.5t-22.5 36t-18.5 43.5q0 34 30.5 56t77.5 22q65 0 95 -40q11 -15 13.5 -29t2.5 -56v-125q0 -40 4 -54q9 -31 45 -31q18 0 40 13v98
q0 49 -3 62.5t-19 34.5q-23 30 -23 50q0 32 31 54t76 22q68 0 97 -46q15 -24 15 -85v-136q0 -52 3.5 -66.5t26.5 -50.5q10 -16 10 -34q0 -29 -29.5 -48.5t-73.5 -19.5q-55 0 -91 40q-59 -39 -122 -39q-13 0 -23 1z" />
    <glyph glyph-name="paragraph" unicode="&#xb6;" horiz-adv-x="655" 
d="M382 599l1 -540q1 -40 16 -59q22 -28 22 -43q0 -27 -25.5 -45t-64.5 -18q-58 0 -79 41q-8 16 -8 86v302q-84 2 -131.5 47t-47.5 122q0 65 34 109.5t96 58.5q33 7 99 7h233q34 0 34 -34t-34 -34h-11v-500q0 -35 1 -57.5t16 -41.5q21 -26 21 -42q0 -28 -25 -46t-65 -18
q-26 0 -52 13q22 23 22 51q0 14 -3 20t-21 30q-13 17 -13 32v28l-1 31v500h-14z" />
    <glyph glyph-name="middot" unicode="&#xb7;" horiz-adv-x="261" 
d="M129 332q44 0 71.5 -24.5t27.5 -64.5q0 -39 -27.5 -62.5t-73.5 -23.5q-45 0 -72.5 24t-27.5 64q0 39 28 63t74 24z" />
    <glyph glyph-name="cedilla" unicode="&#xb8;" 
d="M230 -192q-30 0 -51 21t-21 51q0 34 24 57t60 23q43 0 71.5 -32t28.5 -79q0 -62 -40 -106t-97 -44q-43 0 -43 37q0 17 12 25q5 3 27.5 11.5t28.5 35.5z" />
    <glyph glyph-name="onesuperior" unicode="&#xb9;" horiz-adv-x="223" 
d="M60 358v171q-21 2 -35 16t-14 33q0 30 41 64q33 26 65 26q36 0 55 -26q10 -14 10 -50v-178q0 -31 2 -39.5t16 -31.5q9 -15 9 -28q0 -21 -20 -35t-51 -14q-59 0 -73 45q-5 14 -5 47z" />
    <glyph glyph-name="ordmasculine" unicode="&#xba;" horiz-adv-x="329" 
d="M168 558q63 0 105.5 -43t42.5 -106t-43 -104.5t-108 -41.5q-67 0 -109 41.5t-42 106.5q0 64 43 105.5t111 41.5zM165 468q-18 0 -30.5 -12.5t-12.5 -31.5q0 -20 12 -32.5t31 -12.5q43 0 43 46q0 43 -43 43z" />
    <glyph glyph-name="guillemotright" unicode="&#xbb;" horiz-adv-x="323" 
d="M187 321l-33 48q-10 14 -24 32q15 18 40 18q31 0 67 -53l35 -52q24 -36 24 -61q0 -29 -27 -67l-46 -65q-26 -37 -56 -37q-19 0 -36 22l54 77q27 39 27 67q0 35 -25 71zM81 253l-40 84q-14 29 -14 40q0 18 13 30t33 12q32 0 70 -57l33 -49q23 -34 23 -63q0 -25 -25 -60
l-48 -68q-27 -38 -56 -38q-17 0 -30.5 13.5t-13.5 29.5q0 11 10 32z" />
    <glyph glyph-name="onequarter" unicode="&#xbc;" horiz-adv-x="604" 
d="M48 93l82 160q26 0 40 4q52 15 52 57q0 16 -10 36q-8 12 -10.5 17t-4.5 16l128 248q26 50 58 50q21 0 37.5 -14t16.5 -33q0 -18 -16 -49l-278 -541q-17 -32 -23 -40q-16 -18 -40 -18q-22 0 -38 15t-16 35q0 14 22 57zM60 358v171q-21 2 -35 16t-14 33q0 30 41 64
q33 26 65 26q36 0 55 -26q10 -14 10 -50v-178q0 -31 2 -39.5t16 -31.5q9 -15 9 -28q0 -21 -20 -35t-51 -14q-59 0 -73 45q-5 14 -5 47zM536 333v-151q59 0 59 -53q0 -44 -43 -51q11 -19 11 -29q0 -22 -20 -36.5t-51 -14.5q-76 0 -79 66q80 0 80 66q0 38 -30 57q-14 9 -37 9
h-13v27l-28 -41h26q70 0 70 -53q0 -31 -26 -44q-14 -7 -54 -7h-66q-82 0 -82 73q0 31 30 75l82 119q24 35 39 45q19 13 56 13q76 0 76 -70z" />
    <glyph glyph-name="onehalf" unicode="&#xbd;" horiz-adv-x="564" 
d="M421 585l-94 -183q-88 -42 -88 -129q0 -14 4 -33l-100 -196q-17 -32 -23 -40q-15 -18 -40 -18q-22 0 -38 15t-16 35q0 14 22 57l82 160q26 0 40 4q52 15 52 57q0 16 -10 36q-8 12 -10.5 17t-4.5 16l128 248q26 50 58 50q21 0 37.5 -14t16.5 -33q0 -18 -16 -49zM60 358
v171q-21 2 -35 16t-14 33q0 30 41 64q33 26 65 26q36 0 55 -26q10 -14 10 -50v-178q0 -31 2 -39.5t16 -31.5q9 -15 9 -28q0 -21 -20 -35t-51 -14q-59 0 -73 45q-5 14 -5 47zM342 161h7q28 0 46 15.5t18 38.5q0 12 -5 27q9 14 9 26q0 21 -20 21q-17 0 -17 -16q0 -8 13 -27
q8 -10 8 -28q0 -43 -53 -43q-40 0 -67.5 28t-27.5 69q0 56 43 94t106 38q62 0 100.5 -36.5t38.5 -95.5q0 -39 -17 -71.5t-67 -89.5q41 9 48 9q47 0 47 -46q0 -74 -74 -74h-130q-72 0 -72 58q0 30 35 71q15 18 31 32z" />
    <glyph glyph-name="threequarters" unicode="&#xbe;" horiz-adv-x="709" 
d="M153 93l88 172q85 44 85 126q0 12 -4 31l108 209q26 50 58 50q21 0 37.5 -14t16.5 -33q0 -18 -16 -49l-279 -541q-17 -33 -23 -40q-15 -18 -39 -18q-22 0 -38 15t-16 35q0 14 22 57zM141 512q9 12 23.5 21t14.5 18q0 14 -16 14q-9 0 -27.5 -15.5t-39.5 -15.5
q-22 0 -37 15t-15 37q0 37 36 61.5t89 24.5q57 0 93 -31.5t36 -80.5q0 -52 -39 -73q53 -30 53 -96q0 -54 -42.5 -91.5t-104.5 -37.5q-66 0 -108.5 41t-42.5 104q0 47 23.5 78t58.5 31q26 0 42.5 -15.5t16.5 -39.5q0 -14 -13 -41q-4 -8 -4 -19q0 -24 25 -24q22 0 22 22
q0 17 -22 38q5 15 5 25q0 34 -27 50zM640 333v-151q59 0 59 -53q0 -44 -43 -51q11 -19 11 -29q0 -22 -20 -36.5t-51 -14.5q-76 0 -79 66q80 0 80 66q0 38 -30 57q-14 9 -37 9h-13v27l-28 -41h26q70 0 70 -53q0 -31 -26 -44q-14 -7 -54 -7h-66q-82 0 -82 73q0 31 30 75
l82 119q24 35 39 45q19 13 56 13q76 0 76 -70z" />
    <glyph glyph-name="questiondown" unicode="&#xbf;" horiz-adv-x="481" 
d="M307 507q13 -19 13 -43q0 -19 -13 -57q-41 -4 -66 -22q-37 -27 -37 -68q0 -32 16 -55q-15 -24 -15 -42q0 -39 34 -39q14 0 24 10t10 23q0 12 -30 39q-26 23 -26 62q0 35 27.5 57.5t70.5 22.5q65 0 107.5 -51t42.5 -128q0 -97 -64.5 -159.5t-165.5 -62.5
q-97 0 -157.5 57.5t-60.5 150.5q0 63 33 121q6 11 49 67q39 51 56 117q41 -23 79 -23t73 23zM233 673q43 0 71 -25t28 -63q0 -39 -27 -63.5t-70 -24.5q-46 0 -75.5 25.5t-29.5 65.5q0 37 29 61t74 24z" />
    <glyph glyph-name="Agrave" unicode="&#xc0;" horiz-adv-x="808" 
d="M319 278l78 270q2 8 14 46q5 16 12 28q34 -88 95 -88q29 0 49.5 19.5t20.5 47.5q0 23 -16 59q26 -14 41.5 -38t31.5 -75l104 -325q13 -40 23 -63q4 -10 8 -16l17 -29q11 -19 11 -39q0 -34 -29 -56t-74 -22q-71 0 -100 52q-7 13 -15 39l-4 9h-126l-13 -60
q-21 -98 -53 -141q-59 -79 -164 -79q-97 0 -160.5 63t-63.5 160q0 101 66.5 176.5t154.5 75.5q57 0 96.5 -33.5t39.5 -82.5q0 -43 -36 -71q-22 -18 -81 -19q-62 -2 -62 -53q0 -35 29 -35q17 0 26 14t21 61q18 1 49 8q67 26 67 99q0 59 -57 98zM489 222h66l-34 140zM487 722
q34 0 59 -41q28 -46 28 -79q0 -23 -16 -39t-40 -16q-34 0 -56 30q-35 47 -35 85q0 25 17.5 42.5t42.5 17.5z" />
    <glyph glyph-name="Aacute" unicode="&#xc1;" horiz-adv-x="808" 
d="M319 278l78 270q18 62 34.5 84.5t54.5 34.5q-19 -38 -19 -66t20.5 -47.5t49.5 -19.5q51 0 87 69q4 -9 21 -56l104 -325q13 -40 23 -63q4 -10 8 -16l17 -29q11 -19 11 -39q0 -34 -29 -56t-74 -22q-71 0 -100 52q-7 13 -15 39l-4 9h-126l-13 -60q-21 -98 -53 -141
q-59 -79 -164 -79q-97 0 -160.5 63t-63.5 160q0 101 66.5 176.5t154.5 75.5q57 0 96.5 -33.5t39.5 -82.5q0 -43 -36 -71q-22 -18 -81 -19q-62 -2 -62 -53q0 -35 29 -35q17 0 26 14t21 61q18 1 49 8q67 26 67 99q0 59 -57 98zM489 222h66l-34 140zM570 722q23 0 40.5 -17.5
t17.5 -41.5q0 -39 -35 -86q-22 -30 -56 -30q-24 0 -40 16t-16 39q0 33 28 79q25 41 61 41z" />
    <glyph glyph-name="Acircumflex" unicode="&#xc2;" horiz-adv-x="808" 
d="M394 537h10q23 0 56 18l61 33l70 -39q27 -15 48 -15q5 0 10 1l100 -313q19 -60 48 -108q11 -18 11 -39q0 -34 -29 -56t-74 -22q-71 0 -100 52q-7 13 -15 39l-4 9h-126l-13 -60q-21 -98 -53 -141q-59 -79 -163 -79q-98 0 -161.5 63t-63.5 160q0 101 66.5 177t154.5 76
q57 0 96.5 -33.5t39.5 -82.5q0 -44 -36 -71q-26 -19 -81 -20q-28 0 -45 -14.5t-17 -37.5q0 -36 29 -36q17 0 26 14t21 61q18 1 49 8q67 26 67 99q0 58 -57 98zM489 222h66l-34 140zM521 603l-67 -37q-31 -17 -51 -17q-16 0 -29 14.5t-13 32.5q0 21 29 42l59 42q44 31 73 31
q28 0 60 -23l63 -46q36 -26 36 -50q0 -17 -13 -31t-29 -14q-19 0 -42 13z" />
    <glyph glyph-name="Atilde" unicode="&#xc3;" horiz-adv-x="808" 
d="M397 549h6q21 0 58 25q5 3 13 3q9 0 41 -16q28 -14 62 -14q31 0 63 14l3 -7l4 -13l102 -319q19 -61 48 -108q11 -18 11 -39q0 -34 -29 -56t-74 -22q-71 0 -100 52q-7 13 -15 39l-4 9h-126l-13 -60q-21 -98 -53 -141q-59 -79 -163 -79q-98 0 -161.5 63t-63.5 160
q0 101 66.5 177t154.5 76q57 0 96.5 -33.5t39.5 -82.5q0 -44 -36 -71q-26 -19 -81 -20q-28 0 -45 -14.5t-17 -37.5q0 -36 29 -36q17 0 26 14t21 61q18 1 49 8q67 26 67 99q0 58 -57 98zM489 222h66l-34 140zM474 590q-12 0 -41 -19q-14 -9 -32 -9q-20 0 -34.5 14.5
t-14.5 34.5q0 36 30.5 60t75.5 24q39 0 87 -22q18 -8 26 -8q9 0 32 14.5t37 14.5q21 0 35.5 -14t14.5 -35q0 -35 -33 -60t-80 -25q-32 0 -82 25q-10 5 -21 5z" />
    <glyph glyph-name="Adieresis" unicode="&#xc4;" horiz-adv-x="808" 
d="M319 278l77 267q16 -4 25 -4q37 0 62.5 25.5t25.5 62.5q0 19 -11 41q10 2 21 2q12 0 23 -2q-10 -23 -10 -40q0 -37 25.5 -63t62.5 -26q10 0 25 4l104 -323q14 -44 23 -63q2 -2 8 -16l17 -29q11 -19 11 -39q0 -34 -29 -56t-74 -22q-71 0 -100 52q-7 13 -15 39l-4 9h-126
l-13 -60q-21 -98 -53 -141q-59 -79 -164 -79q-97 0 -160.5 63t-63.5 160q0 101 66.5 176.5t154.5 75.5q57 0 96.5 -33.5t39.5 -82.5q0 -43 -36 -71q-22 -18 -81 -19q-62 -2 -62 -53q0 -35 29 -35q17 0 26 14t21 61q18 1 49 8q67 26 67 99q0 59 -57 98zM489 222h66l-34 140z
M621 703q30 0 51.5 -22t21.5 -52q0 -31 -21.5 -53t-52.5 -22t-53 22t-22 53t22 52.5t54 21.5zM423 702q30 0 51.5 -22t21.5 -52q0 -31 -21.5 -52.5t-52.5 -21.5t-52.5 22t-21.5 53q0 30 22 51.5t53 21.5z" />
    <glyph glyph-name="Aring" unicode="&#xc5;" horiz-adv-x="808" 
d="M411 594l6 17q23 -82 104 -82q78 0 102 77q5 -9 22 -59l104 -325q19 -61 48 -108q11 -18 11 -39q0 -34 -29 -56t-74 -22q-71 0 -100 52q-7 13 -15 39l-4 9h-126l-13 -60q-21 -98 -53 -141q-59 -79 -163 -79q-98 0 -161.5 63t-63.5 160q0 101 66.5 177t154.5 76
q57 0 96.5 -33.5t39.5 -82.5q0 -44 -36 -71q-26 -19 -81 -20q-28 0 -45 -14.5t-17 -37.5q0 -36 29 -36q17 0 26 14t21 61q18 1 49 8q67 26 67 99q0 58 -57 98l78 270q4 16 14 46zM489 222h66l-34 140zM522 731q37 0 64.5 -28t27.5 -66q0 -40 -27.5 -67.5t-65.5 -27.5
q-39 0 -66.5 27.5t-27.5 67.5q0 39 27.5 66.5t67.5 27.5zM520 663q-26 0 -26 -26t26 -26q27 0 27 26t-27 26z" />
    <glyph glyph-name="AE" unicode="&#xc6;" horiz-adv-x="976" 
d="M700 419h113q48 0 71 -11q39 -19 39 -73q0 -56 -45 -75q-19 -8 -54 -8h-95l14 -81q7 -1 16 -1q30 0 97 21q16 5 34 5q31 0 51.5 -23t20.5 -57q0 -37 -20.5 -68t-55.5 -42q-20 -6 -66 -6h-138q-57 0 -77.5 16.5t-29.5 71.5l-8 49h-97l-28 -115q-26 -106 -67 -148
q-53 -54 -146 -54q-96 0 -159 63t-63 158q0 104 65 179t156 75q58 0 97 -33.5t39 -83.5q0 -48 -40 -73q-18 -11 -31 -14t-55 -4q-23 -1 -38 -15.5t-15 -35.5q0 -36 29 -36q21 0 33 35l14 40q52 0 84 29t32 76q0 54 -56 100l81 280q21 71 49 91q15 11 31.5 13.5t66.5 2.5h206
q101 0 137 -19q59 -31 59 -100q0 -35 -19 -56.5t-50 -21.5q-13 0 -55 15q-28 10 -62 10h-77zM552 261l-21 138l-32 -138h53z" />
    <glyph glyph-name="Ccedilla" unicode="&#xc7;" horiz-adv-x="503" 
d="M380 9q-33 71 -104 71t-92 -64q-77 38 -119 121t-42 198q0 151 75 245.5t195 94.5q77 0 132.5 -42t55.5 -100q0 -39 -24 -65.5t-59 -26.5q-19 0 -66 22q-19 9 -39 9q-35 0 -58 -36.5t-23 -93.5q0 -55 24 -92t60 -37q19 0 47 14q49 25 68 25q34 0 60 -29t26 -66
q0 -47 -31 -86.5t-86 -61.5zM265 -85q-31 0 -52 21t-21 51q0 35 24 57.5t61 22.5q43 0 71.5 -32t28.5 -79q0 -63 -40 -107t-97 -44q-43 0 -43 37q0 17 12 25q5 4 28 13t28 35z" />
    <glyph glyph-name="Egrave" unicode="&#xc8;" horiz-adv-x="674" 
d="M277 668l30 -1q-1 -4 -1 -7q0 -41 37 -91q26 -36 67 -36q29 0 49.5 20t20.5 48q0 25 -18 66q74 0 114 -15q70 -26 70 -106q0 -33 -19 -54t-49 -21q-14 0 -52 13q-29 10 -63 10h-47v-76h84q51 0 75 -9q44 -17 44 -75q0 -59 -49 -75q-21 -7 -79 -7h-75v-81h34q39 0 99 19
q19 6 37 6q32 0 52.5 -22.5t20.5 -58.5q0 -38 -19.5 -67t-51.5 -40q-24 -8 -99 -8h-94q-53 0 -69 2q-40 5 -62 24q-25 21 -31 63q-1 6 -1 47v55q87 31 87 112q0 66 -77 97l-10 4v90q-50 -2 -50 -47q0 -34 55 -58q69 -30 69 -86q0 -43 -34 -74t-81 -31q-79 0 -133.5 64.5
t-54.5 159.5q0 111 69.5 178.5t182.5 67.5h22zM379 722q34 0 59 -41q28 -46 28 -79q0 -23 -16 -39t-40 -16q-34 0 -56 30q-35 47 -35 85q0 25 17.5 42.5t42.5 17.5z" />
    <glyph glyph-name="Eacute" unicode="&#xc9;" horiz-adv-x="674" 
d="M304 667h54q-18 -41 -18 -66q0 -28 20.5 -48t49.5 -20q41 0 67 36q37 50 37 91q0 2 -1 5q133 -11 133 -119q0 -33 -19 -54t-49 -21q-14 0 -52 13q-29 10 -63 10h-47v-76h84q51 0 75 -9q44 -17 44 -75q0 -59 -49 -75q-21 -7 -79 -7h-75v-81h34q39 0 99 19q19 6 37 6
q32 0 52.5 -22.5t20.5 -58.5q0 -38 -19.5 -67t-51.5 -40q-24 -8 -99 -8h-94q-53 0 -69 2q-40 5 -62 24q-25 21 -31 63q-1 6 -1 47v55q87 31 87 112q0 66 -77 97l-10 4v90q-50 -2 -50 -47q0 -34 55 -58q69 -30 69 -86q0 -43 -34 -74t-81 -31q-79 0 -133.5 64.5t-54.5 159.5
q0 110 69.5 178t181.5 68h23h15q9 -1 12 -1zM442 722q23 0 40.5 -17.5t17.5 -41.5q0 -39 -35 -86q-22 -30 -56 -30q-24 0 -40 16t-16 39q0 33 28 79q25 41 61 41z" />
    <glyph glyph-name="Ecircumflex" unicode="&#xca;" horiz-adv-x="674" 
d="M296 667l-25 -18q-34 -24 -34 -53q0 -23 17 -41.5t38 -18.5q26 0 58 18l60 34l70 -39q29 -16 48 -16q22 0 38.5 18t16.5 41q0 31 -41 61l-15 11q119 -15 119 -118q0 -33 -19 -54t-49 -21q-14 0 -52 13q-29 10 -63 10h-47v-76h84q51 0 75 -9q44 -17 44 -75q0 -59 -49 -75
q-21 -7 -79 -7h-75v-81h34q39 0 99 19q19 6 37 6q32 0 52.5 -22.5t20.5 -58.5q0 -38 -19.5 -67t-51.5 -40q-24 -8 -99 -8h-94q-53 0 -69 2q-40 5 -62 24q-25 21 -31 63q-1 6 -1 47v55q87 31 87 112q0 66 -77 97l-10 4v90q-50 -2 -50 -47q0 -34 55 -58q69 -30 69 -86
q0 -43 -34 -74t-81 -31q-79 0 -133.5 64.5t-54.5 159.5q0 111 69.5 178.5t182.5 67.5h19zM410 603l-67 -37q-31 -17 -51 -17q-16 0 -29 14.5t-13 32.5q0 21 29 42l59 42q44 31 73 31q28 0 60 -23l63 -46q36 -26 36 -50q0 -17 -13 -31t-29 -14q-19 0 -42 13z" />
    <glyph glyph-name="Edieresis" unicode="&#xcb;" horiz-adv-x="674" 
d="M232 404v90q-50 -2 -50 -47q0 -34 55 -58q69 -30 69 -86q0 -43 -34 -74t-81 -31q-79 0 -133.5 64.5t-54.5 159.5q0 71 31 128t87 87q41 22 104 29q-8 -21 -8 -37q0 -37 25.5 -62.5t61.5 -25.5t61.5 25.5t25.5 62.5q0 16 -9 38h40q-8 -21 -8 -37q0 -37 25.5 -63t62.5 -26
q36 0 62 25.5t26 60.5q0 2 -2 20q58 -33 58 -101q0 -33 -19 -54t-49 -21q-14 0 -52 13q-29 10 -63 10h-47v-76h84q51 0 75 -9q44 -17 44 -75q0 -59 -49 -75q-21 -7 -79 -7h-75v-81h34q39 0 99 19q19 6 37 6q32 0 52.5 -22.5t20.5 -58.5q0 -38 -19.5 -67t-51.5 -40
q-24 -8 -99 -8h-94q-53 0 -69 2q-40 5 -62 24q-25 21 -31 63q-1 6 -1 47v55q87 31 87 112q0 66 -77 97zM503 703q30 0 51.5 -22t21.5 -52q0 -31 -21.5 -53t-52.5 -22t-53 22t-22 53t22 52.5t54 21.5zM305 702q30 0 51.5 -22t21.5 -52q0 -31 -21.5 -52.5t-52.5 -21.5
t-52.5 22t-21.5 53q0 30 22 51.5t53 21.5z" />
    <glyph glyph-name="Igrave" unicode="&#xcc;" horiz-adv-x="473" 
d="M232 407v89q-50 -2 -50 -47q0 -34 48 -55q76 -33 76 -90q0 -43 -33 -73t-80 -30q-82 0 -136 63t-54 158q0 142 106 208q41 26 103 34q0 -24 13 -53q35 -78 91 -78q29 0 49.5 20t20.5 49q0 18 -12 50q27 -16 36 -44q6 -19 6 -78v-285q0 -57 3 -72.5t20 -42.5
q21 -33 21 -53q0 -34 -31 -56.5t-78 -22.5q-79 0 -107 60q-12 26 -12 90v46q87 29 87 111q0 43 -32 71q-14 12 -44 26zM286 722q34 0 59 -41q28 -46 28 -79q0 -23 -16 -39t-40 -16q-34 0 -56 30q-35 47 -35 85q0 25 17.5 42.5t42.5 17.5z" />
    <glyph glyph-name="Iacute" unicode="&#xcd;" horiz-adv-x="473" 
d="M232 407v89q-50 -2 -50 -47q0 -34 48 -55q76 -33 76 -90q0 -43 -33 -73t-80 -30q-82 0 -136 63t-54 158q0 80 38.5 141t106.5 86q40 15 110 18q-19 -38 -19 -66t20.5 -48t49.5 -20q60 0 95 89q9 -19 10.5 -31t1.5 -61v-285q0 -57 3 -72.5t20 -42.5q21 -33 21 -53
q0 -34 -31 -56.5t-78 -22.5q-79 0 -107 60q-12 26 -12 90v46q87 29 87 111q0 43 -32 71q-14 12 -44 26zM342 722q23 0 40.5 -17.5t17.5 -41.5q0 -39 -35 -86q-22 -30 -56 -30q-24 0 -40 16t-16 39q0 33 28 79q25 41 61 41z" />
    <glyph glyph-name="Icircumflex" unicode="&#xce;" horiz-adv-x="473" 
d="M203 663l-19 -14q-34 -25 -34 -53q0 -23 17 -41.5t38 -18.5q25 0 57 18l61 34l69 -39q3 -2 24 -11v-293q0 -57 3 -72.5t20 -42.5q21 -33 21 -53q0 -34 -31 -56.5t-78 -22.5q-79 0 -107 60q-12 26 -12 90v46q87 29 87 111q0 43 -32 71q-14 12 -44 26l-11 5v89
q-50 -2 -50 -47q0 -34 48 -55q76 -33 76 -90q0 -43 -33 -73t-80 -30q-82 0 -136 63t-54 158q0 97 53.5 161.5t146.5 79.5zM323 603l-67 -37q-31 -17 -51 -17q-16 0 -29 14.5t-13 32.5q0 21 29 42l59 42q44 31 73 31q28 0 60 -23l63 -46q36 -26 36 -50q0 -17 -13 -31t-29 -14
q-19 0 -42 13z" />
    <glyph glyph-name="Idieresis" unicode="&#xcf;" horiz-adv-x="473" 
d="M232 407v89q-50 -2 -50 -47q0 -34 48 -55q76 -33 76 -90q0 -43 -33 -73t-80 -30q-82 0 -136 63t-54 158q0 89 46 152t125 83q-5 -14 -5 -28q0 -37 25.5 -62.5t61.5 -25.5q38 0 66 30q27 -30 66 -30q14 0 28 5v-301q0 -57 3 -72.5t20 -42.5q21 -33 21 -53q0 -34 -31 -56.5
t-78 -22.5q-79 0 -107 60q-12 26 -12 90v46q87 29 87 111q0 43 -32 71q-14 12 -44 26zM331 582q13 23 13 46q0 24 -14 48q24 28 59 28q31 0 52.5 -22t21.5 -53t-21.5 -53t-52.5 -22q-34 0 -58 28zM258 702q30 0 51.5 -22t21.5 -52q0 -31 -21.5 -52.5t-52.5 -21.5t-52.5 22
t-21.5 53q0 30 22 51.5t53 21.5z" />
    <glyph glyph-name="Eth" unicode="&#xd0;" horiz-adv-x="578" 
d="M76 238h185v-64h7q46 0 72.5 41.5t26.5 110.5q0 46 -14 86q-18 50 -53 66q-15 7 -39 8v-60h-185v46q0 45 -19 72.5t-19 49.5q0 27 22 46t58 23t72 4h49q149 0 232 -90.5t83 -251.5q0 -94 -32 -169.5t-90 -115.5t-162 -40h-65q-27 0 -62 8q-30 7 -49 35.5t-19 67.5
q0 7 1 13v114zM76 412h185q28 0 42 -6q43 -19 43 -76t-45 -74q-13 -5 -40 -5h-184q-31 0 -52.5 24.5t-21.5 59.5q0 33 21 55t52 22z" />
    <glyph glyph-name="Ntilde" unicode="&#xd1;" horiz-adv-x="738" 
d="M248 289v167q0 36 -4.5 50.5t-29.5 52.5q-9 14 -9 33q0 66 92 77q-23 -27 -23 -56q0 -27 18 -45.5t45 -18.5q22 0 59 24q5 3 13 3q9 0 25 -8l10 -5l72 -143v41q0 32 -5 47q-5 12 -25 41q24 -2 26 -2q51 0 88.5 28.5t37.5 66.5q0 9 -1 17q38 -17 52 -47q11 -25 11 -95
v-397q0 -55 -11 -79q-21 -46 -74 -46q-35 0 -56 18.5t-51 74.5l-77 146v-153q0 -83 -8 -117q-16 -68 -69 -108t-129 -40q-97 0 -157.5 65.5t-60.5 170.5q0 100 55 165t139 65q52 0 86 -30t34 -76q0 -65 -75 -87q-35 -10 -47 -20q-18 -15 -18 -36q0 -17 10 -28.5t24 -11.5
q33 0 33 57v27q85 28 85 100q0 78 -77 108zM409 590q-12 0 -41 -19q-14 -9 -32 -9q-20 0 -34.5 14.5t-14.5 34.5q0 36 30.5 60t75.5 24q39 0 87 -22q18 -8 26 -8q9 0 32 14.5t37 14.5q21 0 35.5 -14t14.5 -35q0 -35 -33 -60t-80 -25q-32 0 -82 25q-10 5 -21 5z" />
    <glyph glyph-name="Ograve" unicode="&#xd2;" horiz-adv-x="614" 
d="M197 653q10 -53 39 -86.5t65 -33.5q29 0 49.5 20t20.5 48t-22 71q113 -18 178.5 -108t65.5 -227q0 -151 -79.5 -248t-203.5 -97q-127 0 -208 97.5t-81 251.5q0 235 176 312zM306 496q-42 0 -68 -41.5t-26 -108.5q0 -73 27 -118.5t69 -45.5q43 0 68.5 43.5t25.5 116.5
q0 70 -26.5 112t-69.5 42zM270 722q34 0 59 -41q28 -46 28 -79q0 -23 -16 -39t-40 -16q-34 0 -56 30q-35 47 -35 85q0 25 17.5 42.5t42.5 17.5z" />
    <glyph glyph-name="Oacute" unicode="&#xd3;" horiz-adv-x="614" 
d="M265 672q-21 -42 -21 -71q0 -28 20.5 -48t49.5 -20q36 0 65 34t38 86q85 -37 130.5 -119.5t45.5 -196.5q0 -151 -79.5 -248t-203.5 -97q-134 0 -216 106q-73 94 -73 243q0 136 65 224t179 107zM306 496q-42 0 -68 -41.5t-26 -108.5q0 -73 27 -118.5t69 -45.5
q43 0 68.5 43.5t25.5 116.5q0 70 -26.5 112t-69.5 42zM346 722q23 0 40.5 -17.5t17.5 -41.5q0 -39 -35 -86q-22 -30 -56 -30q-24 0 -40 16t-16 39q0 33 28 79q25 41 61 41z" />
    <glyph glyph-name="Ocircumflex" unicode="&#xd4;" horiz-adv-x="614" 
d="M307 587l70 -38q29 -16 48 -16q22 0 39 17.5t17 40.5q0 12 -9 29q121 -93 121 -283q0 -151 -79.5 -248t-203.5 -97q-127 0 -208 97.5t-81 251.5q0 187 120 280q-7 -14 -7 -23q0 -25 16.5 -43.5t38.5 -18.5q25 0 58 18zM306 496q-42 0 -68 -41.5t-26 -108.5
q0 -73 27 -118.5t69 -45.5q43 0 68.5 43.5t25.5 116.5q0 70 -26.5 112t-69.5 42zM307 603l-67 -37q-31 -17 -50 -17q-16 0 -29 14.5t-13 32.5q0 22 28 42l59 42q44 31 73 31q30 0 61 -23l62 -46q36 -27 36 -50q0 -17 -13 -31t-29 -14q-19 0 -42 13z" />
    <glyph glyph-name="Otilde" unicode="&#xd5;" horiz-adv-x="614" 
d="M125 608q6 -60 63 -60q21 0 60 25q3 3 12 3q8 0 41 -16q27 -13 62 -13q83 0 119 65q111 -97 111 -275q0 -151 -79.5 -248t-203.5 -97q-134 0 -216 106q-73 94 -73 243q0 174 104 267zM306 496q-42 0 -68 -41.5t-26 -108.5q0 -73 27 -118.5t69 -45.5q43 0 68.5 43.5
t25.5 116.5q0 70 -26.5 112t-69.5 42zM260 590q-12 0 -40 -19q-13 -9 -33 -9t-34 14.5t-14 34.5q0 36 30.5 60t75.5 24q37 0 86 -22q18 -8 27 -8q8 0 31 14.5t37 14.5q21 0 35.5 -14t14.5 -35q0 -35 -33 -60t-80 -25q-31 0 -82 25q-10 5 -21 5z" />
    <glyph glyph-name="Odieresis" unicode="&#xd6;" horiz-adv-x="614" 
d="M123 607q19 -66 85 -66q36 0 61.5 25.5t25.5 62.5q0 23 -13 45q12 1 25 1t23 -1q-12 -23 -12 -44q0 -37 25.5 -63t62.5 -26q64 0 85 64q102 -96 102 -268q0 -151 -79.5 -248t-203.5 -97q-127 0 -208 97.5t-81 251.5q0 173 102 266zM306 496q-42 0 -68 -41.5t-26 -108.5
q0 -73 27 -118.5t69 -45.5q43 0 68.5 43.5t25.5 116.5q0 70 -26.5 112t-69.5 42zM407 703q30 0 51.5 -22t21.5 -52q0 -31 -21.5 -53t-52.5 -22t-53 22t-22 53t22 52.5t54 21.5zM209 702q30 0 51.5 -22t21.5 -52q0 -31 -21.5 -52.5t-52.5 -21.5t-52.5 22t-21.5 53
q0 30 22 51.5t53 21.5z" />
    <glyph glyph-name="multiply" unicode="&#xd7;" 
d="M344 333l81 -80q26 -26 26 -53q0 -28 -19.5 -48t-46.5 -20q-28 0 -55 27l-80 80l-81 -81q-26 -26 -53 -26q-28 0 -48 19.5t-20 47.5t27 55l80 80l-81 81q-26 26 -26 52q0 28 20 48.5t47 20.5t53 -26l81 -82l82 82q25 25 52 25q28 0 48.5 -20t20.5 -47t-26 -53z" />
    <glyph glyph-name="Oslash" unicode="&#xd8;" horiz-adv-x="614" 
d="M152 43l33 37q27 30 27 61q0 30 -22.5 52t-53.5 22q-33 0 -63 -34l-17 -19q-36 78 -36 179q0 149 79.5 241.5t208.5 92.5q84 0 157 -49q-44 -51 -53.5 -66.5t-9.5 -35.5q0 -30 23.5 -52.5t54.5 -22.5q24 0 46 19q9 7 35 38q32 -74 32 -169q0 -151 -79.5 -248t-203.5 -97
q-84 0 -158 51zM305 496q-42 0 -68 -41.5t-26 -108.5q0 -73 27 -118.5t70 -45.5t68.5 43.5t25.5 116.5q0 70 -26.5 112t-70.5 42zM587 556l-33 -38q-27 -31 -32 -36q-21 -19 -42 -19q-26 0 -45.5 18t-19.5 43q0 18 9 32t51 61l20 22q27 30 53 30q25 0 44 -18t19 -43
q0 -24 -24 -52zM174 89l-49 -57q-31 -36 -57 -36t-45.5 18t-19.5 43q0 24 27 55l53 61q25 29 53 29q25 0 44 -18t19 -42t-25 -53z" />
    <glyph glyph-name="Ugrave" unicode="&#xd9;" horiz-adv-x="714" 
d="M233 404v90q-51 -5 -51 -47q0 -23 18 -38q7 -6 49 -26q58 -28 58 -82q0 -42 -34 -72.5t-80 -30.5q-82 0 -136 63t-54 160q0 73 33 131t90.5 86t151.5 28q37 0 62 -4q2 -37 26 -76.5t50 -47.5v-279q0 -65 6 -77q10 -20 33 -20q33 0 39 35q2 22 2 64v188q0 46 -3 59.5
t-17 32.5q37 20 37 61q0 22 -15 57q32 13 62 13q66 0 98 -41q15 -19 18.5 -38t3.5 -82v-280q0 -91 -27.5 -138t-79.5 -74t-116 -27q-74 0 -128.5 32.5t-79.5 91.5q-12 29 -16 77q86 29 86 111q0 60 -73 94zM413 722q34 0 59 -41q28 -46 28 -79q0 -23 -16 -39t-40 -16
q-34 0 -56 30q-35 47 -35 85q0 25 17.5 42.5t42.5 17.5z" />
    <glyph glyph-name="Uacute" unicode="&#xda;" horiz-adv-x="714" 
d="M496 261v188q0 43 -2.5 56t-12.5 28q37 3 59 25q17 17 32 49.5t15 52.5q0 3 -1 10q50 -10 72 -39q15 -19 18.5 -38.5t3.5 -81.5v-280q0 -91 -27.5 -138t-79.5 -74t-116 -27q-74 0 -128.5 32.5t-79.5 91.5q-12 29 -16 77q86 29 86 111q0 60 -73 94l-13 6v90
q-51 -5 -51 -47q0 -23 18 -38q7 -6 49 -26q58 -28 58 -82q0 -42 -34 -72.5t-80 -30.5q-82 0 -136 63t-54 160q0 119 79 187q67 58 193 58q84 0 111 -25q24 -22 29 -58q1 -7 1 -67v-257q0 -65 6 -77q10 -20 33 -20q33 0 39 35q2 22 2 64zM516 722q23 0 40.5 -17.5t17.5 -41.5
q0 -39 -35 -86q-22 -30 -56 -30q-24 0 -40 16t-16 39q0 33 28 79q25 41 61 41z" />
    <glyph glyph-name="Ucircumflex" unicode="&#xdb;" horiz-adv-x="714" 
d="M337 663l-19 -14q-34 -25 -34 -53q0 -23 17 -41.5t38 -18.5q27 0 58 18l19 11v-306q0 -65 6 -77q10 -20 33 -20q33 0 39 35q2 22 2 64v188q0 48 -4 61t-26 45q-12 17 -13 30l4 3l69 -39q28 -16 48 -16q22 0 39 18t17 41q0 30 -42 61l-26 19q65 -3 96 -41q15 -19 18.5 -38
t3.5 -82v-280q0 -91 -27.5 -138t-79.5 -74t-116 -27q-74 0 -128.5 32.5t-79.5 91.5q-12 29 -16 77q86 29 86 111q0 60 -73 94l-13 6v90q-51 -5 -51 -47q0 -23 18 -38q7 -6 49 -26q58 -28 58 -82q0 -42 -34 -72.5t-80 -30.5q-82 0 -136 63t-54 160q0 73 33 131t90.5 86
t151.5 28q32 0 59 -3zM457 603l-67 -37q-31 -17 -51 -17q-16 0 -29 14.5t-13 32.5q0 21 29 42l59 42q44 31 72 31q29 0 61 -23l63 -46q36 -26 36 -50q0 -17 -13 -31t-29 -14q-19 0 -42 13z" />
    <glyph glyph-name="Udieresis" unicode="&#xdc;" horiz-adv-x="714" 
d="M233 404v90q-51 -5 -51 -47q0 -23 18 -38q7 -6 49 -26q58 -28 58 -82q0 -42 -34 -72.5t-80 -30.5q-82 0 -136 63t-54 160q0 73 33 131t91 86t145 28q-8 -21 -8 -37q0 -37 25.5 -62.5t61.5 -25.5t65 29v-311q0 -65 6 -77q10 -20 33 -20q33 0 39 35q2 22 2 64v188
q0 48 -3.5 61t-26.5 45q-14 20 -14 39q0 16 9 33q2 -38 26.5 -62t60.5 -24q37 0 62.5 26t25.5 63q0 8 -3 23q25 -16 37 -43q10 -22 10 -99v-280q0 -91 -27.5 -138t-79.5 -74t-116 -27q-74 0 -128.5 32.5t-79.5 91.5q-12 29 -16 77q86 29 86 111q0 60 -73 94zM550 703
q30 0 51.5 -22t21.5 -52q0 -31 -21.5 -53t-52.5 -22t-53 22t-22 53t22 52.5t54 21.5zM352 702q30 0 51.5 -22t21.5 -52q0 -31 -21.5 -52.5t-52.5 -21.5t-52.5 22t-21.5 53q0 30 22 51.5t53 21.5z" />
    <glyph glyph-name="Yacute" unicode="&#xdd;" horiz-adv-x="663" 
d="M415 488l7 13q4 8 12 21q1 4 5 12q3 -1 8 -1q30 0 54 25q18 18 32.5 50t14.5 54v6q6 1 13 1q44 0 73 -25t29 -62q0 -31 -35 -89l-133 -221v-16q0 -66 5 -85t33 -69q6 -10 6 -29q0 -34 -31 -56.5t-78 -22.5q-88 0 -112 70q-8 24 -8 87v73q30 35 30 78q0 80 -82 105l-29 56
q-11 22 -22 22q-10 0 -18 -11t-8 -25q0 -20 14 -32.5t62 -23.5q32 -7 51 -32.5t19 -59.5q0 -46 -35.5 -75t-91.5 -29q-48 0 -93 25t-71 67q-35 56 -35 131q0 113 68.5 180.5t182.5 67.5q46 0 69 -14.5t42 -54.5zM477 722q23 0 40.5 -17.5t17.5 -41.5q0 -39 -35 -86
q-22 -30 -56 -30q-24 0 -40 16t-16 39q0 33 28 79q25 41 61 41z" />
    <glyph glyph-name="Thorn" unicode="&#xde;" horiz-adv-x="709" 
d="M249 288v109q0 73 -2.5 93t-14.5 39q-24 38 -24 60q0 51 49 68q30 10 94 10h36q69 0 69 -48q0 -5 -2 -15.5t-2 -15.5q0 -17 38 -18q91 -2 152 -67t61 -163q0 -76 -38.5 -136t-101.5 -82q-37 -13 -128 -17v-29q0 -66 -4 -92q-7 -49 -32 -85q-58 -83 -171 -83
q-99 0 -160 65t-61 171q0 98 55 164t137 66q55 0 89 -30t34 -78q0 -60 -80 -86q-60 -19 -60 -56q0 -15 10.5 -26.5t23.5 -11.5q33 0 33 62v21q86 30 86 101q0 57 -48 92q-11 8 -38 18zM435 398v-116q6 -1 14 -1q70 0 70 58q0 40 -33 54q-12 5 -51 5z" />
    <glyph glyph-name="germandbls" unicode="&#xdf;" horiz-adv-x="521" 
d="M202 443v-249q-59 -20 -59 -88q0 -47 37 -83q-33 -27 -68 -27q-29 0 -51.5 17.5t-28.5 46.5q-5 23 -5 98v271q0 106 32 158q58 93 185 93q83 0 134 -42.5t51 -110.5q0 -65 -55 -119q61 -19 95.5 -67t34.5 -114q0 -101 -60.5 -165.5t-155.5 -64.5q-58 0 -95 30t-37 77
q0 81 92 84q37 1 55 12q32 19 32 53q0 41 -53 63t-53 74q0 19 5 30t29 42q9 14 9 28q0 34 -32 34q-38 0 -38 -81z" />
    <glyph glyph-name="agrave" unicode="&#xe0;" horiz-adv-x="534" 
d="M317 194v44q0 57 -15 80t-52 23q-31 0 -51 -20.5t-20 -52.5q0 -55 49 -73q19 -7 61 -8q30 -1 52 -25.5t22 -57.5q0 -46 -38 -76.5t-97 -30.5q-94 0 -153.5 66t-59.5 169q0 106 59 178t146 72q52 0 109 -42q28 41 74 41q41 0 64.5 -22.5t23.5 -60.5v-17q-1 -7 -1 -16v-155
q0 -44 3 -56.5t18 -30.5q22 -27 22 -47q0 -33 -30 -56t-73 -23q-49 0 -87 29q33 32 33 78q0 64 -59 90zM250 722q34 0 59 -41q28 -46 28 -79q0 -23 -16 -39t-40 -16q-34 0 -56 30q-35 47 -35 85q0 25 17.5 42.5t42.5 17.5z" />
    <glyph glyph-name="aacute" unicode="&#xe1;" horiz-adv-x="534" 
d="M317 194v44q0 57 -15 80t-52 23q-31 0 -51 -20.5t-20 -52.5q0 -55 49 -73q19 -7 61 -8q30 -1 52 -25.5t22 -57.5q0 -46 -38 -76.5t-97 -30.5q-94 0 -153.5 66t-59.5 169q0 106 59 178t146 72q52 0 109 -42q28 41 74 41q41 0 64.5 -22.5t23.5 -60.5v-17q-1 -7 -1 -16v-155
q0 -44 3 -56.5t18 -30.5q22 -27 22 -47q0 -33 -30 -56t-73 -23q-49 0 -87 29q33 32 33 78q0 64 -59 90zM326 702q23 0 40.5 -17.5t17.5 -41.5q0 -39 -35 -86q-22 -30 -56 -30q-24 0 -40 16t-16 39q0 33 28 79q25 41 61 41z" />
    <glyph glyph-name="acircumflex" unicode="&#xe2;" horiz-adv-x="534" 
d="M317 194v44q0 57 -15 80t-52 23q-31 0 -51 -20.5t-20 -52.5q0 -55 49 -73q19 -7 61 -8q30 -1 52 -25.5t22 -57.5q0 -46 -38 -76.5t-97 -30.5q-94 0 -153.5 66t-59.5 169q0 106 59 178t146 72q52 0 109 -42q28 41 74 41q41 0 64.5 -22.5t23.5 -60.5v-17q-1 -7 -1 -16v-155
q0 -44 3 -56.5t18 -30.5q22 -27 22 -47q0 -33 -30 -56t-73 -23q-49 0 -87 29q33 32 33 78q0 64 -59 90zM288 598l-67 -36q-32 -17 -51 -17q-16 0 -29 14.5t-13 31.5q0 23 28 43l60 42q44 31 72 31q29 0 61 -23l63 -46q36 -26 36 -51q0 -17 -13 -31t-29 -14q-17 0 -42 14z
" />
    <glyph glyph-name="atilde" unicode="&#xe3;" horiz-adv-x="534" 
d="M317 194v44q0 57 -15 80t-52 23q-31 0 -51 -20.5t-20 -52.5q0 -55 49 -73q19 -7 61 -8q30 -1 52 -25.5t22 -57.5q0 -46 -38 -76.5t-97 -30.5q-94 0 -153.5 66t-59.5 169q0 106 59 178t146 72q52 0 109 -42q28 41 74 41q41 0 64.5 -22.5t23.5 -60.5v-17q-1 -7 -1 -16v-155
q0 -44 3 -56.5t18 -30.5q22 -27 22 -47q0 -33 -30 -56t-73 -23q-49 0 -87 29q33 32 33 78q0 64 -59 90zM240 588q-12 0 -40 -19q-13 -9 -33 -9t-34 14.5t-14 34.5q0 36 30.5 60t75.5 24q37 0 86 -22q18 -8 27 -8q8 0 31 14.5t37 14.5q21 0 35.5 -14t14.5 -35q0 -35 -33 -60
t-80 -25q-31 0 -82 25q-10 5 -21 5z" />
    <glyph glyph-name="adieresis" unicode="&#xe4;" horiz-adv-x="534" 
d="M317 194v44q0 57 -15 80t-52 23q-31 0 -51 -20.5t-20 -52.5q0 -55 49 -73q19 -7 61 -8q30 -1 52 -25.5t22 -57.5q0 -46 -38 -76.5t-97 -30.5q-94 0 -153.5 66t-59.5 169q0 106 59 178t146 72q52 0 109 -42q28 41 74 41q41 0 64.5 -22.5t23.5 -60.5v-17q-1 -7 -1 -16v-155
q0 -44 3 -56.5t18 -30.5q22 -27 22 -47q0 -33 -30 -56t-73 -23q-49 0 -87 29q33 32 33 78q0 64 -59 90zM388 676q30 0 51.5 -22t21.5 -52q0 -31 -21.5 -53t-52.5 -22t-53 22t-22 53t22 52.5t54 21.5zM189 675q30 0 51.5 -22t21.5 -52q0 -31 -21.5 -52.5t-52.5 -21.5
t-52.5 22t-21.5 53q0 30 22 51.5t53 21.5z" />
    <glyph glyph-name="aring" unicode="&#xe5;" horiz-adv-x="534" 
d="M317 194v44q0 57 -15 80t-52 23q-31 0 -51 -20.5t-20 -52.5q0 -55 49 -73q19 -7 61 -8q30 -1 52 -25.5t22 -57.5q0 -46 -38 -76.5t-97 -30.5q-94 0 -153.5 66t-59.5 169q0 106 59 178t146 72q52 0 109 -42q28 41 74 41q41 0 64.5 -22.5t23.5 -60.5v-17q-1 -7 -1 -16v-155
q0 -44 3 -56.5t18 -30.5q22 -27 22 -47q0 -33 -30 -56t-73 -23q-49 0 -87 29q33 32 33 78q0 64 -59 90zM296 704q37 0 64.5 -28t27.5 -66q0 -40 -27.5 -67.5t-65.5 -27.5q-39 0 -66.5 27.5t-27.5 67.5q0 39 27.5 66.5t67.5 27.5zM294 636q-26 0 -26 -26t26 -26q27 0 27 26
t-27 26z" />
    <glyph glyph-name="ae" unicode="&#xe6;" horiz-adv-x="763" 
d="M644 213h-162q23 -44 75 -44q21 0 77 21q13 5 28 5q29 0 51 -23.5t22 -54.5q0 -35 -33 -71q-50 -54 -155 -54q-106 0 -172 69l-4 -4l-10 -12q-42 -51 -145 -51q-90 0 -144 42.5t-54 112.5q0 47 30 89q32 -23 63 -23q50 0 77 44q6 10 15 30q7 1 16 1q31 0 67 -17
q-1 12 -5 31q-9 26 -39 26q-32 0 -51 -42q-27 -61 -81 -61q-37 0 -64 29t-27 70q0 67 62.5 111.5t156.5 44.5q77 0 153 -46q61 47 140 47q91 0 156.5 -58t65.5 -138q0 -46 -34 -65q-16 -9 -75 -9zM467 298h90q37 0 37 24q0 17 -17.5 29t-42.5 12q-28 0 -46.5 -18t-20.5 -47z
M295 179q-26 16 -53 16q-30 0 -30 -27q0 -30 35 -30q40 0 48 41z" />
    <glyph glyph-name="ccedilla" unicode="&#xe7;" horiz-adv-x="439" 
d="M348 10q-33 70 -103 70q-72 0 -93 -67q-137 62 -137 223q0 106 68 177t170 71q73 0 123 -35.5t50 -87.5q0 -34 -23.5 -58t-55.5 -24q-23 0 -60 32q-17 15 -40 15q-27 0 -46 -21t-19 -52q0 -32 20.5 -54.5t48.5 -22.5q14 0 55 19q24 11 47 11q35 0 60.5 -25.5t25.5 -60.5
q0 -72 -91 -110zM234 -85q-31 0 -52 21t-21 51q0 34 24 57t60 23q43 0 71.5 -32t28.5 -79q0 -62 -40 -106.5t-96 -44.5q-43 0 -43 37q0 17 11 25q6 4 28 13t29 35z" />
    <glyph glyph-name="egrave" unicode="&#xe8;" horiz-adv-x="473" 
d="M370 213h-177q21 -43 76 -43q23 0 55.5 12.5t45.5 12.5q29 0 52 -23t23 -52q0 -55 -54 -91.5t-134 -36.5q-105 0 -173.5 70t-68.5 179q0 105 63 173t160 68q65 0 118 -28.5t82 -78.5q25 -44 25 -86q0 -62 -51 -73q-12 -3 -42 -3zM178 299h83q45 0 45 24q0 16 -17.5 27.5
t-42.5 11.5q-62 0 -68 -63zM213 702q34 0 59 -41q28 -46 28 -79q0 -23 -16 -39t-40 -16q-34 0 -56 30q-35 47 -35 85q0 25 17.5 42.5t42.5 17.5z" />
    <glyph glyph-name="eacute" unicode="&#xe9;" horiz-adv-x="473" 
d="M370 213h-177q21 -43 76 -43q23 0 55.5 12.5t45.5 12.5q29 0 52 -23t23 -52q0 -55 -54 -91.5t-134 -36.5q-105 0 -173.5 70t-68.5 179q0 105 63 173t160 68q65 0 118 -28.5t82 -78.5q25 -44 25 -86q0 -62 -51 -73q-12 -3 -42 -3zM178 299h83q45 0 45 24q0 16 -17.5 27.5
t-42.5 11.5q-62 0 -68 -63zM276 702q23 0 40.5 -17.5t17.5 -41.5q0 -39 -35 -86q-22 -30 -56 -30q-24 0 -40 16t-16 39q0 33 28 79q25 41 61 41z" />
    <glyph glyph-name="ecircumflex" unicode="&#xea;" horiz-adv-x="473" 
d="M370 213h-177q21 -43 76 -43q23 0 55.5 12.5t45.5 12.5q29 0 52 -23t23 -52q0 -55 -54 -91.5t-134 -36.5q-105 0 -173.5 70t-68.5 179q0 105 63 173t160 68q65 0 118 -28.5t82 -78.5q25 -44 25 -86q0 -62 -51 -73q-12 -3 -42 -3zM178 299h83q45 0 45 24q0 16 -17.5 27.5
t-42.5 11.5q-62 0 -68 -63zM250 598l-67 -36q-32 -17 -51 -17q-16 0 -29 14.5t-13 31.5q0 23 28 43l60 42q44 31 72 31q29 0 61 -23l63 -46q36 -26 36 -51q0 -17 -13 -31t-29 -14q-17 0 -42 14z" />
    <glyph glyph-name="edieresis" unicode="&#xeb;" horiz-adv-x="473" 
d="M370 213h-177q21 -43 76 -43q23 0 55.5 12.5t45.5 12.5q29 0 52 -23t23 -52q0 -55 -54 -91.5t-134 -36.5q-105 0 -173.5 70t-68.5 179q0 105 63 173t160 68q65 0 118 -28.5t82 -78.5q25 -44 25 -86q0 -62 -51 -73q-12 -3 -42 -3zM178 299h83q45 0 45 24q0 16 -17.5 27.5
t-42.5 11.5q-62 0 -68 -63zM350 676q30 0 51.5 -22t21.5 -52q0 -31 -21.5 -53t-52.5 -22t-53 22t-22 53t22 52.5t54 21.5zM151 675q30 0 51.5 -22t21.5 -52q0 -31 -21.5 -52.5t-52.5 -21.5t-52.5 22t-21.5 53q0 30 22 51.5t53 21.5z" />
    <glyph glyph-name="igrave" unicode="&#xec;" horiz-adv-x="267" 
d="M43 138v142q0 38 -3.5 50.5t-25.5 46.5q-11 17 -11 33q0 29 31 50t74 21q70 0 97 -53q11 -22 11 -74v-125q0 -53 4 -68.5t27 -45.5q16 -21 16 -39q0 -34 -32 -57t-79 -23q-76 0 -101 55q-8 17 -8 87zM96 702q34 0 59 -41q28 -46 28 -79q0 -23 -16 -39t-40 -16
q-34 0 -56 30q-35 47 -35 85q0 25 17.5 42.5t42.5 17.5z" />
    <glyph glyph-name="iacute" unicode="&#xed;" horiz-adv-x="267" 
d="M43 138v142q0 38 -3.5 50.5t-25.5 46.5q-11 17 -11 33q0 29 31 50t74 21q70 0 97 -53q11 -22 11 -74v-125q0 -53 4 -68.5t27 -45.5q16 -21 16 -39q0 -34 -32 -57t-79 -23q-76 0 -101 55q-8 17 -8 87zM166 702q23 0 40.5 -17.5t17.5 -41.5q0 -39 -35 -86q-22 -30 -56 -30
q-24 0 -40 16t-16 39q0 33 28 79q25 41 61 41z" />
    <glyph glyph-name="icircumflex" unicode="&#xee;" horiz-adv-x="267" 
d="M43 138v142q0 38 -3.5 50.5t-25.5 46.5q-11 17 -11 33q0 29 31 50t74 21q70 0 97 -53q11 -22 11 -74v-125q0 -53 4 -68.5t27 -45.5q16 -21 16 -39q0 -34 -32 -57t-79 -23q-76 0 -101 55q-8 17 -8 87zM127 598l-67 -36q-32 -17 -51 -17q-16 0 -29 14.5t-13 31.5
q0 23 28 43l60 42q44 31 72 31q29 0 61 -23l63 -46q36 -26 36 -51q0 -17 -13 -31t-29 -14q-17 0 -42 14z" />
    <glyph glyph-name="idieresis" unicode="&#xef;" horiz-adv-x="267" 
d="M43 138v142q0 38 -3.5 50.5t-25.5 46.5q-11 17 -11 33q0 29 31 50t74 21q70 0 97 -53q11 -22 11 -74v-125q0 -53 4 -68.5t27 -45.5q16 -21 16 -39q0 -34 -32 -57t-79 -23q-76 0 -101 55q-8 17 -8 87zM135 556q13 22 13 46t-14 48q24 28 59 28q31 0 52.5 -22t21.5 -53
t-21.5 -53t-52.5 -22q-34 0 -58 28zM62 676q30 0 51.5 -22t21.5 -52q0 -31 -21.5 -52.5t-52.5 -21.5t-52.5 22t-21.5 53q0 30 22 51.5t53 21.5z" />
    <glyph glyph-name="eth" unicode="&#xf0;" horiz-adv-x="503" 
d="M274 673q-46 -53 -46 -82q0 -30 23.5 -52.5t54.5 -22.5q24 0 46 18q8 8 34 38q104 -124 104 -294q0 -173 -92 -239q-64 -46 -145 -46q-104 0 -171 66t-67 169q0 104 66.5 169.5t171.5 65.5q15 0 27 -2q-27 38 -53 57.5t-109 66.5q-47 26 -47 66q0 31 22.5 53.5t53.5 22.5
q47 0 127 -54zM252 322q-32 0 -53.5 -20.5t-21.5 -50.5q0 -31 21.5 -51.5t54.5 -20.5t54 20.5t21 52.5q0 31 -21.5 50.5t-54.5 19.5zM412 622l-32 -37q-29 -33 -32 -36q-21 -20 -42 -20q-26 0 -45.5 18t-19.5 43q0 28 60 94l20 22q26 29 52 29q25 0 44 -18t19 -42
q0 -25 -24 -53z" />
    <glyph glyph-name="ntilde" unicode="&#xf1;" horiz-adv-x="530" 
d="M198 441l8 4l24 14q36 21 92 21q101 0 142 -76q17 -31 17 -112v-93q0 -49 20 -74q26 -32 26 -52q0 -34 -31 -56.5t-78 -22.5q-63 0 -94 41q-12 17 -14.5 30t-2.5 68v115q0 44 -6 58q-10 23 -42 23q-22 0 -40 -14v-110q0 -57 21 -83q25 -30 25 -48q0 -32 -32.5 -55.5
t-77.5 -23.5q-68 0 -97 49q-13 23 -13 80v144q0 47 -4 61t-27 51q-9 14 -9 30q0 30 29 50t72 20q34 0 51.5 -7t40.5 -32zM217 588q-12 0 -40 -19q-13 -9 -33 -9t-34 14.5t-14 34.5q0 36 30.5 60t75.5 24q37 0 86 -22q18 -8 27 -8q8 0 31 14.5t37 14.5q21 0 35.5 -14
t14.5 -35q0 -35 -33 -60t-80 -25q-31 0 -82 25q-10 5 -21 5z" />
    <glyph glyph-name="ograve" unicode="&#xf2;" horiz-adv-x="503" 
d="M256 483q100 0 166.5 -71t66.5 -177q0 -104 -67 -173t-169 -69q-105 0 -171.5 68.5t-66.5 177.5q0 107 67.5 175.5t173.5 68.5zM252 342q-32 0 -53.5 -23.5t-21.5 -57.5q0 -35 21.5 -58.5t54.5 -23.5t54 23.5t21 59.5q0 35 -21.5 57.5t-54.5 22.5zM215 702q34 0 59 -41
q28 -46 28 -79q0 -23 -16 -39t-40 -16q-34 0 -56 30q-35 47 -35 85q0 25 17.5 42.5t42.5 17.5z" />
    <glyph glyph-name="oacute" unicode="&#xf3;" horiz-adv-x="503" 
d="M256 483q100 0 166.5 -71t66.5 -177q0 -104 -67 -173t-169 -69q-105 0 -171.5 68.5t-66.5 177.5q0 107 67.5 175.5t173.5 68.5zM252 342q-32 0 -53.5 -23.5t-21.5 -57.5q0 -35 21.5 -58.5t54.5 -23.5t54 23.5t21 59.5q0 35 -21.5 57.5t-54.5 22.5zM291 702
q23 0 40.5 -17.5t17.5 -41.5q0 -39 -35 -86q-22 -30 -56 -30q-24 0 -40 16t-16 39q0 33 28 79q25 41 61 41z" />
    <glyph glyph-name="ocircumflex" unicode="&#xf4;" horiz-adv-x="503" 
d="M256 483q100 0 166.5 -71t66.5 -177q0 -104 -67 -173t-169 -69q-105 0 -171.5 68.5t-66.5 177.5q0 107 67.5 175.5t173.5 68.5zM252 342q-32 0 -53.5 -23.5t-21.5 -57.5q0 -35 21.5 -58.5t54.5 -23.5t54 23.5t21 59.5q0 35 -21.5 57.5t-54.5 22.5zM252 598l-67 -36
q-32 -17 -51 -17q-16 0 -29 14.5t-13 31.5q0 23 28 43l60 42q44 31 72 31q29 0 61 -23l63 -46q36 -26 36 -51q0 -17 -13 -31t-29 -14q-17 0 -42 14z" />
    <glyph glyph-name="otilde" unicode="&#xf5;" horiz-adv-x="503" 
d="M256 483q100 0 166.5 -71t66.5 -177q0 -104 -67 -173t-169 -69q-105 0 -171.5 68.5t-66.5 177.5q0 107 67.5 175.5t173.5 68.5zM252 342q-32 0 -53.5 -23.5t-21.5 -57.5q0 -35 21.5 -58.5t54.5 -23.5t54 23.5t21 59.5q0 35 -21.5 57.5t-54.5 22.5zM204 588q-12 0 -40 -19
q-13 -9 -33 -9t-34 14.5t-14 34.5q0 36 30.5 60t75.5 24q37 0 86 -22q18 -8 27 -8q8 0 31 14.5t37 14.5q21 0 35.5 -14t14.5 -35q0 -35 -33 -60t-80 -25q-31 0 -82 25q-10 5 -21 5z" />
    <glyph glyph-name="odieresis" unicode="&#xf6;" horiz-adv-x="503" 
d="M256 483q100 0 166.5 -71t66.5 -177q0 -104 -67 -173t-169 -69q-105 0 -171.5 68.5t-66.5 177.5q0 107 67.5 175.5t173.5 68.5zM252 342q-32 0 -53.5 -23.5t-21.5 -57.5q0 -35 21.5 -58.5t54.5 -23.5t54 23.5t21 59.5q0 35 -21.5 57.5t-54.5 22.5zM352 676q30 0 51.5 -22
t21.5 -52q0 -31 -21.5 -53t-52.5 -22t-53 22t-22 53t22 52.5t54 21.5zM153 675q30 0 51.5 -22t21.5 -52q0 -31 -21.5 -52.5t-52.5 -21.5t-52.5 22t-21.5 53q0 30 22 51.5t53 21.5z" />
    <glyph glyph-name="divide" unicode="&#xf7;" 
d="M90 400h322q34 0 54.5 -18.5t20.5 -49.5q0 -66 -75 -66h-323q-76 0 -76 68q0 66 77 66zM251 605q44 0 71.5 -24.5t27.5 -64.5q0 -39 -27.5 -62.5t-73.5 -23.5q-45 0 -72.5 24t-27.5 64q0 39 28 63t74 24zM251 237q44 0 71.5 -24.5t27.5 -64.5q0 -39 -27.5 -62.5
t-73.5 -23.5q-45 0 -72.5 24t-27.5 64q0 39 28 63t74 24z" />
    <glyph glyph-name="oslash" unicode="&#xf8;" horiz-adv-x="503" 
d="M122 29l10 11q25 27 25 49t-16.5 38.5t-38.5 16.5q-23 0 -51 -27l-6 -7q-30 56 -30 126q0 108 66.5 177.5t170.5 69.5q71 0 130 -37q-36 -35 -36 -58t17 -40.5t39 -17.5q25 0 45 22l10 11q32 -62 32 -136q0 -98 -68.5 -166t-167.5 -68q-72 0 -131 36zM252 342
q-32 0 -53.5 -23.5t-21.5 -57.5q0 -35 21.5 -58.5t54.5 -23.5t54 23.5t21 59.5q0 35 -21.5 57.5t-54.5 22.5zM42 88l19 19q24 24 40 24q17 0 30 -12.5t13 -29.5q0 -19 -21 -40l-38 -38q-17 -17 -35 -17q-17 0 -30 13.5t-13 31.5q0 19 33 48zM392 437l21 20q25 24 40 24
q17 0 30 -12.5t13 -29.5q0 -19 -21 -40l-38 -38q-17 -17 -35 -17q-17 0 -30 13.5t-13 30.5q0 13 4.5 20t28.5 29z" />
    <glyph glyph-name="ugrave" unicode="&#xf9;" horiz-adv-x="529" 
d="M309 160v98q0 49 -3 62.5t-19 34.5q-23 30 -23 50q0 32 31 54t76 22q68 0 97 -46q15 -24 15 -85v-136q0 -52 3.5 -66.5t26.5 -50.5q10 -16 10 -34q0 -29 -29.5 -48.5t-73.5 -19.5q-55 0 -91 40q-61 -39 -124 -39q-109 0 -146 85q-13 30 -13 106v92q0 33 -4 45.5t-22.5 36
t-18.5 43.5q0 34 30.5 56t77.5 22q65 0 95 -40q11 -15 13.5 -29t2.5 -56v-125q0 -40 4 -54q9 -31 45 -31q18 0 40 13zM227 702q34 0 59 -41q28 -46 28 -79q0 -23 -16 -39t-40 -16q-34 0 -56 30q-35 47 -35 85q0 25 17.5 42.5t42.5 17.5z" />
    <glyph glyph-name="uacute" unicode="&#xfa;" horiz-adv-x="529" 
d="M309 160v98q0 49 -3 62.5t-19 34.5q-23 30 -23 50q0 32 31 54t76 22q68 0 97 -46q15 -24 15 -85v-136q0 -52 3.5 -66.5t26.5 -50.5q10 -16 10 -34q0 -29 -29.5 -48.5t-73.5 -19.5q-55 0 -91 40q-61 -39 -124 -39q-109 0 -146 85q-13 30 -13 106v92q0 33 -4 45.5t-22.5 36
t-18.5 43.5q0 34 30.5 56t77.5 22q65 0 95 -40q11 -15 13.5 -29t2.5 -56v-125q0 -40 4 -54q9 -31 45 -31q18 0 40 13zM303 702q23 0 40.5 -17.5t17.5 -41.5q0 -39 -35 -86q-22 -30 -56 -30q-24 0 -40 16t-16 39q0 33 28 79q25 41 61 41z" />
    <glyph glyph-name="ucircumflex" unicode="&#xfb;" horiz-adv-x="529" 
d="M309 160v98q0 49 -3 62.5t-19 34.5q-23 30 -23 50q0 32 31 54t76 22q68 0 97 -46q15 -24 15 -85v-136q0 -52 3.5 -66.5t26.5 -50.5q10 -16 10 -34q0 -29 -29.5 -48.5t-73.5 -19.5q-55 0 -91 40q-61 -39 -124 -39q-109 0 -146 85q-13 30 -13 106v92q0 33 -4 45.5t-22.5 36
t-18.5 43.5q0 34 30.5 56t77.5 22q65 0 95 -40q11 -15 13.5 -29t2.5 -56v-125q0 -40 4 -54q9 -31 45 -31q18 0 40 13zM264 598l-67 -36q-32 -17 -51 -17q-16 0 -29 14.5t-13 31.5q0 23 28 43l60 42q44 31 72 31q29 0 61 -23l63 -46q36 -26 36 -51q0 -17 -13 -31t-29 -14
q-17 0 -42 14z" />
    <glyph glyph-name="udieresis" unicode="&#xfc;" horiz-adv-x="529" 
d="M309 160v98q0 49 -3 62.5t-19 34.5q-23 30 -23 50q0 32 31 54t76 22q68 0 97 -46q15 -24 15 -85v-136q0 -52 3.5 -66.5t26.5 -50.5q10 -16 10 -34q0 -29 -29.5 -48.5t-73.5 -19.5q-55 0 -91 40q-61 -39 -124 -39q-109 0 -146 85q-13 30 -13 106v92q0 33 -4 45.5t-22.5 36
t-18.5 43.5q0 34 30.5 56t77.5 22q65 0 95 -40q11 -15 13.5 -29t2.5 -56v-125q0 -40 4 -54q9 -31 45 -31q18 0 40 13zM348 676q30 0 51.5 -22t21.5 -52q0 -31 -21.5 -53t-52.5 -22t-53 22t-22 53t22 52.5t54 21.5zM149 675q30 0 51.5 -22t21.5 -52q0 -31 -21.5 -52.5
t-52.5 -21.5t-52.5 22t-21.5 53q0 30 22 51.5t53 21.5z" />
    <glyph glyph-name="yacute" unicode="&#xfd;" horiz-adv-x="517" 
d="M311 173v77q0 57 -3.5 70.5t-25.5 39.5q-18 22 -18 41q0 31 32 54.5t76 23.5q74 0 100 -55q11 -23 11 -69v-296q0 -88 -18 -127q-23 -50 -79.5 -80t-126.5 -30q-80 0 -135 39.5t-55 96.5q0 37 25 63.5t59 26.5t74 -33q27 -22 45 -22q36 0 39 51q-41 -16 -75 -19
q-45 36 -84 36q-19 0 -39 -10q-69 34 -67 145l1 56q1 41 -2 56q-5 23 -24.5 48t-19.5 44q0 34 31 56.5t77 22.5q80 0 104 -55q8 -18 8 -72v-109q0 -39 5 -56q8 -26 38 -26q22 0 47 12zM297 702q23 0 40.5 -17.5t17.5 -41.5q0 -39 -35 -86q-22 -30 -56 -30q-24 0 -40 16
t-16 39q0 33 28 79q25 41 61 41z" />
    <glyph glyph-name="thorn" unicode="&#xfe;" horiz-adv-x="533" 
d="M213 529v-79q53 32 98 32q87 0 147 -73t60 -179q0 -102 -59 -168t-151 -66q-62 0 -100.5 29.5t-38.5 76.5q0 80 86 85q39 2 52 6.5t26 19.5q20 23 20 53q0 32 -19.5 53t-50.5 21q-42 0 -57 -30q-9 -19 -9 -60v-58q-61 -26 -61 -90q0 -60 61 -98q5 -26 25.5 -52.5
t20.5 -44.5q0 -34 -32 -56.5t-79 -22.5q-74 0 -99 49q-12 24 -12 103v483q0 43 -3.5 57t-22.5 40q-15 21 -15 38q0 30 30 51t73 21q84 0 104 -65q6 -19 6 -76z" />
    <glyph glyph-name="ydieresis" unicode="&#xff;" horiz-adv-x="517" 
d="M311 173v77q0 57 -3.5 70.5t-25.5 39.5q-18 22 -18 41q0 31 32 54.5t76 23.5q74 0 100 -55q11 -23 11 -69v-296q0 -88 -18 -127q-23 -50 -79.5 -80t-126.5 -30q-80 0 -135 39.5t-55 96.5q0 37 25 63.5t59 26.5t74 -33q27 -22 45 -22q36 0 39 51q-41 -16 -75 -19
q-45 36 -84 36q-19 0 -39 -10q-69 34 -67 145l1 56q1 41 -2 56q-5 23 -24.5 48t-19.5 44q0 34 31 56.5t77 22.5q80 0 104 -55q8 -18 8 -72v-109q0 -39 5 -56q8 -26 38 -26q22 0 47 12zM358 676q30 0 51.5 -22t21.5 -52q0 -31 -21.5 -53t-52.5 -22t-53 22t-22 53t22 52.5
t54 21.5zM159 675q30 0 51.5 -22t21.5 -52q0 -31 -21.5 -52.5t-52.5 -21.5t-52.5 22t-21.5 53q0 30 22 51.5t53 21.5z" />
    <glyph glyph-name="dotlessi" unicode="&#x131;" horiz-adv-x="267" 
d="M43 138v142q0 38 -3.5 50.5t-25.5 46.5q-11 17 -11 33q0 29 31 50t74 21q70 0 97 -53q11 -22 11 -74v-125q0 -53 4 -68.5t27 -45.5q16 -21 16 -39q0 -34 -32 -57t-79 -23q-76 0 -101 55q-8 17 -8 87z" />
    <glyph glyph-name="Lslash" unicode="&#x141;" horiz-adv-x="499" 
d="M109 196l186 153v-142q0 -37 22 -37q13 0 51 15q33 13 55 13q29 0 49.5 -24t20.5 -58q0 -48 -33 -81q-25 -25 -63 -32q-17 -3 -71 -3h-77q-80 0 -111 31q-20 20 -26 48q-3 15 -3 56v61zM295 532l-186 -153v92q0 33 -3.5 45.5t-19.5 34t-16 41.5q0 31 32 51t82 20
q54 0 87 -29q24 -21 24 -82v-20zM41 305l302 248q29 24 48 24q23 0 40.5 -16t17.5 -37q0 -30 -47 -69l-302 -249q-24 -20 -45 -20q-18 0 -35 19t-17 39q0 30 38 61z" />
    <glyph glyph-name="lslash" unicode="&#x142;" horiz-adv-x="267" 
d="M213 489l-173 -140v114q0 46 -3 58t-22 39q-15 22 -15 38q0 30 30 51t73 21q84 0 104 -65q6 -19 6 -76v-40zM213 342v-89q0 -45 2 -73.5t19 -50.5q20 -25 23.5 -32t3.5 -21q0 -35 -31.5 -57.5t-79.5 -22.5q-73 0 -100 52q-7 14 -8.5 28.5t-1.5 78.5v50zM280 412
l-247 -196q-33 -26 -47 -26t-25.5 13.5t-11.5 29.5q0 26 34 53l250 202q21 17 36 17q17 0 30 -13.5t13 -30.5q0 -24 -32 -49z" />
    <glyph glyph-name="OE" unicode="&#x152;" horiz-adv-x="807" 
d="M550 171h16h19q10 -1 12 -1q28 0 84 18q22 7 43 7q29 0 49 -24t20 -59t-18 -63t-45.5 -38.5t-79.5 -10.5h-144q-64 0 -90 13q-64 -23 -107 -23q-129 0 -213 110q-73 96 -73 235q0 149 72 239q37 47 96 74t121 27q21 0 71 -8h211q100 0 137 -24q49 -31 49 -96
q0 -76 -66 -76q-12 0 -64 16q-22 6 -72 6h-28v-78h85q54 0 71 -6q48 -17 48 -77q0 -82 -95 -82h-109v-79zM306 496q-43 0 -68.5 -40t-25.5 -107q0 -76 26 -122t70 -46t69.5 42t25.5 116q0 157 -97 157z" />
    <glyph glyph-name="oe" unicode="&#x153;" horiz-adv-x="760" 
d="M649 214h-169q25 -44 79 -44q21 0 54 13t47 13q29 0 51 -23t22 -54q0 -42 -41 -79q-51 -46 -142 -46q-90 0 -152 46q-63 -47 -147 -47q-101 0 -169 69t-68 172q0 108 67 178t171 70q72 0 142 -45q56 45 137 45q119 0 183 -91q36 -51 36 -104q0 -39 -27 -59
q-19 -14 -74 -14zM464 298h74q26 0 38 2q16 5 16 23q0 16 -17 28t-40 12q-66 0 -71 -65zM250 341q-30 0 -52.5 -24t-22.5 -56q0 -34 22 -58t54 -24t53.5 23.5t21.5 58.5q0 34 -22 57t-54 23z" />
    <glyph glyph-name="Scaron" unicode="&#x160;" horiz-adv-x="534" 
d="M360 566l59 42q3 2 8 7q3 2 8 7q47 -41 47 -91q0 -39 -26.5 -68t-61.5 -29q-24 0 -45 14q-9 6 -37 32q-14 13 -29 13q-30 0 -30 -27q0 -20 32 -42q93 -65 161 -141q82 -92 82 -219q0 -120 -78 -193q-69 -65 -182 -65q-117 0 -190 71t-73 185q0 95 55 159.5t137 64.5
q54 0 87.5 -29.5t33.5 -77.5q0 -54 -70 -85q-29 -13 -39.5 -25t-10.5 -33q0 -23 17.5 -38t42.5 -15q32 0 53.5 25t21.5 63q0 25 -16 60q13 26 13 52q0 50 -36.5 82.5t-92.5 32.5q-15 0 -43 -4q-41 34 -60 57q-44 53 -44 123q0 87 72 150q12 -12 23 -20l62 -45q36 -26 69 -26
q34 0 80 33zM280 655l67 36q32 17 51 17q16 0 29 -14.5t13 -31.5q0 -23 -28 -43l-60 -42q-43 -30 -72 -30t-61 23l-63 45q-36 26 -36 51q0 17 13 31t29 14q17 0 42 -14z" />
    <glyph glyph-name="scaron" unicode="&#x161;" horiz-adv-x="433" 
d="M208 334q-25 0 -25 -23q0 -26 84 -34q68 -7 96 -24q54 -33 54 -106q0 -68 -55.5 -111t-143.5 -43q-85 0 -143.5 37.5t-58.5 91.5q0 33 23 58t54 25q24 0 78 -29q32 -17 47 -17q23 0 23 21q0 27 -56 32q-73 6 -112 30q-53 32 -53 99q0 65 52 104t140 39q83 0 137 -34
t54 -86q0 -30 -21 -51.5t-50 -21.5q-27 0 -70 21.5t-54 21.5zM216 650l68 37q31 17 50 17q16 0 29 -14.5t13 -31.5q0 -23 -28 -43l-60 -42q-44 -31 -72 -31q-30 0 -61 23l-62 46q-36 27 -36 51q0 17 13 31t29 14t41 -14z" />
    <glyph glyph-name="Ydieresis" unicode="&#x178;" horiz-adv-x="663" 
d="M415 488l7 13q22 41 27 65q28 -25 61 -25q37 0 62.5 26t25.5 63q0 14 -7 34q72 -18 72 -82q0 -31 -35 -89l-133 -221v-16q0 -66 5 -85t33 -69q6 -10 6 -29q0 -34 -31 -56.5t-78 -22.5q-88 0 -112 70q-8 24 -8 87v73q30 35 30 78q0 80 -82 105l-29 56q-11 22 -22 22
q-10 0 -18 -11t-8 -25q0 -20 14 -32.5t62 -23.5q32 -7 51 -32.5t19 -59.5q0 -46 -35.5 -75t-91.5 -29q-48 0 -93 25t-71 67q-35 56 -35 131q0 108 62 174.5t171 73.5q-10 -21 -10 -39q0 -37 25.5 -62.5t61.5 -25.5q37 0 66 29zM511 703q30 0 51.5 -22t21.5 -52
q0 -31 -21.5 -53t-52.5 -22t-53 22t-22 53t22 52.5t54 21.5zM313 702q30 0 51.5 -22t21.5 -52q0 -31 -21.5 -52.5t-52.5 -21.5t-52.5 22t-21.5 53q0 30 22 51.5t53 21.5z" />
    <glyph glyph-name="Zcaron" unicode="&#x17d;" horiz-adv-x="454" 
d="M45 164l159 330q-50 -1 -102 -21q-10 -4 -27 -4q-31 0 -51.5 25t-20.5 63q0 60 52 94q9 -24 40 -47l62 -45q36 -26 69 -26q34 0 80 33l59 42q22 16 33 42q34 -25 34 -70q0 -31 -29 -91l-154 -318q50 1 83 13.5t44 12.5q34 0 54.5 -24t20.5 -64q0 -65 -55 -93
q-31 -16 -114 -16h-160q-104 0 -104 85q0 23 27 79zM226 655l67 36q32 17 51 17q16 0 29 -14.5t13 -31.5q0 -23 -28 -43l-60 -42q-43 -30 -72 -30t-61 23l-63 45q-35 25 -35 51q0 17 13 31t29 14t41 -14z" />
    <glyph glyph-name="zcaron" unicode="&#x17e;" horiz-adv-x="439" 
d="M384 342l-145 -204q5 -1 11 -1q18 0 49 20q47 30 71 30q27 0 45 -21.5t18 -54.5q0 -71 -53 -100q-19 -11 -68 -11h-217q-52 0 -70 25q-16 22 -16 51q0 18 30 62l140 204q-21 -1 -51 -21q-33 -22 -52 -22q-28 0 -45.5 21t-17.5 54q0 48 37 82q23 20 79 20h201q82 0 82 -66
q0 -29 -28 -68zM225 650l68 37q31 17 50 17q16 0 29 -14.5t13 -31.5q0 -23 -28 -43l-60 -42q-44 -31 -72 -31q-30 0 -61 23l-62 46q-36 27 -36 51q0 17 13 31t29 14t41 -14z" />
    <glyph glyph-name="florin" unicode="&#x192;" horiz-adv-x="665" 
d="M478 345l-42 -267q-17 -108 -47 -154q-53 -81 -164 -81q-98 0 -158 63t-60 167q0 100 59.5 170t144.5 70q55 0 91.5 -31t36.5 -78q0 -53 -40 -75q-14 -8 -67.5 -18t-53.5 -52q0 -15 10 -25.5t24 -10.5q24 0 33 36q2 8 8 42q100 14 100 104q0 69 -66 105l7 35q-36 0 -48 6
q-35 18 -35 57q0 61 76 61h25l15 79q12 61 56.5 100t102.5 39q70 0 125 -39.5t55 -89.5q0 -33 -20.5 -55.5t-51.5 -22.5q-24 0 -52 16q-16 9 -21 9q-22 0 -25 -36h15q34 0 54.5 -16.5t20.5 -44.5q0 -63 -83 -63h-25z" />
    <glyph glyph-name="circumflex" unicode="&#x2c6;" 
d="M250 598l-67 -36q-32 -17 -51 -17q-16 0 -29 14.5t-13 31.5q0 23 28 43l60 42q44 31 72 31q29 0 61 -23l63 -46q36 -26 36 -51q0 -17 -13 -31t-29 -14q-17 0 -42 14z" />
    <glyph glyph-name="caron" unicode="&#x2c7;" 
d="M249 650l68 37q31 17 50 17q16 0 29 -14.5t13 -31.5q0 -23 -28 -43l-60 -42q-44 -31 -72 -31q-30 0 -61 23l-62 46q-36 27 -36 51q0 17 13 31t29 14t41 -14z" />
    <glyph glyph-name="breve" unicode="&#x2d8;" 
d="M368 704q17 0 29 -12.5t12 -31.5q0 -26 -42 -65q-56 -52 -120 -52q-49 0 -103 41t-54 79q0 17 12.5 30t28.5 13q15 0 57 -29q27 -19 58 -19q33 0 73 25q33 21 49 21z" />
    <glyph glyph-name="dotaccent" unicode="&#x2d9;" 
d="M251 702q30 0 51.5 -22t21.5 -52q0 -31 -21.5 -52.5t-52.5 -21.5t-52.5 22t-21.5 53q0 30 22 51.5t53 21.5z" />
    <glyph glyph-name="ring" unicode="&#x2da;" 
d="M251 704q37 0 64.5 -28t27.5 -66q0 -40 -27.5 -67.5t-65.5 -27.5q-39 0 -66.5 27.5t-27.5 67.5q0 39 27.5 66.5t67.5 27.5zM249 636q-26 0 -26 -26t26 -26q27 0 27 26t-27 26z" />
    <glyph glyph-name="ogonek" unicode="&#x2db;" 
d="M413 39q24 0 24 -26q0 -11 -14 -21q-52 -36 -52 -75q0 -25 24 -25q7 0 28 6q7 2 14 2q16 0 27 -10t11 -24q0 -24 -25 -41t-60 -17q-46 0 -75 27.5t-29 70.5q0 57 47 93q52 40 80 40z" />
    <glyph glyph-name="tilde" unicode="&#x2dc;" 
d="M202 588q-12 0 -40 -19q-13 -9 -33 -9t-34 14.5t-14 34.5q0 36 30.5 60t75.5 24q37 0 86 -22q18 -8 27 -8q8 0 31 14.5t37 14.5q21 0 35.5 -14t14.5 -35q0 -35 -33 -60t-80 -25q-31 0 -82 25q-10 5 -21 5z" />
    <glyph glyph-name="hungarumlaut" unicode="&#x2dd;" 
d="M311 670q25 31 55 31q23 0 40.5 -17.5t17.5 -41.5q0 -38 -35 -85q-22 -30 -55 -30t-50 27q33 51 33 89q0 9 -6 27zM246 702q23 0 40.5 -17.5t17.5 -41.5q0 -39 -35 -86q-22 -30 -56 -30q-24 0 -40 16t-16 39q0 33 28 79q25 41 61 41z" />
    <glyph glyph-name="endash" unicode="&#x2013;" horiz-adv-x="448" 
d="M366 187h-282q-77 0 -77 62t74 62h285q43 0 59.5 -18.5t16.5 -41.5q0 -64 -76 -64z" />
    <glyph glyph-name="emdash" unicode="&#x2014;" horiz-adv-x="628" 
d="M552 187h-475q-77 0 -77 62t74 62h478q43 0 59.5 -18t16.5 -42q0 -64 -76 -64z" />
    <glyph glyph-name="quoteleft" unicode="&#x2018;" horiz-adv-x="250" 
d="M144 568q31 0 52 -21t21 -51q0 -34 -24 -57t-60 -23q-43 0 -71.5 32t-28.5 79q0 62 40 106t96 44q43 0 43 -37q0 -17 -12 -25q-5 -3 -26.5 -11.5t-29.5 -35.5z" />
    <glyph glyph-name="quoteright" unicode="&#x2019;" horiz-adv-x="250" 
d="M105 525q-30 0 -51 21t-21 51q0 34 24 57t60 23q43 0 71.5 -32t28.5 -79q0 -62 -40 -106t-97 -44q-43 0 -43 37q0 17 12 25q5 3 27.5 11.5t28.5 35.5z" />
    <glyph glyph-name="quotesinglbase" unicode="&#x201a;" horiz-adv-x="275" 
d="M127 2q-34 0 -57.5 23.5t-23.5 56.5q0 38 27 63.5t67 25.5q47 0 79 -35.5t32 -87.5q0 -69 -44.5 -118t-106.5 -49q-48 0 -48 41q0 18 13 27q5 4 30 13.5t32 39.5z" />
    <glyph glyph-name="quotedblleft" unicode="&#x201c;" horiz-adv-x="363" 
d="M200 428q30 29 30 68q0 62 -67 83q5 6 10 10q1 1 22 9q30 11 30 43q0 9 -4 20q31 16 61 16q43 0 43 -37q0 -16 -12 -25q-4 -3 -27 -12t-28 -35q32 -2 52 -21.5t20 -50.5q0 -35 -24 -57.5t-61 -22.5q-20 0 -45 12zM144 568q31 0 52 -21t21 -51q0 -34 -24 -57t-60 -23
q-43 0 -71.5 32t-28.5 79q0 62 40 106t96 44q43 0 43 -37q0 -17 -12 -25q-5 -3 -26.5 -11.5t-29.5 -35.5z" />
    <glyph glyph-name="quotedblright" unicode="&#x201d;" horiz-adv-x="363" 
d="M186 666q22 11 44 11q43 0 71.5 -32t28.5 -79q0 -62 -40 -106t-96 -44q-21 0 -33 12q69 52 69 138q0 62 -44 100zM105 525q-30 0 -51 21t-21 51q0 34 24 57t60 23q43 0 71.5 -32t28.5 -79q0 -62 -40 -106t-97 -44q-43 0 -43 37q0 17 12 25q5 3 27.5 11.5t28.5 35.5z" />
    <glyph glyph-name="quotedblbase" unicode="&#x201e;" horiz-adv-x="363" 
d="M186 143q22 11 44 11q43 0 71.5 -32t28.5 -79q0 -62 -40 -106t-96 -44q-21 0 -33 12q69 52 69 138q0 62 -44 100zM105 2q-30 0 -51 21t-21 51q0 34 24 57t60 23q43 0 71.5 -32t28.5 -79q0 -62 -40 -106t-97 -44q-43 0 -43 37q0 17 12 25q5 3 27.5 11.5t28.5 35.5z" />
    <glyph glyph-name="dagger" unicode="&#x2020;" horiz-adv-x="596" 
d="M179 532h28q-1 32 -25 65q-15 21 -15 38q0 30 30 51t73 21q84 0 104 -65q6 -19 6 -76v-32q26 3 46 19q25 20 32 23.5t21 3.5q32 0 54.5 -28t22.5 -68q0 -63 -50 -88q-20 -10 -107 -10h-19v-235q0 -46 2 -74.5t19 -50.5q20 -26 23.5 -32.5t3.5 -19.5q0 -35 -31.5 -57.5
t-79.5 -22.5q-73 0 -100 52q-7 14 -8.5 28.5t-1.5 78.5v333q-25 -2 -59 -25q-22 -15 -38 -15q-28 0 -49 26.5t-21 60.5q0 73 63 93q19 6 76 6z" />
    <glyph glyph-name="daggerdbl" unicode="&#x2021;" horiz-adv-x="596" 
d="M380 386v-86q28 4 71 39q9 7 28 7q32 0 54.5 -28t22.5 -68q0 -63 -50 -88q-20 -10 -107 -10h-19l1 -41q1 -41 4 -53q3 -15 16 -32q20 -26 23.5 -32.5t3.5 -20.5q0 -35 -31.5 -57.5t-79.5 -22.5q-73 0 -100 52q-7 14 -8.5 28.5t-1.5 78.5v100q-25 -2 -59 -25
q-22 -15 -38 -15q-28 0 -49 26.5t-21 60.5q0 73 63 93q19 6 76 6h28v88q-26 -2 -59 -25q-23 -16 -38 -16q-28 0 -49 26.5t-21 61.5q0 73 63 93q19 6 76 6h28q-1 32 -25 65q-15 21 -15 38q0 30 30 51t73 21q84 0 104 -65q6 -19 6 -76v-32q26 3 46 19q25 20 32 23.5t21 3.5
q32 0 54.5 -28t22.5 -68q0 -63 -50 -88q-20 -10 -107 -10h-19z" />
    <glyph glyph-name="bullet" unicode="&#x2022;" horiz-adv-x="667" 
d="M337 477q55 0 95.5 -41t40.5 -97q0 -58 -40.5 -98.5t-97.5 -40.5t-98 40.5t-41 97.5q0 58 41 98.5t100 40.5z" />
    <glyph glyph-name="ellipsis" unicode="&#x2026;" horiz-adv-x="824" 
d="M139 165q44 0 71.5 -24.5t27.5 -64.5q0 -39 -27.5 -62.5t-73.5 -23.5q-45 0 -72.5 24t-27.5 64q0 39 28 63t74 24zM414 165q44 0 71.5 -24.5t27.5 -64.5q0 -39 -27.5 -62.5t-73.5 -23.5q-45 0 -72.5 24t-27.5 64q0 39 28 63t74 24zM688 165q44 0 71.5 -24.5t27.5 -64.5
q0 -39 -27.5 -62.5t-73.5 -23.5q-45 0 -72.5 24t-27.5 64q0 39 28 63t74 24z" />
    <glyph glyph-name="perthousand" unicode="&#x2030;" horiz-adv-x="831" 
d="M478 585l-125 -243q-36 -20 -59 -63.5t-24 -96.5l-70 -138q-16 -32 -23 -40q-15 -18 -39 -18q-22 0 -38 15t-16 35q0 16 21 57l120 233q77 44 82 159l75 146q26 50 58 50q21 0 37.5 -14t16.5 -33q0 -18 -16 -49zM158 674q61 0 98.5 -49t37.5 -128q0 -78 -38 -126.5
t-99 -48.5q-62 0 -99.5 48t-37.5 127q0 80 38 128.5t100 48.5zM157 569q-31 0 -31 -77q0 -27 9 -46t22 -19q31 0 31 72q0 70 -31 70zM540 76q-38 -83 -120 -83q-62 0 -99.5 48.5t-37.5 127.5t38 127.5t99 48.5q82 0 120 -83q-17 -44 -17 -93q0 -50 17 -93zM420 240
q-31 0 -31 -77q0 -27 9 -46t22 -19q31 0 31 72q0 70 -31 70zM675 345q61 0 98.5 -49t37.5 -128q0 -78 -38 -126.5t-99 -48.5q-62 0 -99.5 48t-37.5 127q0 80 38 128.5t100 48.5zM674 240q-31 0 -31 -77q0 -27 9 -46t22 -19q31 0 31 72q0 70 -31 70z" />
    <glyph glyph-name="guilsinglleft" unicode="&#x2039;" horiz-adv-x="226" 
d="M146 252l42 -89q12 -25 12 -39q0 -17 -13 -28.5t-33 -11.5q-32 0 -68 54l-35 52q-24 36 -24 61q0 29 27 67l46 65q25 36 56 36q17 0 30.5 -13.5t13.5 -29.5q0 -12 -12 -37z" />
    <glyph glyph-name="guilsinglright" unicode="&#x203a;" horiz-adv-x="226" 
d="M80 252l-41 89q-12 26 -12 39q0 17 13.5 28t32.5 11q31 0 67 -53l35 -52q25 -37 25 -61q0 -30 -27 -67l-47 -65q-27 -37 -55 -37q-16 0 -30 13.5t-14 29.5q0 14 11 37z" />
    <glyph glyph-name="fraction" unicode="&#x2044;" horiz-adv-x="123" 
d="M251 585l-278 -541q-17 -33 -23 -40q-15 -18 -39 -18q-22 0 -38 15t-16 35q0 16 21 57l278 538q26 50 58 50q20 0 36.5 -14.5t16.5 -32.5t-16 -49z" />
    <glyph glyph-name="trademark" unicode="&#x2122;" horiz-adv-x="725" 
d="M156 667h127q36 0 57 -5q-21 -18 -21 -43q0 -18 11.5 -35t11.5 -19q3 -9 3 -26q-16 0 -34 8q-9 4 -29 10v-240q0 -76 -23 -108q-36 -50 -110 -50q-63 0 -101 39.5t-38 105.5q0 58 35.5 97t88.5 39q34 0 56 -18.5t22 -46.5q0 -23 -12.5 -35t-46.5 -23q-27 -8 -27 -28
q0 -19 16 -19q17 0 17 31v5q28 9 40 16q26 19 26 54q0 58 -66 75v106q-7 0 -25 -8q-22 -10 -35 -10q-21 0 -35.5 15.5t-14.5 38.5q0 44 41 64q20 10 66 10zM520 581l17 23q29 40 45.5 52.5t38.5 12.5q42 0 56 -32q6 -14 6 -44v-181q0 -43 13.5 -64t13.5 -34q0 -22 -20 -36
t-51 -14q-66 0 -77 54q-2 11 -2 35v111l-6 -8q-21 -28 -34 -28q-8 0 -26 21l-13 15v-145q0 -55 -63 -55q-60 0 -60 55v215q0 24 -2 31t-14 26q-10 16 -10 28q0 22 19 36t48 14q34 0 59 -20q11 -8 44 -47z" />
    <glyph glyph-name="minus" unicode="&#x2212;" 
d="M90 400h322q34 0 54.5 -18.5t20.5 -49.5q0 -66 -75 -66h-323q-76 0 -76 68q0 66 77 66z" />
    <glyph glyph-name="periodcentered" unicode="&#x2219;" horiz-adv-x="261" 
d="M129 332q44 0 71.5 -24.5t27.5 -64.5q0 -39 -27.5 -62.5t-73.5 -23.5q-45 0 -72.5 24t-27.5 64q0 39 28 63t74 24z" />
    <glyph glyph-name="fi" unicode="&#xf001;" horiz-adv-x="518" 
d="M316 661q23 9 47 9q45 0 73.5 -25t28.5 -63q0 -36 -27.5 -61.5t-67.5 -25.5q-7 0 -13 1q31 26 31 60q0 67 -72 105zM221 480v-24q32 -1 44 -7q34 -16 34 -63q0 -67 -71 -73q-1 -14 -1 -26q0 -102 2 -116q3 -17 7.5 -25.5t28.5 -40.5q9 -12 9 -29q0 -34 -31 -56.5
t-78 -22.5q-41 0 -70 18t-37 48q-4 15 -4 78v172q-60 13 -60 72q0 63 60 71q0 58 3 80q8 62 52 97.5t111 35.5q66 0 110 -32.5t44 -81.5q0 -25 -18.5 -44t-42.5 -19q-13 0 -45 13q-12 5 -23 5q-24 0 -24 -30zM295 138v142q0 31 -3 47q21 26 21 59q0 41 -32 69q38 26 79 26
q70 0 97 -53q11 -22 11 -74v-125q0 -53 4 -68.5t27 -45.5q16 -21 16 -39q0 -34 -32 -57t-79 -23q-76 0 -101 55q-8 17 -8 87z" />
    <glyph glyph-name="fl" unicode="&#xf002;" horiz-adv-x="521" 
d="M295 442v39l18 -2q29 0 51.5 23t22.5 54q0 69 -74 107q25 7 44 7q85 0 105 -65q6 -19 6 -76v-276q0 -45 2 -73.5t19 -50.5q20 -25 23.5 -32t3.5 -21q0 -35 -31.5 -57.5t-79.5 -22.5q-73 0 -100 52q-7 14 -8.5 28.5t-1.5 79.5v175q18 25 18 55t-18 56zM221 480v-24
q32 -1 44 -7q34 -16 34 -63q0 -67 -71 -73q-1 -14 -1 -26q0 -102 2 -116q3 -17 7.5 -25.5t28.5 -40.5q9 -12 9 -29q0 -34 -31 -56.5t-78 -22.5q-41 0 -70 18t-37 48q-4 15 -4 78v172q-60 13 -60 72q0 63 60 71q0 58 3 80q8 62 52 97.5t111 35.5q66 0 110 -32.5t44 -81.5
q0 -25 -18.5 -44t-42.5 -19q-13 0 -45 13q-12 5 -23 5q-24 0 -24 -30z" />
    <glyph glyph-name="glyph232" horiz-adv-x="300" 
 />
    </font>
</defs>
</svg>
