<?xml version="1.0" encoding="utf-8"?>
<!-- Generator: Adobe Illustrator 18.0.0, SVG Export Plug-In . SVG Version: 6.00 Build 0)  -->
<!DOCTYPE svg PUBLIC "-//W3C//DTD SVG 1.1//EN" "http://www.w3.org/Graphics/SVG/1.1/DTD/svg11.dtd">
<svg version="1.1" id="Layer_1" xmlns="http://www.w3.org/2000/svg" xmlns:xlink="http://www.w3.org/1999/xlink" x="0px" y="0px"
	 viewBox="0 0 315 77.5" enable-background="new 0 0 315 77.5" xml:space="preserve">
<g>
	<path fill="#4E4F4B" d="M291.5,25.1c0.5,0,1,0.1,1.5,0.2c0.5,0.1,0.9,0.2,1,0.2c0.3,0,0.5-0.1,0.7-0.2c0.2-0.1,0.5-0.2,0.7-0.2
		c1.2,0,2.3,2.3,2.3,3.4c0,0.7-0.6,1.2-1.2,1.2c-1.4,0-2.3-2-3.4-2c-0.5,0-0.9,0.4-0.9,0.9c0,1.6,5.6,1.9,5.6,5.8c0,2.4-2.3,4-4.9,4
		c-0.5,0-1.2-0.1-1.9-0.2c-0.6-0.1-1.2-0.1-1.3-0.1c-0.2,0-0.3,0-0.5,0.1c-0.2,0-0.3,0-0.5,0c-0.5,0-0.8-0.1-1.1-0.5
		c-0.6-0.7-1.3-2.1-1.3-3.1c0-0.7,0.2-1.2,1-1.2c1.1,0,2.1,2.5,3.5,2.5c0.5,0,1-0.3,1-0.8c0-1.5-4.9-1.7-4.9-5.8
		C286.9,26.7,288.9,25.1,291.5,25.1z M279.5,33.6c0-1.1-0.5-5.5-2.2-5.5c-0.8,0-1.3,0.8-1.2,1.5c0.1,1.6,0.6,5.5,2.3,5.6
		C279.3,35.2,279.5,34.4,279.5,33.6z M277.1,38.3c-3.7,0-6.9-2.2-6.9-6.2c0-4.5,4-7.1,8.1-7.1c4.4,0,6.9,3.5,6.9,6.6
		C285.3,35.8,280.9,38.3,277.1,38.3z M269.6,37.8c0,2.3-2.2,5.3-8.4,5.3c-4.7,0-6.4-1.8-6.4-3.4c0-1.5,1.4-1.5,1.4-1.9
		c0-0.3-1.4-1-1.4-2.1c0-1.8,2-2.3,2-2.7c0-0.3-1.7-1.5-1.7-3.3c0-3,3.8-4.5,6.4-4.5c1.3,0,3,0.5,3.9,0.5c1.9,0,2.9-1.3,3.3-1.3
		c0.6,0,0.8,0.8,0.8,1.2c0,1.4-1.4,2.4-1.4,2.7c0,0.3,0.1,0.5,0.1,0.8c0,3.4-4,4.6-6.7,4.6c-0.4,0-0.9-0.1-1.3-0.1
		c-0.4,0-0.7,0.3-0.7,0.7c0,0.8,1.1,0.9,1.7,0.9c0.8,0,3.7-0.4,4.7-0.4C268.5,34.8,269.6,36.3,269.6,37.8z M258.5,39.3
		c0,1.3,2,1.7,3,1.7c0.8,0,2.7-0.1,2.7-1.3c0-0.5-0.5-0.8-1-0.8c-0.4,0-1.4,0.2-2.2,0.2c-0.6,0-1.9-0.2-2.2-0.2
		C258.6,38.9,258.5,39.1,258.5,39.3z M263.3,30c0-1-0.2-2.9-1.6-2.9c-1,0-1.4,0.9-1.4,1.8c0,1,0.2,3.1,1.5,3.1
		C262.9,32,263.3,31,263.3,30z M248.2,33.6c0-1.1-0.5-5.5-2.2-5.5c-0.8,0-1.3,0.8-1.2,1.5c0.1,1.6,0.6,5.5,2.3,5.6
		C248,35.2,248.2,34.4,248.2,33.6z M245.8,38.3c-3.7,0-6.9-2.2-6.9-6.2c0-4.5,4-7.1,8.1-7.1c4.4,0,6.9,3.5,6.9,6.6
		C254,35.8,249.5,38.3,245.8,38.3z M232.9,38h-8.4c-0.8,0-2.1,0.1-2.1-1.1c0-1.6,2-0.3,2-3.2c0.1-1.8,0.1-3.5,0.1-4.9
		c0-1.5-0.1-2.9-0.2-4.3c-0.1-2.1-2.3-1-2.3-2.5c0-1.8,4-1.9,5.2-1.9c5.1,0,5.3,0.9,5.3,1.7c0,1.5-2,0.4-2,2.7v8
		c0,1.8,0.3,2.7,2.1,2.7c4.3,0,2.8-3.5,4.4-3.5c1.1,0,1.6,1.2,1.6,2.2c0,2-1.4,4.5-2.6,4.5c-0.5,0-0.8-0.1-1.3-0.2
		C234.3,38.1,233.8,38,232.9,38z M212.8,35.3c0,1.7-1.4,3-3.1,3c-1.7,0-3.1-1.4-3.1-3c0-1.7,1.4-3.1,3.1-3.1
		C211.4,32.2,212.8,33.6,212.8,35.3z M212.8,27.8c0,1.7-1.4,3.1-3.1,3.1c-1.7,0-3.1-1.4-3.1-3.1c0-1.7,1.4-3.1,3.1-3.1
		C211.4,24.7,212.8,26.1,212.8,27.8z M199.1,29.8c0.7,0,1.5,0.1,1.5-0.8c0-0.9-0.5-1.6-1.5-1.6c-0.8,0-1.5,0.9-1.5,1.7
		C197.6,30,198.4,29.8,199.1,29.8z M203.8,32.2h-5.5c-0.3,0-0.7-0.1-0.7,0.3c0,1.3,1.6,2.3,2.8,2.3c1.9,0,2.8-1.1,3.4-1.1
		c0.5,0,1,0.8,1,1.3c0,1.9-3.6,3.4-5.8,3.4c-4.5,0-6.9-3.3-6.9-6.5c0-3.9,3.3-6.7,7.1-6.7c4.3,0,6.2,3.3,6.2,5.2
		C205.4,32,204.6,32.2,203.8,32.2z M187.6,28.8v3.8c0,1.7,0.7,2.1,1.4,2.1c0.8,0,1.2-0.6,1.7-0.6c0.5,0,0.9,0.7,0.9,1.2
		c0,1.7-2.9,3.1-5.4,3.1c-1.3,0-4.5-0.5-4.5-4.6v-5.2c0-0.5,0-0.6-0.1-0.7c-0.1-0.1-0.4,0-1,0c-0.7,0-1,0-1.1-0.1
		c-0.2-0.2-0.1-0.4-0.1-1c0-0.4-0.1-0.6,0.2-0.8l5.8-3.7c0.6-0.3,0.6-0.3,1.3-0.3c1,0,1.1-0.1,1.1,1.1c0,0.8-0.1,1.6,0.1,1.9
		c0.1,0.2,0.3,0.2,0.9,0.2h1.8c1.1,0,1.1,0.1,1.1,1.2c0,1.4-0.2,1.5-1.2,1.5h-1.7C187.6,27.8,187.6,27.9,187.6,28.8z M169,26.1v6.4
		c0,1,0.1,2.6,1.4,2.6c1.8,0,1.6-2.4,1.6-3.6c0-0.8,0-1.9-0.1-2.7c-0.2-1.3-1.4-0.8-1.4-1.9c0-1.5,5.1-1.7,6-1.7
		c0.9,0,1.3,0.5,1.3,1.4c0,0.8-0.1,1.6-0.1,2.4v5.1c0,1.5,1.4,0.8,1.4,2c0,1.7-4.5,2.2-5.9,2.2c-1.9,0-0.7-1.5-1.7-1.5
		c-0.3,0-0.7,0.4-1.3,0.8c-0.6,0.4-1.4,0.8-2.5,0.8c-4.8,0-4.4-3.8-4.4-7.6c0-3.9-1.7-2.2-1.7-3.8c0-1.6,6.4-1.7,6.6-1.7
		C168.9,25.2,169,25.5,169,26.1z M159.6,28.6v4.9c0,0.5,0,1.3,0.1,1.7c0.3,0.9,1.4,0.5,1.4,1.5c0,1.7-3.1,1.6-4.2,1.6
		c-1.1,0-4.7,0.1-4.7-1.7c0-0.9,1.1-0.6,1.4-1.5c0.3-1,0.3-4.2,0.3-5.4c0-1,0.1-2.9-0.2-4c-0.4-1.9-1.9-1.2-1.9-2.7
		c0-2.2,6.6-2.7,6.9-2.7c0.9,0,1.1,0.6,1.1,1.3C160,22.2,159.6,25,159.6,28.6z M145.5,33.6c0-1.1-0.5-5.5-2.2-5.5
		c-0.8,0-1.3,0.8-1.2,1.5c0.1,1.6,0.6,5.5,2.3,5.6C145.3,35.2,145.5,34.4,145.5,33.6z M143.1,38.3c-3.7,0-6.9-2.2-6.9-6.2
		c0-4.5,4-7.1,8.1-7.1c4.4,0,6.9,3.5,6.9,6.6C151.3,35.8,146.8,38.3,143.1,38.3z M122,30.3c-1.4-1.1-2.4-2.7-2.4-4.5
		c0-2.6,2.5-5.9,7.4-5.9c1.6,0,3.4,0.7,3.8,0.7c0.3,0,0.7-0.4,1.2-0.4c0.9,0,2.8,1.9,2.8,4.1c0,0.9-0.6,1.7-1.5,1.7
		c-1.7,0-2.7-2.9-5.3-2.9c-0.8,0-1.6,0.4-1.6,1.3c0,2,3.5,1.5,6.4,3.4c1.6,1,2.3,2.3,2.3,4.2c0,3-2.4,6.3-8.3,6.3
		c-1.7,0-4.5-0.4-6-1.2c-1.2-0.7-1.8-3.4-1.8-4.6c0-0.7,0.3-1.4,1.1-1.4c1.8,0,1.5,4,6.1,4c0.6,0,1.9-0.3,1.9-1.2
		C128.3,32.1,124.8,32.5,122,30.3z"/>
	<path fill="#4E4F4B" d="M244.5,61l-0.9,0.2v-4.6c0,0,0-0.6-0.4-1c0,0-0.5-0.6-1.3-0.6c0,0-1,0-1.5,0.9c0,0-0.3,0.6-0.3,1.2V61
		l-0.9,0.2v-6.6l0.8-0.1v0.9c0,0,0.3-0.5,0.8-0.8c0,0,0.6-0.3,1.2-0.3c0,0,1,0,1.6,0.5c0,0,0.8,0.7,0.8,2V61z M237.2,57.8
		c0,0,0-1.1-0.8-1.9c0,0-0.8-0.8-1.9-0.8c0,0-1.1,0-1.9,0.8c0,0-0.8,0.8-0.8,1.9c0,0,0,1.1,0.8,1.9c0,0,0.8,0.8,1.9,0.8
		c0,0,1.1,0,1.9-0.8C236.5,59.7,237.2,58.9,237.2,57.8z M238.1,57.8c0,0,0,1.4-1,2.5c0,0-1,1-2.4,1c0,0-1.5,0-2.5-1c0,0-1-1-1-2.5
		c0,0,0-1.4,1-2.5c0,0,1-1,2.4-1c0,0,1.6,0,2.6,1C237.1,55.3,238.1,56.3,238.1,57.8z M229.5,61l-0.9,0.2v-6.7l0.9-0.2V61z
		 M229.7,52.4l-0.6,0.8l-0.7-0.8l0.7-0.8L229.7,52.4z M227,61.1c0,0-0.1,0-0.2,0.1c0,0-0.3,0.1-0.6,0.1c0,0-0.4,0-0.7-0.1
		c0,0-0.3-0.1-0.6-0.3c0,0-0.5-0.3-0.6-1c0,0-0.1-0.4-0.1-1.4v-3.1h-1l0.2-0.7h0.7V53l0.8-0.6v2.2h2v0.7h-2v3.2c0,0,0,0.7,0.1,1.1
		c0,0,0.1,0.4,0.3,0.6c0,0,0.2,0.2,0.4,0.2c0,0,0.2,0.1,0.5,0.1c0,0,0.3,0,0.6-0.1c0,0,0.1,0,0.2-0.1V61.1z M222.1,61l-0.8,0.2v-1
		c0,0-0.3,0.4-0.5,0.6c0,0-0.6,0.6-1.5,0.6c0,0-0.1,0-0.1,0c0,0-0.9,0-1.5-0.5c0,0-0.9-0.7-0.9-2v-4.3l0.9-0.1V59c0,0,0,0.6,0.4,1
		c0,0,0.5,0.5,1.3,0.5c0,0,0.8,0,1.3-0.6c0,0,0.5-0.7,0.5-1.7v-3.7l0.9-0.2V61z M215.3,61l-0.8,0.2v-9.4l0.8-0.2L215.3,61z
		 M211.9,57.8c0,0,0-1.1-0.8-1.9c0,0-0.8-0.8-1.9-0.8c0,0-1.1,0-1.9,0.8c0,0-0.8,0.8-0.8,1.9c0,0,0,1.1,0.8,1.9c0,0,0.8,0.8,1.9,0.8
		c0,0,1.1,0,1.9-0.8C211.1,59.7,211.9,58.9,211.9,57.8z M212.7,57.8c0,0,0,1.4-1,2.5c0,0-1,1-2.4,1c0,0-1.5,0-2.5-1c0,0-1-1-1-2.5
		c0,0,0-1.4,1-2.5c0,0,1-1,2.4-1c0,0,1.6,0,2.6,1C211.7,55.3,212.7,56.3,212.7,57.8z M204.5,58.6c0,0,0,1.1-0.8,1.9
		c0,0-0.8,0.8-2,0.8c0,0-1,0-1.7-0.5c0,0-0.8-0.5-1.1-1.1l0.7-0.7c0,0,0.2,0.5,0.7,0.9c0,0,0.6,0.4,1.4,0.4c0,0,0.8,0,1.3-0.5
		c0,0,0.5-0.5,0.5-1.2c0,0,0-0.8-0.4-1.2c0,0-0.3-0.3-1-0.6c0,0-0.6-0.2-1.2-0.4c0,0-0.8-0.3-1.3-0.8c0,0-0.5-0.6-0.5-1.5
		c0,0,0-1.2,0.8-1.9c0,0,0.8-0.7,1.9-0.7c0,0,0.8,0,1.5,0.4c0,0,0.8,0.4,1,0.8l-0.7,0.7c0,0-0.2-0.3-0.4-0.5c0,0-0.6-0.5-1.4-0.5
		c0,0-0.7,0-1.2,0.4c0,0-0.5,0.4-0.5,1.1c0,0,0,0.8,0.5,1.2c0,0,0.4,0.4,1.5,0.6c0,0,1.1,0.3,1.8,0.9
		C203.8,56.9,204.5,57.5,204.5,58.6z M192.9,57.9c0,0,0-1.2-0.8-2c0,0-0.8-0.8-1.9-0.8c0,0-1.1,0-1.9,0.7c0,0-0.8,0.7-0.8,1.8
		c0,0,0,1.2,0.7,2c0,0,0.7,0.8,1.9,0.8c0,0,1,0,1.8-0.7C192.1,59.7,192.9,58.9,192.9,57.9z M193.7,61l-0.8,0.2v-1.2
		c0,0-0.3,0.5-1.1,0.9c0,0-0.7,0.4-1.6,0.4c0,0-1.4,0-2.4-1c0,0-1-1-1-2.4c0,0,0-1.4,1-2.4c0,0,1-1.1,2.5-1.1c0,0,0.8,0,1.5,0.3
		c0,0,0.5,0.2,0.9,0.6c0,0,0.1,0.2,0.3,0.3v-3.8l0.8-0.2V61z M186,61l-0.9,0.2v-4.6c0,0,0-0.6-0.4-1c0,0-0.5-0.6-1.3-0.6
		c0,0-1,0-1.5,0.9c0,0-0.3,0.6-0.3,1.2V61l-0.9,0.2v-6.6l0.8-0.1v0.9c0,0,0.3-0.5,0.8-0.8c0,0,0.6-0.3,1.2-0.3c0,0,1,0,1.6,0.5
		c0,0,0.8,0.7,0.8,2V61z M178.7,58.7c0,0,0-0.7-0.5-1.1c0,0-0.5-0.4-1.3-0.4c0,0-0.7,0-1.2,0.5c0,0-0.5,0.5-0.5,1.2
		c0,0,0,0.8,0.5,1.2c0,0,0.5,0.4,1.2,0.4c0,0,0.7,0,1.2-0.5C178.2,60,178.7,59.5,178.7,58.7z M179.5,61l-0.8,0.1v-0.8
		c0,0-0.3,0.3-0.5,0.5c0,0-0.6,0.5-1.4,0.5c0,0-1.1,0-1.8-0.7c0,0-0.7-0.7-0.7-1.9c0,0,0-1,0.7-1.6c0,0,0.7-0.7,1.7-0.7
		c0,0,0.8,0,1.4,0.4c0,0,0.2,0.1,0.5,0.4v-0.5c0,0,0-0.2,0-0.3c0,0,0-0.6-0.2-0.9c0,0-0.3-0.5-1.3-0.5c0,0-0.7,0-1.5,0.3
		c0,0-0.7,0.2-0.7,0.3l0.3-1c0,0,0,0,0.4-0.1c0,0,1-0.2,1.5-0.2c0,0,2.2,0,2.2,2.1V61z M173.8,54.3l-0.4,0.9c0,0,0,0-0.1,0
		c0,0-0.2,0-0.3,0c0,0-0.2,0-0.4,0c0,0-0.2,0-0.4,0.2c0,0-0.5,0.3-0.8,0.9c0,0-0.4,0.7-0.4,1.5V61l-0.9,0.2v-6.6l0.8-0.2v1.5
		c0,0,0.1-0.4,0.5-0.8c0,0,0.4-0.4,1-0.6c0,0,0.2-0.1,0.5-0.1c0,0,0.3,0,0.5,0C173.5,54.3,173.8,54.3,173.8,54.3z M167.8,58.3
		c0,0,0-0.7-0.5-1.1c0,0-0.5-0.4-1.3-0.4h-1.6v3.4h1.5c0,0,0.8,0,1.3-0.4C167.2,59.7,167.8,59.2,167.8,58.3z M167.2,55.3
		c0,0,0.4-0.5,0.4-1.1c0,0,0-0.6-0.4-1c0,0-0.3-0.3-0.6-0.4c0,0-0.3-0.1-0.8-0.1h-1.4v3.2h0.9c0,0,0.7,0,1-0.1
		C166.2,55.9,166.9,55.7,167.2,55.3z M168.7,58.2c0,0,0,1.4-0.8,2.1c0,0-0.7,0.7-2,0.7h-2.5v-9.2h2c0,0,1.1,0,1.6,0.1
		c0,0,0.4,0.1,0.8,0.6c0,0,0.3,0.3,0.5,0.8c0,0,0.2,0.5,0.2,1c0,0,0,0.4-0.1,0.7c0,0-0.2,0.6-0.7,1c0,0-0.2,0.1-0.4,0.3
		c0,0,0.5,0.2,0.7,0.4C168,56.7,168.7,57.3,168.7,58.2z M158.9,54.6l-3.1,6.9l-2.4-5.4l-2.4,5.3l-3-6.8l0.8-0.2l2.2,5.1l2.3-5.3
		l2.4,5.3l2.3-5.1L158.9,54.6z M146.1,55.7c0,0-0.3-0.2-0.4-0.3c0,0-0.6-0.3-1.2-0.3c0,0-0.4,0-0.7,0.1c0,0-0.3,0.1-0.7,0.3
		c0,0-0.7,0.4-0.9,1.2c0,0-0.2,0.5-0.2,1.1c0,0,0,0.2,0,0.3c0,0,0,0.1,0,0.1L146.1,55.7z M147.3,55.9l-5.1,3.1c0,0,0.1,0.2,0.2,0.4
		c0,0,0.3,0.4,0.7,0.7c0,0,0.6,0.4,1.4,0.4c0,0,0.8,0,1.8-0.6c0,0,0.3-0.2,0.8-0.6v1.1c0,0-0.4,0.3-0.7,0.5c0,0-0.9,0.5-1.8,0.5
		c0,0-1.5,0-2.5-1c0,0-1.1-1-1.1-2.6c0,0,0-1.3,0.8-2.3c0,0,0.9-1,2.2-1.2c0,0,0.1,0,0.3,0c0,0,0.1,0,0.2,0c0,0,0.9,0,1.6,0.4
		c0,0,0.5,0.3,0.9,0.8C147,55.4,147.2,55.7,147.3,55.9z M139.9,61.3l-6.4-7.4v7l-0.9,0.2v-9.7l6.4,7.4v-7.1l0.9-0.2V61.3z
		 M124.9,56.7l-1.5-3.1l-1.5,3.1H124.9z M128,61l-0.9,0.3l-1.8-3.8h-3.8l-1.8,3.7l-0.9-0.2l4.7-9.4L128,61z"/>
	<rect x="12.8" y="5.3" fill="#4E4F4B" width="66.9" height="66.9"/>
	
		<rect x="12.8" y="5.3" fill="none" stroke="#FFFFFF" stroke-width="2.8056" stroke-linecap="round" stroke-miterlimit="10" width="66.9" height="66.9"/>
	
		<line fill="none" stroke="#FFFFFF" stroke-width="2.8056" stroke-linecap="round" stroke-miterlimit="10" x1="12.8" y1="6.5" x2="12.8" y2="27.3"/>
	
		<line fill="none" stroke="#FFFFFF" stroke-width="2.8056" stroke-linecap="round" stroke-miterlimit="10" x1="35.1" y1="11.9" x2="35.1" y2="50.4"/>
	
		<line fill="none" stroke="#FFFFFF" stroke-width="2.8056" stroke-linecap="round" stroke-miterlimit="10" x1="57.4" y1="12.3" x2="57.4" y2="59.7"/>
	<rect x="8.2" y="17" fill="#4E4F4B" width="18.2" height="18.2"/>
	
		<rect x="8.2" y="17" fill="none" stroke="#FFFFFF" stroke-width="2.8056" stroke-linecap="round" stroke-miterlimit="10" width="18.2" height="18.2"/>
	<circle fill="#4E4F4B" cx="87.9" cy="31.1" r="6.8"/>
	
		<circle fill="none" stroke="#FFFFFF" stroke-width="2.8056" stroke-linecap="round" stroke-miterlimit="10" cx="87.9" cy="31.1" r="6.8"/>
</g>
</svg>
