<?xml version="1.0" encoding="UTF-8"?>
<svg width="21px" height="21px" viewBox="0 0 21 21" version="1.1" xmlns="http://www.w3.org/2000/svg" xmlns:xlink="http://www.w3.org/1999/xlink">
    <!-- Generator: Sketch 47 (45396) - http://www.bohemiancoding.com/sketch -->
    <title>noun_1102377_cc (1)</title>
    <desc>Created with Sketch.</desc>
    <defs></defs>
    <g id="Symbols" stroke="none" stroke-width="1" fill="none" fill-rule="evenodd">
        <g id="post" transform="translate(-615.000000, -15.000000)" fill-rule="nonzero" fill="#000000">
            <g id="Group-Copy-6">
                <g id="noun_1102377_cc-(1)" transform="translate(615.000000, 15.000000)">
                    <path d="M18.7805105,0 L2.24244901,0 C1.00443029,0 0,1.00444939 0,2.24249166 L0,18.7575083 C0,19.9955506 1.00443029,21 2.24244901,21 L18.7571517,21 C19.9951704,21 20.9996007,19.9955506 20.9996007,18.7575083 L20.9996007,2.24249166 C21.0229595,1.00444939 20.0185292,0 18.7805105,0 Z M19.5279935,18.7808676 C19.5279935,19.2013348 19.2009697,19.5283648 18.7805105,19.5283648 L2.24244901,19.5283648 C1.82198982,19.5283648 1.49496601,19.2013348 1.49496601,18.7808676 L1.49496601,2.24249166 C1.49496601,1.82202447 1.82198982,1.49499444 2.24244901,1.49499444 L18.7571517,1.49499444 C19.1776108,1.49499444 19.5046347,1.82202447 19.5046347,2.24249166 L19.5046347,18.7808676 L19.5279935,18.7808676 Z" id="Shape"></path>
                    <polygon id="Shape" points="8.61188119 6.52079208 14.3861386 6.52079208 5 15.9069307 6.09306931 17 15.4792079 7.61386139 15.4792079 13.3881188 17 13.3881188 17 5 8.61188119 5"></polygon>
                </g>
            </g>
        </g>
    </g>
</svg>