<?xml version="1.0" standalone="no"?>
<!DOCTYPE svg PUBLIC "-//W3C//DTD SVG 1.1//EN" "http://www.w3.org/Graphics/SVG/1.1/DTD/svg11.dtd" >
<svg xmlns="http://www.w3.org/2000/svg">
<metadata></metadata>
<defs>
<font id="karben105w00-boldobliqueRg" horiz-adv-x="921" >
<font-face units-per-em="2048" ascent="1536" descent="-512" />
<missing-glyph horiz-adv-x="501" />
<glyph horiz-adv-x="0" />
<glyph unicode="&#xd;" horiz-adv-x="681" />
<glyph unicode=" "  horiz-adv-x="501" />
<glyph unicode="&#x09;" horiz-adv-x="501" />
<glyph unicode="&#xa0;" horiz-adv-x="501" />
<glyph unicode="!" horiz-adv-x="456" d="M113 0l18 233h231l-18 -233h-231zM164 385l88 1012h194l-88 -1012h-194z" />
<glyph unicode="&#x22;" horiz-adv-x="477" d="M92 969v428h117v-428h-117zM268 969v428h115v-428h-115z" />
<glyph unicode="#" horiz-adv-x="839" d="M76 465l41 158h112l33 151h-115l37 158h111l108 465h158l-106 -465h149l107 465h157l-106 -465h119l-37 -158h-117l-31 -151h117l-41 -158h-117l-102 -465h-154l101 465h-152l-104 -465h-156l102 465h-114zM387 623h150l32 151h-151z" />
<glyph unicode="$" horiz-adv-x="999" d="M141 348l9 78h196l-8 -78q-8 -92 37 -150q45 -59 137 -59q91 0 147 59q57 60 64 150l8 84q4 38 -8 75q-12 36 -36 63q-26 30 -57 43q-37 16 -75 16q-79 0 -142 28q-65 29 -110 78q-44 48 -67 116q-23 67 -17 142l6 74q6 66 35 129q29 62 74 109q45 46 103 79 q57 32 126 43l8 86h119l-8 -86q64 -11 118 -42q56 -32 92 -79q38 -49 56 -110q19 -64 13 -129l-5 -43h-192l4 43q8 87 -32 138q-40 52 -126 52t-134 -52q-49 -53 -56 -138l-6 -74q-6 -72 39 -124t118 -52q78 0 149 -31q68 -30 117 -83q47 -51 71 -121q24 -69 18 -150l-8 -84 q-6 -71 -37 -138q-30 -64 -80 -116q-49 -50 -113 -84q-61 -32 -133 -43l-6 -82h-119l6 84q-71 11 -126 44q-54 33 -96 84q-38 47 -59 114q-20 64 -14 137z" />
<glyph unicode="%" horiz-adv-x="980" d="M104 0l770 1397h125l-766 -1397h-129zM178 1200q4 47 26 92q21 44 56 74q36 31 79 49q46 19 93 19q46 0 89 -19q38 -17 70 -49q28 -28 44 -74q15 -42 10 -92q-5 -47 -27 -89q-24 -45 -56 -73q-37 -32 -78 -49q-44 -18 -93 -18t-90 18t-70 49q-27 29 -43 73q-15 41 -10 89 zM328 1200q-4 -34 17 -59q22 -25 58 -25q34 0 61 25q25 24 30 59q4 36 -18 63q-21 25 -56 25q-38 0 -63 -25q-24 -24 -29 -63zM457 195q5 50 25 91q20 40 57 72q39 34 78 50q43 18 94 18q49 0 89 -18q34 -15 69 -50q28 -28 44 -72q15 -43 11 -91q-5 -50 -27 -92 q-23 -44 -56 -72q-37 -32 -78 -49q-46 -19 -93 -19t-90 19q-41 18 -70 49q-28 29 -43 72q-15 41 -10 92zM606 195q-4 -34 19 -62q23 -27 57 -27t61 27q26 26 31 62q5 35 -19 60q-24 26 -59 26q-34 0 -60 -26q-26 -25 -30 -60z" />
<glyph unicode="&#x26;" horiz-adv-x="944" d="M102 330l13 153q7 94 63 163q56 70 123 110q-62 44 -103 117q-42 74 -34 174l2 20q6 75 41 142q36 68 89 117q55 51 124 79q70 29 145 29t142 -29q62 -27 111 -79q46 -49 69 -117q22 -65 16 -142h-194q7 85 -33 138q-40 52 -127 52q-85 0 -131 -52q-49 -55 -56 -138 l-2 -20q-6 -81 44 -142q49 -59 133 -59h153l6 86h195l-6 -86h78l-17 -176h-78l-28 -340q-6 -77 -42 -143q-37 -67 -90 -116q-56 -51 -125 -79q-72 -29 -147 -29q-74 0 -140 29q-64 28 -110 79q-44 48 -67 116q-23 67 -17 143zM299 330q-8 -86 30 -139q37 -52 122 -52 q87 0 136 52q51 54 58 139l29 340h-154q-40 0 -78 -18q-37 -18 -64 -45q-28 -28 -46 -65q-19 -39 -23 -77z" />
<glyph unicode="'" horiz-adv-x="301" d="M92 969v428h117v-428h-117z" />
<glyph unicode="(" horiz-adv-x="608" d="M188 467q22 261 104 503q81 241 210 464h176q-140 -216 -226 -460q-86 -243 -108 -507t20 -509q42 -242 144 -460h-176q-87 218 -127 463q-39 244 -17 506z" />
<glyph unicode=")" horiz-adv-x="608" d="M10 -502q138 215 224 460q85 243 108 509t-19 507q-42 240 -143 460h178q88 -223 126 -464q38 -244 16 -503q-22 -261 -103 -506q-80 -242 -209 -463h-178z" />
<glyph unicode="*" horiz-adv-x="690" d="M252 1192l102 47l-92 49l64 96l86 -63l2 113h110l-16 -113l96 63l51 -96l-108 -49l98 -47l-67 -96l-84 61l-5 -110h-110l18 110l-98 -61z" />
<glyph unicode="+" horiz-adv-x="1038" d="M92 424v174h328v426h194v-426h332v-174h-332v-424h-194v424h-328z" />
<glyph unicode="," horiz-adv-x="456" d="M45 -233l10 116q48 0 85 34q38 35 42 83h-116l18 233h231l-18 -233q-4 -49 -27 -91q-24 -45 -56 -74q-36 -33 -77 -50q-43 -18 -92 -18z" />
<glyph unicode="-" horiz-adv-x="614" d="M111 424l14 174h467l-14 -174h-467z" />
<glyph unicode="." horiz-adv-x="456" d="M66 0l18 233h231l-18 -233h-231z" />
<glyph unicode="/" horiz-adv-x="978" d="M113 0l727 1397h149l-729 -1397h-147z" />
<glyph unicode="0" horiz-adv-x="962" d="M121 348l61 699q6 81 43 150q37 71 96 123q60 53 132 83q76 31 153 31q78 0 149 -31q67 -29 116 -83q48 -52 72 -123t18 -150l-62 -699q-6 -81 -43 -150q-38 -71 -94 -123q-56 -51 -131 -82q-73 -30 -154 -30q-79 0 -148 30q-70 30 -117 82q-50 54 -73 123 q-24 70 -18 150zM317 348q-7 -92 36 -150q44 -59 139 -59q94 0 148 59q55 59 62 150l62 699q7 91 -36 151q-43 59 -138 59q-96 0 -149 -59q-55 -61 -62 -151z" />
<glyph unicode="1" horiz-adv-x="544" d="M152 1217l16 180h387l-121 -1397h-194l104 1217h-192z" />
<glyph unicode="2" horiz-adv-x="944" d="M84 0l22 279q10 110 75 200q64 89 159 139l289 150q49 22 81 68t38 102l8 106q8 95 -37 154q-44 59 -137 59q-95 0 -150 -59q-56 -60 -63 -154l-7 -75h-194l6 75q6 84 43 153q38 71 94 123q58 53 131 83q76 31 156 31q77 0 147 -31q68 -30 116 -83q48 -52 72 -123 q23 -68 17 -153l-8 -94q-10 -110 -75 -202q-66 -94 -158 -142l-291 -145q-48 -28 -79 -72q-31 -45 -36 -98l-10 -111h543l-15 -180h-737z" />
<glyph unicode="3" horiz-adv-x="925" d="M94 348h195q-8 -92 37 -150q45 -59 139 -59q92 0 146 59q56 60 63 150l12 123q2 43 -9 76q-12 36 -34 63t-56 43q-36 17 -75 17h-137l16 176h137q40 0 69 14q31 15 57 39t41 56q16 33 20 67l4 45q8 86 -31 138t-125 52t-135 -52q-50 -53 -57 -138h-193q6 75 41 142 q36 68 89 117q55 51 124 79q70 29 148 29q74 0 140 -29q62 -27 109 -79q45 -49 68 -117q22 -65 16 -142l-4 -41q-7 -90 -59 -158q-48 -64 -115 -110q65 -47 109 -121q45 -76 37 -172l-11 -117q-6 -81 -43 -150q-38 -71 -94 -123q-55 -51 -130 -82q-72 -30 -152 -30 q-82 0 -151 30q-70 30 -117 82q-46 51 -71 123q-24 70 -18 150z" />
<glyph unicode="4" horiz-adv-x="915" d="M63 309l15 176l586 912h192l-80 -912h115l-14 -176h-115l-27 -309h-192l26 309h-506zM281 485h303l51 572h-6l-348 -568v-4z" />
<glyph unicode="5" horiz-adv-x="933" d="M94 348h195q-7 -92 39 -150q47 -59 137 -59q92 0 146 59q56 60 63 150l22 252q8 80 -36 133t-117 53q-76 0 -126 -47q-51 -48 -67 -118h-192l137 776h553l-17 -180h-376l-64 -367h8q22 43 75 82q52 39 132 39q64 0 122 -29q54 -27 95 -79q40 -51 58 -118t12 -145 l-23 -252q-6 -81 -43 -150q-38 -71 -94 -123q-55 -51 -130 -82q-72 -30 -152 -30q-82 0 -151 30q-70 30 -117 82q-46 51 -71 123q-24 70 -18 150z" />
<glyph unicode="6" horiz-adv-x="962" d="M121 348l63 719q6 76 42 142q38 69 90 117q55 51 124 79q70 29 146 29q73 0 136 -27q60 -25 108 -74q47 -47 71 -110q24 -64 23 -136h-185q-1 67 -46 119q-43 51 -124 51t-131 -53q-49 -52 -57 -137l-23 -250h9q50 72 116 112q67 40 150 40q67 0 123 -29q53 -27 95 -80 q40 -50 58 -119q19 -70 13 -143l-23 -250q-6 -81 -43 -150q-38 -71 -94 -123q-56 -51 -131 -82q-73 -30 -154 -30q-79 0 -148 30q-70 30 -117 82q-50 54 -73 123q-24 70 -18 150zM317 348q-7 -92 36 -150q44 -59 139 -59q94 0 148 59q55 59 62 150l21 232q8 86 -39 146 q-46 60 -135 60t-146 -60q-58 -61 -65 -146z" />
<glyph unicode="7" horiz-adv-x="808" d="M141 1217l17 180h735l-16 -189l-496 -1208h-203l510 1208v9h-547z" />
<glyph unicode="8" horiz-adv-x="954" d="M119 348l10 117q10 98 70 174q59 75 133 119q-59 42 -100 108q-41 65 -33 160l4 41q6 75 41 142q36 68 89 117q55 51 124 79q70 29 147 29q74 0 140 -29q64 -28 110 -79q45 -49 68 -117q22 -65 16 -142l-4 -41q-7 -90 -62 -160q-52 -67 -116 -108q65 -45 110 -119 q46 -76 39 -174l-10 -117q-6 -81 -43 -150q-38 -71 -94 -123q-55 -51 -130 -82q-72 -30 -153 -30t-150 30q-70 30 -117 82q-48 53 -72 123q-23 68 -17 150zM313 348q-8 -92 37 -150q45 -59 139 -59q93 0 147 59q55 59 62 150l11 117q4 40 -8 79q-13 41 -34 66q-24 29 -58 45 q-36 17 -72 17q-41 0 -80 -17q-37 -17 -66 -45q-28 -28 -46 -66q-16 -33 -21 -79zM391 1026q-5 -36 7 -68q12 -33 33 -57q22 -25 53 -40q32 -15 69 -15t69 15q29 14 57 40q26 25 41 57q14 31 19 68l4 41q8 87 -30 138q-39 52 -125 52t-135 -52q-51 -54 -58 -138z" />
<glyph unicode="9" horiz-adv-x="966" d="M147 309h185q1 -67 46 -119q44 -51 124 -51t137 54q55 52 63 137l21 250h-8q-49 -71 -116 -112q-65 -40 -148 -40q-67 0 -123 29q-55 28 -96 80q-40 50 -58 117q-18 66 -12 145l20 250q6 81 43 150q37 71 96 123q57 52 132 82q73 30 153 30t149 -30q68 -30 116 -82 t72 -123t18 -150l-62 -719q-6 -78 -43 -143q-39 -69 -92 -116q-58 -51 -126 -79q-72 -29 -146 -29t-139 27q-64 27 -110 73q-45 45 -73 111q-27 64 -23 135zM358 817q-6 -85 41 -146t136 -61q87 0 145 61q57 60 63 146l21 232q8 91 -36 150q-43 58 -138 58t-149 -58 q-55 -59 -62 -150z" />
<glyph unicode=":" horiz-adv-x="456" d="M66 0l18 233h231l-18 -233h-231zM133 791l21 233h231l-20 -233h-232z" />
<glyph unicode=";" horiz-adv-x="456" d="M45 -233l10 116q48 0 85 34q38 35 42 83h-116l18 233h231l-18 -233q-4 -49 -27 -91q-24 -45 -56 -74q-36 -33 -77 -50q-43 -18 -92 -18zM133 791l21 233h231l-20 -233h-232z" />
<glyph unicode="&#x3c;" horiz-adv-x="729" d="M74 414v192l581 371v-229l-419 -230v-12l419 -230v-229z" />
<glyph unicode="=" horiz-adv-x="1038" d="M92 254v176h854v-176h-854zM92 594v176h854v-176h-854z" />
<glyph unicode="&#x3e;" horiz-adv-x="729" d="M74 47v229l420 230v12l-420 230v229l581 -371v-192z" />
<glyph unicode="?" horiz-adv-x="925" d="M154 932l10 112q6 84 43 153q38 72 95 123q60 53 132 83q76 31 154 31q77 0 147 -31q68 -30 116 -83q48 -52 72 -123q23 -68 17 -153l-16 -192q-6 -71 -33 -131t-70 -106q-42 -45 -98 -75q-55 -30 -119 -42l-14 -150h-197l29 311h98q82 0 142 57t67 136l16 192 q8 95 -35 154t-139 59q-95 0 -148 -59q-56 -62 -63 -154l-10 -112h-196zM346 0l19 233h233l-18 -233h-234z" />
<glyph unicode="@" horiz-adv-x="1157" d="M117 291l30 350q6 66 37 128q30 60 80 104q51 45 112 71q63 27 130 27q68 0 126 -27t99 -71t62 -104q20 -58 14 -128l-39 -434q-2 -27 14 -44q16 -18 39 -18q25 0 44 18q21 19 22 44l65 743q6 64 -10 120t-51 97q-36 43 -86 66q-51 24 -119 24q-60 0 -105 -17 q-50 -19 -86 -46q-39 -30 -66 -67q-29 -40 -44 -80h-192q23 79 74 153q48 70 118 123q68 51 148 81q81 30 169 30q99 0 186 -38q84 -37 145 -104t90 -153q30 -87 22 -189l-64 -735q-5 -54 -25 -99q-20 -44 -56 -80q-34 -34 -78 -53q-46 -20 -99 -20q-48 0 -96 31 q-47 30 -70 78h-6q-55 -51 -108 -78q-62 -31 -125 -31q-66 0 -126 26q-59 26 -99 70q-41 46 -62 105q-20 58 -14 127zM311 291q-6 -65 25 -111q30 -45 96 -45t105 45t45 111l30 350q6 66 -25 109t-98 43q-66 0 -103 -43q-38 -44 -44 -109z" />
<glyph unicode="A" horiz-adv-x="952" d="M49 0l453 1397h194l207 -1397h-201l-30 219h-353l-69 -219h-201zM375 401h272l-76 611h-12z" />
<glyph unicode="B" horiz-adv-x="940" d="M113 0l120 1397h426q62 0 118 -25q55 -24 92 -66q38 -43 59 -99q15 -42 15 -91q0 -14 -1 -29l-12 -137q-6 -72 -46 -127q-42 -57 -89 -86q43 -29 73 -87q26 -49 26 -106q0 -11 -1 -22l-19 -213q-6 -65 -35 -120q-29 -56 -76 -98q-46 -42 -104 -66q-59 -25 -120 -25h-426z M317 180h236q47 0 84 36q36 35 41 83l20 229v11q0 42 -26 74q-30 36 -78 36h-236zM375 825h235q46 0 84 36q36 35 41 85l13 152v10q0 39 -27 73q-30 36 -78 36h-235z" />
<glyph unicode="C" horiz-adv-x="944" d="M121 348l61 699q6 81 43 150q37 71 96 123q60 53 132 83q76 31 153 31q78 0 149 -31q67 -29 116 -83q48 -52 72 -123q19 -57 19 -119q0 -15 -1 -31l-11 -115h-196l10 115q1 13 1 25q0 75 -37 126q-43 59 -138 59q-96 0 -149 -59q-55 -61 -62 -151l-62 -699q-1 -13 -1 -25 q0 -75 37 -125q44 -59 139 -59q94 0 148 59q55 59 62 150l11 117h196l-10 -117q-6 -81 -43 -150q-38 -71 -94 -123q-56 -51 -131 -82q-73 -30 -154 -30q-79 0 -148 30q-70 30 -117 82q-50 54 -73 123q-19 56 -19 118q0 16 1 32z" />
<glyph unicode="D" horiz-adv-x="980" d="M113 0l120 1397h390q77 0 147 -31q68 -30 116 -83t72 -124q20 -60 20 -121q0 -15 -1 -30l-55 -623q-6 -81 -43 -149q-38 -69 -95 -122t-130 -83q-74 -31 -152 -31h-389zM322 180h194q36 0 76 16q36 14 64 41q27 25 45 60q17 33 22 76l57 647q1 10 1 19q0 28 -9 56 q-12 36 -36 63q-26 30 -57 43q-37 16 -73 16h-194z" />
<glyph unicode="E" horiz-adv-x="866" d="M113 0l120 1397h697l-17 -180h-503l-37 -433h428l-17 -176h-428l-37 -428h504l-14 -180h-696z" />
<glyph unicode="F" horiz-adv-x="829" d="M113 0l120 1397h697l-17 -180h-503l-37 -433h428l-17 -176h-428l-51 -608h-192z" />
<glyph unicode="G" horiz-adv-x="962" d="M121 348l61 699q6 81 43 150q37 71 96 123q60 53 132 83q76 31 153 31q78 0 149 -31q67 -29 116 -83q48 -52 72 -123q19 -57 19 -119q0 -15 -1 -31l-7 -70h-196l6 70q1 13 1 25q0 74 -37 126q-43 59 -138 59q-96 0 -149 -59q-55 -61 -62 -151l-62 -699q-1 -13 -1 -25 q0 -75 37 -125q44 -59 139 -59q94 0 148 59q55 59 62 150l23 260h-193l17 176h389l-39 -436q-6 -81 -43 -150q-38 -71 -94 -123q-56 -51 -131 -82q-73 -30 -154 -30q-79 0 -148 30q-70 30 -117 82q-50 54 -73 123q-19 56 -19 118q0 16 1 32z" />
<glyph unicode="H" horiz-adv-x="958" d="M113 0l120 1397h193l-53 -613h348l53 613h195l-121 -1397h-195l52 608h-349l-51 -608h-192z" />
<glyph unicode="I" horiz-adv-x="419" d="M113 0l120 1397h195l-121 -1397h-194z" />
<glyph unicode="J" horiz-adv-x="759" d="M59 272h185q-1 -8 -1 -16q0 -50 22 -81q25 -36 93 -36q61 0 92 36q30 35 35 97l99 1125h194l-98 -1125q-6 -62 -35 -121q-29 -57 -75 -99q-45 -41 -104 -65q-58 -24 -122 -24q-66 0 -120 24q-56 25 -92 65q-37 41 -58 99q-16 44 -16 93q0 14 1 28z" />
<glyph unicode="K" horiz-adv-x="925" d="M113 0l120 1397h195l-57 -662h8l405 662h226l-467 -699l346 -698h-225l-244 512h-8l-72 -123l-33 -389h-194z" />
<glyph unicode="L" horiz-adv-x="856" d="M113 0l120 1397h193l-107 -1217h504l-14 -180h-696z" />
<glyph unicode="M" horiz-adv-x="1228" d="M113 0l120 1397h211l193 -1090h8l381 1090h211l-121 -1397h-192l71 801h-8l-266 -801h-213l-127 801h-8l-68 -801h-192z" />
<glyph unicode="N" horiz-adv-x="958" d="M113 0l120 1397h216l239 -926h8l78 926h195l-121 -1397h-217l-240 926h-8l-78 -926h-192z" />
<glyph unicode="O" horiz-adv-x="962" d="M121 348l61 699q6 81 43 150q37 71 96 123q60 53 132 83q76 31 153 31q78 0 149 -31q67 -29 116 -83q48 -52 72 -123q19 -57 19 -119q0 -15 -1 -31l-62 -699q-6 -81 -43 -150q-38 -71 -94 -123q-56 -51 -131 -82q-73 -30 -154 -30q-79 0 -148 30q-70 30 -117 82 q-50 54 -73 123q-19 56 -19 118q0 16 1 32zM317 348q-1 -13 -1 -25q0 -75 37 -125q44 -59 139 -59q94 0 148 59q55 59 62 150l62 699q1 13 1 25q0 75 -37 126q-43 59 -138 59q-96 0 -149 -59q-55 -61 -62 -151z" />
<glyph unicode="P" d="M113 0l120 1397h426q62 0 118 -25q55 -24 92 -66q38 -43 59 -99q15 -42 15 -91q0 -14 -1 -29l-27 -313q-6 -66 -35 -119q-30 -55 -76 -97q-44 -40 -104 -65q-57 -24 -120 -24h-236l-41 -469h-190zM358 645h236q47 0 84 37q36 36 41 84l29 328v10q0 40 -27 75 q-30 38 -78 38h-235z" />
<glyph unicode="Q" horiz-adv-x="972" d="M125 385l57 659q6 84 43 153q37 71 96 123q60 53 132 83q76 31 153 31q78 0 149 -31q67 -29 116 -83q48 -52 72 -123q19 -57 19 -121q0 -16 -1 -32l-60 -677q-5 -55 -37 -106q-32 -52 -78 -79v-6h99l-15 -176h-389q-79 0 -148 30q-70 30 -117 82q-50 55 -73 122 q-19 57 -19 119q0 16 1 32zM322 385q-1 -15 -1 -29q0 -74 36 -122q43 -58 139 -58q94 0 148 58q56 60 63 151l57 659q1 13 1 26q0 76 -37 128q-43 59 -138 59q-96 0 -149 -59q-55 -61 -62 -154z" />
<glyph unicode="R" horiz-adv-x="944" d="M113 0l120 1397h429q61 0 117 -25q55 -24 92 -66q38 -43 59 -99q15 -42 15 -91q0 -14 -1 -29l-26 -313q-11 -103 -78 -182q-69 -81 -164 -111l178 -481h-213l-174 469h-123l-41 -469h-190zM358 645h238q47 0 83 36q35 35 40 83l29 332v11q0 40 -26 73q-30 37 -77 37h-237 z" />
<glyph unicode="S" horiz-adv-x="925" d="M102 348l9 78h196l-8 -78q-1 -14 -1 -27q0 -74 38 -123q45 -59 137 -59t148 59q55 58 63 150l8 84q1 10 1 19q0 28 -9 56q-12 36 -36 63q-26 30 -57 43q-37 16 -75 16q-79 0 -142 28q-65 29 -110 78q-44 48 -67 116q-18 53 -18 111q0 15 1 31l6 74q6 75 41 142 q36 68 89 117q55 51 124 79q70 29 148 29q74 0 140 -29q64 -28 110 -79q43 -48 67 -117q18 -53 18 -111q0 -15 -1 -31l-4 -43h-193l4 43q1 14 1 28q0 68 -33 110q-40 52 -126 52t-134 -52q-49 -53 -56 -138l-6 -74q-1 -8 0 -17q0 -61 39 -107q45 -52 118 -52q78 0 149 -31 q68 -30 117 -83q47 -51 71 -121q19 -55 19 -118q0 -16 -1 -32l-8 -84q-6 -81 -43 -150q-38 -71 -94 -123t-130 -82t-153 -30q-80 0 -149 30q-68 30 -116 82q-50 54 -73 123q-20 59 -20 120q0 15 1 30z" />
<glyph unicode="T" horiz-adv-x="790" d="M152 1217l16 180h698l-16 -180h-252l-104 -1217h-197l104 1217h-249z" />
<glyph unicode="U" horiz-adv-x="940" d="M131 330l92 1067h195l-92 -1067q-1 -16 -1 -30q0 -67 30 -109q37 -52 124 -52t136 52q52 55 59 139l92 1067h192l-92 -1067q-6 -76 -41 -143q-35 -66 -89 -116q-56 -51 -125 -79q-72 -29 -146 -29t-140 29q-64 28 -110 79q-46 50 -68 116q-17 51 -17 110q0 16 1 33z" />
<glyph unicode="V" horiz-adv-x="874" d="M168 1397h201l92 -1018h14l268 1018h201l-412 -1397h-194z" />
<glyph unicode="W" horiz-adv-x="1298" d="M168 1397h194l78 -985h9l235 985h205l67 -985h11l243 985h195l-377 -1397h-219l-55 944h-11l-221 -944h-219z" />
<glyph unicode="X" horiz-adv-x="899" d="M37 0l364 700l-243 697h211l147 -531h12l244 531h211l-367 -697l246 -700h-211l-153 530h-13l-237 -530h-211z" />
<glyph unicode="Y" horiz-adv-x="899" d="M158 1397h211l147 -531h12l244 531h211l-381 -723l-57 -674h-191l58 674z" />
<glyph unicode="Z" horiz-adv-x="808" d="M55 0l17 195l585 1013v9h-497l16 180h698l-16 -195l-588 -1016v-6h498l-14 -180h-699z" />
<glyph unicode="[" horiz-adv-x="516" d="M109 -465l161 1862h312l-13 -150h-155l-138 -1566h156l-12 -146h-311z" />
<glyph unicode="\" horiz-adv-x="978" d="M233 1397h148l487 -1397h-149z" />
<glyph unicode="]" horiz-adv-x="516" d="M14 -465l13 146h155l137 1566h-155l12 150h311l-161 -1862h-312z" />
<glyph unicode="^" horiz-adv-x="958" d="M113 543l268 854h197l270 -854h-203l-162 600h-10l-158 -600h-202z" />
<glyph unicode="_" horiz-adv-x="966" d="M0 -170h1077v-45h-1077v45z" />
<glyph unicode="`" horiz-adv-x="645" d="M279 1268l14 166l305 -76l-8 -90h-311z" />
<glyph unicode="a" horiz-adv-x="917" d="M109 326q6 75 36 143t80 118q52 52 115 79q65 28 139 28q63 0 113 -28t72 -58h8l14 142v11q0 54 -36 90q-40 40 -107 40q-69 0 -115 -45t-57 -98h-187q7 65 42 122q36 59 84 100q49 41 115 66q67 25 136 25t131 -24t105 -64q40 -37 66 -99q19 -46 19 -98q0 -13 -1 -26 l-66 -750h-194l6 82h-9q-33 -50 -88 -84q-56 -35 -135 -35q-67 0 -123 29q-56 28 -93 78q-38 50 -57 114q-14 49 -14 106q0 18 1 36zM297 326q-1 -9 0 -17q0 -66 40 -112q48 -54 124 -54q74 0 133 54q57 53 63 129q1 11 1 22q0 65 -42 110q-50 54 -124 54q-41 0 -73 -14 q-35 -15 -60 -40q-25 -26 -42 -60q-15 -32 -20 -72z" />
<glyph unicode="b" horiz-adv-x="940" d="M113 0l120 1397h193l-39 -459h8q42 50 95 85q58 38 128 38q67 0 124 -27q58 -27 96 -73q38 -45 58 -113q14 -49 15 -106q0 -18 -2 -37l-35 -390q-6 -75 -36 -140t-79 -112q-46 -45 -109 -73q-60 -27 -128 -27q-73 0 -122 37q-53 40 -81 86h-8l-6 -86h-192zM332 315 q-1 -10 -1 -19q0 -26 8 -50q13 -37 32 -58q19 -22 51 -38q30 -15 67 -15t70 15t59 38t42 58t20 69l35 390q1 9 1 17q0 63 -41 109q-48 54 -120 54t-128 -54q-54 -53 -60 -126z" />
<glyph unicode="c" horiz-adv-x="874" d="M119 309l35 406q6 72 39 135q35 67 85 111q53 47 117 73q66 27 137 27q74 0 136 -27q61 -27 104 -73q44 -47 65 -111q16 -49 16 -103q0 -16 -1 -32h-193q1 11 1 22q0 62 -30 101q-36 47 -114 47q-75 0 -119 -47q-43 -46 -49 -123l-35 -406q-1 -13 -1 -25q0 -59 28 -100 q34 -49 111 -49q78 0 121 49q46 52 53 125h192q-6 -73 -40 -135q-37 -67 -85 -111q-50 -46 -117 -73q-66 -27 -139 -27q-72 0 -133 27t-104 73q-43 47 -65 111q-16 49 -16 103q0 16 1 32z" />
<glyph unicode="d" horiz-adv-x="940" d="M119 315l35 390q6 77 36 143q29 64 78 113q45 45 109 73q61 27 129 27q71 0 121 -38q47 -36 82 -85h8l39 459h192l-121 -1397h-192l6 86h-8q-39 -47 -96 -86q-55 -37 -127 -37q-67 0 -124 27t-97 73q-39 45 -58 112q-13 48 -13 103q0 18 1 37zM313 315q-1 -9 -1 -17 q0 -26 9 -52q14 -39 31 -58q19 -22 51 -38q30 -15 68 -15q37 0 70 15t59 38t42 58t20 69l34 390q1 9 1 17q0 63 -41 109q-48 54 -119 54q-72 0 -128 -54q-55 -54 -61 -126z" />
<glyph unicode="e" d="M121 330l31 360q6 75 41 144q34 66 89 118q54 51 124 80t147 29q74 0 141 -29q65 -28 111 -80q44 -50 67 -118q18 -55 18 -113q0 -15 -1 -31l-25 -272h-542l-7 -88q-1 -12 -1 -24q0 -63 35 -112q42 -59 122 -59q37 0 73 17q34 16 59 43q27 28 41 61q16 36 20 74h194 q-6 -76 -41 -143q-35 -66 -89 -116q-56 -51 -125 -79q-72 -29 -146 -29q-77 0 -143 29q-62 27 -109 79q-46 50 -68 116q-17 51 -17 110q0 16 1 33zM338 592h348l8 98q1 13 1 25q0 65 -36 112q-44 58 -122 58q-79 0 -131 -58q-53 -59 -60 -137z" />
<glyph unicode="f" horiz-adv-x="675" d="M129 850l14 174h78l12 139q6 56 32 107q25 48 66 86q38 35 90 57q49 21 105 21q58 0 107 -21t83 -56q33 -35 50 -85q12 -35 12 -77q0 -15 -2 -32h-182q1 10 1 19q0 29 -12 50q-16 28 -67 28q-46 0 -66 -28q-19 -27 -24 -69l-12 -139h233l-14 -174h-234l-73 -850h-193 l74 850h-78z" />
<glyph unicode="g" horiz-adv-x="925" d="M80 -133h194q-1 -10 -1 -21q0 -25 6 -54q7 -36 28 -62q20 -26 51 -43t72 -17q82 0 133 59q53 60 60 138l18 225h-8q-28 -54 -84 -92q-55 -37 -139 -37q-67 0 -124 27q-59 28 -96 72q-38 46 -58 111q-14 48 -14 104q0 18 1 36l35 392q6 77 36 143q30 65 79 113 q46 45 109 73q60 27 128 27q78 0 128 -35q51 -36 75 -88h8l6 86h194l-100 -1157q-6 -74 -41 -143t-89 -118q-56 -51 -125 -79q-72 -29 -146 -29q-77 0 -143 29q-62 27 -109 79q-45 50 -68 118q-17 52 -17 111q0 15 1 32zM313 315q-1 -10 -1 -19q0 -27 8 -50q13 -37 32 -58 q19 -22 51 -38q30 -15 68 -15q37 0 70 15t59 38t42 58q15 32 19 69l35 390q1 9 1 17q0 63 -41 109q-48 54 -119 54q-72 0 -128 -54q-55 -54 -61 -126z" />
<glyph unicode="h" horiz-adv-x="911" d="M113 0l120 1397h193l-39 -453h8q30 43 81 79q53 38 124 38q62 0 116 -26q51 -25 89 -69q36 -42 55 -106q14 -46 14 -98q0 -17 -2 -35l-63 -727h-193l64 727q1 7 1 13q0 55 -38 98q-41 47 -106 47q-32 0 -62 -14q-29 -14 -52 -34q-21 -18 -38 -51q-14 -27 -16 -59 l-64 -727h-192z" />
<glyph unicode="i" horiz-adv-x="419" d="M113 0l88 1024h194l-88 -1024h-194zM217 1200l16 197h195l-16 -197h-195z" />
<glyph unicode="j" horiz-adv-x="432" d="M-233 -229h186q-1 -11 -1 -20q0 -29 11 -50q15 -29 57 -29q48 0 66 29t23 70l108 1253h191l-109 -1253q-6 -56 -32 -106q-26 -51 -65 -87q-40 -37 -91 -58q-53 -22 -107 -22q-52 0 -101 22q-46 21 -79 58q-33 38 -48 87q-11 36 -11 74q0 16 2 32zM233 1200l17 197h190 l-16 -197h-191z" />
<glyph unicode="k" horiz-adv-x="884" d="M113 0l120 1397h193l-74 -840h8l340 467h236l-404 -512l316 -512h-236l-213 342l-73 -92l-21 -250h-192z" />
<glyph unicode="l" horiz-adv-x="419" d="M113 0l120 1397h195l-121 -1397h-194z" />
<glyph unicode="m" horiz-adv-x="1290" d="M113 0l88 1024h192l-6 -86h8q38 54 90 89q50 34 111 34q63 0 107 -32t73 -85q41 53 103 85t129 32q58 0 108 -24q51 -25 84 -65q34 -41 51 -100q13 -43 13 -90q0 -17 -2 -34l-64 -748h-194l63 748q1 7 1 13q0 45 -30 78q-33 38 -86 38q-52 0 -93 -38q-39 -36 -44 -91 l-63 -748h-195l64 748q1 7 1 13q0 45 -30 78q-33 38 -84 38q-54 0 -95 -38q-39 -36 -44 -91l-64 -748h-192z" />
<glyph unicode="n" horiz-adv-x="903" d="M113 0l88 1024h192l-6 -86h8q31 47 86 86q52 37 125 37q61 0 113 -26t87 -70q34 -43 53 -107q13 -44 13 -95q0 -18 -2 -38l-61 -725h-193l62 725q1 8 1 17q0 55 -36 96q-41 47 -106 47t-115 -47q-49 -46 -55 -113l-62 -725h-192z" />
<glyph unicode="o" d="M119 328l33 364q6 75 41 144q34 67 89 117q55 51 124 79q70 29 147 29q74 0 141 -29q65 -28 111 -79q44 -49 67 -117q18 -55 18 -113q0 -15 -1 -31l-33 -364q-6 -76 -41 -143q-33 -63 -88 -115q-52 -49 -124 -78t-146 -29q-77 0 -143 29q-64 28 -109 78t-69 115 q-18 51 -18 111q0 16 1 32zM313 328q-1 -11 -1 -22q0 -70 34 -117q39 -54 125 -54q85 0 135 54q50 55 56 139l32 364q1 15 1 29q0 68 -32 110q-42 54 -126 54q-86 0 -135 -54q-48 -53 -56 -139z" />
<glyph unicode="p" horiz-adv-x="940" d="M72 -465l129 1489h192l-6 -86h8q38 49 95 86q56 37 128 37q65 0 124 -28q55 -26 96 -75q38 -46 58 -112q14 -49 14 -105q0 -18 -1 -36l-35 -390q-6 -77 -36 -142t-79 -112q-47 -46 -109 -72q-61 -26 -128 -26q-72 0 -122 38q-51 39 -81 85h-8l-47 -551h-192zM332 315 q-1 -9 -1 -17q0 -63 40 -110q45 -53 118 -53t129 53t62 127l35 390v13q0 31 -8 56q-10 32 -32 57q-20 23 -52 39q-30 15 -68 15q-37 0 -70 -15q-32 -15 -58 -39q-25 -24 -42 -57t-18 -69z" />
<glyph unicode="q" horiz-adv-x="940" d="M119 315l33 379q6 78 37 143t79 116q47 50 109 79q63 29 129 29q72 0 121 -37q50 -38 82 -86h8l6 86h192l-129 -1489h-192l47 551h-8q-43 -49 -96 -85q-56 -38 -127 -38q-66 0 -124 26q-56 25 -97 72q-39 45 -58 112q-13 48 -13 104q0 19 1 38zM313 315q-1 -9 -1 -17 q0 -63 40 -110q45 -53 119 -53q73 0 129 53t62 127l32 379v13q0 32 -8 57q-11 34 -31 57q-21 24 -51 39q-28 14 -67 14t-70 -14t-59 -39q-26 -23 -43 -57q-18 -35 -19 -70z" />
<glyph unicode="r" horiz-adv-x="585" d="M113 0l88 1024h194l-8 -96h8q42 60 98 97q54 36 119 36h21l-21 -232q-7 2 -19.5 7.5t-18.5 7.5q-18 6 -39 6q-67 0 -114 -46q-48 -47 -54 -112l-60 -692h-194z" />
<glyph unicode="s" horiz-adv-x="843" d="M100 309h197q-1 -10 -1 -20q0 -59 31 -103q36 -51 109 -51q66 0 111 46t51 116v11q0 49 -31 87q-35 41 -92 41h-33q-63 0 -117 24q-57 25 -94 65t-59 99q-15 42 -15 91q0 15 1 30q6 62 37 121q31 58 78 101q46 41 110 68q63 26 129 26t126 -26q58 -25 98 -70 q40 -44 61 -105q15 -45 15 -96q0 -15 -1 -31h-193v15q0 56 -27 94q-31 43 -95 43q-57 0 -98 -38q-40 -37 -46 -102v-10q0 -40 27 -75q30 -37 80 -37h33q65 0 125 -26q59 -26 100 -70q40 -43 61 -103q16 -47 16 -98q0 -15 -1 -29q-6 -66 -38 -129q-32 -62 -83 -107 q-48 -43 -116 -71q-64 -27 -134 -27q-74 0 -135 27q-64 28 -106 73q-44 47 -65 111q-17 51 -17 105q0 15 1 30z" />
<glyph unicode="t" horiz-adv-x="540" d="M129 850l14 174h78l25 270h194l-24 -270h155l-14 -174h-156l-53 -610q-5 -30 14 -49q17 -17 46 -17h90l-15 -174h-92q-115 0 -181 66q-57 57 -57 151q0 14 1 29l53 604h-78z" />
<glyph unicode="u" horiz-adv-x="903" d="M117 293l63 731h195l-64 -731q-1 -8 0 -16q0 -54 35 -95q41 -47 105 -47q33 0 62 13q27 12 53 35q22 19 38 50q14 27 19 60l63 731h193l-88 -1024h-193l6 88h-8q-29 -47 -84 -86q-56 -39 -127 -39q-59 0 -114 25q-51 23 -88 68q-35 43 -54 105q-13 45 -13 97q0 17 1 35z " />
<glyph unicode="v" horiz-adv-x="772" d="M106 1024h207l95 -702h8l219 702h207l-359 -1024h-194z" />
<glyph unicode="w" horiz-adv-x="1140" d="M117 1024h194l68 -641h8l164 641h215l55 -641h6l174 641h201l-311 -1024h-203l-59 633h-8l-168 -633h-207z" />
<glyph unicode="x" horiz-adv-x="790" d="M29 0l301 512l-213 512h217l119 -340h6l176 340h217l-303 -512l215 -512h-217l-119 340h-6l-176 -340h-217z" />
<glyph unicode="y" horiz-adv-x="772" d="M106 1024h207l95 -702h8l219 702h207l-523 -1489h-196l166 465z" />
<glyph unicode="z" horiz-adv-x="808" d="M74 0l14 180l487 664v6h-428l15 174h661l-14 -180l-492 -664v-6h433l-15 -174h-661z" />
<glyph unicode="{" horiz-adv-x="669" d="M182 385l15 158q65 0 114 45q50 45 54 110l38 426q6 62 35 120q28 55 75 98q49 45 104 67q61 25 122 25l-14 -156q-66 0 -114 -45q-47 -44 -52 -109l-39 -426q-6 -74 -58 -136q-52 -63 -124 -97q64 -34 107 -96q42 -61 34 -136l-37 -428q-4 -61 36 -107t106 -46l-15 -154 q-61 0 -117 25q-55 24 -94 65q-38 39 -58 98q-19 56 -13 119l37 428q6 64 -35 108t-107 44z" />
<glyph unicode="|" horiz-adv-x="595" d="M223 -465v1862h150v-1862h-150z" />
<glyph unicode="}" horiz-adv-x="669" d="M10 -502l15 154q32 0 61 12q27 11 51 34q20 19 37 49q14 26 16 58l37 428q7 73 60 136q51 61 123 96q-67 35 -107 97q-41 64 -35 136l39 426q5 64 -36 109t-105 45l14 156q62 0 118 -25q53 -24 92 -67q39 -44 59 -98q20 -55 14 -120l-39 -426q-4 -65 38 -110t107 -45 l-14 -158q-66 0 -116 -44t-56 -108l-37 -428q-6 -61 -35 -119q-30 -59 -74 -98q-48 -41 -105 -65q-61 -25 -122 -25z" />
<glyph unicode="~" horiz-adv-x="804" d="M113 453q0 75 53 131q52 55 131 55q53 0 95 -27q43 -27 69 -67q5 -13 17 -20q13 -7 28 -7q23 0 41 16q16 15 16 37h129q0 -78 -54 -132t-132 -54q-51 0 -93 27q-43 27 -69 67q-5 13 -17 20q-13 7 -30 7q-21 0 -40 -16q-17 -14 -17 -37h-127z" />
<glyph unicode="&#xa1;" horiz-adv-x="456" d="M131 0l88 1012h195l-88 -1012h-195zM213 1163l20 234h232l-21 -234h-231z" />
<glyph unicode="&#xa2;" horiz-adv-x="874" d="M119 309l35 406q6 64 33 122q26 57 71 103q47 49 99 76q59 31 118 41l6 84h119l-6 -86q58 -10 109 -41q50 -30 85 -76t53 -102q17 -55 11 -121h-193q6 78 -29 123q-36 47 -114 47q-75 0 -119 -47q-43 -46 -49 -123l-35 -406q-7 -76 27 -125t111 -49q78 0 121 49 q46 52 53 125h192q-6 -62 -34 -122q-27 -56 -70 -101q-46 -47 -99 -76q-57 -31 -116 -41l-6 -86h-119l6 84q-64 11 -112 40q-52 32 -85 76q-34 46 -52 103q-17 55 -11 123z" />
<glyph unicode="&#xa3;" horiz-adv-x="999" d="M125 608l16 176h78l23 260q6 84 43 153q38 71 94 123q58 53 131 83q76 31 156 31q78 0 146 -31q67 -30 115 -83q46 -51 71 -123q24 -71 18 -153h-193q8 95 -37 154q-44 59 -137 59q-94 0 -150 -59q-58 -61 -65 -154l-22 -260h428l-17 -176h-428l-37 -428h545l-14 -180 h-737l51 608h-78z" />
<glyph unicode="&#xa4;" horiz-adv-x="940" d="M102 18l62 105q-62 86 -62 207v360q0 118 62 209l-62 102l99 60l47 -74q97 74 221 74q126 0 223 -74l47 74l99 -60l-62 -102q62 -91 62 -209v-360q0 -121 -62 -207l62 -105l-99 -59l-47 76q-48 -36 -103 -53q-60 -19 -120 -19q-58 0 -118 19q-55 17 -103 53l-47 -76z M297 328q0 -84 44 -139q43 -54 130 -54t130 54q44 55 44 139v364q0 86 -44 139q-45 54 -130 54t-130 -54q-44 -53 -44 -139v-364z" />
<glyph unicode="&#xa5;" horiz-adv-x="935" d="M129 563l14 174h285l-27 88h-249l14 172h166l-146 400h211l150 -447h8l225 447h211l-215 -400h166l-14 -172h-250l-43 -88h285l-15 -174h-291l-49 -563h-194l49 563h-291z" />
<glyph unicode="&#xa6;" horiz-adv-x="419" d="M113 -156v541h194v-541h-194zM113 543v544h194v-544h-194z" />
<glyph unicode="&#xa7;" horiz-adv-x="847" d="M117 291h196q-6 -66 24 -109t95 -43q68 0 107 43q39 44 45 109q4 60 -31 98q-34 37 -94 37q-56 0 -104 21q-46 20 -82 59q-33 36 -50 86q-16 49 -12 106q5 53 29 97q22 40 53 71q-53 35 -83 97q-30 60 -22 143q6 64 37 127q29 57 80 104q51 46 112 71q64 26 130 26 t126 -26q58 -25 99 -71q44 -48 63 -104q21 -60 15 -127h-195q6 67 -24 109t-101 42q-67 0 -103 -42t-42 -109q-6 -63 30 -99t91 -36t105 -22q48 -21 82 -58q33 -35 51 -86q18 -50 12 -107q-5 -54 -28 -96q-25 -45 -56 -72q52 -35 83 -96q31 -60 23 -143q-6 -66 -38 -127 q-32 -60 -81 -105q-50 -45 -111 -70q-64 -26 -130 -26q-67 0 -125 26t-99 70q-42 45 -63 105q-20 58 -14 127zM389 698q-4 -37 22 -65q26 -27 62 -27q39 0 69 27q28 26 33 65q5 40 -21 67q-26 28 -65 28q-35 0 -66 -28q-29 -26 -34 -67z" />
<glyph unicode="&#xa8;" horiz-adv-x="522" d="M135 1239l19 195h190l-18 -195h-191zM406 1239l18 195h194l-18 -195h-194z" />
<glyph unicode="&#xa9;" horiz-adv-x="1247" d="M74 514q0 114 43 213q45 103 117 174q75 73 176 117q99 43 215 43t215 -43q100 -44 174 -117q72 -72 116 -174t44 -213q0 -113 -44 -215q-44 -101 -116 -175q-73 -74 -174 -118q-99 -43 -215 -43t-215 43q-102 44 -176 118q-73 73 -117 175q-43 99 -43 215zM139 514 q0 -98 38 -188q37 -87 105 -155q67 -67 154 -104q90 -38 189 -38q98 0 188 38q88 38 155 104q66 67 104 155q38 90 38 188t-38 188q-37 87 -104 154q-65 65 -155 103t-188 38q-99 0 -189 -38q-89 -37 -154 -103q-69 -69 -105 -154q-38 -90 -38 -188zM256 514q0 74 29 143 q29 68 79 118q51 51 116 79q67 29 145 29t144 -30q69 -31 118 -79l-96 -94q-31 31 -75 49q-46 19 -91 19q-47 0 -93 -19q-39 -16 -75 -49q-33 -30 -51 -74q-19 -46 -19 -92t19 -92q18 -43 51 -76q34 -34 75 -51q46 -19 93 -19q45 0 91 19q44 18 75 49l96 -92 q-51 -51 -118 -80t-144 -29q-78 0 -145 29q-65 28 -116 79q-50 51 -79 118q-29 69 -29 145z" />
<glyph unicode="&#xaa;" horiz-adv-x="550" d="M172 1047q7 78 59 131q51 53 127 53q32 0 57 -13q25 -14 36 -30h4l6 72q5 30 -17 50q-20 19 -55 19t-57 -22q-23 -23 -29 -50h-92q10 65 63 112q52 46 125 46q71 0 118 -44q46 -43 40 -111l-33 -375h-96l4 41h-4q-17 -25 -43 -42q-27 -18 -68 -18q-67 0 -109 53 q-42 52 -36 128zM266 1047q-4 -36 19 -64q23 -27 63 -27q38 0 66 27q27 26 32 64q4 39 -20 66q-25 28 -61 28q-40 0 -68 -28q-26 -26 -31 -66z" />
<glyph unicode="&#xab;" horiz-adv-x="925" d="M117 512l424 389l-25 -276l-156 -109l-2 -8l138 -111l-23 -274zM504 512l424 389l-25 -276l-155 -109l-3 -8l138 -111l-23 -274z" />
<glyph unicode="&#xac;" d="M113 424v174h696v-350h-193v176h-503z" />
<glyph unicode="&#xad;" horiz-adv-x="614" d="M111 424l14 174h467l-14 -174h-467z" />
<glyph unicode="&#xae;" horiz-adv-x="593" d="M74 1212q0 47 17 85q18 41 48 71t71 48q40 18 87 18q45 0 86 -18q43 -19 72 -48q30 -30 48 -71q17 -38 17 -85q0 -49 -17 -87q-18 -40 -48 -70q-29 -29 -72 -48q-41 -18 -86 -18q-47 0 -87 18q-41 18 -71 48t-48 70q-17 38 -17 87zM100 1212q0 -83 58 -141 q57 -57 139 -57t139 57q58 58 58 141q0 82 -58 138q-56 55 -139 55t-139 -55q-58 -56 -58 -138zM195 1073v285h129q40 0 67 -27t27 -63q0 -59 -58 -86l58 -109h-60l-51 105h-61v-105h-51zM246 1227h78q17 0 29 12t12 29q0 16 -12 26q-13 11 -29 11h-78v-78z" />
<glyph unicode="&#xaf;" horiz-adv-x="608" d="M223 1280l10 117h385l-10 -117h-385z" />
<glyph unicode="&#xb0;" horiz-adv-x="614" d="M92 1219q0 45 18 84t46 67t68 46t83 18t83 -18q41 -18 69 -46t46 -67q17 -37 17 -84q0 -45 -17 -82q-18 -40 -46 -69t-69 -46q-39 -16 -83 -16t-83 16q-40 16 -68 46q-28 29 -46 69q-18 39 -18 82zM195 1219q0 -48 32 -79q34 -32 80 -32t80 32q33 32 33 79q0 46 -33 79 t-80 33t-80 -33q-32 -32 -32 -79z" />
<glyph unicode="&#xb1;" horiz-adv-x="1038" d="M92 0v172h854v-172h-854zM92 590v174h328v260h194v-260h332v-174h-332v-262h-194v262h-328z" />
<glyph unicode="&#xb2;" horiz-adv-x="536" d="M133 698l12 140q5 56 37 100q34 46 80 70l146 73q20 11 38 35t19 51l6 54q4 46 -18 76q-23 30 -70 30q-48 0 -75 -30q-28 -31 -32 -76l-4 -39h-96l4 39q6 80 68 138q60 56 143 56q81 0 131 -56q51 -57 45 -138l-4 -47q-6 -55 -38 -102q-31 -46 -79 -71l-145 -73 q-53 -27 -57 -84l-6 -56h272l-8 -90h-369z" />
<glyph unicode="&#xb3;" horiz-adv-x="534" d="M150 872h96q-4 -44 18 -74t70 -30q47 0 74 30q25 28 30 74l4 62q5 41 -19 71q-23 29 -65 29h-69l6 88h70q35 0 62 27q28 28 32 61l2 23q4 39 -17 67q-21 27 -61 27q-44 0 -68 -27q-23 -26 -28 -67h-97q1 35 20 71q18 34 45 58t62 39q32 14 74 14q76 0 124 -53 q48 -52 42 -129l-2 -21q-4 -42 -29 -78q-24 -34 -57 -57q31 -23 53 -60q23 -39 19 -85l-4 -60q-4 -39 -23 -75q-18 -35 -46 -61t-65 -41t-75 -15q-40 0 -75 15q-33 14 -58 41t-37 61q-12 36 -8 75z" />
<glyph unicode="&#xb4;" horiz-adv-x="645" d="M279 1268l8 90l317 76l-14 -166h-311z" />
<glyph unicode="&#xb5;" d="M72 -465l129 1489h192l-63 -737q-4 -61 37 -107q41 -45 102 -45q33 0 62 13t54 35q22 19 38 50q13 24 18 60l64 731h192l-88 -1024h-193l7 88h-9q-17 -49 -59 -86q-43 -39 -119 -39q-51 0 -84 24q-34 24 -45 50l-43 -502h-192z" />
<glyph unicode="&#xb6;" horiz-adv-x="972" d="M139 1067q6 66 37 128q30 60 80 104q51 45 112 71q63 27 130 27h483l-121 -1397h-182l104 1217h-116l-105 -1217h-184l63 741q-66 0 -126 26q-57 25 -99 70q-40 43 -61 103t-15 127zM328 1067q-6 -70 28 -110q33 -39 101 -39l24 299q-66 0 -106 -40q-41 -41 -47 -110z " />
<glyph unicode="&#xb7;" horiz-adv-x="409" d="M94 348l21 234h231l-20 -234h-232z" />
<glyph unicode="&#xb8;" horiz-adv-x="696" d="M150 -418l106 60q8 -23 31 -28t43 7q21 10 29 33q7 22 -3 45q-8 22 -30 26t-45 -8l-62 64l94 260l109 -31l-60 -172q35 -12 58 -29q26 -19 43 -53q13 -27 15 -65q2 -37 -10 -67q-13 -34 -34 -59q-24 -29 -55 -46q-33 -17 -67 -21q-31 -4 -65 4q-32 8 -58 29 q-23 19 -39 51z" />
<glyph unicode="&#xb9;" horiz-adv-x="305" d="M150 1307l8 90h194l-61 -699h-98l53 609h-96z" />
<glyph unicode="&#xba;" horiz-adv-x="552" d="M182 1049l17 182q6 79 64 131q59 53 136 53q78 0 126 -53t42 -131l-16 -182q-6 -76 -64 -129q-59 -54 -135 -54t-127 54q-49 52 -43 129zM279 1049q-5 -42 16 -69q22 -28 63 -28t66 28q24 27 29 69l16 182q4 43 -16 69q-21 27 -62 27q-43 0 -67 -27q-25 -28 -29 -69z" />
<glyph unicode="&#xbb;" horiz-adv-x="925" d="M84 123l22 274l160 111l2 8l-141 109l25 276l354 -389zM471 123l23 274l159 111l2 8l-141 109l25 276l354 -389z" />
<glyph unicode="&#xbc;" horiz-adv-x="1140" d="M68 0l933 1397h113l-940 -1397h-106zM150 1307l8 90h194l-61 -699h-98l53 609h-96zM690 156l8 88l293 454h96l-38 -454h57l-8 -88h-58l-12 -156h-96l12 156h-254zM801 244h151l25 284h-4l-172 -282v-2z" />
<glyph unicode="&#xbd;" horiz-adv-x="1159" d="M51 0l934 1397h111l-938 -1397h-107zM150 1307l8 90h194l-61 -699h-98l53 609h-96zM698 0l11 139q6 57 37 101t79 69l146 74q53 27 59 86l4 53q5 47 -18 77q-22 30 -70 30t-75 -30q-26 -29 -31 -77l-4 -39h-97l4 39q6 80 68 138q61 57 143 57q80 0 131 -57t45 -138 l-4 -47q-5 -57 -36 -101q-33 -47 -80 -71l-146 -74q-23 -12 -39 -34t-18 -50l-6 -55h272l-6 -90h-369z" />
<glyph unicode="&#xbe;" horiz-adv-x="1259" d="M150 872h100q-4 -40 21 -69q26 -29 67 -29t70 29q27 27 32 69l4 60q4 40 -20 68q-25 28 -66 28h-69l10 98h70q33 0 61 25q27 24 31 61l2 21q4 34 -20 60t-58 26q-38 0 -66 -26q-25 -24 -30 -60h-96q1 37 19 71t45 58t62 39q32 14 74 14q76 0 124 -53q48 -52 42 -129 l-2 -21q-5 -40 -27 -75q-24 -37 -53 -60q31 -25 50 -61q20 -39 16 -84l-4 -60q-4 -39 -23 -75q-18 -35 -46 -61q-28 -27 -64 -41q-37 -15 -76 -15q-42 0 -76 15q-35 15 -59 41q-25 27 -37 61q-12 36 -8 75zM215 0l948 1415h113l-952 -1415h-109zM809 156l8 88l293 454h96 l-39 -454h58l-8 -88h-58l-12 -156h-96l12 156h-254zM920 244h151l25 284h-4l-172 -282v-2z" />
<glyph unicode="&#xbf;" horiz-adv-x="925" d="M104 352l17 193q6 71 33 131t69 105q43 45 99 76q56 30 118 42l13 150h196l-26 -312h-99q-40 0 -78 -15q-36 -14 -64 -41q-29 -28 -46 -61q-20 -39 -21 -75l-16 -193q-10 -92 34 -153q43 -60 138 -60t149 60t64 153l8 113h197l-8 -113q-7 -81 -45 -152q-37 -70 -95 -123 t-131 -83q-76 -31 -153 -31q-78 0 -149 31q-67 29 -115 83q-49 55 -72 123q-24 71 -17 152zM444 1163l21 234h233l-20 -234h-234z" />
<glyph unicode="&#xc0;" horiz-adv-x="952" d="M49 0l453 1397h194l207 -1397h-201l-30 219h-353l-69 -219h-201zM375 401h272l-76 611h-12zM453 1491l14 166l303 -76l-8 -90h-309z" />
<glyph unicode="&#xc1;" horiz-adv-x="952" d="M49 0l453 1397h194l207 -1397h-201l-30 219h-353l-69 -219h-201zM375 401h272l-76 611h-12zM449 1491l8 90l317 76l-14 -166h-311z" />
<glyph unicode="&#xc2;" horiz-adv-x="952" d="M49 0l453 1397h194l207 -1397h-201l-30 219h-353l-69 -219h-201zM375 401h272l-76 611h-12zM379 1499l199 270h106l154 -270h-131l-80 180h-9l-110 -180h-129z" />
<glyph unicode="&#xc3;" horiz-adv-x="952" d="M49 0l453 1397h194l207 -1397h-201l-30 219h-353l-69 -219h-201zM367 1520q6 65 54 110t114 45q90 0 129 -76q5 -12 15 -18q13 -8 23 -8q19 0 33 14q16 16 17 33h110q-6 -64 -56 -109t-114 -45q-42 0 -78 22q-34 21 -51 56q-11 23 -39 23q-17 0 -31 -14t-18 -33h-108z M375 401h272l-76 611h-12z" />
<glyph unicode="&#xc4;" horiz-adv-x="952" d="M49 0l453 1397h194l207 -1397h-201l-30 219h-353l-69 -219h-201zM375 401h272l-76 611h-12zM375 1499l16 195h193l-17 -195h-192zM647 1499l17 195h194l-16 -195h-195z" />
<glyph unicode="&#xc5;" horiz-adv-x="952" d="M49 0l453 1397h194l207 -1397h-201l-30 219h-353l-69 -219h-201zM375 401h272l-76 611h-12zM446 1649q6 76 61 126t128 50q72 0 119 -50t41 -126q-6 -72 -62 -122t-127 -50q-73 0 -120 50q-46 49 -40 122zM532 1649q-5 -35 20 -61q24 -25 60 -25q37 0 63 25q27 26 32 61 q4 36 -20 62t-58 26q-37 0 -65 -26t-32 -62z" />
<glyph unicode="&#xc6;" horiz-adv-x="1519" d="M37 0l727 1397h819l-16 -180h-504l-37 -433h428l-16 -176h-428l-37 -428h504l-15 -180h-696l18 219h-434l-110 -219h-203zM453 401h348l69 816h-10z" />
<glyph unicode="&#xc7;" horiz-adv-x="944" d="M121 348l61 699q6 81 43 150q37 71 96 123q60 53 132 83q76 31 153 31q78 0 149 -31q67 -29 116 -83q48 -52 72 -123t18 -150l-11 -115h-196l10 115q7 91 -36 151q-43 59 -138 59q-96 0 -149 -59q-55 -61 -62 -151l-62 -699q-7 -92 36 -150q44 -59 139 -59q94 0 148 59 q55 59 62 150l11 117h196l-10 -117q-6 -71 -36 -136t-77 -115q-47 -51 -108 -83q-61 -33 -131 -45l-45 -131q33 -11 57 -29q26 -19 43 -53q13 -27 15 -65q2 -37 -10 -67q-13 -34 -34 -59q-24 -29 -55 -46q-34 -17 -66 -21t-66 4q-31 7 -57 29q-25 20 -40 51l106 60 q8 -23 31 -28t43 7q23 11 30 33t-3 45q-8 21 -31 26q-22 4 -45 -8l-62 64l68 186q-70 7 -130 41q-58 33 -99 84q-41 52 -62 117q-20 63 -14 139z" />
<glyph unicode="&#xc8;" horiz-adv-x="884" d="M113 0l120 1397h697l-17 -180h-503l-37 -433h428l-17 -176h-428l-37 -428h504l-14 -180h-696zM434 1491l15 166l305 -76l-9 -90h-311z" />
<glyph unicode="&#xc9;" horiz-adv-x="866" d="M113 0l120 1397h697l-17 -180h-503l-37 -433h428l-17 -176h-428l-37 -428h504l-14 -180h-696zM434 1491l8 90l318 76l-15 -166h-311z" />
<glyph unicode="&#xca;" horiz-adv-x="866" d="M113 0l120 1397h697l-17 -180h-503l-37 -433h428l-17 -176h-428l-37 -428h504l-14 -180h-696zM365 1499l196 270h109l151 -270h-129l-82 180h-6l-112 -180h-127z" />
<glyph unicode="&#xcb;" horiz-adv-x="866" d="M113 0l120 1397h697l-17 -180h-503l-37 -433h428l-17 -176h-428l-37 -428h504l-14 -180h-696zM360 1499l17 195h190l-16 -195h-191zM633 1499l16 195h193l-17 -195h-192z" />
<glyph unicode="&#xcc;" horiz-adv-x="419" d="M113 0l120 1397h195l-121 -1397h-194zM182 1491l15 166l305 -76l-8 -90h-312z" />
<glyph unicode="&#xcd;" horiz-adv-x="419" d="M113 0l120 1397h195l-121 -1397h-194zM182 1491l8 90l318 76l-14 -166h-312z" />
<glyph unicode="&#xce;" horiz-adv-x="419" d="M113 0l120 1397h195l-121 -1397h-194zM113 1499l196 270h109l153 -270h-131l-80 180h-8l-110 -180h-129z" />
<glyph unicode="&#xcf;" horiz-adv-x="419" d="M106 1499l17 195h192l-16 -195h-193zM113 0l120 1397h195l-121 -1397h-194zM379 1499l16 195h193l-17 -195h-192z" />
<glyph unicode="&#xd0;" horiz-adv-x="1079" d="M106 608l17 176h156l53 613h389q77 0 147 -31q68 -30 116 -83q50 -55 73 -124q24 -72 18 -151l-55 -623q-6 -81 -43 -149q-39 -71 -94 -122q-57 -53 -130 -83q-74 -31 -153 -31h-389l51 608h-156zM420 180h194q36 0 76 16q37 15 65 41q27 25 45 60q16 31 21 76l58 647 q4 36 -9 75q-13 38 -35 63q-26 29 -58 43q-37 16 -72 16h-195l-37 -433h156l-17 -176h-155z" />
<glyph unicode="&#xd1;" horiz-adv-x="958" d="M113 0l120 1397h216l239 -926h8l78 926h195l-121 -1397h-217l-240 926h-8l-78 -926h-192zM369 1520q6 65 55 110q50 45 115 45q43 0 76 -20q34 -21 51 -56q5 -12 15 -18q13 -8 24 -8q19 0 33 14q17 17 18 33h110q-6 -64 -57 -109t-115 -45q-41 0 -77 22q-33 20 -50 56 q-12 23 -39 23q-19 0 -33 -14t-18 -33h-108z" />
<glyph unicode="&#xd2;" horiz-adv-x="962" d="M121 348l61 699q6 81 43 150q37 71 96 123q60 53 132 83q76 31 153 31q78 0 149 -31q67 -29 116 -83q48 -52 72 -123t18 -150l-62 -699q-6 -81 -43 -150q-38 -71 -94 -123q-56 -51 -131 -82q-73 -30 -154 -30q-79 0 -148 30q-70 30 -117 82q-50 54 -73 123 q-24 70 -18 150zM317 348q-7 -92 36 -150q44 -59 139 -59q94 0 148 59q55 59 62 150l62 699q7 91 -36 151q-43 59 -138 59q-96 0 -149 -59q-55 -61 -62 -151zM455 1491l14 166l305 -76l-8 -90h-311z" />
<glyph unicode="&#xd3;" horiz-adv-x="962" d="M121 348l61 699q6 81 43 150q37 71 96 123q60 53 132 83q76 31 153 31q78 0 149 -31q67 -29 116 -83q48 -52 72 -123t18 -150l-62 -699q-6 -81 -43 -150q-38 -71 -94 -123q-56 -51 -131 -82q-73 -30 -154 -30q-79 0 -148 30q-70 30 -117 82q-50 54 -73 123 q-24 70 -18 150zM317 348q-7 -92 36 -150q44 -59 139 -59q94 0 148 59q55 59 62 150l62 699q7 91 -36 151q-43 59 -138 59q-96 0 -149 -59q-55 -61 -62 -151zM455 1491l8 90l317 76l-14 -166h-311z" />
<glyph unicode="&#xd4;" horiz-adv-x="962" d="M121 348l61 699q6 81 43 150q37 71 96 123q60 53 132 83q76 31 153 31q78 0 149 -31q67 -29 116 -83q48 -52 72 -123t18 -150l-62 -699q-6 -81 -43 -150q-38 -71 -94 -123q-56 -51 -131 -82q-73 -30 -154 -30q-79 0 -148 30q-70 30 -117 82q-50 54 -73 123 q-24 70 -18 150zM317 348q-7 -92 36 -150q44 -59 139 -59q94 0 148 59q55 59 62 150l62 699q7 91 -36 151q-43 59 -138 59q-96 0 -149 -59q-55 -61 -62 -151zM385 1499l197 270h108l152 -270h-129l-82 180h-6l-113 -180h-127z" />
<glyph unicode="&#xd5;" horiz-adv-x="962" d="M121 348l61 699q6 81 43 150q37 71 96 123q60 53 132 83q76 31 153 31q78 0 149 -31q67 -29 116 -83q48 -52 72 -123t18 -150l-62 -699q-6 -81 -43 -150q-38 -71 -94 -123q-56 -51 -131 -82q-73 -30 -154 -30q-79 0 -148 30q-70 30 -117 82q-50 54 -73 123 q-24 70 -18 150zM317 348q-7 -92 36 -150q44 -59 139 -59q94 0 148 59q55 59 62 150l62 699q7 91 -36 151q-43 59 -138 59q-96 0 -149 -59q-55 -61 -62 -151zM373 1520q6 65 55 110q50 45 115 45q88 0 127 -76q5 -12 15 -18q13 -8 24 -8q19 0 33 14q17 17 18 33h108 q-6 -64 -56 -109t-114 -45q-40 0 -76 22q-34 21 -51 56q-12 23 -39 23q-19 0 -33 -14t-18 -33h-108z" />
<glyph unicode="&#xd6;" horiz-adv-x="962" d="M121 348l61 699q6 81 43 150q37 71 96 123q60 53 132 83q76 31 153 31q78 0 149 -31q67 -29 116 -83q48 -52 72 -123t18 -150l-62 -699q-6 -81 -43 -150q-38 -71 -94 -123q-56 -51 -131 -82q-73 -30 -154 -30q-79 0 -148 30q-70 30 -117 82q-50 54 -73 123 q-24 70 -18 150zM317 348q-7 -92 36 -150q44 -59 139 -59q94 0 148 59q55 59 62 150l62 699q7 91 -36 151q-43 59 -138 59q-96 0 -149 -59q-55 -61 -62 -151zM381 1499l16 195h191l-17 -195h-190zM653 1499l17 195h192l-16 -195h-193z" />
<glyph unicode="&#xd7;" horiz-adv-x="884" d="M74 0l260 512l-260 512h219l147 -340h6l148 340h215l-256 -512l256 -512h-215l-148 340h-6l-147 -340h-219z" />
<glyph unicode="&#xd8;" horiz-adv-x="980" d="M102 10l72 129q-51 94 -43 209l62 699q6 81 43 150q38 72 95 123q60 53 132 83q76 31 153 31q68 0 128 -23t106 -63l49 86l100 -50l-73 -129q26 -43 38 -97q11 -49 5 -111l-62 -699q-6 -81 -43 -150q-39 -73 -93 -123q-56 -52 -130 -82q-73 -30 -154 -30q-70 0 -131 23 q-60 23 -106 61l-47 -84zM334 410l420 764q-21 38 -60 61q-38 22 -94 22q-95 0 -148 -59q-56 -62 -63 -151zM348 223q20 -38 59 -61q38 -23 95 -23q94 0 147 59q55 61 62 150l57 637z" />
<glyph unicode="&#xd9;" horiz-adv-x="940" d="M131 330l92 1067h195l-92 -1067q-8 -88 29 -139q37 -52 124 -52t136 52q52 55 59 139l92 1067h192l-92 -1067q-6 -76 -41 -143q-35 -66 -89 -116q-56 -51 -125 -79q-72 -29 -146 -29t-140 29q-64 28 -110 79q-46 50 -68 116q-22 65 -16 143zM446 1491l15 166l303 -76 l-8 -90h-310z" />
<glyph unicode="&#xda;" horiz-adv-x="940" d="M131 330l92 1067h195l-92 -1067q-8 -88 29 -139q37 -52 124 -52t136 52q52 55 59 139l92 1067h192l-92 -1067q-6 -76 -41 -143q-35 -66 -89 -116q-56 -51 -125 -79q-72 -29 -146 -29t-140 29q-64 28 -110 79q-46 50 -68 116q-22 65 -16 143zM442 1491l9 90l317 76 l-14 -166h-312z" />
<glyph unicode="&#xdb;" horiz-adv-x="940" d="M131 330l92 1067h195l-92 -1067q-8 -88 29 -139q37 -52 124 -52t136 52q52 55 59 139l92 1067h192l-92 -1067q-6 -76 -41 -143q-35 -66 -89 -116q-56 -51 -125 -79q-72 -29 -146 -29t-140 29q-64 28 -110 79q-46 50 -68 116q-22 65 -16 143zM371 1499l198 270h107 l153 -270h-131l-80 180h-8l-110 -180h-129z" />
<glyph unicode="&#xdc;" horiz-adv-x="940" d="M131 330l92 1067h195l-92 -1067q-8 -88 29 -139q37 -52 124 -52t136 52q52 55 59 139l92 1067h192l-92 -1067q-6 -76 -41 -143q-35 -66 -89 -116q-56 -51 -125 -79q-72 -29 -146 -29t-140 29q-64 28 -110 79q-46 50 -68 116q-22 65 -16 143zM369 1499l16 195h193 l-17 -195h-192zM641 1499l16 195h195l-16 -195h-195z" />
<glyph unicode="&#xdd;" horiz-adv-x="899" d="M158 1397h211l147 -531h12l244 531h211l-381 -723l-57 -674h-191l58 674zM420 1491l8 90l317 76l-14 -166h-311z" />
<glyph unicode="&#xde;" d="M113 0l120 1397h191l-21 -234h236q64 0 118 -24q53 -24 92 -67q37 -42 58 -98q21 -57 15 -120l-27 -313q-6 -64 -36 -119t-76 -97q-47 -42 -103 -66q-55 -23 -121 -23h-235l-21 -236h-190zM338 412h235q47 0 84 37t41 83l29 328q4 46 -27 85q-30 38 -77 38h-236z" />
<glyph unicode="&#xdf;" horiz-adv-x="1089" d="M102 0l95 1087q6 73 39 136q34 65 85 110q54 48 118 74q66 27 139 27q72 0 133 -27q59 -26 104 -74q43 -46 66 -110q22 -62 16 -136l-27 -305h-96q-53 0 -90 -25t-43 -83q-4 -34 21 -64q24 -28 61 -28h37q64 0 117 -24q56 -25 91 -65q38 -43 56 -98q18 -56 12 -119 q-6 -64 -38 -122q-33 -60 -80 -100q-50 -42 -112 -66q-66 -25 -130 -25t-122 23q-55 22 -98 60q-42 38 -68 91q-25 52 -30 115h199q6 -50 43 -81q38 -32 90 -32q60 0 104 35t50 102q4 52 -25 85q-29 32 -76 32h-36q-59 0 -110 23t-85 60q-33 36 -52 89q-18 52 -14 109 q11 105 73 175q63 70 169 97l12 141q6 75 -29 122q-36 48 -110 48q-78 0 -121 -48q-43 -47 -49 -122l-94 -1087h-195z" />
<glyph unicode="&#xe0;" horiz-adv-x="917" d="M109 326q6 75 36 143t80 118q52 52 115 79q65 28 139 28q63 0 113 -28t72 -58h8l14 142q4 61 -36 101t-107 40q-69 0 -115 -45t-57 -98h-187q7 65 42 122q36 59 84 100q49 41 115 66q67 25 136 25t131 -24t105 -64q40 -37 66 -99q24 -57 18 -124l-66 -750h-194l6 82h-9 q-33 -50 -88 -84q-56 -35 -135 -35q-67 0 -123 29q-56 28 -93 78q-38 50 -57 114q-19 65 -13 142zM297 326q-6 -77 40 -129q48 -54 124 -54q74 0 133 54q57 53 63 129q8 79 -41 132q-50 54 -124 54q-41 0 -73 -14q-35 -15 -60 -40q-25 -26 -42 -60q-15 -32 -20 -72z M424 1268l14 166l305 -76l-8 -90h-311z" />
<glyph unicode="&#xe1;" horiz-adv-x="917" d="M109 326q6 75 36 143t80 118q52 52 115 79q65 28 139 28q63 0 113 -28t72 -58h8l14 142q4 61 -36 101t-107 40q-69 0 -115 -45t-57 -98h-187q7 65 42 122q36 59 84 100q49 41 115 66q67 25 136 25t131 -24t105 -64q40 -37 66 -99q24 -57 18 -124l-66 -750h-194l6 82h-9 q-33 -50 -88 -84q-56 -35 -135 -35q-67 0 -123 29q-56 28 -93 78q-38 50 -57 114q-19 65 -13 142zM297 326q-6 -77 40 -129q48 -54 124 -54q74 0 133 54q57 53 63 129q8 79 -41 132q-50 54 -124 54q-41 0 -73 -14q-35 -15 -60 -40q-25 -26 -42 -60q-15 -32 -20 -72z M424 1268l8 90l318 76l-15 -166h-311z" />
<glyph unicode="&#xe2;" horiz-adv-x="917" d="M109 326q6 75 36 143t80 118q52 52 115 79q65 28 139 28q63 0 113 -28t72 -58h8l14 142q4 61 -36 101t-107 40q-69 0 -115 -45t-57 -98h-187q7 65 42 122q36 59 84 100q49 41 115 66q67 25 136 25t131 -24t105 -64q40 -37 66 -99q24 -57 18 -124l-66 -750h-194l6 82h-9 q-33 -50 -88 -84q-56 -35 -135 -35q-67 0 -123 29q-56 28 -93 78q-38 50 -57 114q-19 65 -13 142zM297 326q-6 -77 40 -129q48 -54 124 -54q74 0 133 54q57 53 63 129q8 79 -41 132q-50 54 -124 54q-41 0 -73 -14q-35 -15 -60 -40q-25 -26 -42 -60q-15 -32 -20 -72z M340 1163l199 271h108l150 -271h-129l-80 180h-6l-115 -180h-127z" />
<glyph unicode="&#xe3;" horiz-adv-x="917" d="M109 326q6 75 36 143t80 118q52 52 115 79q65 28 139 28q63 0 113 -28t72 -58h8l14 142q4 61 -36 101t-107 40q-69 0 -115 -45t-57 -98h-187q7 65 42 122q36 59 84 100q49 41 115 66q67 25 136 25t131 -24t105 -64q40 -37 66 -99q24 -57 18 -124l-66 -750h-194l6 82h-9 q-33 -50 -88 -84q-56 -35 -135 -35q-67 0 -123 29q-56 28 -93 78q-38 50 -57 114q-19 65 -13 142zM297 326q-6 -77 40 -129q48 -54 124 -54q74 0 133 54q57 53 63 129q8 79 -41 132q-50 54 -124 54q-41 0 -73 -14q-35 -15 -60 -40q-25 -26 -42 -60q-15 -32 -20 -72z M338 1278q6 66 55 111t115 45q43 0 76 -21t51 -55q11 -27 37 -27q19 0 34 15q16 16 17 32h111q-1 -27 -18 -59q-15 -28 -39 -49q-25 -22 -53 -33q-30 -12 -60 -12q-44 0 -77 20t-50 55q-12 23 -39 23q-20 0 -35 -12q-16 -12 -17 -33h-108z" />
<glyph unicode="&#xe4;" horiz-adv-x="917" d="M109 326q6 75 36 143t80 118q52 52 115 79q65 28 139 28q63 0 113 -28t72 -58h8l14 142q4 61 -36 101t-107 40q-69 0 -115 -45t-57 -98h-187q7 65 42 122q36 59 84 100q49 41 115 66q67 25 136 25t131 -24t105 -64q40 -37 66 -99q24 -57 18 -124l-66 -750h-194l6 82h-9 q-33 -50 -88 -84q-56 -35 -135 -35q-67 0 -123 29q-56 28 -93 78q-38 50 -57 114q-19 65 -13 142zM297 326q-6 -77 40 -129q48 -54 124 -54q74 0 133 54q57 53 63 129q8 79 -41 132q-50 54 -124 54q-41 0 -73 -14q-35 -15 -60 -40q-25 -26 -42 -60q-15 -32 -20 -72z M344 1239l18 195h191l-18 -195h-191zM614 1239l19 195h194l-18 -195h-195z" />
<glyph unicode="&#xe5;" horiz-adv-x="917" d="M109 326q6 75 36 143t80 118q52 52 115 79q65 28 139 28q63 0 113 -28t72 -58h8l14 142q4 61 -36 101t-107 40q-69 0 -115 -45t-57 -98h-187q7 65 42 122q36 59 84 100q49 41 115 66q67 25 136 25t131 -24t105 -64q40 -37 66 -99q24 -57 18 -124l-66 -750h-194l6 82h-9 q-33 -50 -88 -84q-56 -35 -135 -35q-67 0 -123 29q-56 28 -93 78q-38 50 -57 114q-19 65 -13 142zM297 326q-6 -77 40 -129q48 -54 124 -54q74 0 133 54q57 53 63 129q8 79 -41 132q-50 54 -124 54q-41 0 -73 -14q-35 -15 -60 -40q-25 -26 -42 -60q-15 -32 -20 -72z M408 1305q6 75 61 125q55 51 129 51t119 -51t39 -125q-6 -72 -61 -122t-128 -50t-120 50q-45 48 -39 122zM496 1305q-5 -35 20 -61q24 -25 59 -25q36 0 62 25t31 61q4 36 -20 62t-58 26q-35 0 -63 -26q-27 -25 -31 -62z" />
<glyph unicode="&#xe6;" horiz-adv-x="1449" d="M109 326q6 77 37 143q32 67 82 118q51 51 116 79t139 28q70 0 118 -27q47 -27 65 -57h8l12 140q12 141 -139 141q-77 0 -118 -41q-40 -40 -52 -102h-193q7 65 42 122q36 59 84 100q49 41 115 66q67 25 136 25q76 0 142 -29q65 -28 108 -78q56 50 124 78q70 29 146 29 q75 0 142 -29q64 -27 110 -80q46 -52 68 -118t16 -144l-24 -272h-543l-8 -101q-4 -75 38 -128q42 -52 119 -52q36 0 73 16q34 15 60 42q25 26 40 61q16 36 20 74h194q-6 -78 -40 -143q-34 -64 -90 -116t-124 -79q-72 -29 -147 -29q-91 0 -156 40q-66 40 -100 112 q-46 -71 -133 -112q-84 -40 -176 -40q-77 0 -138 29t-101 78q-40 48 -59 114q-19 65 -13 142zM297 326q-6 -77 38 -132t124 -55q78 0 136 55q56 53 62 132q8 79 -41 132q-50 54 -124 54q-41 0 -73 -14q-35 -15 -60 -40q-25 -26 -42 -60q-15 -32 -20 -72zM866 592h348l9 98 q8 81 -35 137q-44 58 -123 58t-131 -58q-53 -59 -60 -137z" />
<glyph unicode="&#xe7;" horiz-adv-x="874" d="M119 309l35 406q6 72 39 135q35 67 85 111q53 47 117 73q66 27 137 27q74 0 136 -27q61 -27 104 -73q44 -47 65 -111q21 -63 15 -135h-193q6 78 -29 123q-36 47 -114 47q-75 0 -119 -47q-43 -46 -49 -123l-35 -406q-7 -76 27 -125t111 -49q78 0 121 49q46 52 53 125h192 q-6 -59 -32 -118q-26 -58 -65 -100q-43 -46 -93 -76q-53 -32 -113 -44l-45 -133q33 -11 57 -29q26 -19 43 -53q14 -29 16 -65q1 -34 -11 -67q-14 -36 -33 -59q-24 -28 -56 -46q-34 -17 -66 -21t-66 4q-31 7 -57 29q-25 20 -40 51l106 60q8 -23 31 -28t43 7q22 11 30 33 t-3 45q-8 21 -31 26q-22 4 -45 -8l-61 64l67 184q-64 8 -117 38t-90 76t-55 104q-18 59 -12 126z" />
<glyph unicode="&#xe8;" d="M121 330l31 360q6 75 41 144q34 66 89 118q54 51 124 80t147 29q74 0 141 -29q65 -28 111 -80q44 -50 67 -118q23 -69 17 -144l-25 -272h-542l-7 -88q-8 -78 34 -136q42 -59 122 -59q37 0 73 17q34 16 59 43q27 28 41 61q16 36 20 74h194q-6 -76 -41 -143 q-35 -66 -89 -116q-56 -51 -125 -79q-72 -29 -146 -29q-77 0 -143 29q-62 27 -109 79q-46 50 -68 116q-22 65 -16 143zM338 592h348l8 98q8 81 -35 137q-44 58 -122 58q-79 0 -131 -58q-53 -59 -60 -137zM408 1268l14 166l305 -76l-8 -90h-311z" />
<glyph unicode="&#xe9;" d="M121 330l31 360q6 75 41 144q34 66 89 118q54 51 124 80t147 29q74 0 141 -29q65 -28 111 -80q44 -50 67 -118q23 -69 17 -144l-25 -272h-542l-7 -88q-8 -78 34 -136q42 -59 122 -59q37 0 73 17q34 16 59 43q27 28 41 61q16 36 20 74h194q-6 -76 -41 -143 q-35 -66 -89 -116q-56 -51 -125 -79q-72 -29 -146 -29q-77 0 -143 29q-62 27 -109 79q-46 50 -68 116q-22 65 -16 143zM338 592h348l8 98q8 81 -35 137q-44 58 -122 58q-79 0 -131 -58q-53 -59 -60 -137zM408 1268l8 90l317 76l-14 -166h-311z" />
<glyph unicode="&#xea;" d="M121 330l31 360q6 75 41 144q34 66 89 118q54 51 124 80t147 29q74 0 141 -29q65 -28 111 -80q44 -50 67 -118q23 -69 17 -144l-25 -272h-542l-7 -88q-8 -78 34 -136q42 -59 122 -59q37 0 73 17q34 16 59 43q27 28 41 61q16 36 20 74h194q-6 -76 -41 -143 q-35 -66 -89 -116q-56 -51 -125 -79q-72 -29 -146 -29q-77 0 -143 29q-62 27 -109 79q-46 50 -68 116q-22 65 -16 143zM332 1163l198 271h109l149 -271h-129l-79 180h-7l-114 -180h-127zM338 592h348l8 98q8 81 -35 137q-44 58 -122 58q-79 0 -131 -58q-53 -59 -60 -137z " />
<glyph unicode="&#xeb;" d="M121 330l31 360q6 75 41 144q34 66 89 118q54 51 124 80t147 29q74 0 141 -29q65 -28 111 -80q44 -50 67 -118q23 -69 17 -144l-25 -272h-542l-7 -88q-8 -78 34 -136q42 -59 122 -59q37 0 73 17q34 16 59 43q27 28 41 61q16 36 20 74h194q-6 -76 -41 -143 q-35 -66 -89 -116q-56 -51 -125 -79q-72 -29 -146 -29q-77 0 -143 29q-62 27 -109 79q-46 50 -68 116q-22 65 -16 143zM334 1239l18 195h193l-19 -195h-192zM338 592h348l8 98q8 81 -35 137q-44 58 -122 58q-79 0 -131 -58q-53 -59 -60 -137zM606 1239l19 195h192l-18 -195 h-193z" />
<glyph unicode="&#xec;" horiz-adv-x="419" d="M113 0l88 1024h194l-88 -1024h-194zM164 1268l14 166l305 -76l-8 -90h-311z" />
<glyph unicode="&#xed;" horiz-adv-x="419" d="M113 0l88 1024h194l-88 -1024h-194zM164 1268l8 90l317 76l-14 -166h-311z" />
<glyph unicode="&#xee;" horiz-adv-x="419" d="M80 1163l199 271h108l152 -271h-131l-78 180h-8l-113 -180h-129zM113 0l88 1024h194l-88 -1024h-194z" />
<glyph unicode="&#xef;" horiz-adv-x="419" d="M82 1239l18 195h193l-19 -195h-192zM113 0l88 1024h194l-88 -1024h-194zM354 1239l19 195h192l-18 -195h-193z" />
<glyph unicode="&#xf0;" horiz-adv-x="911" d="M113 330l22 270q6 73 37 143q30 66 79 119q49 52 108 80q61 29 128 29q59 0 110 -31q46 -28 87 -72q0 2 4 2t4 2q-5 83 -41 154q-39 76 -96 123l-145 -82l-58 113l66 37l2 2q-32 14 -74 17q-39 3 -80 3l19 195q101 0 186 -27q89 -28 160 -76l147 82l53 -113l-100 -55 q78 -84 120 -193q42 -111 38 -239l-41 -483q-6 -76 -41 -143q-35 -66 -89 -116q-56 -51 -125 -79q-72 -29 -147 -29q-74 0 -140 29q-62 27 -109 79q-46 50 -68 116q-22 65 -16 143zM303 317q-8 -87 35 -134q44 -48 123 -48q83 0 133 48q49 48 57 134l25 283q8 81 -35 132 q-43 52 -123 52q-78 0 -130 -52t-60 -132z" />
<glyph unicode="&#xf1;" horiz-adv-x="903" d="M113 0l88 1024h192l-6 -86h8q31 47 86 86q52 37 125 37q61 0 113 -26t87 -70q34 -43 53 -107q17 -59 11 -133l-61 -725h-193l62 725q6 66 -35 113t-106 47t-115 -47q-49 -46 -55 -113l-62 -725h-192zM330 1278q6 66 55 111t115 45q42 0 75 -21q35 -22 52 -55 q11 -27 37 -27q18 0 33 15q17 17 18 32h110q-1 -30 -17 -59q-15 -28 -39 -49q-25 -22 -53 -33q-30 -12 -61 -12q-43 0 -76 20q-35 21 -51 55q-12 23 -39 23q-19 0 -34 -12q-16 -12 -17 -33h-108z" />
<glyph unicode="&#xf2;" d="M119 328l33 364q6 75 41 144q34 67 89 117q55 51 124 79q70 29 147 29q74 0 141 -29q65 -28 111 -79q44 -49 67 -117q23 -69 17 -144l-33 -364q-6 -76 -41 -143q-33 -63 -88 -115q-52 -49 -124 -78t-146 -29q-77 0 -143 29q-64 28 -109 78t-69 115q-23 64 -17 143z M313 328q-6 -85 33 -139t125 -54q85 0 135 54q50 55 56 139l32 364q8 89 -31 139q-42 54 -126 54q-86 0 -135 -54q-48 -53 -56 -139zM408 1268l14 166l305 -76l-8 -90h-311z" />
<glyph unicode="&#xf3;" d="M119 328l33 364q6 75 41 144q34 67 89 117q55 51 124 79q70 29 147 29q74 0 141 -29q65 -28 111 -79q44 -49 67 -117q23 -69 17 -144l-33 -364q-6 -76 -41 -143q-33 -63 -88 -115q-52 -49 -124 -78t-146 -29q-77 0 -143 29q-64 28 -109 78t-69 115q-23 64 -17 143z M313 328q-6 -85 33 -139t125 -54q85 0 135 54q50 55 56 139l32 364q8 89 -31 139q-42 54 -126 54q-86 0 -135 -54q-48 -53 -56 -139zM408 1268l8 90l317 76l-14 -166h-311z" />
<glyph unicode="&#xf4;" d="M119 328l33 364q6 75 41 144q34 67 89 117q55 51 124 79q70 29 147 29q74 0 141 -29q65 -28 111 -79q44 -49 67 -117q23 -69 17 -144l-33 -364q-6 -76 -41 -143q-33 -63 -88 -115q-52 -49 -124 -78t-146 -29q-77 0 -143 29q-64 28 -109 78t-69 115q-23 64 -17 143z M313 328q-6 -85 33 -139t125 -54q85 0 135 54q50 55 56 139l32 364q8 89 -31 139q-42 54 -126 54q-86 0 -135 -54q-48 -53 -56 -139zM332 1163l198 271h109l149 -271h-129l-79 180h-7l-114 -180h-127z" />
<glyph unicode="&#xf5;" d="M119 328l33 364q6 75 41 144q34 67 89 117q55 51 124 79q70 29 147 29q74 0 141 -29q65 -28 111 -79q44 -49 67 -117q23 -69 17 -144l-33 -364q-6 -76 -41 -143q-33 -63 -88 -115q-52 -49 -124 -78t-146 -29q-77 0 -143 29q-64 28 -109 78t-69 115q-23 64 -17 143z M313 328q-6 -85 33 -139t125 -54q85 0 135 54q50 55 56 139l32 364q8 89 -31 139q-42 54 -126 54q-86 0 -135 -54q-48 -53 -56 -139zM328 1278q6 66 55 111q50 45 115 45q42 0 75 -21q35 -22 52 -55q11 -27 37 -27q18 0 33 15q17 17 18 32h110q-1 -30 -17 -59 q-15 -28 -39 -49q-25 -22 -53 -33q-30 -12 -61 -12q-43 0 -76 20q-35 21 -51 55q-12 23 -39 23q-19 0 -34 -12q-16 -12 -17 -33h-108z" />
<glyph unicode="&#xf6;" d="M119 328l33 364q6 75 41 144q34 67 89 117q55 51 124 79q70 29 147 29q74 0 141 -29q65 -28 111 -79q44 -49 67 -117q23 -69 17 -144l-33 -364q-6 -76 -41 -143q-33 -63 -88 -115q-52 -49 -124 -78t-146 -29q-77 0 -143 29q-64 28 -109 78t-69 115q-23 64 -17 143z M313 328q-6 -85 33 -139t125 -54q85 0 135 54q50 55 56 139l32 364q8 89 -31 139q-42 54 -126 54q-86 0 -135 -54q-48 -53 -56 -139zM334 1239l18 195h193l-19 -195h-192zM606 1239l19 195h192l-18 -195h-193z" />
<glyph unicode="&#xf7;" horiz-adv-x="1038" d="M92 426v172h854v-172h-854zM401 0v233h234v-233h-234zM401 791v233h234v-233h-234z" />
<glyph unicode="&#xf8;" horiz-adv-x="942" d="M102 18l74 105q-57 89 -47 205l33 364q6 75 41 144q34 67 89 117q55 51 124 79q70 29 147 29q126 0 217 -74l51 74l93 -57l-72 -103q27 -45 39 -97q12 -54 8 -112l-33 -364q-6 -76 -41 -143q-33 -63 -88 -115q-52 -49 -124 -78t-146 -29q-62 0 -119 20q-54 19 -98 54 l-53 -78zM326 336l346 495q-42 54 -125 54q-85 0 -134 -54q-50 -54 -57 -139zM358 190q39 -55 123 -55q85 0 135 54q50 55 56 139l33 360z" />
<glyph unicode="&#xf9;" horiz-adv-x="903" d="M117 293l63 731h195l-64 -731q-6 -64 35 -111t105 -47q33 0 62 13q27 12 53 35q22 19 38 50q14 27 19 60l63 731h193l-88 -1024h-193l6 88h-8q-29 -47 -84 -86q-56 -39 -127 -39q-59 0 -114 25q-51 23 -88 68q-35 43 -54 105q-18 60 -12 132zM395 1268l15 166l305 -76 l-8 -90h-312z" />
<glyph unicode="&#xfa;" horiz-adv-x="903" d="M117 293l63 731h195l-64 -731q-6 -64 35 -111t105 -47q33 0 62 13q27 12 53 35q22 19 38 50q14 27 19 60l63 731h193l-88 -1024h-193l6 88h-8q-29 -47 -84 -86q-56 -39 -127 -39q-59 0 -114 25q-51 23 -88 68q-35 43 -54 105q-18 60 -12 132zM395 1268l8 90l318 76 l-14 -166h-312z" />
<glyph unicode="&#xfb;" horiz-adv-x="903" d="M117 293l63 731h195l-64 -731q-6 -64 35 -111t105 -47q33 0 62 13q27 12 53 35q22 19 38 50q14 27 19 60l63 731h193l-88 -1024h-193l6 88h-8q-29 -47 -84 -86q-56 -39 -127 -39q-59 0 -114 25q-51 23 -88 68q-35 43 -54 105q-18 60 -12 132zM313 1163l199 271h109 l149 -271h-129l-80 180h-6l-115 -180h-127z" />
<glyph unicode="&#xfc;" horiz-adv-x="903" d="M117 293l63 731h195l-64 -731q-6 -64 35 -111t105 -47q33 0 62 13q27 12 53 35q22 19 38 50q14 27 19 60l63 731h193l-88 -1024h-193l6 88h-8q-29 -47 -84 -86q-56 -39 -127 -39q-59 0 -114 25q-51 23 -88 68q-35 43 -54 105q-18 60 -12 132zM317 1239l19 195h190 l-18 -195h-191zM588 1239l18 195h195l-19 -195h-194z" />
<glyph unicode="&#xfd;" horiz-adv-x="772" d="M106 1024h207l95 -702h8l219 702h207l-523 -1489h-196l166 465zM342 1268l8 90l318 76l-15 -166h-311z" />
<glyph unicode="&#xfe;" horiz-adv-x="940" d="M72 -465l161 1862h193l-39 -459h8q38 49 95 86q56 37 128 37q65 0 124 -28q55 -26 96 -75q38 -46 58 -112q19 -64 13 -141l-35 -390q-6 -77 -36 -142t-79 -112q-47 -46 -109 -72q-61 -26 -128 -26q-72 0 -122 38q-51 39 -81 85h-8l-47 -551h-192zM332 315q-6 -74 39 -127 t118 -53t129 53t62 127l35 390q2 39 -8 69q-10 32 -32 57q-20 23 -52 39q-30 15 -68 15q-37 0 -70 -15q-32 -15 -58 -39q-25 -24 -42 -57t-18 -69z" />
<glyph unicode="&#xff;" horiz-adv-x="772" d="M106 1024h207l95 -702h8l219 702h207l-523 -1489h-196l166 465zM262 1239l19 195h190l-18 -195h-191zM532 1239l19 195h194l-18 -195h-195z" />
<glyph unicode="&#x152;" horiz-adv-x="1466" d="M125 385l55 623q6 80 43 151q38 74 93 124q58 54 130 83q76 31 154 31h932l-16 -180h-506l-37 -433h428l-17 -176h-428l-36 -428h505l-14 -180h-932q-77 0 -148 31q-68 30 -117 83q-48 52 -72 122q-23 67 -17 149zM319 385q-4 -37 9 -78q12 -37 36 -64q25 -28 56 -45 q33 -18 74 -18h233l90 1037h-233q-41 0 -77 -18q-39 -19 -65 -47q-29 -31 -47 -68q-19 -39 -20 -76z" />
<glyph unicode="&#x153;" horiz-adv-x="1466" d="M119 328l33 364q6 75 41 144q34 67 89 117q55 51 124 79q70 29 147 29q81 0 148 -32q68 -33 114 -87q52 55 127 87t156 32q74 0 140 -29q63 -28 111 -79q45 -48 68 -117t17 -144l-25 -272h-545l-8 -92q-6 -78 39 -131q46 -54 123 -54q76 0 130 54q52 52 58 131h195 q-6 -76 -41 -143q-34 -64 -89 -115q-53 -49 -124 -78q-70 -29 -146 -29q-79 0 -149 31q-68 30 -113 86q-56 -56 -128 -86q-74 -31 -154 -31q-77 0 -143 29q-64 28 -109 78t-69 115q-23 64 -17 143zM313 328q-4 -33 8 -69q12 -35 32 -59q20 -25 53 -41q32 -16 67 -16t70 16 q31 14 58 41t41 59q16 36 20 69l32 364q8 80 -36 132q-44 53 -121 53t-130 -53q-54 -54 -61 -132zM881 602h350l8 90q7 80 -36 132q-44 53 -122 53t-131 -53q-54 -54 -61 -132z" />
<glyph unicode="&#x178;" horiz-adv-x="899" d="M158 1397h211l147 -531h12l244 531h211l-381 -723l-57 -674h-191l58 674zM346 1499l16 195h191l-16 -195h-191zM616 1499l17 195h194l-16 -195h-195z" />
<glyph unicode="&#x2c6;" horiz-adv-x="829" d="M287 1163l198 271h109l151 -271h-131l-77 180h-9l-112 -180h-129z" />
<glyph unicode="&#x2dc;" horiz-adv-x="858" d="M297 1278q6 66 55 111q50 45 113 45q45 0 77 -21q31 -21 52 -55q5 -14 14 -20q10 -7 23 -7q19 0 34 15q16 16 17 32h109q-4 -62 -55 -108q-50 -45 -113 -45q-45 0 -78 20q-35 21 -51 55q-8 23 -39 23q-18 0 -33 -12q-14 -12 -16 -33h-109z" />
<glyph unicode="&#x2000;" horiz-adv-x="912" />
<glyph unicode="&#x2001;" horiz-adv-x="1825" />
<glyph unicode="&#x2002;" horiz-adv-x="912" />
<glyph unicode="&#x2003;" horiz-adv-x="1825" />
<glyph unicode="&#x2004;" horiz-adv-x="608" />
<glyph unicode="&#x2005;" horiz-adv-x="456" />
<glyph unicode="&#x2006;" horiz-adv-x="304" />
<glyph unicode="&#x2007;" horiz-adv-x="304" />
<glyph unicode="&#x2008;" horiz-adv-x="228" />
<glyph unicode="&#x2009;" horiz-adv-x="365" />
<glyph unicode="&#x200a;" horiz-adv-x="101" />
<glyph unicode="&#x2010;" horiz-adv-x="614" d="M111 424l14 174h467l-14 -174h-467z" />
<glyph unicode="&#x2011;" horiz-adv-x="614" d="M111 424l14 174h467l-14 -174h-467z" />
<glyph unicode="&#x2012;" horiz-adv-x="614" d="M111 424l14 174h467l-14 -174h-467z" />
<glyph unicode="&#x2013;" horiz-adv-x="866" d="M121 426l14 174h699l-15 -174h-698z" />
<glyph unicode="&#x2014;" horiz-adv-x="1253" d="M121 426l14 174h1086l-15 -174h-1085z" />
<glyph unicode="&#x2018;" horiz-adv-x="380" d="M176 969l21 231q5 50 25 91q20 40 57 74q36 32 78 50q46 19 94 19l-11 -115q-50 0 -88 -35q-36 -33 -41 -84h119l-20 -231h-234z" />
<glyph unicode="&#x2019;" horiz-adv-x="380" d="M135 932l10 117q49 0 85 33q38 35 42 83h-116l20 234h234l-21 -234q-5 -50 -25 -91q-20 -40 -57 -74q-35 -32 -79 -50t-93 -18z" />
<glyph unicode="&#x201a;" horiz-adv-x="380" d="M72 -233l10 116q48 0 86 34q39 34 43 83h-119l19 233h233l-18 -233q-4 -49 -27 -91q-24 -45 -56 -74q-36 -32 -78 -50q-43 -18 -93 -18z" />
<glyph unicode="&#x201c;" horiz-adv-x="651" d="M176 969l21 231q5 50 25 91q20 40 57 74q36 32 78 50q46 19 94 19l-11 -115q-50 0 -88 -35q-36 -33 -41 -84h119l-20 -231h-234zM446 969l21 231q4 48 26 91q21 42 56 74t79 50q46 19 93 19l-10 -115q-46 0 -84 -35q-36 -33 -41 -84h114l-20 -231h-234z" />
<glyph unicode="&#x201d;" horiz-adv-x="651" d="M135 932l10 117q49 0 85 33q38 35 42 83h-116l20 234h234l-21 -234q-5 -50 -25 -91q-20 -40 -57 -74q-35 -32 -79 -50t-93 -18zM406 932l10 117q52 0 88 33q37 34 41 83h-119l20 234h234l-21 -234q-5 -50 -25 -91q-21 -42 -56 -74t-79 -50q-43 -18 -93 -18z" />
<glyph unicode="&#x201e;" horiz-adv-x="651" d="M35 -233l10 116q48 0 85 34q38 35 42 83h-117l19 233h233l-18 -233q-4 -49 -27 -91q-24 -45 -56 -74q-36 -32 -78 -50q-44 -18 -93 -18zM305 -233l10 116q51 0 88 34t41 83h-118l18 233h234l-19 -233q-4 -49 -27 -91q-24 -45 -56 -74q-36 -32 -78 -50q-44 -18 -93 -18z " />
<glyph unicode="&#x2022;" horiz-adv-x="776" d="M186 309v404h404v-404h-404z" />
<glyph unicode="&#x2026;" horiz-adv-x="1380" d="M66 0l18 233h231l-18 -233h-231zM573 0l19 233h233l-18 -233h-234zM1081 0l19 233h233l-18 -233h-234z" />
<glyph unicode="&#x202f;" horiz-adv-x="365" />
<glyph unicode="&#x2039;" horiz-adv-x="538" d="M117 512l424 389l-25 -276l-156 -109l-2 -8l138 -111l-23 -274z" />
<glyph unicode="&#x203a;" horiz-adv-x="538" d="M84 123l22 274l160 111l2 8l-141 109l25 276l354 -389z" />
<glyph unicode="&#x205f;" horiz-adv-x="456" />
<glyph unicode="&#x20ac;" horiz-adv-x="980" d="M96 477l15 174h77l9 94h-78l16 175h78l10 127q6 81 43 150q38 71 94 123q57 52 132 83q76 31 155 31q73 0 138 -27q64 -27 113 -74q49 -48 76 -110q27 -63 27 -136h-188q-6 71 -50 121q-43 49 -132 49q-95 0 -151 -59t-64 -151l-10 -127h389l-82 -175h-324l-8 -94h299 l-80 -174h-233l-13 -129q-8 -92 39 -150q47 -59 139 -59q88 0 141 49q54 50 72 121h189q-16 -77 -53 -137q-39 -63 -95 -110q-53 -44 -124 -72q-69 -27 -144 -27q-81 0 -150 30q-70 30 -117 82q-48 53 -72 123q-23 68 -17 150l12 129h-78z" />
<glyph unicode="&#x2122;" horiz-adv-x="675" d="M74 1386v48h219v-48h-82v-231h-53v231h-84zM322 1155v279h51l88 -211l88 211h53v-279h-53v152l-62 -152h-51l-63 152v-152h-51z" />
<glyph unicode="&#x25fc;" horiz-adv-x="1024" d="M0 0v1024h1024v-1024h-1024z" />
<glyph unicode="&#xfb01;" horiz-adv-x="1038" d="M129 850l14 174h78l12 139q6 56 32 107q25 48 66 86q38 35 90 57q49 21 105 21q58 0 107 -21t83 -56q33 -35 50 -85q16 -48 10 -109h-182q5 41 -11 69t-67 28q-46 0 -66 -28q-19 -27 -24 -69l-12 -139h602l-88 -1024h-197l74 850h-406l-73 -850h-193l74 850h-78z" />
<glyph unicode="&#xfb02;" horiz-adv-x="1013" d="M129 850l14 174h78l2 20q6 79 44 152q37 70 95 124q57 52 132 83q76 31 153 31q78 0 148 -31q66 -29 115 -83q50 -55 73 -124q24 -72 18 -152l-90 -1044h-194l90 1044q8 94 -38 153q-47 60 -138 60q-92 0 -149 -60q-56 -59 -64 -153l-2 -20h233l-14 -174h-234l-73 -850 h-195l74 850h-78z" />
</font>
</defs>
</svg>
