<?xml version="1.0" standalone="no"?>
<!DOCTYPE svg PUBLIC "-//W3C//DTD SVG 1.1//EN" "http://www.w3.org/Graphics/SVG/1.1/DTD/svg11.dtd" >
<svg xmlns="http://www.w3.org/2000/svg">
<metadata></metadata>
<defs>
<font id="p22mackinacw01-bolditalicRg" horiz-adv-x="1447" >
<font-face units-per-em="2048" ascent="1591" descent="-457" />
<missing-glyph horiz-adv-x="436" />
<glyph horiz-adv-x="0" />
<glyph unicode="&#xd;" horiz-adv-x="0" />
<glyph unicode=" "  horiz-adv-x="436" />
<glyph unicode="&#x09;" horiz-adv-x="436" />
<glyph unicode="&#xa0;" horiz-adv-x="436" />
<glyph unicode="!" horiz-adv-x="677" d="M147 164q0 24 25 55q29 36 58 59q39 31 68 47q34 19 54 19q22 0 49 -20q31 -23 55 -51q25 -29 43 -61q17 -30 17 -54q0 -26 -24 -57q-24 -32 -59 -59q-40 -32 -68 -46q-36 -19 -56 -19q-23 0 -50 21q-31 24 -52 49q-23 28 -42 62q-18 33 -18 55zM334 573q0 25 3 48 q5 36 5 38q15 128 20 257q4 118 15 202q11 119 31 205q18 79 69 123q25 23 59 32t68 9q70 0 102 -32q31 -31 31 -87q0 -44 -15 -106q-10 -40 -40 -144q-25 -79 -69 -202q-46 -131 -83 -257q-12 -41 -21 -75q-9 -33 -23 -62q-13 -27 -32 -41q-18 -14 -51 -14q-46 0 -58 31 q-11 28 -11 75z" />
<glyph unicode="&#x22;" horiz-adv-x="827" d="M211 1112q0 16 2 82q1 48 9 98q7 45 20 91q12 43 34 65q24 27 57 33q31 6 54 6q44 0 74 -19q17 -11 22 -24q6 -15 6 -37q0 -19 -8 -65q-8 -48 -22 -96q-17 -58 -35 -108q-23 -63 -44 -102q-23 -43 -51 -74q-27 -30 -55 -30q-37 0 -49 47q-8 32 -11 64q-3 36 -3 69z M575 1112q0 12 1.5 40.5t1.5 41.5q1 48 9 98q8 52 19 91q12 42 35 65q24 27 56 33t55 6q43 0 73 -19q18 -11 23 -24q6 -15 6 -37q0 -19 -8 -65q-7 -39 -23 -96q-17 -58 -35 -108q-23 -63 -44 -102q-23 -43 -51 -74q-27 -30 -54 -30q-37 0 -49 47q-8 32 -11 64q-4 48 -4 69z " />
<glyph unicode="#" horiz-adv-x="1347" d="M104 590l46 141h219l80 246h-220l47 141h218l120 369h160l-119 -369h207l121 369h160l-119 -369h219l-45 -141h-221l-80 -246h221l-47 -141h-219l-129 -393h-160l129 393h-209l-129 -393h-159l129 393h-220zM528 731h209l80 246h-209z" />
<glyph unicode="$" horiz-adv-x="1161" d="M35 399q0 32 4 59q5 30 6 60q0 7 2 29q2 17 9 32q7 13 20 25q11 10 35 10q23 0 34 -10q15 -13 22 -26q10 -18 17 -38q5 -14 21 -44q19 -33 37 -58q24 -32 55 -56q33 -25 80 -42q45 -16 110 -16q120 0 194 61q75 61 75 150q0 61 -39 101q-40 42 -96 71q-54 29 -125 60 t-125 70q-61 43 -97 99q-38 58 -38 149q0 82 35 149q36 68 96 121q59 52 133 85q75 34 151 41l35 166q2 24 29 24h67q23 0 23 -20q0 -1 -2 -15l-29 -149q91 -5 158 -30t100 -54q23 -23 32 -47t9 -58q0 -32 -4 -65q-5 -42 -14 -66q-11 -36 -25 -47q-15 -12 -37 -12 q-19 0 -32 8q-12 8 -22 24q-8 13 -18 37t-24 46q-15 23 -34 46q-18 22 -47 43q-25 18 -62 31t-78 13q-34 0 -75 -13q-42 -13 -69 -35q-32 -26 -49 -58q-18 -34 -18 -77q0 -61 39 -100q40 -40 96 -71q57 -32 126 -60q66 -27 126 -70q58 -41 96 -100q39 -60 39 -151 q0 -92 -44 -169q-43 -76 -114 -133q-68 -55 -156 -88q-89 -34 -173 -41l-33 -165q-6 -25 -31 -25h-67q-23 0 -23 20q0 1 2 15l31 153q-38 1 -105 13q-65 11 -112 33q-53 24 -90 64t-37 101z" />
<glyph unicode="%" horiz-adv-x="1736" d="M129 989q0 109 39 200q39 92 102 158q61 64 141 103q75 37 154 37q135 0 207 -79q72 -80 72 -210q0 -114 -39 -205q-38 -90 -103 -156q-64 -65 -141 -101q-78 -36 -153 -36q-71 0 -125 23q-53 23 -87 61q-34 39 -51 92q-16 51 -16 113zM313 0l1049 1462h156l-1049 -1462 h-156zM342 969q0 -72 23 -116t63 -44q38 0 68 24q33 26 53 60q23 39 39 83q16 45 25 92q13 65 15 87q5 45 5 68q0 73 -24 115t-64 42q-56 0 -93 -49q-40 -53 -63 -116q-24 -65 -36 -136q-11 -63 -11 -110zM983 266q0 108 39 200t102 158q61 64 141 103q75 37 154 37 q135 0 207 -79t72 -210q0 -113 -39 -205q-38 -90 -103 -156q-64 -65 -141 -101q-78 -36 -153 -36q-71 0 -125 23q-53 23 -87 61q-34 39 -51 92q-16 51 -16 113zM1196 246q0 -72 23 -116t63 -44q39 0 69 24q31 25 52 60q23 39 39 83q16 45 25 92q13 65 15 87q5 45 5 68 q0 73 -24 115t-64 42q-56 0 -93 -49q-41 -54 -63 -115q-23 -64 -36 -137q-11 -63 -11 -110z" />
<glyph unicode="&#x26;" horiz-adv-x="1595" d="M86 367q0 62 25 121q24 57 65 101q42 45 97 77q56 32 118 49q-19 35 -32 79q-11 37 -11 80q0 113 41 190t103 124q61 46 130 67t123 21q64 0 119 -18q59 -19 97 -50q40 -33 64 -76t24 -96t-35 -100t-105 -47q-52 0 -83 25t-31 51q0 11 6 19q4 5 14 15q7 7 14 19t7 29 q0 38 -31 69t-86 31q-68 0 -116 -50q-48 -49 -48 -128q0 -65 36 -122t90 -108t120 -99l125 -95q138 -109 221 -205q35 47 50 91q15 43 15 85q0 58 -27 102t-75 44q-3 0 -13 -2q-5 -1 -12 -1q-15 0 -31 14t-16 46q0 47 40 87t110 40q91 0 150 -73t59 -187q0 -87 -39 -182 q-39 -94 -125 -183q24 -42 38 -90q15 -49 15 -108q0 -83 -30 -155q-31 -74 -82 -128q-51 -53 -126 -88q-72 -33 -157 -33q-58 0 -100 16q-43 16 -71 41q-26 23 -42 55q-14 28 -14 58q0 50 34 88q34 39 86 39q42 0 64 -21t22 -38t-4 -21t-4 -18q0 -20 21 -40q22 -20 61 -20 q27 0 54 12q33 15 50 34q19 22 35 58q15 34 15 77q0 74 -47 147q-99 -55 -210 -82q-109 -27 -218 -27q-120 0 -221 32q-98 31 -170 85q-70 52 -108 124q-38 71 -38 149zM340 422q0 -62 30 -116q30 -55 81 -95q54 -43 120 -66q69 -24 150 -24q71 0 131 16q63 17 115 45 q-58 56 -128 109l-132 98q-54 40 -129 103q-65 54 -119 120q-53 -23 -86 -75q-33 -53 -33 -115z" />
<glyph unicode="'" horiz-adv-x="462" d="M211 1112q0 16 2 82q1 48 9 98q7 45 20 91q12 43 34 65q24 27 57 33q31 6 54 6q44 0 74 -19q17 -11 22 -24q6 -15 6 -37q0 -19 -8 -65q-8 -48 -22 -96q-17 -58 -35 -108q-23 -63 -44 -102q-23 -43 -51 -74q-27 -30 -55 -30q-37 0 -49 47q-8 32 -11 64q-3 36 -3 69z" />
<glyph unicode="(" horiz-adv-x="880" d="M174 481q0 253 114 485t335 402q115 87 212 124q100 38 154 38q19 0 41 -8q21 -8 21 -33q0 -23 -31 -42l-82 -47q-53 -31 -117 -82q-66 -52 -135 -147q-56 -74 -102 -166q-48 -96 -83 -198q-37 -108 -56 -217q-19 -110 -19 -230q0 -92 12 -170q12 -77 39 -148 q28 -72 70 -135q46 -68 104 -126q19 -18 29 -32q10 -13 10 -28q0 -40 -45 -40q-30 0 -67 17q-42 19 -81 50q-40 32 -85 81q-41 45 -82 110q-73 112 -114 248q-42 138 -42 294z" />
<glyph unicode=")" horiz-adv-x="882" d="M-135 -279q0 23 31 42l81 48q58 34 117 81q66 52 135 147q58 76 103 167q49 98 83 197q35 102 55 218q19 110 19 229q0 92 -12 170q-12 77 -39 148q-30 78 -69 136q-43 64 -105 126q-18 18 -28 31q-11 14 -11 28q0 41 45 41q29 0 68 -18q42 -19 81 -50q40 -32 85 -81 q43 -47 82 -109q70 -108 113 -249q42 -138 42 -294q0 -254 -113 -484q-114 -233 -335 -403q-115 -87 -212 -124q-98 -37 -155 -37q-19 0 -41 8q-20 7 -20 32z" />
<glyph unicode="*" horiz-adv-x="878" d="M78 1210q0 16 4 37q5 28 14 48q10 23 28 41t44 18q18 0 32 -7q13 -6 31 -18q28 -17 56 -45q27 -27 59 -51q27 -20 53 -33q25 -12 25 -31q0 -28 -39 -28q-17 0 -36 3q-20 3 -40 3q-37 0 -64 -4t-63 -4q-48 0 -76 15t-28 56zM166 928q0 23 11 40q13 19 34 36q20 19 60 38 q38 18 67 41q28 21 43 36q18 18 35 18q9 0 17 -8q7 -7 7 -17q0 -16 -9 -36q-7 -15 -19 -46q-13 -36 -20 -76q-9 -46 -17 -69q-11 -29 -28 -49q-18 -21 -46 -21q-22 0 -41 11q-24 14 -37 22q-20 17 -38 36q-19 20 -19 44zM340 1454q0 33 20 53q15 15 41 19q24 4 45 4 q23 0 47 -4q28 -5 42 -19q20 -20 20 -51q0 -48 -24 -91q-20 -37 -39 -93q-13 -46 -16 -65q-4 -27 -30 -27q-22 0 -28 27q-5 21 -17 65q-16 47 -39 92q-22 43 -22 90zM451 1108q0 27 24 27q17 0 35 -18q15 -15 41 -34q31 -23 67 -42q39 -20 60 -40q22 -17 34 -32 q13 -16 13 -39q0 -26 -20 -46q-26 -26 -37 -36q-20 -14 -37 -23q-20 -10 -41 -10q-28 0 -46 21q-17 20 -28 49q-11 30 -18 68q-6 31 -21 75l-18 44q-8 21 -8 36zM469 1167q0 20 24 32q27 13 52 32q31 21 61 51q28 28 56 45q14 9 32 17t33 8q31 0 50 -28q16 -25 28 -56 q0 -1 8 -29q4 -15 4 -33q0 -45 -36 -57t-76 -12q-33 0 -62 4t-63 4q-17 0 -41 -2t-33 -2q-37 0 -37 26z" />
<glyph unicode="+" horiz-adv-x="1413" d="M172 692v80q0 27 27 27h422q14 0 14 14v426q0 27 27 27h88q26 0 26 -27v-426q0 -14 15 -14h423q27 0 27 -27v-80q0 -26 -27 -26h-423q-15 0 -15 -15v-428q0 -26 -26 -26h-88q-27 0 -27 26v428q0 15 -14 15h-422q-27 0 -27 26z" />
<glyph unicode="," horiz-adv-x="622" d="M2 -289q0 17 10 26t27 18l40 22q20 10 52 37q29 23 55 59q27 37 27 80q0 22 -10 46t-39 64q-22 28 -41 61t-19 60q0 20 22 48q23 30 52 53q28 22 64 42q31 17 55 17q13 0 29 -10q15 -10 32 -25q19 -17 32 -33q23 -27 26 -32q29 -40 38 -74q9 -35 9 -66q0 -62 -45 -144 q-44 -81 -148 -177q-12 -13 -44 -37q-5 -4 -58 -41q-24 -17 -62 -34q-29 -13 -53 -13q-19 0 -35 15t-16 38z" />
<glyph unicode="-" horiz-adv-x="774" d="M90 485v4v2q1 2 1.5 5t0.5 6l27 127q6 28 33 28h473q26 0 26 -24q0 -3 -2 -17l-26 -127q-6 -26 -33 -26l-475 -2q-25 0 -25 24z" />
<glyph unicode="." horiz-adv-x="561" d="M35 164q0 25 24 55q27 34 59 59q42 33 67 47q34 19 55 19q22 0 49 -20q29 -21 54 -51q25 -29 43 -61q17 -30 17 -54q0 -26 -24 -57q-26 -34 -58 -59q-38 -30 -69 -46q-36 -19 -55 -19q-24 0 -51 21q-31 24 -52 49q-23 28 -42 62q-17 31 -17 55z" />
<glyph unicode="/" horiz-adv-x="1124" d="M-88 -190q0 4 6 12l1212 1696q8 12 27 12h119q12 0 12 -8q0 -6 -6 -13l-1214 -1693q-12 -15 -29 -15h-117q-10 0 -10 9z" />
<glyph unicode="0" horiz-adv-x="1400" d="M82 494q0 193 65 369q66 179 178 318q111 138 258 222t310 84q227 0 347 -139q120 -140 120 -375q0 -198 -67 -382q-65 -179 -178 -318q-111 -137 -258 -216q-148 -80 -304 -80q-125 0 -212 40q-90 41 -146 109q-59 71 -85 163q-28 98 -28 205zM383 496q0 -176 56 -276 q56 -101 161 -101q85 0 151 45q65 44 117 118q50 70 88 165q37 91 60 189q21 88 34 184q11 81 11 157q0 175 -57 274t-162 99q-88 0 -157 -48q-70 -48 -120 -124q-52 -79 -86 -172q-36 -99 -56 -191q-23 -104 -31 -179q-9 -86 -9 -140z" />
<glyph unicode="1" horiz-adv-x="743" d="M104 1315q0 23 5 43q5 19 20 33q12 8 25 11q11 2 51 7q69 6 147 19q89 14 168 34q48 11 71 18q22 7 48 7q23 0 40 -11t17 -40q0 -5 -2 -19l-280 -1376q-11 -41 -52 -41h-180q-39 0 -39 37v5q0 1 0.5 2.5t1 4.5t0.5 6l213 1049q19 100 19 123q0 32 -17 43q-16 10 -51 10 q-37 0 -76 -3t-77 -3q-22 0 -37 6t-15 35z" />
<glyph unicode="2" horiz-adv-x="1222" d="M-12 76q0 130 80 254q79 123 202 217q66 50 117 83q43 28 110 67q45 26 107 67q59 39 109 78q35 29 64 59q36 38 58 70q27 40 41 79q15 42 15 89q0 86 -54 146q-55 61 -149 61q-71 0 -123 -35q-51 -35 -90 -78q-37 -42 -56 -73q-15 -25 -40 -58q-19 -25 -36 -38t-42 -13 q-35 0 -48 22t-13 57q0 27 4 55q5 37 15 65q13 38 29 67q18 34 46 57q57 50 162 81q107 32 219 32q110 0 197 -30q90 -31 148 -82q60 -52 93 -122q33 -69 33 -149q0 -98 -53 -193q-52 -94 -170 -168q-86 -53 -163 -90l-157 -70q-83 -37 -155 -72q-73 -36 -152 -93 q-16 -12 -46 -38q-20 -17 -44 -45q-22 -25 -33 -46q-12 -23 -12 -39q0 -25 35 -25h395q105 0 136 1q47 2 81 12q31 8 52 24t38 32q13 12 32 27q14 11 36 11q18 0 33 -13q14 -12 14 -34q0 -21 -13 -54l-28 -73l-28 -78q-13 -32 -28 -50q-18 -21 -45 -28q-30 -8 -82 -8 q-55 0 -135 3t-164 3h-452q-52 0 -71 18t-19 58z" />
<glyph unicode="3" horiz-adv-x="1204" d="M-12 262q0 42 16 77q17 36 64 36q21 0 40 -14q17 -12 32 -34q10 -14 30 -46q19 -31 33 -48q42 -50 94 -88q56 -41 143 -41q68 0 124 31q51 28 91 81q38 50 56 113t18 126q0 106 -55 171q-56 67 -166 68q-49 0 -78 -4t-55 -4q-20 0 -38 9t-18 36q0 5 4 25q5 23 5 26 q5 30 17 46q13 18 50 18q20 0 55 -5t80 -5q88 0 147 30q57 29 93 78q35 47 50 102q16 58 16 103q0 86 -50 150q-49 63 -151 63q-73 0 -125 -36q-54 -37 -104 -99q-22 -27 -42 -61q-21 -36 -34 -54q-17 -25 -34 -39t-40 -14q-68 0 -68 78q0 14 3 44q3 29 15 64q12 36 33 71 q20 34 56 64q54 47 147 76q98 31 207 31q99 0 186 -26q84 -25 146 -72q59 -45 95 -113q34 -65 34 -146q0 -56 -21 -112q-21 -55 -67 -104q-44 -46 -116 -85q-69 -37 -169 -55q-20 -4 -20 -10q0 -9 16 -10q57 -12 109 -38t89 -66t60 -93q23 -54 23 -117q0 -108 -56 -194 q-56 -87 -142 -146q-86 -60 -194 -91q-110 -32 -210 -32q-126 0 -223 33t-146 88q-35 39 -45 84q-10 43 -10 80z" />
<glyph unicode="4" horiz-adv-x="1267" d="M14 391v6q0 6 4 19l19 88q5 22 9 33q2 4 22 30q111 122 198 242q94 129 150 226q61 107 106 216q45 110 68 211q5 13 12 19q8 6 27 6h166q22 0 22 -14q0 -3 -2 -13q-28 -109 -83 -225q-54 -113 -128 -227q-71 -109 -163 -221q-86 -105 -187 -203q-4 -4 -4 -9q0 -6 10 -6 h375q29 0 35 27l123 598q5 29 36 29h197q29 0 29 -23q0 -1 -0.5 -3t-1 -5t-0.5 -6l-119 -582q-2 -14 -2 -16q0 -19 22 -19h189q28 0 28 -20q0 -3 -2 -17l-26 -131q-6 -32 -41 -32h-191q-26 0 -28 -23q-12 -61 -14 -87q-3 -32 -3 -52q0 -47 17 -70q17 -24 37 -35l36 -22 q17 -11 17 -33q0 -23 -22 -36q-19 -11 -56 -11h-416q-29 0 -42 13t-13 30q0 28 19 40q2 1 49 26q13 6 33 21q16 12 34 38q17 25 32 65q15 39 27 103q0 3 1.5 8.5t1.5 7.5q0 17 -21 17h-555q-31 0 -31 22z" />
<glyph unicode="5" horiz-adv-x="1148" d="M14 254q0 61 23 96t63 35q39 0 57 -33q17 -32 46 -71q27 -37 46 -59q24 -29 60 -55q35 -25 81 -42q45 -16 108 -16q64 0 119 23q57 24 100 64t67 95q25 58 25 117q0 98 -52 163q-53 66 -141 105q-86 38 -200 56q-116 19 -234 20q-14 0 -17 6t-3 10t6 20l256 650 q10 24 39 24h305q59 0 133 2q52 1 90 13q32 12 47 23q18 13 32 26t26 20q13 8 30 8q39 0 39 -41q0 -25 -12 -50q-14 -30 -23 -54q-19 -52 -34 -104q-12 -42 -41 -60q-16 -14 -43 -17q-24 -3 -78 -3h-440q-17 0 -25 -17l-78 -196q-6 -16 -6 -21q0 -10 16 -10q104 -1 216 -26 q111 -24 198 -76q84 -50 144 -141q57 -87 57 -216q0 -105 -43 -203q-42 -96 -123 -174q-75 -73 -191 -121q-112 -47 -245 -47q-45 0 -110 9q-56 8 -102 25q-51 19 -87 44q-40 28 -64 62q-21 28 -29 67q-8 40 -8 70z" />
<glyph unicode="6" horiz-adv-x="1277" d="M104 518q0 107 26 223q25 114 74 223q47 107 117 202q71 98 155 167q87 72 190 113t219 41q47 0 97 -8q41 -7 84 -22q39 -14 66 -29t42 -27q26 -21 32 -47q6 -24 6 -51q0 -57 -15 -94q-15 -38 -62 -38q-35 0 -58 20q-24 21 -51 52q-39 43 -79 76q-41 33 -107 33 q-72 0 -133 -37q-64 -39 -112 -106q-51 -71 -89 -165q-40 -99 -68 -213l-4 -16v-2q0 -6 6 -6q2 0 13 12q61 88 152 137q92 50 196 50q88 0 157 -33q72 -34 117 -87q49 -57 72 -126q24 -72 24 -150q0 -126 -48 -240q-48 -113 -129 -202q-81 -88 -190 -139q-112 -52 -233 -52 q-115 0 -202 43q-89 44 -147 117t-88 172t-30 209zM375 360q0 -121 50 -188q49 -66 146 -66q73 0 131 49q59 49 98 118q37 65 60 154q21 82 21 155q0 114 -51 184q-50 68 -144 68q-61 0 -118 -36q-53 -34 -99 -100q-43 -63 -69 -150q-25 -85 -25 -188z" />
<glyph unicode="7" horiz-adv-x="1044" d="M41 61q0 63 52 176t169 248q47 54 105 107l121 111l126 112q55 48 119 109q98 93 143 151q47 60 64 115q2 10 2 14q0 19 -22 19h-396q-79 0 -136 -3q-55 -3 -87 -14q-28 -11 -44 -23q-11 -8 -31 -26q-19 -17 -24 -20q-14 -9 -26 -9q-15 0 -30 13q-13 12 -13 30 q0 26 13 59q15 39 24 64l33 94q12 35 37 54q20 11 46 16q23 4 79 4h776q28 0 28 -16v-4q0 -3 -1 -5t-1 -7q-17 -128 -59 -219q-45 -98 -101 -174t-125 -145l-128 -130l-124 -130q-71 -76 -134 -155q-67 -85 -108 -158q-44 -79 -44 -139q0 -33 12 -51q11 -17 28 -32l28 -24 q12 -12 12 -30q0 -19 -15 -31t-51 -12h-252q-65 0 -65 61z" />
<glyph unicode="8" horiz-adv-x="1294" d="M43 315q0 88 38 162t99 128q63 55 138 89q74 33 155 49q19 2 19 13q0 8 -17 14q-98 34 -159 98q-60 63 -60 164q0 88 42 170q42 83 119 146q78 64 183 101q108 38 234 38q190 0 300 -82q111 -83 111 -215q0 -77 -32 -139q-31 -61 -81 -108t-115 -77q-64 -30 -128 -45 q-21 -6 -21 -16q0 -11 19 -17q133 -34 204 -114q70 -79 70 -191q0 -93 -47 -185q-46 -90 -133 -162q-85 -70 -207 -114q-126 -45 -270 -45q-105 0 -192 26q-84 25 -145 71t-92 106q-32 62 -32 135zM313 317q0 -96 61 -157q60 -60 165 -60q79 0 143 35t110 90q46 54 70 123 q25 70 25 133q0 52 -20 94q-21 43 -51 69q-31 27 -71 42q-36 14 -77 14q-65 0 -128 -30q-62 -30 -114 -83q-52 -54 -82 -122q-31 -71 -31 -148zM526 1038q0 -88 54 -136q52 -46 125 -46q52 0 102 29q46 27 86 76q36 45 58 107q22 63 22 124q0 86 -47 130t-119 44 q-65 0 -118 -32q-52 -31 -88 -81q-35 -49 -55 -106q-20 -58 -20 -109z" />
<glyph unicode="9" horiz-adv-x="1261" d="M63 250q0 48 18 82q18 35 60 35q37 0 60 -35l49 -76q20 -29 36 -50q17 -23 44 -46q23 -20 58 -34q33 -13 77 -13q74 0 135 37q63 39 111 105q49 68 88 166q38 96 67 218q0 4 1 5t1 3v4q0 6 -6 6q-4 0 -10 -10q-66 -91 -159 -141q-92 -49 -197 -49q-71 0 -136 25 q-63 24 -116 76q-52 50 -82 124q-31 76 -31 168q0 126 47 243q46 115 129 202q83 88 192 140q108 52 232 52q117 0 204 -42q86 -41 145 -116q58 -73 88 -172t30 -211q0 -169 -56 -338q-56 -170 -159 -312q-101 -140 -246 -229q-146 -90 -319 -90q-88 0 -172 26 q-81 25 -125 77q-34 38 -46 86q-12 46 -12 84zM422 881q0 -54 11 -95q12 -47 35 -79q26 -37 60 -56q36 -20 90 -20q70 0 127 42q60 44 99 109q41 68 62 151q22 86 22 167q0 123 -52 190q-53 68 -141 68q-69 0 -127 -44q-55 -42 -99 -114q-43 -70 -65 -153q-22 -82 -22 -166z " />
<glyph unicode=":" horiz-adv-x="747" d="M96 164q0 24 25 55q29 36 58 59q39 31 68 47q34 19 54 19q22 0 49 -20q28 -21 54 -51q25 -29 43 -61t18 -54q0 -24 -25 -57q-26 -34 -58 -59q-38 -30 -69 -46q-36 -19 -55 -19q-23 0 -50 21q-31 24 -52 49q-23 28 -42 62q-18 33 -18 55zM246 889q0 25 24 55q25 32 59 58 q47 36 67 48q34 19 55 19q22 0 49 -20q28 -21 54 -51q25 -29 43 -61q17 -30 17 -54q0 -25 -24 -57t-59 -59q-40 -32 -68 -46q-36 -19 -55 -19q-24 0 -51 21q-31 24 -52 49q-23 28 -42 62q-17 31 -17 55z" />
<glyph unicode=";" horiz-adv-x="753" d="M31 -289q0 17 10 26q11 9 27 18l40 22q20 10 52 37q29 23 55 59q27 37 27 80q0 19 -11 46t-38 64q-22 28 -41 61t-19 60q0 20 22 48q23 30 52 53q30 24 63 42q31 17 56 17q12 0 28 -10q18 -12 33 -25q19 -17 32 -33q16 -20 25 -32q29 -40 38 -74q10 -38 10 -66 q0 -60 -46 -144q-45 -82 -147 -177q-13 -13 -44 -37q-5 -4 -58 -41q-24 -17 -62 -34q-29 -13 -53 -13q-18 0 -35 15q-16 15 -16 38zM276 891q0 22 25 53q27 34 58 58q41 32 69 48q34 19 55 19q22 0 48 -20q31 -24 54 -51q26 -30 43 -62q17 -31 17 -55q0 -26 -24 -56 q-25 -32 -59 -58q-40 -32 -68 -46q-36 -19 -56 -19q-21 0 -48 21q-31 24 -53 50q-24 28 -43 63q-18 33 -18 55z" />
<glyph unicode="&#x3c;" horiz-adv-x="1466" d="M205 606v117q0 29 26 41l994 438q11 4 14 4q12 0 12 -18v-139q0 -29 -26 -41l-375 -166l-139 -62l-123 -54l-90 -38q-6 -3 -12.5 -5.5t-10.5 -4t-7 -3l-5 -2.5l-2 -1q-4 -1 -4 -6q0 -8 6 -9q2 -2 37 -17l89 -39l122 -53l139 -61l375 -163q26 -12 26 -41v-140 q0 -18 -12 -18q-3 0 -14 4l-994 436q-26 12 -26 41z" />
<glyph unicode="=" horiz-adv-x="1507" d="M219 520v80q0 27 27 27h1016q26 0 26 -27v-80q0 -26 -26 -26h-1016q-27 0 -27 26zM219 862v82q0 27 27 27h1016q26 0 26 -27v-82q0 -26 -26 -26h-1016q-27 0 -27 26z" />
<glyph unicode="&#x3e;" horiz-adv-x="1466" d="M215 143v140q0 29 27 41l374 163l139 61l123 54l89 40q9 4 19 8.5t14.5 6.5t5.5 2q4 1 4 7q0 4 -6 8q-1 0 -5.5 2t-14.5 6.5t-19 8.5l-88 39l-122 53l-139 61l-374 164q-27 12 -27 41v139q0 18 12 18q4 0 15 -4l993 -436q27 -12 27 -41v-117q0 -29 -27 -41l-993 -438 q-11 -4 -15 -4q-12 0 -12 18z" />
<glyph unicode="?" horiz-adv-x="1110" d="M201 1110q0 71 33 134q36 68 100 121q65 53 160 88q93 34 217 34q106 0 190 -29q80 -28 136 -76q55 -48 82 -107q28 -62 28 -124q0 -57 -21 -105q-24 -54 -53 -90q-31 -38 -74 -73q-44 -36 -84 -58q-88 -51 -162 -80q-76 -30 -143 -71q-46 -26 -76 -60q-28 -31 -28 -63 q0 -21 13 -31q11 -9 31 -17q9 -4 31 -16q13 -7 13 -26q0 -21 -14 -34q-14 -12 -35 -20q-24 -8 -44 -11q-24 -3 -44 -3q-65 0 -115 26q-49 25 -49 85q0 36 29 85q30 50 94 101q69 56 150 105q81 50 157 118q68 66 103 125q36 60 36 131q0 88 -56 137q-58 50 -142 50 q-42 0 -84 -14q-43 -14 -73 -37q-31 -24 -51 -59t-20 -75q0 -41 18 -56q19 -15 38 -21q3 -1 37 -15q18 -7 18 -32q0 -16 -12 -37q-11 -18 -35 -38q-19 -15 -55 -29q-29 -11 -70 -11q-82 0 -128 49t-46 129zM209 164q0 25 24 55q27 34 59 59q42 33 67 47q34 19 55 19 q22 0 49 -20q29 -21 54 -51q25 -29 43 -61t18 -54q0 -24 -25 -57q-26 -34 -58 -59q-38 -30 -69 -46q-36 -19 -55 -19q-23 0 -50 21q-34 26 -53 49q-23 28 -42 62q-17 31 -17 55z" />
<glyph unicode="@" horiz-adv-x="2170" d="M174 549q0 197 74 371q73 171 201 299q127 127 296 199q172 73 361 73q232 0 422 -98q191 -99 313 -285q70 -109 104 -227q33 -113 33 -238q0 -120 -32 -223q-33 -107 -93 -188q-61 -83 -143 -128q-85 -47 -186 -47q-140 0 -231 85t-99 233q0 8 -8 8q-6 0 -8 -6 q-30 -53 -76 -111q-45 -57 -113 -110q-44 -36 -97 -58q-47 -20 -99 -20q-55 0 -92 22t-61 60q-23 36 -34 84q-10 44 -10 96q0 100 36 220q37 125 111 233q43 66 98 118q53 50 98 75q48 27 94 39q43 11 87 11q45 0 84 -9q47 -11 72 -20l57 -20q26 -8 41 -8q28 0 43 12l29 25 q22 22 41 22q41 0 41 -43q0 -5 -4 -24q-1 -4 -11 -46.5t-18 -79.5l-55 -247q-19 -90 -25 -139q-8 -66 -8 -107q0 -178 143 -178q72 0 144 57q71 56 118 168q21 53 37 126q15 70 15 149q0 106 -33 217q-33 110 -115 215q-108 133 -269 207q-159 73 -341 73q-170 0 -320 -66 q-148 -65 -260 -180q-110 -113 -175 -267q-64 -152 -64 -324q0 -175 64 -327t175 -266q112 -115 260 -180q152 -67 320 -67q192 0 361 85q168 85 286 239q20 26 49 26q21 0 35 -13t14 -34q0 -23 -14 -43q-57 -80 -134 -144q-81 -67 -174 -116q-96 -50 -203 -77 q-108 -27 -220 -27q-194 0 -363 72q-168 71 -296 201q-125 127 -199 300q-74 174 -74 371zM827 381q0 -51 15 -88t49 -37q46 0 110 70q63 69 129 168q67 106 99 187q33 83 33 124q0 33 -23 58q-21 22 -63 44q-49 19 -80 19q-58 0 -97 -43q-21 -23 -58 -84q-37 -62 -71 -174 q-20 -63 -32 -132q-11 -66 -11 -112z" />
<glyph unicode="A" d="M-178 41q0 23 17 33l42 24q50 28 107 97q32 38 59 78l72 106l694 1071q18 27 41 27h104q29 0 35 -27q0 -2 9 -52l24 -132l34 -186q23 -123 38 -212l104 -575q17 -75 27 -107t33 -53q16 -16 31 -25q6 -3 15.5 -9.5t12.5 -8.5q11 -7 20 -16t9 -25q0 -49 -76 -49h-395 q-60 0 -60 39q0 22 17 34q9 7 36 22q21 12 37 31q17 20 17 58q0 17 -3 38l-8 52l-30 168q-5 19 -27 19h-498q-22 0 -34 -21q-74 -125 -99 -183q-26 -61 -26 -97q0 -26 12 -41q10 -13 26 -25l25 -20q12 -11 12 -29q0 -27 -19 -36t-50 -9h-324q-61 0 -61 41zM428 608 q0 -10 12 -10h396q18 0 18 14q0 1 -2 15l-86 485q-1 14 -8 14q-4 0 -10 -10l-68 -103l-82 -128l-86 -136l-80 -131q-4 -5 -4 -10z" />
<glyph unicode="B" horiz-adv-x="1374" d="M-53 43q0 25 17 36q12 8 38 21q28 15 48 33q17 16 34 41q4 7 13 25q11 22 16 38q11 36 17 58q10 39 20 88l153 760q7 33 16 86q7 40 7 59q0 30 -15 47q-16 18 -32 27q-25 15 -33 21q-15 12 -15 32q0 29 21 38t51 9h414q60 0 164 -2q74 -1 144 -11q67 -9 122 -30 q57 -22 96 -59q38 -36 56 -85q18 -48 18 -101q0 -86 -35 -151q-34 -64 -92 -111q-55 -45 -128 -73t-144 -38q-15 -1 -15 -13q0 -7 4 -8q6 -2 8 -2q76 -6 132 -26q58 -20 102 -58q41 -35 66 -90q24 -53 24 -123q0 -73 -30 -148q-30 -74 -85 -134q-44 -47 -100 -84 q-57 -37 -135 -63t-183 -39q-101 -13 -245 -13h-453q-61 0 -61 43zM391 190q0 -34 26 -42q24 -7 70 -7h45q87 0 165 23q76 22 133 66t89 110q31 65 31 154q0 108 -79 160q-81 54 -230 55q-50 0 -76 -1t-53 -1q-22 -1 -27 -23l-67 -328q-16 -77 -21 -110q-6 -37 -6 -56z M524 870q0 -22 25 -22h96q93 0 166 23q77 24 127 73q38 36 62 88q24 51 24 117q0 94 -67 135q-68 42 -189 43h-121q-33 0 -39 -31l-80 -401q-4 -13 -4 -18v-7z" />
<glyph unicode="C" horiz-adv-x="1388" d="M74 614q0 186 74 343t203 277q126 117 300 185t367 68q108 0 197 -21q93 -22 143 -55q31 -23 43 -53t12 -68q0 -33 -7 -69q-9 -49 -17 -76q-15 -44 -31 -67t-51 -23q-34 0 -49 15q-14 14 -25 41l-23 58q-12 32 -36 70q-27 37 -83 73q-53 34 -151 34q-126 0 -233 -67 q-104 -65 -181 -174q-75 -106 -116 -244t-41 -273q0 -115 28 -199t77 -144q47 -57 112 -88q63 -30 135 -30q66 0 124 26q56 25 101 61t79 76q29 34 56 70q35 47 58 64q22 16 57 16q29 0 45 -17t16 -50q0 -34 -7 -62q-11 -45 -17 -63q-22 -59 -48 -100q-27 -41 -71 -72 q-69 -48 -170 -73q-107 -26 -211 -26q-133 0 -253 42q-121 42 -210 124q-91 83 -143 201q-53 120 -53 270z" />
<glyph unicode="D" horiz-adv-x="1583" d="M-53 43q0 30 22 42l45 24q26 13 42 29q18 18 28 34q4 7 13 25q12 24 16 37q10 32 17 60q11 44 20 89l153 760q9 40 16 85q7 42 7 62q0 31 -16 49q-17 18 -32 26q-20 10 -33 19q-16 11 -16 31q0 24 21 36q19 11 53 11h344q213 0 370 -22q159 -22 283 -101 q104 -68 160 -183q58 -121 58 -269q0 -135 -48 -279q-46 -137 -127 -246q-125 -164 -333 -263q-209 -99 -527 -99h-475q-61 0 -61 43zM395 211q0 -46 35 -57q36 -11 84 -11h27q110 0 224 33q112 32 212 125q115 109 179 270q63 159 63 330q0 42 -9 105q-8 55 -28 101 q-21 49 -54 89q-34 41 -84 68q-80 41 -168 50q-92 9 -212 9q-31 0 -42 -11q-12 -12 -18 -38l-178 -887q-18 -80 -23 -107q-8 -45 -8 -69z" />
<glyph unicode="E" horiz-adv-x="1298" d="M-53 45q0 26 19 38q9 6 42 21q49 22 78 68q4 7 13 25t15 37q5 16 16 60q19 77 22 89l79 396l80 397q2 11 5.5 31t5.5 30q4 24 4 51q0 32 -15 49q-16 18 -32 27q-5 3 -16 9.5t-17 9.5q-15 9 -15 32q0 26 23 37q21 10 57 10h535q148 0 254 8q119 9 151 9q26 0 52 -8 q24 -8 24 -41q0 -32 -14 -103q-13 -68 -31 -174q-7 -52 -24 -79q-14 -23 -56 -23q-31 0 -45 17q-13 16 -24 58q-9 34 -27 80q-16 42 -64 76q-47 29 -120 35q-74 6 -179 6h-77q-32 0 -43 -11q-13 -13 -17 -38l-76 -377q-2 -7 -3 -17q-1 -8 -1 -16q0 -26 43 -26h99q59 0 106 4 q62 4 114 9q58 5 83 5q24 0 42 -6q17 -6 17 -29q0 -13 -5 -30q-1 -5 -4 -14.5t-5 -14.5q-12 -54 -39 -67q-26 -13 -90 -13q-28 0 -82 2q-12 0 -41.5 1.5t-46.5 2.5q-46 2 -92 2h-109q-29 0 -35 -28l-53 -267l-21 -106q-10 -50 -10 -74q0 -50 40 -62q42 -13 93 -14h25 q110 0 190 22q77 21 126 54q53 35 81 72q49 64 54 71q24 36 45 55q23 21 57 21q29 0 46 -16t17 -45q0 -39 -22 -84q-23 -51 -35 -104q-11 -50 -31 -98q-19 -45 -51 -73t-96 -28q-15 0 -55 2q-14 1 -72 5q-51 4 -97 5q-76 2 -132 2h-572q-61 0 -61 45z" />
<glyph unicode="F" horiz-adv-x="1243" d="M-53 43q0 27 17 38q12 8 40 21q53 23 82 70q4 7 13 25q10 20 16 39q10 32 17 60q11 44 20 89l157 776q1 7 6.5 33t7.5 38q5 35 5 54q0 33 -16 51t-32 27l-33 19q-16 10 -16 32q0 26 23 37q21 10 57 10h537q146 0 252 8q119 9 151 9t55 -10q21 -9 21 -44q0 -19 -3 -40 q-3 -18 -9 -55l-16 -83q-5 -30 -19 -119q-12 -77 -76 -77q-40 0 -54 27q-13 26 -24 67q-12 45 -29 80q-19 39 -73 67q-42 19 -101 25q-63 6 -151 6h-106q-31 0 -42 -11q-12 -12 -18 -38l-90 -447q0 -3 -0.5 -6t-1 -4.5t-0.5 -2.5v-7q0 -29 45 -29h91q33 0 91 2q44 1 112 10 q55 7 97 7q33 0 51 -6q19 -6 19 -29q0 -16 -6 -30q-4 -9 -10 -25q-4 -20 -15 -43q-8 -17 -23 -26t-39 -12t-63 -3q-25 0 -87 2l-93 4q-62 2 -93 2h-85q-29 0 -35 -29l-45 -217q-14 -62 -19 -109q-6 -54 -6 -63q0 -52 18 -74q19 -24 37 -35q22 -13 37 -21q17 -9 17 -34 q0 -26 -23 -38q-21 -11 -55 -11h-428q-29 0 -43 13t-14 30z" />
<glyph unicode="G" horiz-adv-x="1499" d="M74 616q0 180 72 339q71 156 199 277q123 116 297 186q171 69 370 69q96 0 196 -19q94 -18 150 -57q32 -24 43 -52q12 -30 12 -67q0 -30 -6 -68q-6 -35 -14 -67q-16 -50 -30 -75q-15 -27 -52 -27q-35 0 -50 18q-16 19 -32 57q-18 42 -37 75q-24 43 -54 69q-34 30 -81 51 t-115 21q-139 0 -246 -71q-108 -71 -179 -181q-73 -112 -110 -245q-38 -135 -38 -259q0 -92 22 -173q23 -83 71 -148t120 -102q73 -38 170 -38q31 0 66 5q27 4 54 11q28 10 41 19q11 8 17 37l39 186q12 63 13 72q5 33 5 53q0 42 -21 62q-20 19 -46 30l-47 20q-21 9 -21 33 q0 29 20 40q21 12 54 12h438q57 0 61 -43q0 -30 -27 -42q-9 -4 -27.5 -12t-27.5 -12q-19 -10 -33 -25q-15 -16 -25 -37t-20 -61q-12 -50 -20 -90l-41 -194q-8 -37 -21 -60t-48 -45q-65 -42 -172 -76q-110 -35 -242 -35q-135 0 -256 46q-118 45 -206 128q-86 82 -136 201 q-49 117 -49 264z" />
<glyph unicode="H" horiz-adv-x="1624" d="M-53 43q0 23 17 36q15 11 40 23q28 12 48 30q19 18 34 40l13 27q11 22 16 38q11 36 17 59q11 44 20 89l159 786q17 80 17 117q0 31 -16 49t-32 27q-27 16 -33 20q-16 11 -16 31q0 24 21 36q19 11 53 11h393q60 0 60 -43q0 -28 -27 -40q-40 -18 -53 -25q-19 -11 -32 -24 q-12 -12 -23 -37q-12 -28 -20 -59q-10 -39 -21 -91l-54 -264q-2 -14 -2 -15q0 -20 27 -20h590q23 0 24 20l62 307q7 35 12 65q4 24 4 52q0 36 -14 51q-16 17 -33 26q-18 9 -33 18q-14 8 -14 32q0 27 20 37t54 10h391q57 0 61 -43q0 -28 -27 -40q-45 -20 -53 -25 q-17 -10 -31 -24q-13 -13 -25 -37q-11 -21 -20 -59q-11 -46 -20 -91l-153 -758q-16 -72 -20 -111q-5 -45 -5 -63q0 -50 16 -73q17 -24 37 -36l37 -22q17 -11 17 -33q0 -23 -22 -36q-19 -11 -56 -11h-430q-29 0 -42 13q-14 14 -14 30q0 25 17 37q15 11 39 22q54 22 82 70 l14 25q10 20 16 39q15 48 18 60q6 24 19 89l57 287l2 14q0 21 -22 21h-592q-21 0 -27 -19l-61 -303q-12 -54 -18 -112q-4 -37 -4 -64q0 -50 16 -72q17 -24 37 -35l37 -21q16 -9 16 -34q0 -23 -22 -36q-19 -11 -56 -11h-430q-28 0 -43 12q-14 11 -14 31z" />
<glyph unicode="I" horiz-adv-x="704" d="M-53 43q0 25 16 37q15 11 39 22q30 16 48 31q18 16 34 39q4 7 13 25q10 20 16 39q10 32 17 60q11 44 20 89l159 786l13 65q4 24 4 50q0 23 -8 42t-27 30q-14 8 -40 22q-20 11 -20 35t21 36q19 11 51 11h393q62 0 62 -43q0 -28 -28 -40q-42 -18 -52 -25q-19 -11 -32 -24 q-11 -11 -24 -37q-12 -25 -21 -59q-7 -29 -19 -91l-154 -758q-14 -63 -19 -112q-6 -56 -6 -64q0 -49 17 -72q17 -24 37 -35l37 -21q16 -9 16 -34q0 -23 -22 -36q-19 -11 -56 -11h-430q-29 0 -42 13t-13 30z" />
<glyph unicode="J" horiz-adv-x="823" d="M-399 -184q0 42 17 76q18 36 65 36q31 0 57 -26l57 -58q29 -29 68 -57q38 -27 86 -27q31 0 67 17q37 18 64 55q49 64 82 182q35 123 78 334l147 727q17 84 24 130q7 45 7 75q0 36 -15 54q-14 17 -32 29l-33 20q-14 8 -14 32q0 29 20 38q21 9 53 9h396q59 0 59 -47 q0 -21 -15 -30q-10 -6 -38 -19q-51 -21 -78 -70q-12 -26 -23 -67q-9 -33 -34 -154q-14 -67 -37 -191l-44 -240q-27 -140 -49 -241q-22 -99 -49 -196q-61 -215 -147 -333q-90 -123 -205 -191q-68 -40 -140 -59q-73 -19 -147 -19q-56 0 -102 12q-45 12 -80 37q-41 30 -53 77 q-12 46 -12 85z" />
<glyph unicode="K" horiz-adv-x="1517" d="M-53 43q0 25 16 37q15 11 39 22q28 15 48 30q18 14 36 40q4 7 13 25q10 20 16 39q10 32 17 60q11 44 20 89l153 758q12 53 17 82q6 35 6 61q0 49 -35 72q-11 7 -42 24q-20 11 -20 33q0 27 21 37q20 10 53 10h391q60 0 60 -41q0 -30 -27 -42q-40 -18 -53 -25 q-19 -11 -32 -24q-12 -12 -23 -37q-12 -28 -20 -59q-10 -39 -21 -91l-74 -363l-2 -14q0 -10 8 -10q7 0 18 10l109 87l123 101l117 98l92 76q91 79 135 124q47 49 47 85q0 18 -7 26q-5 6 -17 16l-16 16q-7 7 -7 22q0 45 76 45h379q63 0 63 -45q0 -16 -10 -25q-12 -10 -26 -16 l-19.5 -6.5t-17.5 -6.5q-32 -12 -44 -17q-28 -13 -68 -36q-23 -13 -81 -54l-103 -75l-131 -104l-178 -143l-90 -74l-39 -31q-12 -11 -12 -14q0 -8 8 -8q6 0 15 6t30 6q49 0 94 -80q45 -79 121 -245q49 -107 86 -182q30 -60 62 -108q26 -39 48 -58q20 -17 48 -25q9 -3 44 -18 q21 -9 21 -37q0 -35 -57 -52q-25 -7 -49 -12l-55 -12l-47 -8q-27 -5 -50 -5q-15 0 -43 6q-20 4 -45 23q-20 15 -41 41q-19 25 -46 72q-30 52 -56 109l-72 157l-50 113q-27 57 -46 89q-22 37 -44 59t-42 22q-15 0 -23 -6l-32 -24l-39 -29q-21 -15 -39 -30t-31 -28 q-9 -9 -14 -17q-1 -2 -8 -20l-27 -129q-14 -63 -19 -111q-6 -54 -6 -63q0 -49 18 -73q18 -25 37 -36l37 -22q17 -10 17 -33q0 -22 -22 -35q-21 -12 -56 -12h-428q-29 0 -43 13t-14 30z" />
<glyph unicode="L" horiz-adv-x="1171" d="M-53 45q0 29 20 39l41 20q51 24 78 68q4 7 13 25q12 24 16 37q10 32 17 60q11 44 20 89l151 758q10 44 18 86q7 36 7 63q0 29 -16 47t-32 27q-27 16 -33 20q-16 11 -16 31q0 24 21 36q19 11 53 11h389q60 0 60 -45q0 -29 -27 -39q-33 -13 -51 -24q-19 -11 -32 -24 q-11 -11 -24 -37q-13 -25 -21 -60q-8 -31 -19 -92q-4 -13 -10 -39q-3 -13 -9 -44.5t-8 -44.5l-24 -121l-27 -134l-74 -363l-21 -106q-10 -50 -10 -74q0 -53 43 -65q47 -13 95 -13q90 0 159 22q67 21 111 55q48 36 76 72q43 54 55 71q24 35 47 56t55 21q28 0 45 -16 q19 -17 19 -47q0 -18 -6 -39q-1 -4 -19 -53q-18 -45 -34 -107q-15 -58 -31 -94q-19 -42 -51 -67t-93 -25q-13 0 -51 2l-68 5q-51 4 -94 5q-70 2 -125 2h-522q-61 0 -61 45z" />
<glyph unicode="M" horiz-adv-x="1875" d="M-45 47q1 32 33 45q29 12 63 41q24 22 41 48q18 27 35 70q18 47 32 100q20 80 34 143q8 32 25 115l33 156l35 168l32 156q4 17 9.5 42t9 43t6.5 32q6 31 11 56q1 7 3 19q1 6 1 15q0 26 -16 41q-15 14 -36 25q-30 16 -36 20q-16 10 -16 33q0 27 22 37q21 10 56 10h330 q36 0 50 -9q13 -8 19 -32l184 -790q5 -17 11 -17q4 0 12 13l506 794q18 26 34 33q19 8 42 8h344q30 0 47 -12q16 -12 16 -31q0 -29 -23 -40q-9 -4 -53 -23q-46 -21 -64 -70q-17 -48 -34 -131l-156 -772q-14 -64 -19 -110q-5 -45 -5 -64q0 -51 16 -71q18 -23 37 -34l37 -22 q16 -10 16 -33q0 -29 -21 -39q-20 -10 -56 -10h-422q-64 0 -64 45q0 24 19 37q14 9 43 22q49 22 77 68q11 17 16 30q7 16 16 47q8 27 21 77q2 8 25 118l150 744l3 12q1 3 1 8q0 9 -8 9q-4 0 -11 -9l-594 -942q-12 -18 -20 -23t-29 -5h-69q-21 0 -29 5q-7 5 -12 27l-211 938 q-2 9 -8 9q-9 0 -11 -11l-21 -101l-35 -167q-20 -99 -39 -199l-37 -199q-11 -60 -27 -169q-11 -77 -11 -105q0 -71 23 -102t59 -51l43 -25q19 -11 19 -37t-22 -39q-21 -12 -56 -12h-356q-70 0 -70 47z" />
<glyph unicode="N" horiz-adv-x="1644" d="M-41 49q0 23 22 36q19 11 58 28q36 19 51 30q22 17 42 42q19 25 36 65q16 38 31 98q7 26 24 104l37 170l42 200l41 197l33 158l17 83q2 14 2 16q0 18 -15 33q-13 13 -48 32q-33 19 -63 34q-23 11 -23 40q0 24 19 36q18 11 48 11h254q36 0 53 -10q16 -9 27 -33l514 -1026 q5 -8 10 -8q7 0 11 10l36 179l36 187l33 169q21 111 24 129q7 43 14 100q4 33 4 58q0 63 -20 89q-21 28 -46 42l-46 25q-21 12 -21 40q0 49 80 49h358q70 0 70 -45q0 -32 -29 -46l-55 -25q-19 -10 -45 -28q-18 -13 -38 -41q-15 -21 -32 -64q-9 -22 -28 -95q-7 -29 -31 -137 l-45 -211l-50 -243l-48 -233l-38 -184q-14 -74 -20 -94q-1 -13 -10 -22q-8 -8 -31 -8h-114q-22 0 -29 7q-9 9 -14 19l-531 1059q-5 8 -10 8q-6 0 -8 -8l-41 -193q-28 -133 -47 -235q-25 -130 -38 -222q-16 -110 -16 -155q0 -62 20 -97q19 -33 60 -56q27 -17 48 -27 q22 -11 22 -39q0 -47 -76 -47h-401q-70 0 -70 49z" />
<glyph unicode="O" horiz-adv-x="1658" d="M74 573q0 192 72 358q71 164 198 291q122 122 289 194q165 71 348 71q144 0 255 -45q110 -45 189 -125q78 -80 119 -190q41 -111 41 -238q0 -185 -73 -354q-72 -166 -196 -290t-290 -196t-350 -72q-142 0 -257 45t-189 122q-75 78 -116 189q-40 108 -40 240zM377 580 q0 -210 89 -335q88 -124 255 -124q123 0 223 62q103 64 177 167q75 105 117 243t42 290q0 211 -90 337t-256 126q-117 0 -220 -62q-101 -61 -176 -166q-74 -104 -118 -244q-43 -138 -43 -294z" />
<glyph unicode="P" horiz-adv-x="1304" d="M-53 43q0 26 18 38q9 6 39 21q51 24 80 68q8 12 15 27t15 39q6 19 16 61q12 50 20 90l153 756q8 36 16 84q7 40 7 59q0 34 -15 51q-17 18 -32 26q-18 9 -33 18t-15 32q0 29 21 39q20 10 51 10h418q93 0 175 -3q83 -3 155 -18q70 -15 128 -45q55 -29 95 -83q32 -43 46 -94 q13 -49 13 -105q0 -104 -39 -186q-39 -83 -98 -142q-52 -54 -117 -89t-139 -58q-76 -23 -154 -32q-80 -9 -159 -9h-131q-26 0 -31 -27l-37 -184q-17 -77 -21 -115q-6 -52 -6 -63q0 -48 18 -69q20 -23 37 -35q13 -9 37 -23q17 -10 17 -35q0 -24 -21 -36q-19 -11 -55 -11h-428 q-59 0 -59 43zM504 758q0 -21 22 -21h82q124 0 213 30q90 31 146 107q33 40 51 104q18 63 18 122q0 66 -24 112q-34 66 -106 90q-68 23 -173 23h-82q-35 -2 -41 -35l-104 -516q-1 -4 -2 -9v-3v-4z" />
<glyph unicode="Q" horiz-adv-x="1656" d="M72 573q0 183 69 349q68 163 191 291q124 128 286 200q168 74 361 74q143 0 256 -45q111 -44 190 -125q77 -78 118 -190q40 -108 40 -238q0 -168 -56 -315q-58 -152 -158 -270q-104 -122 -242 -203q-141 -83 -308 -111q-6 -2 -6 -6q0 -5 8 -7q72 -23 112 -38l117 -43 q52 -19 114 -35q57 -15 108 -15q28 0 52 7t37 12q20 8 28 12q12 6 28 6q20 0 34 -13q15 -13 15 -34q0 -24 -18 -48q-23 -30 -41 -62q-29 -48 -60 -77q-31 -30 -94 -30q-70 0 -163 37q-104 41 -195 82q-88 40 -197 82q-95 37 -170 37q-30 0 -55 -7q-21 -6 -35 -13l-26 -13 q-12 -6 -27 -6t-26 10t-11 27t13 31q14 15 32 32q24 20 54 40q21 14 51 28q6 2 6 6t-8 6q-102 24 -182 77q-79 52 -133 127q-56 78 -82 169q-27 95 -27 202zM375 580q0 -210 89 -335q88 -124 255 -124q136 0 242 73q103 71 175 184q69 109 106 247q36 135 36 258 q0 210 -89 337q-88 126 -257 126q-139 0 -244 -72t-174 -183q-70 -112 -104 -248q-35 -138 -35 -263z" />
<glyph unicode="R" horiz-adv-x="1415" d="M-53 43q0 28 22 40l39 19q51 21 78 68l13 26q9 19 16 40q9 28 18 61q11 37 21 90l157 787q2 9 7 32t7 34q5 33 5 46q0 33 -16 51t-32 27l-33 19q-16 10 -16 32q0 24 21 36q19 11 51 11h500q41 0 125 -2q64 -2 124 -12t111 -30q52 -20 88 -56q42 -42 58 -89t16 -102 q0 -89 -35 -162q-35 -74 -94 -125q-62 -54 -140 -83q-86 -32 -175 -39q-15 -2 -15 -12q0 -11 11 -13q53 -11 86 -27q36 -17 65 -54q30 -37 53 -93q30 -71 50 -145q30 -111 38 -138q18 -60 31 -89q15 -35 29 -53t33 -34l31 -23q16 -13 16 -34q0 -29 -22 -38q-21 -9 -46 -9 h-153q-50 0 -79 10q-31 11 -53 43q-28 39 -48 122q-22 92 -54 214q-21 80 -42 131q-21 52 -48 87q-26 33 -63 50q-36 17 -82 21q-24 2 -32 2h-26h-24q-7 0 -27 -2q-23 -2 -29 -31l-53 -260q-14 -66 -19 -113q-6 -54 -6 -63q0 -48 17 -73q17 -24 37 -36l37 -21q16 -9 16 -34 t-20 -36q-19 -11 -54 -11h-432q-59 0 -59 43zM522 840q0 -23 23 -23h108q75 0 143 20q67 20 117 58q51 39 81 99t30 145q0 56 -23 94q-22 36 -59 57q-36 20 -84 28q-43 7 -96 7h-105q-37 0 -43 -35l-90 -436z" />
<glyph unicode="S" horiz-adv-x="1210" d="M-25 229q0 19 6 65t7 68q1 41 17 77q15 34 61 34q31 0 47 -20t31 -55l36 -75q20 -41 60 -85q39 -42 97 -74q60 -33 159 -33q55 0 112 15q54 14 104 48q45 30 74 78q29 47 29 111q0 71 -45 118q-42 43 -112 83q-53 30 -145 70q-78 34 -145 81t-112 115t-45 172 q0 68 19 119q18 48 48 95q29 44 60 73q39 35 59 51q88 67 199 97t203 30q114 0 201 -30q89 -31 126 -66q29 -28 38 -57q10 -33 10 -66q0 -9 -1.5 -30.5t-1.5 -31.5q-1 -34 -11 -71q-10 -39 -26 -60q-18 -24 -49 -24q-22 0 -36 10t-26 28t-23 40q-23 47 -27 53 q-33 58 -94 108q-59 49 -160 49q-58 0 -102 -17q-46 -18 -78 -47q-35 -32 -52 -69q-18 -39 -18 -82q0 -70 45 -117q42 -44 113 -83q61 -34 145 -71q79 -35 146 -81q65 -45 112 -117q45 -69 45 -176t-50 -193q-48 -83 -118 -145q-70 -63 -195 -114q-123 -50 -288 -50 q-66 0 -146 12q-84 13 -146 41q-68 31 -112 78q-45 48 -45 121z" />
<glyph unicode="T" horiz-adv-x="1263" d="M88 1108q0 17 6 41q19 71 34 142q14 70 30 120q11 39 32 52q23 14 72 14q52 0 153 -8q88 -7 224 -7h293q138 0 230 7q106 8 155 8q31 0 56 -9q22 -8 22 -45v-10q0 -2 -2 -16q-7 -34 -10 -55q-4 -30 -12 -72l-14 -77q-3 -13 -11 -69q-6 -39 -25 -57q-17 -16 -49 -16 q-26 0 -41 14q-17 15 -31 57l-29 84q-17 49 -61 78q-34 23 -81 32q-48 9 -91 9q-30 0 -38 -11q-9 -11 -13 -32l-182 -897q-14 -63 -19 -112q-4 -37 -4 -64q0 -50 16 -72q17 -24 37 -35l37 -22q16 -10 16 -35q0 -22 -21 -34q-19 -11 -56 -11h-430q-29 0 -43 13q-15 13 -15 30 q0 25 17 37q15 11 39 22q31 12 50 30q16 15 33 40q12 21 14 25q8 15 15 39q15 48 18 60q6 24 19 89l180 889q4 19 4 24q0 12 -6 19q-6 8 -31 8q-52 0 -98 -8q-38 -7 -86 -33q-54 -29 -88 -72q-36 -45 -63 -88q-22 -39 -42 -57t-46 -18q-35 0 -50 16q-14 15 -14 43z" />
<glyph unicode="U" horiz-adv-x="1531" d="M123 365q0 82 24 196l117 582q13 54 16 77q5 38 5 60q0 28 -7 46q-8 21 -28 32q-14 8 -40 22q-20 11 -20 33q0 29 21 39q20 10 51 10h395q60 0 60 -43q0 -28 -27 -40q-40 -18 -53 -25q-20 -12 -32 -25q-12 -14 -23 -38q-12 -28 -20 -59t-21 -89q-6 -28 -15 -71 q-4 -18 -11 -54t-10 -52l-25 -122q-4 -19 -23 -119q-4 -19 -10.5 -50.5t-8.5 -44.5q-2 -11 -4.5 -23t-4 -19t-1.5 -10q-18 -90 -18 -156q0 -129 80 -194q81 -66 219 -66q361 0 446 391l29 135q7 30 17.5 86.5t12.5 64.5l28 142q15 76 20 111q12 73 12 125q0 62 -21 89 q-21 28 -46 42l-46 25q-20 11 -20 38q0 51 80 51h358q72 0 72 -47q-2 -29 -29 -41q-32 -14 -57 -28q-19 -10 -45 -28q-19 -14 -37 -41q-14 -22 -31 -64q-12 -29 -29 -95l-22 -101l-36 -164l-38 -178l-31 -145q-17 -80 -35 -132q-18 -54 -47 -103q-83 -148 -235 -233 t-356 -85q-91 0 -183 20t-160 65q-70 46 -114 120q-43 73 -43 183z" />
<glyph unicode="V" horiz-adv-x="1441" d="M100 1413q0 49 76 49h395q60 0 60 -41q0 -21 -17 -32q-22 -14 -36 -22q-20 -11 -37 -30t-17 -57q0 -16 3 -39l8 -53l149 -836q1 -14 8 -14q5 0 15 14l100 154l117 185l114 187l97 158q64 110 89 166q27 62 27 98q0 28 -12 43q-10 12 -28 25q-5 3 -27 20q-13 10 -13 29 q0 22 20 34q18 11 50 11h328q59 0 59 -41q0 -18 -14 -29q-9 -7 -39 -26q-40 -25 -61 -44q-22 -21 -52 -54q-27 -33 -59 -79l-72 -106l-692 -1071q-20 -26 -43 -26h-104q-29 0 -35 26l-1 6q-1 6 -3.5 19.5t-5.5 27.5l-24 132l-34 185l-37 212l-104 575q-16 72 -29 109 q-11 31 -31 51q-17 17 -29 23q-2 1 -29 16q-14 8 -21 18q-9 13 -9 27z" />
<glyph unicode="W" horiz-adv-x="2244" d="M123 1413q0 49 80 49h383q61 0 61 -45q0 -15 -8 -25q-8 -9 -20 -17q-10 -6 -27 -13q-16 -6 -27 -16q-21 -16 -28 -40q-9 -29 -9 -67v-26q0 -21 4 -50l72 -757q2 -27 8 -27q3 0 13 16l602 1059q7 14 15 19q7 4 24 4h116q30 0 31 -21l127 -1053q4 -22 8 -22q5 0 11 10 l33 60l60 107l73 135l78 141l68 123q32 61 46 85q48 88 78 152q28 59 28 98q0 30 -14 44q-18 18 -32 26q-18 10 -31 21q-15 12 -15 32q0 47 72 47h344q64 0 64 -43q0 -18 -14 -30q-14 -13 -40 -27q-36 -20 -64 -42q-30 -23 -57 -56q-30 -35 -60 -79q-40 -59 -67 -106 l-66 -115l-116 -202l-139 -242l-136 -235l-106 -185q-41 -73 -49 -88q-11 -16 -18 -21q-8 -5 -25 -5h-98q-27 0 -33 26l-137 1045l-3 15q-2 5 -7 5q-7 0 -11 -10l-598 -1055q-5 -8 -16 -19q-7 -7 -27 -7h-104q-34 0 -35 26l-129 1157q-7 62 -17 102q-9 35 -30 58 q-15 15 -30 24l-27 16q-16 10 -21 17q-8 11 -8 27z" />
<glyph unicode="X" horiz-adv-x="1484" d="M-98 41q0 28 27 43q39 21 57 35q41 25 87 64q40 34 113 110l82 88l100 111l105 120l100 119q15 17 15 29q0 6 -3 12l-12 23l-200 401l-32 62q-15 29 -26 45q-13 19 -26 31q-18 16 -35 26q-17 12 -37 23q-16 9 -16 32q0 25 20 36q19 11 49 11h396q55 0 55 -39 q0 -18 -13 -28q-16 -12 -30 -20q-16 -9 -30 -21q-13 -12 -13 -37q0 -24 13 -54q18 -41 30 -67l145 -293q10 -20 17 -20q5 0 20 16l86 99l81 98q35 43 68 88q28 37 46 69q20 33 20 64q0 22 -11 33q-12 12 -24 21l-23 19q-11 8 -11 25q0 24 19 36q18 11 50 11h350q58 0 58 -41 q0 -25 -26 -40q-17 -10 -58 -38q-43 -26 -86 -64q-47 -41 -113 -110l-77 -83l-92 -102l-98 -113l-95 -111q-15 -16 -15 -29q0 -2 9 -22l198 -402l42 -82q17 -30 33 -55q14 -21 32 -39q15 -15 39 -31l34 -22q17 -11 17 -33t-20 -34q-18 -11 -50 -11h-395q-55 0 -55 37 q0 18 13 30q9 8 29 20q13 7 28 23q14 14 14 37t-12 53q-13 34 -29 66l-31 62l-40 80l-45 89l-44 89q-12 24 -21 24q-4 0 -12 -8q-92 -101 -179 -210q-67 -84 -122 -163q-17 -28 -24 -46t-7 -36q0 -21 11 -34q14 -16 23 -22q15 -10 24 -19q10 -10 10 -29q0 -22 -19 -33 q-17 -10 -49 -10h-350q-59 0 -59 41z" />
<glyph unicode="Y" horiz-adv-x="1419" d="M129 1417q0 21 22 34q19 11 56 11h385q57 0 57 -41q0 -19 -16 -31q-15 -11 -37 -22q-21 -10 -37 -28q-16 -17 -16 -50q0 -35 18 -86l164 -467q6 -18 12 -18q4 0 19 16l55 67l71 87l76 96l76 96q62 83 96 138q35 56 35 86q0 27 -12 40q-8 9 -26 23l-25 21q-12 11 -12 28 q0 45 71 45h342q62 0 62 -41q0 -18 -15 -30q-20 -16 -32 -23q-52 -32 -61 -38q-29 -21 -60 -50q-34 -32 -73 -78l-89 -104l-77 -91l-118 -142l-126 -152l-105 -127q-9 -12 -10 -25l-37 -176q-16 -72 -20 -111q-5 -45 -5 -63q0 -49 17 -72q17 -24 37 -35l36 -22 q17 -11 17 -35q0 -27 -21 -37q-20 -10 -55 -10h-430q-57 0 -57 45q0 25 17 36q12 8 40 21q59 28 82 70q4 7 13 25q10 20 16 39q10 32 17 60q6 24 19 89l21 104q4 19 4 25q0 5 -8 31l-217 626q-20 56 -38 101q-13 33 -32 57q-17 20 -30 28l-27 16q-14 9 -21 17q-8 10 -8 27z " />
<glyph unicode="Z" horiz-adv-x="1333" d="M-49 41q0 18 4 34l8 34q7 24 33 55l979 1134q14 17 14 21q0 8 -18 8h-62q-111 0 -154 -1q-79 -2 -114 -5q-52 -5 -84 -13q-36 -9 -65 -24q-56 -29 -89 -75q-28 -40 -59 -91q-23 -40 -43 -54q-21 -15 -45 -15t-44 12q-19 12 -19 47q0 16 8 51l16 68q2 10 9 38t11 47 q20 86 23 99q11 36 31 50q22 16 74 16q47 0 145 -8q85 -7 250 -7h581q39 0 39 -35q0 -9 -3 -29q-2 -13 -5 -28q-5 -24 -14 -37q-4 -6 -29 -37l-977 -1132q-10 -11 -10 -17q0 -8 12 -8h111q116 0 189 4q85 5 143 25q75 23 129 69q50 42 89 88l67 75q30 32 65 32q23 0 43 -13 t20 -42q0 -14 -9 -41q-11 -32 -19 -51q-19 -42 -40 -103q-19 -56 -39 -97q-22 -45 -54 -73t-86 -28q-18 0 -58 2q-7 0 -72 5q-42 3 -99 6t-134 3h-602q-47 0 -47 41z" />
<glyph unicode="[" horiz-adv-x="1017" d="M98 -285q1 2 1.5 5t0.5 6l359 1771q6 33 41 33h528q35 0 35 -27v-4v-1q0 -1 -0.5 -2.5t-1 -4t-0.5 -4.5l-12 -57q-6 -31 -43 -31h-293q-35 0 -41 -35l-305 -1507q-5 -18 -5 -21v-6q0 -18 27 -18h295q31 0 31 -27v-5q0 -1 -0.5 -2.5t-1 -4.5t-0.5 -6l-11 -56 q-6 -30 -43 -30h-530q-31 0 -31 28v4v2z" />
<glyph unicode="\" horiz-adv-x="1054" d="M23 1530h141l868 -1727h-141z" />
<glyph unicode="]" horiz-adv-x="978" d="M-72 -287q1 2 1.5 5t0.5 6l13 57q6 31 43 31h293q34 0 40 34l306 1508q4 15 4 20v6q0 19 -27 19h-295q-31 0 -31 26v6q0 1 1 5l2 8l10 55q6 31 43 31h530q31 0 31 -29v-4v-1q0 -1 -0.5 -2.5t-1 -4t-0.5 -4.5l-359 -1772q-6 -32 -40 -32h-529q-35 0 -35 26v4v2z" />
<glyph unicode="^" horiz-adv-x="1001" d="M106 963q0 4 13 20l383 479q22 25 57 25h160q36 0 47 -25l188 -477q4 -9 4 -16q0 -19 -24 -19h-148q-37 0 -45 25l-118 303q-5 6 -9 6q-6 0 -18 -16l-234 -293q-23 -25 -55 -25h-180q-21 0 -21 13z" />
<glyph unicode="_" horiz-adv-x="1290" d="M-27 -324q0 1 2 15l11 55q4 21 24 21h1288q19 0 19 -15v-4v-1q0 -1 -0.5 -2.5t-1 -4t-0.5 -4.5l-12 -55q-1 -21 -23 -21h-1290q-17 0 -17 16z" />
<glyph unicode="`" horiz-adv-x="1024" d="M236 1470q0 17 26 17h240q32 0 47 -6q12 -5 29 -25l145 -174q10 -11 10 -18q0 -15 -18 -15h-131q-32 0 -45 4q-14 4 -35 19l-256 180q-12 8 -12 18z" />
<glyph unicode="a" horiz-adv-x="1257" d="M49 283q0 119 39 257t111 255q49 79 106 136q55 54 117 92q59 35 121 52q63 17 118 17q51 0 100 -11q54 -12 84 -23l66 -24q27 -10 47 -10q27 0 44 10t31 24q11 11 28 23q16 11 33 11q22 0 32 -15q11 -16 11 -30q0 -5 -9 -55q-5 -26 -20 -99l-28 -125l-29 -131l-29 -131 q-1 -6 -26 -123q-6 -28 -18 -103q-7 -43 -7 -71q0 -23 8 -41q7 -16 29 -16q16 0 31 9q20 12 30 20q18 14 29 21q15 9 28 9q18 0 26 -11q9 -12 9 -26q0 -21 -18 -45q-45 -64 -121 -109q-73 -43 -145 -43q-46 0 -76 15q-32 16 -49 39q-19 25 -26 57q-7 31 -7 70q0 34 5 81 q4 37 11 72q0 5 1 6t1 5v2q0 4 -4 4q-2 0 -10 -13q-29 -51 -82 -119q-48 -62 -104 -109q-59 -50 -122 -79q-67 -31 -134 -31q-111 0 -171 81q-61 82 -61 225zM322 326q0 -26 3 -51t12 -48q9 -22 25 -37q15 -14 46 -14q52 0 120 66q70 69 146 188q37 57 68 119q33 66 51 111 q17 43 30 96q11 46 11 69q0 32 -22 60q-21 27 -51 45t-64 27q-38 10 -58 10q-67 0 -121 -54q-48 -51 -83 -128q-36 -80 -61 -163q-26 -86 -39 -165q-13 -77 -13 -131z" />
<glyph unicode="b" horiz-adv-x="1218" d="M59 23v9q0 6 4 21l224 1104l14 70q6 30 6 53q0 29 -13 42t-38 24l-27 9q-7 2 -27 11q-15 7 -23 16q-9 10 -9 25q0 25 18 37t64 18q45 5 132 24q65 14 136 38q18 6 33 6q51 0 51 -45v-7q0 -5 -4 -20l-141 -698q-2 -8 -2 -10v-2q0 -5 6 -5q3 0 10 15q29 50 80 116 q46 59 104 108q59 50 122 79q67 31 134 31q63 0 106 -24q47 -26 72 -65q28 -43 41 -98q13 -53 13 -119q0 -119 -39 -257t-111 -255q-49 -79 -106 -136q-53 -53 -118 -92q-58 -35 -121 -52q-62 -17 -115 -17t-102 11q-51 12 -83 23l-64 24q-26 10 -48 10q-27 0 -43 -10 q-15 -9 -31 -24q-10 -9 -28 -23q-14 -11 -32 -11q-26 0 -35 15q-10 17 -10 31zM360 246q0 -36 23 -64q20 -24 53 -44q26 -16 64 -26q37 -10 55 -10q67 0 121 54q41 41 77 114q33 68 62 159q27 86 42 169q15 84 15 147q0 22 -3 46q-3 25 -12 47q-9 23 -26 38t-45 15 q-107 0 -264 -250q-40 -63 -69 -121q-38 -76 -52 -111q-17 -42 -30 -95q-11 -44 -11 -68z" />
<glyph unicode="c" horiz-adv-x="1017" d="M47 391q0 138 55 263q55 126 149 224q91 96 216 155q124 59 256 59q55 0 120 -13q63 -13 99 -32q43 -21 59 -54q15 -30 15 -71q0 -44 -17 -87q-17 -42 -61 -42q-24 0 -41 10q-20 12 -36 25t-37 36q-20 22 -46 39q-65 49 -137 49q-58 0 -103 -26t-83 -70q-40 -46 -65 -98 q-27 -55 -45 -113q-18 -56 -27 -113q-9 -56 -9 -98q0 -55 14 -108q13 -51 42 -90q29 -40 71 -63t103 -23t105 20q48 22 83 44l67 44q30 21 56 21q17 0 33 -14q14 -13 14 -29q0 -21 -18 -51q-15 -25 -66 -68q-77 -65 -174 -103q-95 -37 -195 -37q-90 0 -165 32 q-74 32 -125 87q-53 58 -79 131q-28 79 -28 164z" />
<glyph unicode="d" horiz-adv-x="1259" d="M49 283q0 119 39 257t111 255q49 79 106 136q55 54 117 92q59 35 121 52q63 17 119 17q82 0 142 -22q57 -21 70 -21q14 0 15 14l20 100l14 68q5 30 5 47q0 22 -8 36q-6 11 -25 23q-17 10 -31 14q-19 5 -35 12t-27 17t-11 27q0 26 17 37q18 12 62 18q62 7 129 23 q77 18 127 35q29 10 48 10q22 0 35 -13q14 -14 14 -36q0 -7 -2 -21l-207 -1024l-30 -146q-11 -49 -11 -85q0 -22 7 -36q8 -15 30 -15q16 0 31 9q20 12 30 19l28 20q13 9 29 9q17 0 27 -11t10 -28q0 -42 -73 -109q-39 -34 -97 -60q-57 -26 -112 -26q-87 0 -127 55 q-39 54 -39 140q0 32 4 60q8 53 10 67q0 5 1 6t1 4v2q0 4 -6 4q-5 0 -12 -12q-30 -52 -77 -110q-52 -63 -101 -106q-58 -51 -121 -79q-68 -31 -135 -31q-112 0 -172 82q-60 83 -60 224zM322 326q0 -22 3 -48q3 -27 12 -49q9 -23 27 -38t46 -15q52 0 119 65q69 68 145 187 q80 125 119 231q41 112 41 168q0 52 -43 82q-35 26 -73 41q-42 17 -79 17q-67 0 -121 -54q-43 -46 -77 -117q-34 -70 -62 -160q-27 -86 -42 -168t-15 -142z" />
<glyph unicode="e" horiz-adv-x="1064" d="M47 391q0 123 52 246q52 122 143 226q90 101 209 165q120 64 254 64q149 0 236 -75t87 -190q0 -76 -53 -152q-52 -74 -172 -126q-87 -38 -180 -52q-95 -14 -185 -14h-49q-15 0 -51 2q-14 0 -16 -18q-4 -25 -4 -31q-1 -14 -1 -37q0 -47 13 -97q12 -46 39 -82t66 -56 q41 -21 95 -21q62 0 114 22q47 20 90 47l73 47q35 22 63 22q17 0 33 -14q15 -13 15 -34q0 -20 -19 -52q-17 -28 -65 -70q-75 -65 -171 -99q-100 -35 -202 -35q-91 0 -168 30q-75 29 -131 84q-55 54 -85 130q-30 77 -30 170zM352 633q0 -15 19 -15q117 0 199 20q81 20 139 62 q42 29 64 70t22 76q0 52 -35 82q-34 30 -90 30t-105 -28t-90 -74q-44 -49 -72 -99q-31 -55 -47 -104q-4 -11 -4 -20z" />
<glyph unicode="f" horiz-adv-x="858" d="M-264 -336q0 5 1 8q0 1 1 4.5t2 10t2 12.5l10 51q6 27 29 27q21 0 49 -17q26 -16 82 -16q53 0 94 23q54 28 91 89q37 62 62 158q24 93 46 236q21 139 45 319q17 134 21 161q12 79 24 140q2 10 2 13q0 16 -21 16h-118q-23 0 -23 23q0 1 0.5 3t1 5t0.5 6l15 72q6 26 32 26 h131q21 0 27 17q33 113 88 196q47 72 107 125q64 56 125 88q64 33 132 52q66 18 128 18q34 0 72 -7t69 -20q55 -24 82 -61q26 -36 26 -103q0 -42 -14 -73q-15 -33 -59 -33q-36 0 -63 24l-66 62q-75 70 -148 70q-57 0 -97 -33q-41 -33 -66 -82t-42 -107q-14 -49 -28 -106 q-2 -2 -2 -4v-8q0 -15 18 -15h60q19 0 63 2q23 1 69 7t64 6t43 -5q23 -5 23 -26q0 -17 -6 -29l-3 -6t-3.5 -6.5t-3.5 -6.5t-3 -7q-17 -39 -35 -56q-17 -16 -65 -16q-29 0 -71 2q-11 1 -30.5 2.5t-27.5 1.5q-36 2 -52 2h-44q-26 0 -27 -18q-16 -107 -16 -109q-2 -15 -8 -56 t-9 -65q-26 -188 -43 -292q-21 -127 -48 -231t-67 -185q-42 -85 -100 -152q-84 -99 -192 -143q-105 -43 -199 -43q-11 0 -43 2q-22 1 -45 8q-19 6 -35 18q-14 11 -14 31z" />
<glyph unicode="g" horiz-adv-x="1157" d="M-86 -145q0 52 31 97q30 44 84 73q19 12 53 21q27 7 53 7q35 0 47 -13q13 -15 13 -28q0 -17 -11 -31l-21 -28q-12 -15 -22 -32t-10 -44q0 -37 24 -64q26 -29 65 -46q46 -20 97 -28q56 -9 119 -9q62 0 120 9q54 8 103 28q43 17 72 46q27 27 27 66q0 70 -142 82 q-58 4 -162 10q-78 4 -153 23q-82 21 -122 64t-40 100q0 67 47 114t113 74l8 4q4 1 4 6q0 3 -10 9q-79 35 -129 103q-51 69 -51 169q0 94 44 177q42 80 117 144q73 62 165 98q93 36 192 36q76 0 132 -16q51 -15 88 -33q44 -22 60 -32q26 -16 48 -16q19 0 32 16q20 25 26 33 q16 21 34 34q22 16 61 16q35 0 58 -20q22 -19 22 -56q0 -59 -42 -97q-43 -38 -120 -38h-19q-6 0 -20 2q21 -51 21 -109q0 -88 -38 -169q-36 -77 -102 -138q-63 -58 -151 -97t-184 -46l-60 -10q-30 -4 -60 -14q-29 -10 -47 -22q-20 -14 -20 -32q0 -24 26 -39q26 -16 89 -23 q77 -10 162 -13q83 -3 158 -19q95 -21 142 -75q46 -53 46 -122q0 -77 -45 -143q-44 -65 -122 -112q-76 -46 -180 -72q-101 -25 -220 -25q-96 0 -184 15q-85 14 -159 46q-68 29 -114 78q-43 46 -43 111zM387 637q0 -94 39 -142q40 -49 104 -49q60 0 102 33t69 82 q29 52 40 108q13 63 13 109q0 91 -36 142t-106 51q-58 0 -102 -32t-71 -81q-29 -53 -40 -108q-12 -60 -12 -113z" />
<glyph unicode="h" horiz-adv-x="1316" d="M59 8q0 3 2 17l232 1130q12 63 13 69q5 33 5 52q0 37 -21 52q-24 17 -47 24t-47 17q-22 9 -22 38q0 25 20 37t64 18q133 18 266 62q18 6 33 6q23 0 37 -11t14 -34q0 -3 -2 -17l-137 -686l-2 -14q0 -6 4 -6t14 16q101 162 205 237q107 77 221 77q110 0 170 -65 q60 -64 60 -175q0 -57 -17 -153q-18 -103 -37 -190l-36 -182q-17 -88 -17 -126q0 -20 7 -35q7 -16 30 -16q17 0 32 9q24 14 31 20q18 14 29 21q15 9 29 9q18 0 25 -10q8 -11 8 -27q0 -22 -21 -49q-22 -28 -55 -57q-41 -36 -94 -62q-56 -27 -113 -27q-79 0 -127 48 q-47 47 -47 133q0 46 16 123q21 103 37 170q18 75 37 176q16 83 16 143q0 58 -20 87q-21 30 -68 30q-58 0 -134 -70q-72 -66 -146 -205q-54 -103 -99 -224q-40 -109 -63 -218q-8 -44 -13 -65l-16 -68q-6 -31 -45 -37l-153 -20q-4 0 -8.5 -1t-6.5 -1.5t-3 -0.5h-5 q-35 0 -35 31z" />
<glyph unicode="i" horiz-adv-x="671" d="M100 969q0 47 84 55q142 18 267 61q21 7 34 7q52 0 52 -45q0 -3 -2 -17l-119 -594l-30 -148q-11 -52 -11 -87q0 -20 7 -35q7 -16 30 -16q16 0 31 9q24 14 31 20l29 21q13 9 27 9t25 -9q10 -9 10 -26q0 -20 -18 -49q-19 -30 -55 -59q-41 -35 -98 -62t-113 -27 q-80 0 -122 50q-42 49 -42 135q0 23 3 47q3 26 9 59l90 449q10 48 13 65q6 40 6 54q0 51 -43 67l-63 24q-32 12 -32 42zM303 1380q0 21 23 50q21 27 54 55q32 28 64 45q33 18 54 18t47 -19q23 -17 50 -47q20 -22 40 -59q16 -29 16 -51q0 -21 -22 -49q-19 -24 -55 -55 q-32 -28 -64 -45q-35 -19 -53 -19q-20 0 -47 21t-51 48q-23 26 -40 57q-16 29 -16 50z" />
<glyph unicode="j" horiz-adv-x="753" d="M-375 -201q0 41 15 74t57 33q32 0 57 -20q32 -26 60 -54l12 -12q38 -38 73 -53q34 -15 68 -15q62 0 103 38t68 99q26 60 45 139q14 58 34 156l100 508q13 64 17 86q6 34 6 60q0 48 -39 65q-30 14 -64 25q-32 11 -32 39q0 27 17 40t67 19q51 6 129 22q71 14 131 35 q27 9 39 9q51 0 51 -45v-5v-1q0 -1 -0.5 -2.5t-1 -4t-0.5 -4.5l-100 -530q-15 -72 -37 -193q-14 -76 -35 -169q-17 -75 -44 -148q-25 -67 -65 -129q-47 -72 -100 -118q-58 -50 -117 -79q-63 -31 -125 -44q-61 -13 -120 -13q-36 0 -74 5q-37 5 -66 15q-68 23 -98 65 q-31 43 -31 107zM410 1378q0 21 22 49q23 29 53 56q28 26 64 45q33 18 53 18q21 0 46 -19q23 -17 49 -47q20 -22 40 -59q17 -31 17 -53q0 -20 -23 -49q-21 -27 -53 -54q-30 -25 -64 -44q-35 -19 -53 -19q-20 0 -46 20q-23 17 -49 47q-23 26 -40 57q-16 29 -16 52z" />
<glyph unicode="k" horiz-adv-x="1196" d="M61 8q0 1 2 15l230 1134l5 25t5 26t3 19q5 32 5 51q0 30 -11 42t-34 23q-19 8 -59 24q-31 12 -31 40q0 26 19 39q18 12 63 18q54 6 130 22q68 14 126 34q29 10 47 10q24 0 36 -11q13 -12 13 -34v-4v-2q-1 -2 -1.5 -5t-0.5 -6l-184 -917q-4 -15 -4 -20v-5q0 -6 6 -6 q4 0 12 12q36 55 78 113q46 62 97 124q52 63 112 121q59 58 118 103q59 46 115 72q57 27 109 27q65 0 98 -39t33 -109q0 -19 -3 -40q-3 -22 -12 -40q-9 -17 -26 -30q-18 -13 -41 -13q-22 0 -38 8q-4 2 -9 5t-11.5 7t-9.5 6q-17 10 -32 17q-18 8 -43 8q-21 0 -39 -6 q-35 -11 -76 -38q-46 -31 -82 -64q-48 -44 -83 -82t-79 -92q-6 -6 -6 -12q0 -11 10 -11q6 0 13 4l32 18q13 7 31 7q26 0 47 -18q22 -19 52 -70q30 -48 74 -129l79 -139q23 -38 36 -56q10 -14 28 -32q15 -15 23 -19q13 -7 26 -8q11 -3 32 -12q17 -7 17 -31q0 -27 -29 -45 q-15 -10 -41 -22q-11 -5 -57 -21q-32 -12 -53 -17q-24 -6 -49 -6q-50 0 -80 30q-33 33 -60 77q-36 61 -70 129q-23 47 -73 135q-34 62 -51 78q-16 16 -27 16q-18 0 -39 -33q-63 -98 -104 -195q-40 -95 -56 -171q-5 -19 -14 -26q-9 -6 -31 -11l-157 -20q-3 0 -7 -1l-6 -1.5 t-3 -0.5h-5q-35 0 -35 31z" />
<glyph unicode="l" horiz-adv-x="626" d="M80 162q0 40 12 106l180 889q13 61 14 66q5 33 5 53q0 51 -43 67q-9 4 -19.5 8t-23.5 8.5t-20 7.5q-31 12 -31 42q0 47 84 55q136 17 266 62q18 6 35 6q51 0 51 -45q0 -3 -2 -17l-209 -1034l-30 -148q-11 -52 -11 -87q0 -20 7 -35q7 -16 30 -16q17 0 32 9q20 12 30 20 l29 21q13 9 28 9q14 0 24 -9t10 -26q0 -41 -73 -108q-40 -37 -98 -63t-113 -26q-80 0 -122 50q-42 49 -42 135z" />
<glyph unicode="m" horiz-adv-x="1933" d="M92 6q0 2 2 18q0 2 4 17l138 678l14 72q6 30 6 53q0 31 -22 47q-19 14 -47 22q-22 6 -47 19q-21 10 -21 37q0 25 19 37t65 18q73 12 132 25q79 18 132 36q21 7 35 7q49 0 49 -45v-5v-1q0 -1 -0.5 -2.5t-1 -4t-0.5 -4.5l-49 -248q-2 -8 -2 -10v-2q0 -6 6 -6q3 0 4 1 q2 1 6 9q91 152 195 236q101 82 209 82q56 0 99 -20q41 -19 70 -54q26 -29 37 -73t11 -93q0 -25 -1 -39q0 -7 -2 -20.5t-2 -20.5q0 -10 7 -10q5 0 12 12q93 155 193 236q101 82 206 82q104 0 162 -61q57 -60 57 -159q0 -73 -16 -152l-39 -194l-44 -217q-15 -77 -15 -110 q0 -20 7 -34q8 -15 30 -15q16 0 31 9q24 14 31 20q15 12 30 21t26 9q18 0 25 -11q8 -13 8 -26q0 -43 -74 -106q-40 -37 -98 -63t-115 -26q-22 0 -58 9q-29 7 -53 27q-24 19 -39 54t-15 87q0 13 2 49q1 20 10 61l74 342q10 49 21 106q9 48 9 85q0 42 -16 65q-17 25 -57 25 q-52 0 -122 -67q-68 -65 -143 -204q-58 -109 -97 -224t-62 -222l-29 -133q-8 -31 -43 -37l-156 -20q-4 0 -8 -1l-6 -1.5t-3 -0.5h-5q-33 0 -33 29v6l1 2q0 2 0.5 5t0.5 6l125 608q22 104 22 162q0 92 -73 92q-56 0 -125 -67q-65 -63 -139 -204q-67 -126 -102 -227 q-37 -108 -60 -219l-29 -133q-6 -31 -43 -37l-149 -20l-12 -2t-7 -1h-8q-35 0 -35 29z" />
<glyph unicode="n" horiz-adv-x="1349" d="M92 8q0 3 2 17l142 692q13 66 13 68q5 33 5 53q0 36 -22 52t-47 23q-16 5 -47 18q-21 9 -21 38q0 25 19 37t65 18q71 11 134 25q78 17 134 36q21 7 33 7q22 0 37 -12q14 -11 14 -33q0 -3 -2 -17l-49 -248l-2 -14q0 -6 4 -6t14 16q101 162 205 237q107 77 221 77 q110 0 170 -65q60 -64 60 -175q0 -57 -17 -153q-18 -103 -37 -190l-37 -182q-16 -83 -16 -126q0 -20 7 -35q7 -16 30 -16q17 0 32 9q20 12 30 20q15 12 30 21t29 9q17 0 24 -10q8 -11 8 -27q0 -23 -20 -49q-22 -28 -55 -57q-40 -35 -95 -62t-112 -27q-79 0 -127 48 q-47 47 -47 133q0 46 16 123q21 103 37 170q18 75 37 176q16 83 16 143q0 58 -20 87q-21 30 -68 30q-58 0 -134 -70q-72 -66 -146 -205q-58 -110 -100 -224q-38 -103 -62 -218q-8 -44 -13 -65l-16 -68q-6 -31 -45 -37l-153 -20q-4 0 -8.5 -1t-6.5 -1.5t-3 -0.5h-5 q-35 0 -35 31z" />
<glyph unicode="o" horiz-adv-x="1181" d="M47 414q0 130 50 254q49 121 137 217q85 92 205 150q119 57 255 57q105 0 186 -33q82 -33 134 -90q55 -60 81 -136q27 -79 27 -171q0 -126 -47 -250q-46 -121 -133 -219q-85 -95 -205 -156q-119 -60 -260 -60q-99 0 -180 32q-79 31 -135 89q-54 56 -85 139 q-30 81 -30 177zM322 436q0 -152 53 -240q53 -87 149 -87q71 0 132 44t104 117q41 70 66 172q24 99 24 207q0 162 -56 237q-57 77 -147 77q-72 0 -131 -40q-57 -39 -102 -111q-44 -72 -68 -167q-24 -96 -24 -209z" />
<glyph unicode="p" horiz-adv-x="1253" d="M-113 -350q0 18 11 27q15 13 25 18q27 13 33 16q15 6 34 25q17 17 30 38t23 47q8 20 20 67q13 51 23 100l147 731q1 5 6.5 28.5t7.5 34.5q5 32 5 52q0 28 -8 44q-7 14 -31 25q-27 14 -63 25q-33 10 -33 41q0 27 19 39t65 18q135 16 264 59q21 7 35 7q49 0 49 -45v-5v-1 q0 -1 -0.5 -2.5t-1 -4t-0.5 -4.5l-53 -270q-2 -8 -2 -10v-2q0 -7 4 -7t12 13q25 45 76 114q44 59 102 109q54 47 124 82q66 33 138 33q64 0 108 -26q43 -25 71 -67q28 -43 40 -95q13 -58 13 -109q0 -118 -42 -259q-41 -138 -116 -262q-50 -83 -110 -142q-59 -57 -116 -91 t-117 -49q-59 -15 -110 -15q-40 0 -80 8q-36 7 -64 15q-29 8 -47 15q-21 8 -26 8q-8 0 -10 -13q-17 -80 -24 -124q-7 -43 -7 -74q0 -47 17 -69q18 -23 36 -34l35 -22q17 -11 17 -31q0 -51 -80 -51h-381q-68 0 -68 45zM395 242q0 -36 21 -61q20 -25 51 -43q27 -16 64 -26 q38 -10 59 -10q67 0 121 54q44 45 79 120q34 72 62 161q25 79 41 167q14 77 14 141q0 21 -3 47t-12 48q-9 23 -27 38t-46 15q-58 0 -124 -69q-68 -71 -140 -183q-36 -58 -67 -118q-25 -50 -50 -111q-13 -32 -31 -98q-12 -44 -12 -72z" />
<glyph unicode="q" horiz-adv-x="1208" d="M49 283q0 115 38 255q37 136 112 257q99 159 223 228t237 69q53 0 102 -11q51 -12 83 -23l64 -24q26 -10 48 -10q25 0 41 10q15 9 31 24q14 12 29 23q16 11 33 11q20 0 33 -13q12 -12 12 -30q0 -10 -5 -33l-210 -1036q-16 -88 -18 -106q-5 -45 -5 -67q0 -46 16 -66 t35 -33l35 -21q16 -10 16 -35q0 -47 -79 -47h-381q-68 0 -68 41q0 20 12 30q13 12 30 20q10 5 38 21q20 12 39 35q8 11 22 35q13 22 19 42q8 26 15 55l18 75l71 350q2 14 2 15q0 2 -2 4h-2q-1 0 -12 -17q-43 -73 -100 -140q-60 -71 -132 -120q-50 -34 -104 -54t-104 -20 q-47 0 -88 18q-43 19 -74 54q-33 38 -51 94q-19 60 -19 140zM322 324q0 -63 17 -104q18 -44 71 -44q51 0 118 65t144 187q79 123 120 230q42 110 42 167q0 34 -22 62q-19 24 -52 44q-27 16 -65 26t-56 10q-67 0 -121 -54q-44 -44 -79 -117q-34 -71 -61 -161 q-27 -89 -41 -170q-15 -84 -15 -141z" />
<glyph unicode="r" horiz-adv-x="952" d="M94 8q0 3 2 17l142 694l14 73q6 32 6 54q0 32 -21 46q-17 11 -48 22q-24 8 -47 20q-21 10 -21 35q0 45 84 57q135 16 264 59q21 7 35 7q22 0 36 -12q13 -12 13 -33q0 -3 -2 -17l-49 -246l-2 -14q0 -6 6 -6q4 0 6 2q3 3 8 12q90 148 199 232q106 82 188 82q46 0 86 -31 q39 -30 39 -113q0 -18 -3 -41t-12 -42q-8 -16 -25 -32q-16 -14 -42 -14q-23 0 -37 7q-10 5 -26 17q-13 10 -29 17q-18 8 -41 8q-41 0 -81 -25q-38 -24 -76 -65q-36 -39 -66 -84t-51 -84q-60 -109 -101 -223q-42 -118 -65 -225l-27 -125q-5 -19 -14 -26q-9 -6 -31 -11 l-155 -20q-3 0 -7 -1l-6 -1.5t-3 -0.5h-5q-35 0 -35 31z" />
<glyph unicode="s" horiz-adv-x="993" d="M14 233q0 63 18 103q18 41 62 41q30 0 50 -29l55 -82q47 -74 108 -111q62 -38 127 -38q30 0 65 9q31 8 61 28q28 19 46 47q19 30 19 67q0 49 -36 79q-34 29 -89 52q-56 24 -116 44q-61 20 -116 55q-54 34 -89 82q-36 49 -36 127q0 90 59 179q58 87 173 148q64 31 127 44 q68 14 127 14q71 0 140 -18q67 -17 105 -48q29 -23 39 -52q11 -31 11 -67q0 -16 -2 -52q-1 -22 -12 -51q-9 -25 -25 -39q-17 -15 -45 -15t-42 13q-17 15 -34 48l-31 51q-15 25 -41 49q-22 21 -56 37q-31 15 -77 15q-30 0 -61 -11q-35 -12 -56 -28q-24 -18 -41 -46 q-16 -26 -16 -63q0 -47 36 -77t90 -51q58 -23 118 -44q67 -24 117 -56q56 -36 91 -85q35 -50 35 -131q0 -83 -49 -168q-51 -87 -151 -148q-73 -41 -149 -59q-81 -19 -150 -19q-102 0 -189 28q-83 27 -123 67q-25 25 -36 67t-11 94z" />
<glyph unicode="t" horiz-adv-x="831" d="M94 922q0 1 0.5 3t1 5t0.5 6l15 68q6 22 34 28q74 15 117 37q45 23 74 53q31 32 50 77l36 89q10 27 35 27h108q25 0 25 -23v-2q0 -3 -1 -5t-1 -7l-39 -193q-1 -7 -3 -17q-1 -5 -1 -13q0 -15 9 -19q8 -4 34 -4h48q16 0 60 2q20 1 66 7t65 6q12 0 34 -5q20 -5 20 -26 q0 -10 -7 -26q-8 -18 -12 -29q-15 -37 -34 -55q-18 -17 -64 -17q-19 0 -61 2l-64 4q-38 2 -55 2h-54q-22 0 -28 -23q-15 -62 -26 -115q-22 -106 -31 -155q-13 -74 -25 -163q-10 -77 -10 -138q0 -80 29 -113q30 -34 79 -34q33 0 60 12q24 11 48 26l40 25q18 12 36 12 q13 0 26 -8q11 -7 11 -24q0 -18 -10 -35q-14 -24 -24 -35q-48 -56 -136 -105q-85 -47 -186 -47q-113 0 -185 60q-73 61 -73 186q0 65 11 126q13 71 30 145q12 50 43 170q29 112 49 204q2 14 2 15q0 14 -18 14h-123q-25 0 -25 25z" />
<glyph unicode="u" horiz-adv-x="1347" d="M111 967q0 47 84 59q135 16 264 59q21 7 35 7q51 0 51 -45q0 -3 -2 -17l-117 -567q-23 -109 -23 -168q0 -57 22 -85t71 -28q60 0 132 69t144 204q55 104 99 225q41 112 63 219l29 133q6 31 45 37l170 23q5 0 8 1t6 1h4q25 0 25 -23l-2 -14l-134 -645q-14 -64 -25 -127 q-9 -49 -9 -80q0 -22 7 -37q7 -16 29 -16q19 0 34 9q20 12 30 19l28 20q13 9 29 9q14 0 25 -9q10 -9 10 -26q0 -40 -76 -106q-44 -38 -95 -63q-56 -28 -114 -28q-85 0 -123 53t-38 144q0 32 4 57q1 7 3.5 26t4.5 28l2 14q0 6 -4 6q-3 0 -8 -6q-96 -159 -205 -241 q-108 -81 -225 -81q-110 0 -170 66t-60 176q0 54 17 148q19 103 37 186l36 175q17 83 17 116q0 31 -22 47q-17 12 -46 23q-13 5 -46 19q-21 9 -21 34z" />
<glyph unicode="v" horiz-adv-x="1200" d="M68 942q0 22 18 36q16 12 61 23q70 16 133 36t119 44q24 11 45 11q22 0 37 -12t15 -33v-9q0 -1 -0.5 -3.5t-1 -6.5t-0.5 -8q-2 -14 -6.5 -50.5t-7.5 -57.5l-19 -150l-20 -157q-7 -58 -13 -128q-2 -25 -3 -58q-1 -23 -1 -57q0 -102 29 -160q29 -57 102 -57q51 0 98 30 q49 32 88 75q43 48 74 97t55 99q38 83 56 138q24 72 24 137q0 69 -22 103q-23 36 -49 53l-50 33q-22 15 -22 51q0 30 23 53q24 24 57 42q30 17 68 26q40 10 63 10q72 0 100 -55q27 -54 27 -132q0 -102 -38 -234q-37 -130 -103 -251q-31 -60 -86 -142q-52 -78 -118 -144 q-65 -65 -148 -111t-171 -46q-86 0 -144 34q-59 35 -94 89q-34 53 -50 128q-15 72 -15 151q0 74 12 176l18 150q7 59 7 102q0 38 -14 53q-16 17 -37 23q-30 8 -44 11q-22 5 -37 15q-15 11 -15 33z" />
<glyph unicode="w" horiz-adv-x="1781" d="M111 969q0 47 84 55q64 10 130 24q71 15 130 35q29 9 41 9q22 0 35 -12q14 -12 14 -33q0 -3 -2 -17l-115 -565l-18 -99q-9 -56 -9 -83q0 -36 17 -70q16 -33 63 -33q52 0 122 68q66 65 140 203q56 108 94 219q39 113 64 231l29 131q6 31 45 37l153 21q3 0 7 0.5t6 1t3 0.5 h5q35 0 35 -31v-5q0 -5 -4 -20l-86 -432q-17 -81 -27 -146q-10 -66 -10 -126q0 -32 5 -67q4 -31 18 -58t37 -42q24 -15 63 -15q67 0 142 68q76 69 142 214q31 68 50 141q18 67 18 125q0 55 -12 89q-11 32 -31 55q-14 17 -41 31q-32 17 -41 23q-22 14 -31 25q-12 13 -12 37 q0 29 25 54q24 24 60 42q29 14 74 27q39 11 64 11q40 0 67 -19q26 -18 41 -47t21 -65q6 -38 6 -76q0 -53 -9 -113q-9 -57 -24 -122q-15 -62 -39 -124q-23 -59 -51 -118q-102 -212 -234 -321q-133 -110 -253 -110q-68 0 -121 25q-50 24 -84 68t-48 102q-15 60 -15 127 q0 23 1 35q1 6 2 18.5t1 18.5q0 8 -6 8q-5 0 -13 -17q-44 -84 -97 -154q-53 -69 -115 -122t-125 -80q-67 -29 -132 -29q-38 0 -82 13q-38 11 -70 40q-30 27 -48 71q-19 46 -19 106q0 29 9 97q8 64 19 121q16 86 26 130q6 25 14 68t11 55l20 101q8 46 8 65q0 31 -22 47 q-18 13 -47 23q-24 8 -47 20q-21 10 -21 35z" />
<glyph unicode="x" horiz-adv-x="1101" d="M-66 150q0 34 20 60t58 26q27 0 51 -11q21 -10 52 -10q47 0 91 38q42 36 81 91q30 43 66 112q30 58 48 99l-135 272q-17 36 -32 59q-16 25 -25 35q-11 13 -24 19q-11 5 -23 10q-16 4 -32 14q-15 9 -15 33q0 27 33 43q34 16 63 27q22 7 64 17q34 8 61 8q56 0 84 -33 q28 -32 51 -80l145 -299l63 114q41 71 91 136q47 61 112 113q61 49 126 49q44 0 70 -23t39 -52q14 -32 17 -56q3 -27 3 -35q0 -38 -19 -65q-18 -25 -59 -25q-32 0 -49 10t-49 10q-47 0 -91 -36q-39 -32 -78 -86q-38 -52 -64 -103q-27 -53 -44 -88l147 -301q39 -75 58 -94 q22 -22 49 -29q13 -4 32 -15q13 -7 13 -28q0 -28 -29 -45q-17 -10 -44 -21q-19 -8 -52 -17q-18 -5 -52 -11q-28 -5 -44 -5q-53 0 -82 31q-29 30 -53 82l-158 326q-26 -55 -63 -121q-35 -63 -95 -144q-54 -73 -115 -122q-64 -52 -130 -52q-40 0 -67 22q-24 19 -40 49 q-14 26 -19 56q-6 38 -6 46z" />
<glyph unicode="y" horiz-adv-x="1114" d="M-209 -188q0 42 18 69t56 27q26 0 49 -20l50 -44q27 -24 64 -44q35 -19 87 -19q71 0 136 39t130 94q12 12 12 20q0 7 -1 10l-3 15l-40 197l-50 229q-27 117 -54 222q-28 108 -48 173q-22 65 -41 90q-18 24 -62 35q-5 1 -22 5q-8 2 -24 8q-12 5 -19 14q-9 13 -9 29 q0 36 52 53l95 29q50 16 95 36q29 13 53 13q52 0 70 -56q16 -42 33 -103q26 -90 37 -137l37 -157l35 -162q8 -35 32 -153l25 -129q5 -11 10 -11q3 0 7 2l13 13q60 83 108 170q44 81 79 162q31 71 49 141q16 61 16 104q0 52 -18 73t-41 35q-33 20 -42 26q-20 14 -20 46 q1 34 34 65q31 29 93 52q19 8 53 14q30 5 52 5q72 0 96 -41q25 -42 25 -88q0 -71 -33 -180q-33 -110 -94 -239q-59 -125 -152 -274q-86 -137 -205 -280q-159 -189 -314 -286q-159 -99 -296 -99q-89 0 -151 51t-62 156z" />
<glyph unicode="z" horiz-adv-x="1107" d="M-37 70q0 13 9 31q6 13 23 35q12 16 30 34l28 29q27 27 55 40q24 11 62 13h27l508 510q-40 10 -85 29l-88 36q-51 21 -85 32q-40 13 -78 13q-49 0 -78 -25q-32 -27 -60 -83q-12 -23 -28 -23q-6 0 -9 1l-20 6l-45 16q-18 8 -18 24v9q0 5 4 14q96 281 301 281q53 0 112 -19 q48 -15 109 -40l103 -40q49 -18 100 -18q40 0 76 18q32 16 81 60q12 12 23 12q10 0 22 -12l48 -47q12 -12 12 -23q0 -8 -8 -16l-51 -51l-92 -91l-120 -118l-133 -134l-350 -350q64 -13 197 -43q105 -24 198 -24q50 0 88 13q39 14 82 52q38 37 68 37q20 0 35 -12 q14 -11 14 -35q0 -33 -14 -58q-14 -24 -25 -67q-24 -88 -71 -132t-154 -44q-86 0 -173 22q-80 20 -174 50l-161 49q-75 22 -133 22q-22 0 -39 -5q-6 -2 -15.5 -6t-10.5 -4l-22 -10q-13 -5 -26 -5q-16 0 -32 12q-17 12 -17 35z" />
<glyph unicode="{" horiz-adv-x="1042" d="M150 573q0 5 2 19l8 39q5 19 13 26q11 9 30 13q88 12 135 44q48 33 72 86q23 52 34 134q10 75 27 190q29 206 147 306t347 100q32 0 32 -23v-5q0 -1 -0.5 -2.5t-1 -4.5t-0.5 -6l-12 -57q-6 -31 -39 -31q-56 -1 -98 -21q-39 -18 -66 -57t-42 -97q-14 -53 -25 -139 q-16 -111 -31 -185q-16 -76 -47 -137q-29 -57 -83 -97q-52 -39 -138 -66q-13 -5 -13 -12q0 -4 13 -10q80 -32 115 -82q34 -49 34 -125q0 -56 -12 -113q-12 -59 -27 -113q-10 -37 -26 -109q-13 -58 -13 -104q0 -61 32 -90q31 -28 106 -34q26 -1 26 -27v-4v-1q0 -1 -0.5 -2.5 t-1 -4t-0.5 -4.5l-12 -58q-6 -28 -47 -28q-348 0 -348 262q0 57 13 113q11 47 29 116l28 110q14 54 14 99q0 58 -32 98q-32 39 -116 62q-26 7 -26 32z" />
<glyph unicode="|" horiz-adv-x="587" d="M211 -369v2128q0 27 27 27h112q27 0 27 -27v-2128q0 -26 -27 -26h-112q-27 0 -27 26z" />
<glyph unicode="}" horiz-adv-x="1060" d="M47 -292q0 1 0.5 2.5t1 4.5t0.5 6l12 58q6 31 39 31q59 1 99 20q38 17 65 57q27 39 42 98q16 63 26 138q18 126 30 185q15 73 48 137q30 59 83 98q50 37 138 65q12 4 12 13q0 4 -12 10q-82 33 -116 82t-34 125q0 50 13 112q16 76 26 113q16 58 27 109q12 54 12 104 q0 61 -32 90t-105 35q-27 1 -27 26v5v1q0 1 0.5 2.5t1 4t0.5 4.5l13 57q6 29 47 29q348 0 348 -262q0 -58 -13 -114q-11 -47 -29 -116l-29 -110q-13 -51 -13 -99q0 -58 32 -98q31 -39 115 -61q27 -8 27 -33q0 -5 -2 -19l-8 -38q-5 -19 -14 -27t-29 -12q-88 -12 -136 -44 q-47 -32 -71 -86q-24 -55 -35 -135q-10 -75 -27 -190q-28 -204 -147 -305q-118 -100 -346 -100q-33 0 -33 22v5z" />
<glyph unicode="~" horiz-adv-x="1263" d="M76 489q0 9 6 25q52 149 134 220t194 71q91 0 211 -47q115 -45 165 -62q66 -22 119 -22q47 0 84 24q36 23 70 80q16 25 31 25h8q5 0 14 -4l53 -17q23 -8 23 -22q0 -8 -6 -23q-60 -162 -141 -225t-183 -63q-65 0 -132 19q-60 17 -146 50q-72 28 -126 45q-56 17 -96 17 q-95 0 -151 -113q-13 -25 -27 -25q-9 0 -20 4l-62 19q-22 6 -22 24z" />
<glyph unicode="&#xa1;" horiz-adv-x="681" d="M-80 -276q0 44 15 106q8 34 40 143q25 79 69 202q46 131 83 257q10 33 21 76q8 31 23 61q13 25 33 41q19 15 50 15q46 0 58 -31q12 -30 12 -76q0 -24 -3 -47q-1 -7 -3 -20t-3 -19q-15 -128 -20 -257t-14 -202q-11 -117 -31 -204q-18 -78 -70 -123q-25 -23 -58 -32 q-34 -9 -69 -9q-70 0 -101 31q-32 32 -32 88zM141 936q0 24 25 55q29 36 58 59q39 31 68 47q34 19 54 19q22 0 49 -20q33 -25 55 -50q23 -27 43 -62q17 -30 17 -54t-25 -57q-26 -34 -58 -59q-38 -30 -69 -46q-35 -18 -55 -18q-24 0 -50 20q-31 24 -52 49q-23 28 -42 62 q-18 33 -18 55z" />
<glyph unicode="&#xa2;" horiz-adv-x="1054" d="M70 391q0 117 42 230q43 114 116 205q75 93 179 161q105 69 224 92l35 174q6 25 30 25h68q22 0 22 -21l-2 -14l-30 -151q59 0 126 -16q61 -15 97 -38q35 -21 48 -48q11 -23 11 -66q0 -22 -3 -45q-3 -21 -11 -42q-7 -19 -25 -32q-17 -12 -41 -12q-22 0 -38 10 q-17 11 -34 25q-16 13 -37 36q-20 22 -46 39q-67 49 -137 49q-82 0 -144 -54q-61 -54 -103 -133q-44 -83 -64 -169q-21 -90 -21 -162q0 -59 13 -108q13 -51 42 -90q29 -40 72 -62t102 -22q61 0 106 19q41 17 83 44l66 44q31 20 56 20q15 0 31 -14q15 -14 15 -32 q0 -20 -19 -48q-18 -27 -63 -66q-65 -55 -145 -91q-78 -35 -163 -46l-30 -156q-6 -25 -31 -25h-68q-22 0 -22 21v2q0 2 2 10l29 148q-81 11 -143 46q-59 34 -105 89q-42 51 -67 124q-23 68 -23 150z" />
<glyph unicode="&#xa3;" horiz-adv-x="1224" d="M-49 145q0 16 11 31q14 20 29 32q24 20 36 29l32 23q30 19 56 26q25 7 61 7t66 -5t43 -5h10q7 0 16 4q73 23 120 82q48 60 48 141q0 16 -3 34q-4 24 -7 38h-244q-24 0 -24 20l2 14l10 52q5 24 29 24h186q-19 48 -37 111q-14 49 -14 106q0 98 46 166q49 73 112 117 q61 43 140 64q83 22 159 22q64 0 120 -12t84 -33q26 -18 34 -43q9 -27 9 -59q0 -28 -1 -46q-1 -26 -9 -50q-7 -21 -23 -41q-14 -17 -42 -17q-22 0 -40 19q-14 15 -40 55q-28 44 -67 72t-85 28q-65 0 -110 -48q-46 -49 -46 -122q0 -33 11 -71q12 -43 23 -72l28 -74 q13 -32 25 -72h299q24 0 24 -20q0 -1 -2 -15l-10 -51q-6 -24 -31 -24h-260q2 -14 2 -29q0 -14 -1 -22q0 -4 -0.5 -7.5t-1.5 -7.5t-1 -6q-17 -97 -82 -162q-67 -67 -143 -96q-15 -6 -15 -8q0 -6 15 -8q30 -6 115 -22q59 -11 143 -11q64 0 103 16q41 17 67 37l47 37 q20 16 47 16q19 0 34 -12t15 -35q0 -30 -17 -53q-14 -18 -32 -53q-13 -28 -41 -78q-24 -43 -76 -72q-28 -16 -62 -22q-40 -7 -71 -7q-86 0 -185 26q-90 24 -189 56l-169 57q-76 25 -127 25q-45 0 -69 -15t-45 -15q-12 0 -24 9q-11 8 -11 25z" />
<glyph unicode="&#xa4;" horiz-adv-x="1527" d="M154 63q0 9 8 17l231 229q-47 61 -74 132q-26 69 -26 153q0 85 26 154t74 131l-231 231q-8 8 -8 16q0 9 8 17l49 51q8 8 16 8q9 0 17 -8l233 -233q61 46 131 69q75 25 152 25q76 0 151 -25q70 -23 131 -69l234 233q8 8 16 8q9 0 17 -8l51 -51q8 -8 8 -17q0 -8 -8 -16 l-232 -231q48 -62 74 -131q27 -72 27 -154q0 -81 -27 -153q-27 -71 -74 -132l232 -231q8 -8 8 -17q0 -6 -8 -14l-51 -51q-8 -8 -17 -8q-8 0 -16 8l-234 231q-61 -46 -131 -69q-75 -25 -151 -25q-77 0 -152 25q-70 23 -131 69l-231 -231q-8 -8 -17 -8q-8 0 -16 8l-51 51 q-8 8 -8 16zM514 594q0 -49 20 -97q20 -47 53 -80t78 -53t95 -20t96 20t79 53t53 80q20 48 20 97t-20 97q-20 47 -53 80t-79 53t-96 20t-95 -20t-78 -53t-53 -80q-20 -48 -20 -97z" />
<glyph unicode="&#xa5;" horiz-adv-x="1527" d="M150 428l2 14l10 43q5 23 26 23h330q19 0 19 14q0 2 -2 10l-37 105q-4 16 -27 16h-252q-20 0 -20 19l2 14l8 43q6 23 29 23h198q17 0 17 12l-1 2q-1 3 -2.5 8t-3.5 10l-79 230l-33 85q-12 32 -27 50q-11 14 -25 23q-21 14 -25 16q-10 5 -18 13t-8 22q0 21 20 32t50 11 h338q53 0 53 -37q0 -20 -14 -28q-15 -9 -33 -18t-33 -24q-14 -14 -14 -43q0 -34 14 -72l144 -407q4 -10 8 -10t8 4l52 63l64 78l67 85l65 83q55 72 82 115q28 44 28 73q0 22 -10 33q-14 16 -22 21q-12 7 -23 17q-10 9 -10 28q0 39 63 39h302q53 0 53 -37q0 -16 -13 -26 q-10 -8 -28 -19q-30 -16 -54 -33q-26 -18 -53 -45q-19 -17 -64 -69l-79 -91l-139 -168q-5 -7 -10 -12q-1 -1 -1 -6q0 -8 13 -8h213q20 0 20 -17v-4v-1q0 -1 -0.5 -2.5t-1 -4t-0.5 -4.5l-8 -43q-5 -23 -27 -23h-280q-22 0 -33 -14l-84 -102q-12 -15 -12 -21q0 -8 14 -8h363 q20 0 20 -19q0 -1 -0.5 -3t-1 -5t-0.5 -6l-8 -41q-6 -22 -29 -22h-373q-24 0 -26 -19l-13 -57q-11 -54 -16 -94q-4 -31 -4 -56q0 -45 14 -65t33 -31q5 -3 16 -9.5t17 -9.5q14 -8 14 -30q0 -23 -20 -32q-21 -9 -49 -9h-379q-49 0 -49 39q0 21 14 31q6 4 33 20q50 23 73 62 q1 2 6 9.5t7 12.5q6 12 12 33q2 7 13 51l18 78l10 47q0 3 0.5 6t1 5t0.5 3q0 15 -21 15h-362q-20 0 -20 16z" />
<glyph unicode="&#xa6;" horiz-adv-x="587" d="M211 -369v965q0 27 27 27h112q27 0 27 -27v-965q0 -26 -27 -26h-112q-27 0 -27 26zM211 795v964q0 27 27 27h112q27 0 27 -27v-964q0 -27 -27 -27h-112q-27 0 -27 27z" />
<glyph unicode="&#xa7;" horiz-adv-x="1216" d="M25 -152q0 82 14 125q15 47 61 47q25 0 42 -16q16 -15 34 -47q17 -38 41 -77q23 -38 53 -68q33 -33 70 -50q39 -18 92 -18q55 0 92 17q40 18 65 45q26 27 38 61q12 33 12 61q0 56 -35 97q-33 39 -88 75q-54 36 -114 70q-62 35 -113 78q-56 46 -88 101q-35 59 -35 140 q0 64 23 119q26 61 64 105q43 49 92 83q53 36 112 54q14 4 14 10q0 4 -10 10q-71 43 -115 116q-43 71 -43 161q0 87 39 157t102 120q65 51 144 78q82 28 164 28q84 0 161 -25q74 -24 115 -59q31 -26 44 -54q11 -25 11 -61q0 -17 -3 -41q-4 -32 -7 -47q-8 -35 -22 -61 q-15 -27 -52 -27q-26 0 -41 14t-32 54q-11 27 -29 59q-16 30 -41 56q-24 26 -58 42q-36 17 -79 17q-37 0 -70 -12q-34 -12 -59 -32t-42 -53q-16 -32 -16 -69q0 -54 36 -95q35 -39 88 -74q51 -33 115 -67q65 -34 115 -74q51 -41 88 -101q36 -58 36 -140q0 -63 -26 -121 q-25 -55 -68 -103q-41 -45 -97 -80q-55 -34 -114 -52q-13 -2 -13 -9q0 -4 10 -10q72 -45 123 -117q49 -68 49 -168q0 -88 -36 -160q-38 -75 -102 -132q-65 -58 -152 -90q-88 -33 -193 -33q-62 0 -112 10q-58 12 -99 28q-47 19 -79 41q-34 24 -50 50q-17 27 -21 56 q-5 33 -5 58zM385 582q0 -39 17 -67q17 -29 45 -49q24 -18 63 -31q32 -11 72 -11t74 11q41 13 69 34q31 24 50 55q20 34 20 76q0 35 -17 64q-16 27 -44 49q-22 17 -62 31q-34 12 -72 12q-36 0 -78 -13q-41 -13 -69 -35q-33 -27 -50 -56q-18 -32 -18 -70z" />
<glyph unicode="&#xa8;" horiz-adv-x="1034" d="M233 1331q0 17 5 40q6 28 10 41q6 20 15 36q10 18 20 25q12 10 41 15q32 5 57 5q66 0 82 -13t16 -46q0 -21 -4 -40q-6 -28 -10 -41q-5 -16 -14 -36q-8 -17 -19 -25q-14 -10 -41 -16t-55 -6q-61 0 -81 14q-22 16 -22 47zM618 1331q0 17 5 40q6 28 10 41q6 20 15 36 q10 18 20 25q12 10 41 15q32 5 57 5q66 0 82 -13t16 -46q0 -21 -4 -40q-6 -28 -10 -41q-5 -16 -14 -36q-8 -17 -19 -25q-14 -10 -41 -16t-55 -6q-61 0 -81 14q-22 16 -22 47z" />
<glyph unicode="&#xa9;" horiz-adv-x="1779" d="M135 731q0 156 60 294q62 142 161 241t240 161q136 60 295 60q157 0 293 -60q139 -61 239 -161q101 -101 162 -241q60 -138 60 -294q0 -157 -60 -293q-60 -137 -162 -239t-239 -162q-136 -60 -293 -60q-159 0 -295 60q-139 61 -240 162q-100 100 -161 239 q-60 136 -60 293zM246 731q0 -132 50 -252q50 -119 138 -207t206 -139t251 -51t251 51t205 139t138 207t51 252q0 135 -51 253t-138 207q-88 90 -205 140q-118 51 -251 51t-251 -51q-116 -50 -206 -140q-88 -89 -138 -207q-50 -120 -50 -253zM442 676q0 115 52 210 q50 91 134 157q82 65 189 99q105 34 215 34q69 0 134 -14q62 -13 91 -36q17 -12 23 -30t6 -43q0 -48 -12 -99q-10 -36 -22 -60t-40 -24q-20 0 -33 13q-11 11 -19 31l-15 43q-7 24 -23 47q-16 27 -51 48q-34 21 -94 21q-71 0 -132 -35q-62 -35 -104 -91q-41 -54 -66 -130 q-24 -73 -24 -151q0 -119 60 -185q59 -65 151 -65q72 0 119 35q49 36 79 75l57 76q26 35 54 35q46 0 46 -47q0 -19 -8 -49q-10 -38 -15 -54q-16 -46 -32 -70q-20 -29 -46 -46q-43 -28 -116 -42q-75 -14 -144 -14q-96 0 -175 28q-76 27 -130 76q-56 51 -81 113 q-28 68 -28 144z" />
<glyph unicode="&#xaa;" horiz-adv-x="976" d="M109 915q0 87 27 184q26 94 79 181q73 114 161 160q89 47 171 47q39 0 68 -7q30 -7 58 -17l47 -16q20 -7 40 -7q14 0 25 7q12 8 22 16q19 16 20 17q10 7 27 7q19 0 25 -12t6 -25q0 -25 -20 -107q-19 -76 -48 -215q-26 -119 -35 -166q-12 -64 -12 -96q0 -37 25 -37 q24 0 42 20q18 19 42 19q26 0 26 -26q0 -14 -15 -38q-12 -20 -43 -47q-25 -23 -65 -40q-39 -17 -77 -17q-47 0 -85 29t-38 107q0 23 3 47q4 35 7 49q0 4 -4 4t-6 -6q-29 -50 -72 -100q-38 -44 -90 -80q-34 -22 -72 -36q-39 -14 -72 -14q-71 0 -119 53t-48 162zM297 350 q0 21 4 40q6 28 10 41q5 15 16 36q10 19 19 25q12 10 41 15q32 5 57 5q66 0 82 -13q17 -14 17 -46q0 -21 -4 -40q-4 -17 -11 -41q-5 -16 -14 -36q-8 -18 -18 -25q-14 -10 -41 -16t-56 -6q-61 0 -81 14q-21 15 -21 47zM328 963q0 -37 10 -64q11 -29 45 -29q65 0 166 164 q49 83 72 148q24 69 24 106q0 22 -12 40q-11 16 -30 29q-15 10 -39 17q-21 6 -40 6q-43 0 -73 -34q-28 -29 -50 -77q-22 -46 -39 -103q-16 -51 -25 -109q-9 -55 -9 -94z" />
<glyph unicode="&#xab;" horiz-adv-x="1148" d="M74 514q0 4 4 23l22 112q5 13 9 20q5 9 14 15l495 369q14 10 19 10q8 0 8 -10q0 -1 -2 -15l-27 -131q-4 -15 -9 -25t-21 -20l-371 -274q-12 -10 -12 -17q0 -4 10 -14l258 -276q12 -12 12 -27q0 -2 -2 -16l-24 -119q-5 -13 -11 -13q-3 0 -10 7l-352 381q-10 10 -10 20z M412 551q0 10 18 22l598 447q5 4 11 7q2 1 5 1q11 0 11 -10q0 -1 -0.5 -3t-1 -5t-0.5 -6l-29 -134q-4 -15 -9 -25q-4 -9 -22 -20l-362 -270q-21 -15 -21 -20q0 -4 11 -15l258 -276q12 -12 12 -27v-4v-1q0 -1 -0.5 -2.5t-1 -4t-0.5 -4.5l-23 -117q-4 -12 -12 -12q-4 0 -10 6 l-422 454q-10 10 -10 19z" />
<glyph unicode="&#xac;" horiz-adv-x="1626" d="M131 903v166h1284v-635h-166v469h-1118z" />
<glyph unicode="&#xad;" horiz-adv-x="774" d="M90 485v4v2q1 2 1.5 5t0.5 6l27 127q6 28 33 28h473q26 0 26 -24q0 -3 -2 -17l-26 -127q-6 -26 -33 -26l-475 -2q-25 0 -25 24z" />
<glyph unicode="&#xae;" horiz-adv-x="1134" d="M109 989q0 105 38 194t107 158q68 68 159 107q92 39 193 39q102 0 194 -39q89 -38 158 -107t107 -158q39 -91 39 -194q0 -101 -39 -193q-39 -91 -107 -159q-69 -69 -158 -107t-194 -38q-104 0 -193 38q-91 39 -159 107t-107 159q-38 89 -38 193zM207 989q0 -67 19 -125 q18 -55 55 -110q13 11 28 18t33 31q7 10 15 32q7 20 18 74l18 90q14 63 14 65q4 24 7 34q12 51 12 78q0 19 -8 29q-8 9 -18 16l-17 11q-8 5 -8 17q0 25 35 25h268q47 0 95 -6q47 -6 77 -37q29 -31 29 -74q0 -33 -16 -62q-15 -27 -41 -47q-25 -19 -58 -31q-32 -11 -70 -13 q-8 0 -8 -7q0 -2 14 -6q36 -8 57 -27q21 -20 42 -81q18 -62 29 -80q13 -23 22 -33q4 -4 10 -9.5t8 -7.5q9 -9 9 -20q-1 -22 -39 -22h-70q-42 0 -59 16q-15 12 -24 40q-12 37 -26 83q-18 57 -32 75q-17 22 -45 29q-21 7 -50 7q-12 0 -14 -11l-6 -35q-9 -42 -10 -55 q-2 -28 -2 -37q0 -24 8 -37q6 -10 17 -19q5 -4 18 -12q8 -5 8 -18q0 -26 -39 -26h-195q55 -59 129 -94q70 -33 160 -33q84 0 155 31q74 32 127 87q55 56 86 129q32 75 32 158t-32 158q-31 73 -86 129q-53 55 -127 87q-73 32 -155 32q-81 0 -154 -32q-74 -32 -127 -87 q-55 -56 -86 -129q-32 -75 -32 -158zM539 1044q0 -10 12 -10h37q13 0 33 2q42 6 74 28q30 21 30 69q0 24 -13 38q-13 15 -35 21q-18 5 -46 7q-16 1 -49 1q-14 0 -15 -12l-26 -133q-2 -6 -2 -8v-3z" />
<glyph unicode="&#xaf;" horiz-adv-x="1081" d="M221 1348q0 2 2 16l15 74q6 24 30 24h656q24 0 24 -20q0 -3 -2 -17l-14 -75q-5 -23 -31 -23h-657q-23 0 -23 21z" />
<glyph unicode="&#xb0;" horiz-adv-x="602" d="M111 1294q0 50 19 92q20 44 51 75q32 32 76 50q46 19 93 19q46 0 92 -19q42 -17 76 -50q33 -31 51 -75q19 -46 19 -92q0 -47 -19 -91q-18 -42 -51 -75t-76 -51q-44 -18 -92 -18q-50 0 -93 18q-44 18 -77 51t-51 75t-18 91zM217 1294q0 -55 39 -94t94 -39q53 0 92 39 t39 94q0 56 -39 95q-38 38 -92 38q-56 0 -94 -38q-39 -39 -39 -95z" />
<glyph unicode="&#xb1;" horiz-adv-x="1382" d="M197 156v82q0 26 26 26h936q27 0 27 -26v-82q0 -27 -27 -27h-936q-26 0 -26 27zM197 786v82q0 27 26 27h383q15 0 15 12v361q0 26 26 26h88q27 0 27 -26v-361q0 -12 14 -12h383q27 0 27 -27v-82q0 -26 -27 -26h-383q-14 0 -14 -12v-361q0 -27 -27 -27h-88q-26 0 -26 27 v361q0 12 -15 12h-383q-26 0 -26 26z" />
<glyph unicode="&#xb4;" horiz-adv-x="944" d="M487 1260q0 3 9 12l217 184q22 17 37 24t51 7h246q24 0 24 -14q0 -10 -12 -17l-326 -184q-26 -14 -43 -19q-15 -4 -49 -4h-139q-15 0 -15 11z" />
<glyph unicode="&#xb5;" horiz-adv-x="1601" d="M90 -334q0 35 19 81q21 50 43 124q21 73 61 222q41 155 80 345l37 182l34 171q18 95 28 142q17 78 20 97q6 31 47 37l174 23q14 2 16 2h10q25 0 25 -25v-8q0 -8 -4 -19l-129 -630q-9 -40 -14 -77q-7 -49 -7 -75q0 -54 18 -81q19 -28 64 -28q64 0 137 59q71 58 150 200 q62 113 102 230q43 129 64 226l37 168q6 31 43 37l176 23q14 2 16 2h9q24 0 24 -23q0 -5 -4 -24l-133 -650q-2 -9 -10 -47.5t-11 -56.5q-8 -48 -8 -76q0 -24 8 -40q8 -15 31 -15q24 0 44 16l36 27q18 12 35 12q13 0 25 -9t12 -26q0 -42 -72 -108q-48 -45 -98 -69 q-58 -28 -117 -28q-81 0 -122 47q-40 46 -40 128q0 47 10 96q2 10 2 16q0 8 -8 8q-4 0 -10 -8q-36 -54 -87 -111q-49 -55 -97 -92q-49 -37 -109 -61q-58 -23 -119 -23q-56 0 -100 21q-45 22 -68 53q-6 6 -8 6q-4 0 -6 -8q-4 -12 -9 -38q-2 -12 -11 -52q-1 -5 -5.5 -23.5 t-6.5 -28.5q-1 -7 -3.5 -20.5t-3.5 -17.5q-10 -46 -13 -84q-1 -17 -4 -60q0 -8 -0.5 -22.5t-1.5 -20.5q-1 -17 -9 -34q-15 -29 -41 -36q-25 -7 -58 -7q-90 0 -90 61z" />
<glyph unicode="&#xb7;" horiz-adv-x="634" d="M133 582q0 24 25 55q27 34 58 58q39 31 68 47q35 20 54 20q20 0 49 -21q31 -23 54 -50q25 -29 43 -61t18 -55t-25 -56q-26 -34 -58 -59q-38 -30 -69 -46q-36 -19 -55 -19q-23 0 -50 21q-31 24 -52 49q-25 29 -42 61q-18 33 -18 56z" />
<glyph unicode="&#xb8;" horiz-adv-x="876" d="M217 -336q0 22 14 33q15 12 35 12q21 0 39 -8t62 -8q47 0 75 18q11 8 20 20t9 27q0 22 -25 34t-55 20t-55 20t-25 39q0 13 10 33q12 24 23 37q17 20 31 33l28 28h119q-16 -11 -44 -38q-27 -27 -27 -50q0 -19 32 -26l73 -16q38 -9 73 -29q33 -19 33 -64q0 -35 -22 -66 q-22 -32 -60 -55t-91 -39q-48 -14 -110 -14q-3 0 -39 2q-24 1 -54 8q-27 6 -48 18t-21 31z" />
<glyph unicode="&#xba;" horiz-adv-x="944" d="M109 1014q0 104 41 194q40 88 107 150q64 59 149 95q81 34 161 34q150 0 228 -87q77 -86 77 -218q0 -97 -33 -180q-34 -85 -95 -154q-60 -68 -144 -108q-83 -40 -184 -40q-146 0 -227 87q-80 86 -80 227zM285 350q0 21 4 40q6 28 10 41q6 19 15 36q10 18 20 25 q12 10 41 15q32 5 57 5q66 0 82 -13t16 -46q0 -21 -4 -40q-6 -28 -10 -41q-5 -16 -14 -36q-8 -17 -19 -25q-14 -10 -41 -16t-55 -6q-61 0 -81 14q-21 15 -21 47zM324 1022q0 -100 32 -155q32 -56 93 -56q49 0 91 31q38 28 65 82q26 52 39 116t13 134q0 104 -34 153t-93 49 q-47 0 -86 -27q-36 -25 -65 -76q-25 -45 -41 -113q-14 -60 -14 -138z" />
<glyph unicode="&#xbb;" horiz-adv-x="1167" d="M74 117q0 1 0.5 3t1 5t0.5 6l28 133q4 13 10 26q4 8 21 19l363 271q20 14 20 20q0 4 -10 14l-258 277q-12 12 -12 27v4v1q0 1 0.5 2.5t1 4t0.5 4.5l22 117q2 12 12 12q5 0 11 -6l422 -455q10 -10 10 -18q0 -10 -19 -23l-598 -446q-5 -4 -11 -7q-4 -2 -5 -2q-10 0 -10 11z M483 82l2 14l27 131q5 18 9 26q4 7 22 19l370 275q13 8 13 16q0 4 -11 15l-258 276q-12 12 -12 27q0 2 2 16l25 119q2 12 10 12q4 0 10 -6l352 -381q11 -11 11 -20q0 -4 -4 -23l-23 -113q-6 -15 -8 -19q-5 -9 -14 -15l-496 -369q-14 -10 -18 -10q-9 0 -9 10z" />
<glyph unicode="&#xbc;" horiz-adv-x="1587" d="M199 197l929 1069h168l-931 -1069h-166zM274 1362q0 4 2 28q1 13 7 27q11 22 43 23q23 1 56 5q32 4 48 7q22 4 48 9q3 1 57 14q51 12 73 12q15 0 31 -8q14 -7 14 -31l-2 -14l-139 -684q-6 -25 -31 -25h-137q-25 0 -25 23q0 2 1.5 7.5t1.5 8.5l98 483l7 39q3 16 3 27 q0 17 -11 21q-13 5 -32 5q-24 0 -44 -2t-32 -2q-14 0 -25 4q-12 5 -12 23zM739 178v5q0 5 4 20l15 71q5 27 11 38q8 17 30 34q49 39 92 82q45 45 72 87q33 51 52 100q22 57 38 122q6 25 32 25h123q23 0 23 -19v-4q0 -3 -1 -4t-1 -6q-27 -128 -115 -235q-91 -111 -203 -189 q-6 -5 -6 -8q0 -6 8 -6h201q20 0 21 16l59 287q6 27 31 27h139q25 0 25 -21q0 -2 -2 -16l-54 -267q-2 -8 -2 -10v-2q0 -14 17 -14h67q23 0 23 -15v-2q0 -3 -1 -4t-1 -6l-17 -76q-6 -26 -32 -26h-66q-21 0 -23 -19l-24 -118q-6 -27 -33 -27h-137q-25 0 -25 22v7v1 q0 1 0.5 2.5t1 4t0.5 4.5l19 94l2 14q0 15 -17 15h-325q-21 0 -21 16z" />
<glyph unicode="&#xbd;" horiz-adv-x="1585" d="M199 197l929 1069h168l-931 -1069h-166zM287 1362q0 4 2 28q1 16 6 27q11 22 43 23q23 1 56 5q32 4 48 7q22 4 48 9q3 1 57 14q51 12 74 12q14 0 30 -8q15 -7 15 -31l-2 -14l-140 -684q-6 -25 -30 -25h-138q-24 0 -24 23q0 2 2 16l98 483l7 39q3 16 3 27q0 17 -11 21 q-13 5 -32 5q-24 0 -44 -2t-31 -2q-15 0 -26 4t-11 23zM815 51q0 25 4 52q4 29 18 64q13 33 38 69q24 34 67 67q63 49 116 71q59 25 107 56q39 26 70 59q35 38 35 89q0 31 -22 59q-21 27 -62 27q-35 0 -62 -21q-26 -21 -47 -47q-18 -24 -43 -65q-20 -33 -49 -33t-38 15 t-9 46q0 43 10 79q11 39 45 67q35 29 97 44t122 15q59 0 106 -16q45 -15 82 -46q34 -28 52 -65t18 -78q0 -52 -28 -99q-29 -49 -84 -83q-38 -23 -79 -39q-33 -13 -77 -25q-65 -18 -76 -21q-31 -10 -73 -30q-23 -10 -48 -30q-26 -20 -26 -37q0 -13 14 -13h168q49 0 67 1 q30 2 50 7q19 5 37 16q5 3 25 18l21 17q8 7 21 7q39 0 39 -39q0 -19 -9 -37q-6 -13 -19 -47q-11 -24 -18 -48q-8 -25 -19 -42q-12 -18 -33 -30q-19 -11 -55 -11q-26 0 -64 3t-96 3h-240q-33 0 -43 13t-10 38z" />
<glyph unicode="&#xbe;" horiz-adv-x="1699" d="M147 897q0 26 12 50t44 24q18 0 30 -15q18 -22 27 -36q10 -16 24 -36q16 -23 30 -36q17 -16 40 -28q21 -11 54 -11q37 0 63 16t43 41t25 53q8 29 8 52q0 39 -25 66q-24 26 -76 26q-26 0 -46 -3q-19 -3 -33 -3q-13 0 -24 7t-11 23q0 8 2 20q0 3 1.5 9l2.5 10q4 21 13 35 q9 15 36 15q15 0 35 -5q16 -4 47 -4q35 0 61 16q24 15 38 37q15 23 19 45q5 27 5 42q0 31 -18 55q-19 25 -56 25q-53 0 -88 -29q-32 -26 -61 -62q-26 -31 -38 -48q-15 -21 -38 -21q-45 0 -45 47q0 39 13 78q14 41 46 69q42 36 104 52q61 16 119 16q124 0 197 -49 q74 -50 74 -127q0 -67 -60 -120q-60 -52 -153 -67q-19 -2 -19 -8t23 -8q31 -5 54 -14q26 -10 51 -29q24 -18 39 -45q16 -29 16 -64q0 -47 -28 -95q-26 -45 -76 -81t-113 -56q-66 -21 -144 -21q-59 0 -116 15q-55 14 -89 50q-20 21 -29 59q-10 42 -10 68zM326 197l929 1069 h168l-931 -1069h-166zM854 178v5q0 5 4 20l14 71q5 23 12 38q9 18 29 34q53 42 93 82q42 42 71 87q33 51 52 100q22 57 38 122q6 25 33 25h123q23 0 23 -19v-4q0 -3 -1 -4q-2 -2 -2 -6q-27 -129 -114 -235q-91 -111 -203 -189q-6 -5 -6 -8q0 -6 8 -6h201q19 0 20 16l60 287 q6 27 30 27h140q24 0 24 -21q0 -2 -2 -16l-53 -267q-2 -8 -2 -10v-2q0 -14 16 -14h68q22 0 22 -15v-2q0 -3 -1 -4t-1 -6l-16 -76q-6 -26 -33 -26h-65q-21 0 -23 -19l-24 -118q-6 -27 -33 -27h-137q-25 0 -25 22v7v1q0 1 0.5 2.5t1 4t0.5 4.5l18 94q1 4 2 8.5t1 5.5 q0 15 -17 15h-325q-21 0 -21 16z" />
<glyph unicode="&#xbf;" horiz-adv-x="1097" d="M-37 -59q0 57 21 105q23 52 53 89q33 41 74 74t84 57q88 51 162 80q71 28 143 72q50 29 77 59t27 64q0 20 -13 30q-14 11 -31 18q-16 7 -31 15q-13 7 -13 27q0 22 14 33q17 14 35 20q24 8 44 11q24 3 44 3q66 0 115 -25t49 -85q0 -36 -29 -85q-31 -52 -94 -102 q-64 -51 -150 -104q-78 -48 -157 -119q-68 -66 -103 -125q-36 -60 -36 -131q0 -87 56 -136q58 -50 142 -50q45 0 84 13q41 14 73 38t51 58q20 35 20 75q0 41 -18 56q-20 17 -38 22q-11 3 -37 14q-18 7 -18 33q0 16 12 37q11 18 35 38q17 13 55 28q31 12 70 12q82 0 128 -49 t46 -129q0 -72 -33 -135q-35 -67 -100 -120t-160 -88q-93 -34 -217 -34q-109 0 -190 28q-80 28 -136 76q-55 47 -82 108q-28 62 -28 124zM530 936q0 24 25 55q29 36 58 59q39 31 68 47q34 19 54 19q22 0 49 -20q31 -23 55 -51q25 -29 43 -61q17 -30 17 -54t-25 -57 q-26 -34 -58 -59q-40 -32 -68 -46q-34 -18 -56 -18q-24 0 -50 20q-31 24 -52 49q-23 28 -42 62q-18 33 -18 55z" />
<glyph unicode="&#xc0;" d="M-178 41q0 23 17 33l42 24q50 28 107 97q32 38 59 78l72 106l694 1071q18 27 41 27h104q29 0 35 -27q0 -2 9 -52l24 -132l34 -186q23 -123 38 -212l104 -575q17 -75 27 -107t33 -53q16 -16 31 -25q6 -3 15.5 -9.5t12.5 -8.5q11 -7 20 -16t9 -25q0 -49 -76 -49h-395 q-60 0 -60 39q0 22 17 34q9 7 36 22q21 12 37 31q17 20 17 58q0 17 -3 38l-8 52l-30 168q-5 19 -27 19h-498q-22 0 -34 -21q-74 -125 -99 -183q-26 -61 -26 -97q0 -26 12 -41q10 -13 26 -25l25 -20q12 -11 12 -29q0 -27 -19 -36t-50 -9h-324q-61 0 -61 41zM428 608 q0 -10 12 -10h396q18 0 18 14q0 1 -2 15l-86 485q-1 14 -8 14q-4 0 -10 -10l-68 -103l-82 -128l-86 -136l-80 -131q-4 -5 -4 -10zM676 1853q0 17 26 17h240q32 0 47 -6q12 -5 29 -25l145 -174q11 -13 11 -18q0 -15 -19 -15h-131q-32 0 -45 4q-14 4 -35 19l-256 180 q-12 7 -12 18z" />
<glyph unicode="&#xc1;" d="M-178 41q0 23 17 33l42 24q50 28 107 97q32 38 59 78l72 106l694 1071q18 27 41 27h104q29 0 35 -27q0 -2 9 -52l24 -132l34 -186q23 -123 38 -212l104 -575q17 -75 27 -107t33 -53q16 -16 31 -25q6 -3 15.5 -9.5t12.5 -8.5q11 -7 20 -16t9 -25q0 -49 -76 -49h-395 q-60 0 -60 39q0 22 17 34q9 7 36 22q21 12 37 31q17 20 17 58q0 17 -3 38l-8 52l-30 168q-5 19 -27 19h-498q-22 0 -34 -21q-74 -125 -99 -183q-26 -61 -26 -97q0 -26 12 -41q10 -13 26 -25l25 -20q12 -11 12 -29q0 -27 -19 -36t-50 -9h-324q-61 0 -61 41zM428 608 q0 -10 12 -10h396q18 0 18 14q0 1 -2 15l-86 485q-1 14 -8 14q-4 0 -10 -10l-68 -103l-82 -128l-86 -136l-80 -131q-4 -5 -4 -10zM645 1643q0 4 8 12l217 184q22 17 37 24t51 7h246q25 0 25 -15q0 -9 -12 -16l-326 -184q-26 -14 -43 -19q-15 -4 -49 -4h-140q-14 0 -14 11z " />
<glyph unicode="&#xc2;" d="M-178 41q0 23 17 33l42 24q50 28 107 97q32 38 59 78l72 106l694 1071q18 27 41 27h104q29 0 35 -27q0 -2 9 -52l24 -132l34 -186q23 -123 38 -212l104 -575q17 -75 27 -107t33 -53q16 -16 31 -25q6 -3 15.5 -9.5t12.5 -8.5q11 -7 20 -16t9 -25q0 -49 -76 -49h-395 q-60 0 -60 39q0 22 17 34q9 7 36 22q21 12 37 31q17 20 17 58q0 17 -3 38l-8 52l-30 168q-5 19 -27 19h-498q-22 0 -34 -21q-74 -125 -99 -183q-26 -61 -26 -97q0 -26 12 -41q10 -13 26 -25l25 -20q12 -11 12 -29q0 -27 -19 -36t-50 -9h-324q-61 0 -61 41zM428 608 q0 -10 12 -10h396q18 0 18 14q0 1 -2 15l-86 485q-1 14 -8 14q-4 0 -10 -10l-68 -103l-82 -128l-86 -136l-80 -131q-4 -5 -4 -10zM606 1620q0 4 4 8l228 221q13 13 19 16q10 5 26 5h159q25 0 37 -21l133 -213q7 -12 7 -14q0 -10 -15 -10h-90q-12 0 -18 3q-9 4 -15 13 l-120 137q-7 7 -11 7q-1 0 -14 -9l-162 -137q-15 -14 -41 -14h-112q-15 0 -15 8z" />
<glyph unicode="&#xc3;" d="M-178 41q0 23 17 33l42 24q50 28 107 97q32 38 59 78l72 106l694 1071q18 27 41 27h104q29 0 35 -27q0 -2 9 -52l24 -132l34 -186q23 -123 38 -212l104 -575q17 -75 27 -107t33 -53q16 -16 31 -25q6 -3 15.5 -9.5t12.5 -8.5q11 -7 20 -16t9 -25q0 -49 -76 -49h-395 q-60 0 -60 39q0 22 17 34q9 7 36 22q21 12 37 31q17 20 17 58q0 17 -3 38l-8 52l-30 168q-5 19 -27 19h-498q-22 0 -34 -21q-74 -125 -99 -183q-26 -61 -26 -97q0 -26 12 -41q10 -13 26 -25l25 -20q12 -11 12 -29q0 -27 -19 -36t-50 -9h-324q-61 0 -61 41zM428 608 q0 -10 12 -10h396q18 0 18 14q0 1 -2 15l-86 485q-1 14 -8 14q-4 0 -10 -10l-68 -103l-82 -128l-86 -136l-80 -131q-4 -5 -4 -10zM567 1690q0 11 11 36q10 24 18 39q66 127 188 127q64 0 144 -32q72 -27 98 -36q40 -14 72 -14q29 0 53 16q22 15 45 50q7 14 21 14q3 0 18 -4 l29 -8q16 -4 16 -18q0 -11 -9 -32q-6 -14 -16 -34q-38 -74 -84 -104q-48 -31 -106 -31q-41 0 -84 12q-35 10 -90 31q-53 20 -81 29q-33 10 -60 10q-33 0 -55 -19q-21 -18 -38 -49q-11 -18 -22 -18q-6 0 -17 4l-36 12q-15 6 -15 19z" />
<glyph unicode="&#xc4;" d="M-178 41q0 23 17 33l42 24q50 28 107 97q32 38 59 78l72 106l694 1071q18 27 41 27h104q29 0 35 -27q0 -2 9 -52l24 -132l34 -186q23 -123 38 -212l104 -575q17 -75 27 -107t33 -53q16 -16 31 -25q6 -3 15.5 -9.5t12.5 -8.5q11 -7 20 -16t9 -25q0 -49 -76 -49h-395 q-60 0 -60 39q0 22 17 34q9 7 36 22q21 12 37 31q17 20 17 58q0 17 -3 38l-8 52l-30 168q-5 19 -27 19h-498q-22 0 -34 -21q-74 -125 -99 -183q-26 -61 -26 -97q0 -26 12 -41q10 -13 26 -25l25 -20q12 -11 12 -29q0 -27 -19 -36t-50 -9h-324q-61 0 -61 41zM428 608 q0 -10 12 -10h396q18 0 18 14q0 1 -2 15l-86 485q-1 14 -8 14q-4 0 -10 -10l-68 -103l-82 -128l-86 -136l-80 -131q-4 -5 -4 -10zM627 1667q0 21 4 40q6 28 10 41q6 20 15 36t20 24q13 12 41 16q32 5 57 5q66 0 82 -13t16 -47q0 -20 -4 -39q-6 -28 -10 -41q-5 -16 -14 -36 q-8 -17 -19 -25q-14 -10 -41 -16t-55 -6q-61 0 -81 14q-21 15 -21 47zM1012 1667q0 21 4 40q6 28 10 41q6 20 15 36t20 24q13 12 41 16q32 5 57 5q66 0 82 -13t16 -47q0 -20 -4 -39q-6 -28 -10 -41q-5 -16 -14 -36q-8 -17 -19 -25q-14 -10 -41 -16t-55 -6q-61 0 -81 14 q-21 15 -21 47z" />
<glyph unicode="&#xc5;" d="M-178 41q0 23 17 33l42 24q50 28 107 97q32 38 59 78l72 106l694 1071q18 27 41 27h104q29 0 35 -27q0 -2 9 -52l24 -132l34 -186q23 -123 38 -212l104 -575q17 -75 27 -107t33 -53q16 -16 31 -25q6 -3 15.5 -9.5t12.5 -8.5q11 -7 20 -16t9 -25q0 -49 -76 -49h-395 q-60 0 -60 39q0 22 17 34q9 7 36 22q21 12 37 31q17 20 17 58q0 17 -3 38l-8 52l-30 168q-5 19 -27 19h-498q-22 0 -34 -21q-74 -125 -99 -183q-26 -61 -26 -97q0 -26 12 -41q10 -13 26 -25l25 -20q12 -11 12 -29q0 -27 -19 -36t-50 -9h-324q-61 0 -61 41zM428 608 q0 -10 12 -10h396q18 0 18 14q0 1 -2 15l-86 485q-1 14 -8 14q-4 0 -10 -10l-68 -103l-82 -128l-86 -136l-80 -131q-4 -5 -4 -10zM729 1683q0 79 54 132q55 53 132 53q78 0 133 -53q54 -53 54 -132q0 -77 -54 -129q-55 -53 -133 -53q-77 0 -132 53q-54 52 -54 129zM819 1683 q0 -40 28 -68t68 -28q41 0 69 28t28 68t-28 70q-27 29 -69 29q-41 0 -68 -29q-28 -30 -28 -70z" />
<glyph unicode="&#xc6;" horiz-adv-x="2076" d="M-236 43q1 28 26 42l58 34q45 27 94 70q52 46 124 124l109 120l147 164l165 186l168 190l153 173l120 138q14 15 14 33t-18 29q-14 8 -41 19q-28 11 -41 20q-19 13 -19 34q0 22 20 33q19 10 46 10h735q148 0 254 8q119 9 152 9q31 0 54 -10q21 -9 21 -44q0 -18 -6 -51 q-4 -16 -21 -118q-19 -113 -22 -128q-6 -42 -25 -60q-18 -17 -51 -17q-30 0 -44 17t-25 58q-11 46 -28 85q-19 42 -62 71q-46 29 -119 35t-178 6h-80q-31 0 -43 -12t-17 -37l-77 -387q-1 -4 -2 -9v-3v-5q0 -32 43 -32h93q56 0 103 4q68 5 115 9q57 5 90 5q24 0 42 -7 q19 -7 19 -30q0 -14 -5 -26t-9 -25q-12 -47 -34 -67q-20 -19 -85 -19q-26 0 -84 2l-90 4q-58 2 -96 2h-111q-30 0 -34 -28l-64 -308l-13 -72q-7 -38 -7 -69q0 -53 42 -65q38 -11 93 -11q116 0 201 22q84 22 133 55q53 36 82 72q35 44 54 71q26 37 46 56q23 21 57 21 q27 0 45 -15q19 -16 19 -48q0 -19 -10 -46q-6 -15 -19 -57q-21 -58 -31 -100q-12 -52 -31 -91q-19 -40 -53 -66q-32 -25 -90 -25q-15 0 -55 2q-10 0 -73 5q-54 4 -98 5q-76 2 -132 2h-572q-61 0 -61 45q0 26 20 37q18 11 43 22q47 23 76 68q2 5 7.5 15t8.5 15q7 14 15 43 q7 27 18 69q5 20 25 110l2 14q0 21 -25 21h-491q-29 0 -47 -21q-9 -12 -54 -65q-42 -50 -61 -76q-34 -42 -58 -82q-24 -39 -24 -65q0 -24 11 -35q16 -16 26 -22q14 -8 26 -19q11 -10 11 -29q0 -22 -18 -34q-17 -11 -50 -11h-358q-64 0 -64 43zM522 606q0 -10 17 -10h403 q31 0 37 29l121 600q4 15 4 20q0 8 -8 8q-7 0 -13 -6l-124 -137l-145 -165l-148 -168l-129 -148q-15 -17 -15 -23z" />
<glyph unicode="&#xc7;" horiz-adv-x="1388" d="M74 614q0 186 74 343t203 277q126 117 300 185t367 68q108 0 197 -21q93 -22 143 -55q31 -23 43 -53t12 -68q0 -33 -7 -69q-9 -49 -17 -76q-15 -44 -31 -67t-51 -23q-34 0 -49 15q-14 14 -25 41l-23 58q-12 32 -36 70q-27 37 -83 73q-53 34 -151 34q-126 0 -233 -67 q-104 -65 -181 -174q-75 -106 -116 -244t-41 -273q0 -115 28 -199t77 -144q47 -57 112 -88q63 -30 135 -30q66 0 124 26q56 25 101 61t79 76q29 34 56 70q35 47 58 64q22 16 57 16q29 0 45 -17t16 -50q0 -34 -7 -62q-11 -45 -17 -63q-22 -59 -48 -100q-27 -41 -71 -72 q-68 -48 -169 -73q-106 -26 -210 -26q-19 -17 -28 -31q-13 -20 -13 -32q0 -18 33 -26l73 -16q37 -8 72 -29q33 -19 33 -64q0 -36 -21 -66q-21 -31 -61 -55q-39 -24 -90 -39q-48 -14 -110 -14q-3 0 -39 2q-25 1 -55 8q-27 6 -48 18q-20 11 -20 31q0 22 14 33q15 12 35 12 q21 0 39 -8t61 -8q48 0 76 18q11 8 20 20t9 27q0 22 -25 34t-55 20t-55 20t-25 39q0 26 24 58q29 38 48 57q-120 15 -217 63q-101 50 -176 129q-72 76 -117 190q-43 108 -43 246z" />
<glyph unicode="&#xc8;" horiz-adv-x="1298" d="M-53 45q0 26 19 38q9 6 42 21q49 22 78 68q4 7 13 25t15 37q5 16 16 60q19 77 22 89l79 396l80 397q2 11 5.5 31t5.5 30q4 24 4 51q0 32 -15 49q-16 18 -32 27q-5 3 -16 9.5t-17 9.5q-15 9 -15 32q0 26 23 37q21 10 57 10h535q148 0 254 8q119 9 151 9q26 0 52 -8 q24 -8 24 -41q0 -32 -14 -103q-13 -68 -31 -174q-7 -52 -24 -79q-14 -23 -56 -23q-31 0 -45 17q-13 16 -24 58q-9 34 -27 80q-16 42 -64 76q-47 29 -120 35q-74 6 -179 6h-77q-32 0 -43 -11q-13 -13 -17 -38l-76 -377q-2 -7 -3 -17q-1 -8 -1 -16q0 -26 43 -26h99q59 0 106 4 q62 4 114 9q58 5 83 5q24 0 42 -6q17 -6 17 -29q0 -13 -5 -30q-1 -5 -4 -14.5t-5 -14.5q-12 -54 -39 -67q-26 -13 -90 -13q-28 0 -82 2q-12 0 -41.5 1.5t-46.5 2.5q-46 2 -92 2h-109q-29 0 -35 -28l-53 -267l-21 -106q-10 -50 -10 -74q0 -50 40 -62q42 -13 93 -14h25 q110 0 190 22q77 21 126 54q53 35 81 72q49 64 54 71q24 36 45 55q23 21 57 21q29 0 46 -16t17 -45q0 -39 -22 -84q-23 -51 -35 -104q-11 -50 -31 -98q-19 -45 -51 -73t-96 -28q-15 0 -55 2q-14 1 -72 5q-51 4 -97 5q-76 2 -132 2h-572q-61 0 -61 45zM518 1853q0 17 27 17 h239q32 0 47 -6q12 -5 29 -25l146 -174q10 -11 10 -18q0 -15 -19 -15h-131q-32 0 -45 4q-14 4 -35 19l-256 180q-12 7 -12 18z" />
<glyph unicode="&#xc9;" horiz-adv-x="1298" d="M-53 45q0 26 19 38q9 6 42 21q49 22 78 68q4 7 13 25t15 37q5 16 16 60q19 77 22 89l79 396l80 397q2 11 5.5 31t5.5 30q4 24 4 51q0 32 -15 49q-16 18 -32 27q-5 3 -16 9.5t-17 9.5q-15 9 -15 32q0 26 23 37q21 10 57 10h535q148 0 254 8q119 9 151 9q26 0 52 -8 q24 -8 24 -41q0 -32 -14 -103q-13 -68 -31 -174q-7 -52 -24 -79q-14 -23 -56 -23q-31 0 -45 17q-13 16 -24 58q-9 34 -27 80q-16 42 -64 76q-47 29 -120 35q-74 6 -179 6h-77q-32 0 -43 -11q-13 -13 -17 -38l-76 -377q-2 -7 -3 -17q-1 -8 -1 -16q0 -26 43 -26h99q59 0 106 4 q62 4 114 9q58 5 83 5q24 0 42 -6q17 -6 17 -29q0 -13 -5 -30q-1 -5 -4 -14.5t-5 -14.5q-12 -54 -39 -67q-26 -13 -90 -13q-28 0 -82 2q-12 0 -41.5 1.5t-46.5 2.5q-46 2 -92 2h-109q-29 0 -35 -28l-53 -267l-21 -106q-10 -50 -10 -74q0 -50 40 -62q42 -13 93 -14h25 q110 0 190 22q77 21 126 54q53 35 81 72q49 64 54 71q24 36 45 55q23 21 57 21q29 0 46 -16t17 -45q0 -39 -22 -84q-23 -51 -35 -104q-11 -50 -31 -98q-19 -45 -51 -73t-96 -28q-15 0 -55 2q-14 1 -72 5q-51 4 -97 5q-76 2 -132 2h-572q-61 0 -61 45zM565 1642q0 5 8 13 l218 184q23 18 36 24q15 7 52 7h245q25 0 25 -15q0 -9 -12 -16l-326 -184q-26 -14 -43 -19q-15 -4 -49 -4h-139q-15 0 -15 10z" />
<glyph unicode="&#xca;" horiz-adv-x="1298" d="M-53 45q0 26 19 38q9 6 42 21q49 22 78 68q4 7 13 25t15 37q5 16 16 60q19 77 22 89l79 396l80 397q2 11 5.5 31t5.5 30q4 24 4 51q0 32 -15 49q-16 18 -32 27q-5 3 -16 9.5t-17 9.5q-15 9 -15 32q0 26 23 37q21 10 57 10h535q148 0 254 8q119 9 151 9q26 0 52 -8 q24 -8 24 -41q0 -32 -14 -103q-13 -68 -31 -174q-7 -52 -24 -79q-14 -23 -56 -23q-31 0 -45 17q-13 16 -24 58q-9 34 -27 80q-16 42 -64 76q-47 29 -120 35q-74 6 -179 6h-77q-32 0 -43 -11q-13 -13 -17 -38l-76 -377q-2 -7 -3 -17q-1 -8 -1 -16q0 -26 43 -26h99q59 0 106 4 q62 4 114 9q58 5 83 5q24 0 42 -6q17 -6 17 -29q0 -13 -5 -30q-1 -5 -4 -14.5t-5 -14.5q-12 -54 -39 -67q-26 -13 -90 -13q-28 0 -82 2q-12 0 -41.5 1.5t-46.5 2.5q-46 2 -92 2h-109q-29 0 -35 -28l-53 -267l-21 -106q-10 -50 -10 -74q0 -50 40 -62q42 -13 93 -14h25 q110 0 190 22q77 21 126 54q53 35 81 72q49 64 54 71q24 36 45 55q23 21 57 21q29 0 46 -16t17 -45q0 -39 -22 -84q-23 -51 -35 -104q-11 -50 -31 -98q-19 -45 -51 -73t-96 -28q-15 0 -55 2q-14 1 -72 5q-51 4 -97 5q-76 2 -132 2h-572q-61 0 -61 45zM483 1620q0 4 4 8 l228 221q13 13 19 16q10 5 26 5h160q24 0 36 -21l134 -213q6 -11 6 -14q0 -10 -15 -10h-90q-12 0 -18 3q-9 4 -15 13l-120 137q-7 7 -11 7q-1 0 -14 -9l-162 -137q-15 -14 -41 -14h-112q-15 0 -15 8z" />
<glyph unicode="&#xcb;" horiz-adv-x="1298" d="M-53 45q0 26 19 38q9 6 42 21q49 22 78 68q4 7 13 25t15 37q5 16 16 60q19 77 22 89l79 396l80 397q2 11 5.5 31t5.5 30q4 24 4 51q0 32 -15 49q-16 18 -32 27q-5 3 -16 9.5t-17 9.5q-15 9 -15 32q0 26 23 37q21 10 57 10h535q148 0 254 8q119 9 151 9q26 0 52 -8 q24 -8 24 -41q0 -32 -14 -103q-13 -68 -31 -174q-7 -52 -24 -79q-14 -23 -56 -23q-31 0 -45 17q-13 16 -24 58q-9 34 -27 80q-16 42 -64 76q-47 29 -120 35q-74 6 -179 6h-77q-32 0 -43 -11q-13 -13 -17 -38l-76 -377q-2 -7 -3 -17q-1 -8 -1 -16q0 -26 43 -26h99q59 0 106 4 q62 4 114 9q58 5 83 5q24 0 42 -6q17 -6 17 -29q0 -13 -5 -30q-1 -5 -4 -14.5t-5 -14.5q-12 -54 -39 -67q-26 -13 -90 -13q-28 0 -82 2q-12 0 -41.5 1.5t-46.5 2.5q-46 2 -92 2h-109q-29 0 -35 -28l-53 -267l-21 -106q-10 -50 -10 -74q0 -50 40 -62q42 -13 93 -14h25 q110 0 190 22q77 21 126 54q53 35 81 72q49 64 54 71q24 36 45 55q23 21 57 21q29 0 46 -16t17 -45q0 -39 -22 -84q-23 -51 -35 -104q-11 -50 -31 -98q-19 -45 -51 -73t-96 -28q-15 0 -55 2q-14 1 -72 5q-51 4 -97 5q-76 2 -132 2h-572q-61 0 -61 45zM514 1667q0 21 4 40 q6 28 10 41q5 15 16 36q9 17 19 24q13 12 41 16q32 5 58 5q65 0 81 -13q17 -14 17 -47q0 -20 -4 -39q-4 -17 -11 -41q-5 -16 -14 -36q-8 -18 -18 -25q-14 -10 -41 -16t-56 -6q-60 0 -80 14q-22 16 -22 47zM899 1667q0 21 4 40q6 28 10 41q5 15 16 36q9 17 19 24q13 12 41 16 q32 5 58 5q65 0 81 -13q17 -14 17 -47q0 -20 -4 -39q-6 -28 -10 -41q-3 -9 -15 -36q-8 -18 -18 -25q-14 -10 -41 -16t-56 -6q-60 0 -80 14q-22 16 -22 47z" />
<glyph unicode="&#xcc;" horiz-adv-x="704" d="M-53 43q0 25 16 37q15 11 39 22q30 16 48 31q18 16 34 39q4 7 13 25q10 20 16 39q10 32 17 60q11 44 20 89l159 786l13 65q4 24 4 50q0 23 -8 42t-27 30q-14 8 -40 22q-20 11 -20 35t21 36q19 11 51 11h393q62 0 62 -43q0 -28 -28 -40q-42 -18 -52 -25q-19 -11 -32 -24 q-11 -11 -24 -37q-12 -25 -21 -59q-7 -29 -19 -91l-154 -758q-14 -63 -19 -112q-6 -56 -6 -64q0 -49 17 -72q17 -24 37 -35l37 -21q16 -9 16 -34q0 -23 -22 -36q-19 -11 -56 -11h-430q-29 0 -42 13t-13 30zM272 1853q0 17 27 17h240q32 0 47 -6q11 -4 28 -25l146 -174 q10 -11 10 -18q0 -15 -18 -15h-131q-33 0 -46 4t-34 19l-256 180q-13 8 -13 18z" />
<glyph unicode="&#xcd;" horiz-adv-x="704" d="M-53 43q0 25 16 37q15 11 39 22q30 16 48 31q18 16 34 39q4 7 13 25q10 20 16 39q10 32 17 60q11 44 20 89l159 786l13 65q4 24 4 50q0 23 -8 42t-27 30q-14 8 -40 22q-20 11 -20 35t21 36q19 11 51 11h393q62 0 62 -43q0 -28 -28 -40q-42 -18 -52 -25q-19 -11 -32 -24 q-11 -11 -24 -37q-12 -25 -21 -59q-7 -29 -19 -91l-154 -758q-14 -63 -19 -112q-6 -56 -6 -64q0 -49 17 -72q17 -24 37 -35l37 -21q16 -9 16 -34q0 -23 -22 -36q-19 -11 -56 -11h-430q-29 0 -42 13t-13 30zM279 1643q0 4 8 12l217 184q22 17 37 24t51 7h246q24 0 24 -15 q0 -9 -12 -16l-326 -184q-26 -14 -43 -19q-15 -4 -49 -4h-139q-14 0 -14 11z" />
<glyph unicode="&#xce;" horiz-adv-x="704" d="M-53 43q0 25 16 37q15 11 39 22q30 16 48 31q18 16 34 39q4 7 13 25q10 20 16 39q10 32 17 60q11 44 20 89l159 786l13 65q4 24 4 50q0 23 -8 42t-27 30q-14 8 -40 22q-20 11 -20 35t21 36q19 11 51 11h393q62 0 62 -43q0 -28 -28 -40q-42 -18 -52 -25q-19 -11 -32 -24 q-11 -11 -24 -37q-12 -25 -21 -59q-7 -29 -19 -91l-154 -758q-14 -63 -19 -112q-6 -56 -6 -64q0 -49 17 -72q17 -24 37 -35l37 -21q16 -9 16 -34q0 -23 -22 -36q-19 -11 -56 -11h-430q-29 0 -42 13t-13 30zM227 1620q0 4 4 8l228 221q13 13 19 16q10 5 26 5h160q24 0 36 -21 l134 -213q6 -11 6 -14q0 -10 -15 -10h-90q-12 0 -18 3q-9 4 -15 13l-120 137q-7 7 -11 7q-1 0 -14 -9l-162 -137q-15 -14 -41 -14h-112q-15 0 -15 8z" />
<glyph unicode="&#xcf;" horiz-adv-x="704" d="M-53 43q0 25 16 37q15 11 39 22q30 16 48 31q18 16 34 39q4 7 13 25q10 20 16 39q10 32 17 60q11 44 20 89l159 786l13 65q4 24 4 50q0 23 -8 42t-27 30q-14 8 -40 22q-20 11 -20 35t21 36q19 11 51 11h393q62 0 62 -43q0 -28 -28 -40q-42 -18 -52 -25q-19 -11 -32 -24 q-11 -11 -24 -37q-12 -25 -21 -59q-7 -29 -19 -91l-154 -758q-14 -63 -19 -112q-6 -56 -6 -64q0 -49 17 -72q17 -24 37 -35l37 -21q16 -9 16 -34q0 -23 -22 -36q-19 -11 -56 -11h-430q-29 0 -42 13t-13 30zM225 1667q0 21 4 40q4 17 11 41q6 20 15 36q9 17 19 24 q13 12 41 16q32 5 58 5q66 0 82 -13t16 -47q0 -20 -4 -39q-6 -28 -10 -41q-3 -9 -15 -36q-8 -18 -18 -25q-14 -10 -41 -16t-55 -6q-61 0 -81 14q-22 16 -22 47zM610 1667q0 21 4 40q4 17 11 41q6 20 15 36q9 17 19 24q13 12 41 16q32 5 58 5q66 0 82 -13t16 -47 q0 -20 -4 -39q-6 -28 -10 -41q-3 -9 -15 -36q-8 -18 -18 -25q-14 -10 -41 -16t-55 -6q-61 0 -81 14q-22 16 -22 47z" />
<glyph unicode="&#xd0;" horiz-adv-x="1613" d="M-20 709q0 9 3 21q4 16 7 24q8 34 21 54q13 19 55 19q18 0 26 -1q12 -2 33 -3q23 -2 50 -3q20 -1 77 -1q27 0 33 25q0 7 10 51q4 19 20 102q9 51 29 146q8 36 16 84q7 40 7 61q0 34 -15 51q-16 17 -33 26q-12 6 -32 18q-15 9 -15 32q0 24 20 36q18 11 52 11h344 q221 0 374 -22q154 -22 277 -101q107 -66 163 -183q57 -119 57 -269q0 -66 -14 -145q-13 -74 -41 -153q-27 -77 -72 -153q-42 -72 -107 -143q-65 -68 -136 -117q-78 -53 -176 -92q-97 -38 -222 -61q-126 -23 -271 -23h-471q-61 0 -61 45q0 27 22 39l45 25q26 13 42 29 q17 18 28 34q4 7 13 25q12 24 16 37q10 32 17 60q6 24 19 89l54 258l2 14q0 21 -23 21q-65 0 -102 -6t-72 -6q-69 0 -69 45zM436 211q0 -47 30 -57q31 -11 93 -11h33q100 0 214 33q112 32 212 125q116 110 179 268q63 157 63 332q0 49 -8 105q-8 58 -27 101q-22 50 -55 89 q-36 42 -85 68q-84 41 -169 50q-87 9 -185 9h-26q-31 0 -42 -11q-12 -12 -18 -38l-84 -422l-2 -14q0 -19 21 -19q88 0 137 6t84 6q24 0 48 -6q23 -6 23 -34q0 -13 -3 -26q-4 -20 -5 -24q-6 -34 -17 -53q-11 -20 -63 -20q-33 0 -47 1q-21 1 -45 3t-57 3q-22 1 -84 1 q-25 0 -31 -25l-53 -264q-18 -80 -23 -107q-8 -45 -8 -69z" />
<glyph unicode="&#xd1;" horiz-adv-x="1644" d="M-41 49q0 23 22 36q19 11 58 28q36 19 51 30q22 17 42 42q19 25 36 65q16 38 31 98q7 26 24 104l37 170l42 200l41 197l33 158l17 83q2 14 2 16q0 18 -15 33q-13 13 -48 32q-33 19 -63 34q-23 11 -23 40q0 24 19 36q18 11 48 11h254q36 0 53 -10q16 -9 27 -33l514 -1026 q5 -8 10 -8q7 0 11 10l36 179l36 187l33 169q21 111 24 129q7 43 14 100q4 33 4 58q0 63 -20 89q-21 28 -46 42l-46 25q-21 12 -21 40q0 49 80 49h358q70 0 70 -45q0 -32 -29 -46l-55 -25q-19 -10 -45 -28q-18 -13 -38 -41q-15 -21 -32 -64q-9 -22 -28 -95q-7 -29 -31 -137 l-45 -211l-50 -243l-48 -233l-38 -184q-14 -74 -20 -94q-1 -13 -10 -22q-8 -8 -31 -8h-114q-22 0 -29 7q-9 9 -14 19l-531 1059q-5 8 -10 8q-6 0 -8 -8l-41 -193q-28 -133 -47 -235q-25 -130 -38 -222q-16 -110 -16 -155q0 -62 20 -97q19 -33 60 -56q27 -17 48 -27 q22 -11 22 -39q0 -47 -76 -47h-401q-70 0 -70 49zM653 1690q0 11 11 36q10 24 18 39q66 127 188 127q64 0 144 -32q72 -27 98 -36q40 -14 72 -14q29 0 53 16q22 15 45 50q7 14 21 14q3 0 18 -4l29 -8q16 -4 16 -18q0 -11 -9 -32q-6 -14 -16 -34q-38 -74 -84 -104 q-48 -31 -106 -31q-41 0 -84 12q-35 10 -90 31q-53 20 -81 29q-33 10 -60 10q-33 0 -55 -19q-21 -18 -38 -49q-11 -18 -22 -18q-5 0 -16 4l-37 12q-15 6 -15 19z" />
<glyph unicode="&#xd2;" horiz-adv-x="1658" d="M74 573q0 192 72 358q71 164 198 291q122 122 289 194q165 71 348 71q144 0 255 -45q110 -45 189 -125q78 -80 119 -190q41 -111 41 -238q0 -185 -73 -354q-72 -166 -196 -290t-290 -196t-350 -72q-142 0 -257 45t-189 122q-75 78 -116 189q-40 108 -40 240zM377 580 q0 -210 89 -335q88 -124 255 -124q123 0 223 62q103 64 177 167q75 105 117 243t42 290q0 211 -90 337t-256 126q-117 0 -220 -62q-101 -61 -176 -166q-74 -104 -118 -244q-43 -138 -43 -294zM754 1853q0 17 26 17h240q32 0 47 -6q12 -5 29 -25l145 -174q10 -11 10 -18 q0 -15 -18 -15h-131q-32 0 -45 4q-14 4 -35 19l-256 180q-12 7 -12 18z" />
<glyph unicode="&#xd3;" horiz-adv-x="1658" d="M74 573q0 192 72 358q71 164 198 291q122 122 289 194q165 71 348 71q144 0 255 -45q110 -45 189 -125q78 -80 119 -190q41 -111 41 -238q0 -185 -73 -354q-72 -166 -196 -290t-290 -196t-350 -72q-142 0 -257 45t-189 122q-75 78 -116 189q-40 108 -40 240zM377 580 q0 -210 89 -335q88 -124 255 -124q123 0 223 62q103 64 177 167q75 105 117 243t42 290q0 211 -90 337t-256 126q-117 0 -220 -62q-101 -61 -176 -166q-74 -104 -118 -244q-43 -138 -43 -294zM803 1642q0 5 8 13l217 184q22 17 37 24t51 7h246q24 0 24 -15q0 -9 -12 -16 l-325 -184q-26 -14 -43 -19q-15 -4 -50 -4h-139q-14 0 -14 10z" />
<glyph unicode="&#xd4;" horiz-adv-x="1658" d="M74 573q0 192 72 358q71 164 198 291q122 122 289 194q165 71 348 71q144 0 255 -45q110 -45 189 -125q78 -80 119 -190q41 -111 41 -238q0 -185 -73 -354q-72 -166 -196 -290t-290 -196t-350 -72q-142 0 -257 45t-189 122q-75 78 -116 189q-40 108 -40 240zM377 580 q0 -210 89 -335q88 -124 255 -124q123 0 223 62q103 64 177 167q75 105 117 243t42 290q0 211 -90 337t-256 126q-117 0 -220 -62q-101 -61 -176 -166q-74 -104 -118 -244q-43 -138 -43 -294zM690 1620q0 4 4 8l228 221q13 13 19 16q10 5 26 5h159q25 0 37 -21l133 -213 q7 -12 7 -14q0 -10 -15 -10h-90q-12 0 -18 3q-9 4 -15 13l-121 137q-7 7 -10 7q-1 0 -14 -9l-162 -137q-15 -14 -41 -14h-112q-15 0 -15 8z" />
<glyph unicode="&#xd5;" horiz-adv-x="1658" d="M74 573q0 192 72 358q71 164 198 291q122 122 289 194q165 71 348 71q144 0 255 -45q110 -45 189 -125q78 -80 119 -190q41 -111 41 -238q0 -185 -73 -354q-72 -166 -196 -290t-290 -196t-350 -72q-142 0 -257 45t-189 122q-75 78 -116 189q-40 108 -40 240zM377 580 q0 -210 89 -335q88 -124 255 -124q123 0 223 62q103 64 177 167q75 105 117 243t42 290q0 211 -90 337t-256 126q-117 0 -220 -62q-101 -61 -176 -166q-74 -104 -118 -244q-43 -138 -43 -294zM655 1690q0 11 11 36q10 24 18 39q66 127 188 127q64 0 144 -32q72 -27 98 -36 q40 -14 72 -14q29 0 53 16q22 15 45 50q7 14 21 14q3 0 18 -4l29 -8q16 -4 16 -18q0 -11 -9 -32q-6 -14 -16 -34q-38 -75 -83 -104q-48 -31 -107 -31q-41 0 -84 12q-35 10 -90 31q-53 20 -81 29q-33 10 -60 10q-33 0 -55 -19q-21 -18 -38 -49q-11 -18 -22 -18q-5 0 -16 4 l-37 12q-15 6 -15 19z" />
<glyph unicode="&#xd6;" horiz-adv-x="1658" d="M74 573q0 192 72 358q71 164 198 291q122 122 289 194q165 71 348 71q144 0 255 -45q110 -45 189 -125q78 -80 119 -190q41 -111 41 -238q0 -185 -73 -354q-72 -166 -196 -290t-290 -196t-350 -72q-142 0 -257 45t-189 122q-75 78 -116 189q-40 108 -40 240zM377 580 q0 -210 89 -335q88 -124 255 -124q123 0 223 62q103 64 177 167q75 105 117 243t42 290q0 211 -90 337t-256 126q-117 0 -220 -62q-101 -61 -176 -166q-74 -104 -118 -244q-43 -138 -43 -294zM680 1667q0 21 4 40q6 28 10 41q5 15 16 36q9 17 19 24q13 12 41 16q32 5 57 5 q66 0 82 -13q17 -14 17 -47q0 -20 -4 -39q-4 -17 -11 -41q-5 -16 -14 -36q-8 -18 -18 -25q-14 -10 -41 -16t-56 -6q-61 0 -81 14q-21 15 -21 47zM1065 1667q0 21 4 40q6 28 10 41q5 15 16 36q9 17 19 24q13 12 41 16q32 5 57 5q66 0 82 -13q17 -14 17 -47q0 -20 -4 -39 q-4 -17 -11 -41q-5 -16 -14 -36q-8 -18 -18 -25q-14 -10 -41 -16t-56 -6q-61 0 -81 14q-21 15 -21 47z" />
<glyph unicode="&#xd7;" horiz-adv-x="1251" d="M197 406l327 325l-327 328l102 102l326 -327l327 327l103 -102l-328 -328l328 -325l-103 -103l-327 328l-326 -328z" />
<glyph unicode="&#xd8;" horiz-adv-x="1701" d="M-63 14q0 3 1 5q3 6 7 10l219 190q12 12 12 21q0 6 -6 18q-76 139 -76 317q0 179 69 344q69 166 189 290q121 126 287 202q165 76 362 76q131 0 232 -37q102 -38 178 -100q16 -11 19 -11q2 0 18 11l104 90l24 16q9 6 26 6h145q18 0 18 -12q0 -6 -8 -14l-223 -197 q-10 -7 -10 -18q0 -8 4 -15q78 -137 78 -319q0 -176 -69 -341q-69 -166 -190 -291q-120 -124 -289 -202q-165 -76 -362 -76q-129 0 -231 36q-101 36 -178 102q-8 8 -15 8q-9 0 -20 -10l-107 -95q-21 -18 -51 -18h-139q-18 0 -18 14zM399 612q0 -44 4 -76q3 -28 11 -71 q4 -14 10 -14q4 0 10 6l789 696q14 14 14 21q0 3 -1 5l-2 4q-1 4 -3 7q-44 75 -113 115q-70 41 -162 41q-128 0 -232 -69q-105 -70 -176 -175q-75 -110 -111 -237q-38 -132 -38 -253zM463 289q0 -6 4 -13q43 -73 115 -115q68 -40 163 -40q131 0 233 68q104 69 174 177 q73 112 109 237q37 129 37 253q0 42 -4 73l-8 68q-5 13 -10 13t-16 -11l-785 -690q-12 -11 -12 -20z" />
<glyph unicode="&#xd9;" horiz-adv-x="1531" d="M123 365q0 82 24 196l117 582q13 54 16 77q5 38 5 60q0 28 -7 46q-8 21 -28 32q-14 8 -40 22q-20 11 -20 33q0 29 21 39q20 10 51 10h395q60 0 60 -43q0 -28 -27 -40q-40 -18 -53 -25q-20 -12 -32 -25q-12 -14 -23 -38q-12 -28 -20 -59t-21 -89q-6 -28 -15 -71 q-4 -18 -11 -54t-10 -52l-25 -122q-4 -19 -23 -119q-4 -19 -10.5 -50.5t-8.5 -44.5q-2 -11 -4.5 -23t-4 -19t-1.5 -10q-18 -90 -18 -156q0 -129 80 -194q81 -66 219 -66q361 0 446 391l29 135q7 30 17.5 86.5t12.5 64.5l28 142q15 76 20 111q12 73 12 125q0 62 -21 89 q-21 28 -46 42l-46 25q-20 11 -20 38q0 51 80 51h358q72 0 72 -47q-2 -29 -29 -41q-32 -14 -57 -28q-19 -10 -45 -28q-19 -14 -37 -41q-14 -22 -31 -64q-12 -29 -29 -95l-22 -101l-36 -164l-38 -178l-31 -145q-17 -80 -35 -132q-18 -54 -47 -103q-83 -148 -235 -233 t-356 -85q-91 0 -183 20t-160 65q-70 46 -114 120q-43 73 -43 183zM682 1853q0 17 27 17h239q32 0 47 -6q12 -5 29 -25l145 -174q11 -13 11 -18q0 -15 -19 -15h-131q-32 0 -45 4q-14 4 -35 19l-256 180q-12 7 -12 18z" />
<glyph unicode="&#xda;" horiz-adv-x="1531" d="M123 365q0 82 24 196l117 582q13 54 16 77q5 38 5 60q0 28 -7 46q-8 21 -28 32q-14 8 -40 22q-20 11 -20 33q0 29 21 39q20 10 51 10h395q60 0 60 -43q0 -28 -27 -40q-40 -18 -53 -25q-20 -12 -32 -25q-12 -14 -23 -38q-12 -28 -20 -59t-21 -89q-6 -28 -15 -71 q-4 -18 -11 -54t-10 -52l-25 -122q-4 -19 -23 -119q-4 -19 -10.5 -50.5t-8.5 -44.5q-2 -11 -4.5 -23t-4 -19t-1.5 -10q-18 -90 -18 -156q0 -129 80 -194q81 -66 219 -66q361 0 446 391l29 135q7 30 17.5 86.5t12.5 64.5l28 142q15 76 20 111q12 73 12 125q0 62 -21 89 q-21 28 -46 42l-46 25q-20 11 -20 38q0 51 80 51h358q72 0 72 -47q-2 -29 -29 -41q-32 -14 -57 -28q-19 -10 -45 -28q-19 -14 -37 -41q-14 -22 -31 -64q-12 -29 -29 -95l-22 -101l-36 -164l-38 -178l-31 -145q-17 -80 -35 -132q-18 -54 -47 -103q-83 -148 -235 -233 t-356 -85q-91 0 -183 20t-160 65q-70 46 -114 120q-43 73 -43 183zM737 1643q0 4 8 12l218 184q23 18 36 24q15 7 52 7h245q25 0 25 -15q0 -9 -12 -16l-326 -184q-26 -14 -43 -19q-15 -4 -49 -4h-139q-15 0 -15 11z" />
<glyph unicode="&#xdb;" horiz-adv-x="1531" d="M123 365q0 82 24 196l117 582q13 54 16 77q5 38 5 60q0 28 -7 46q-8 21 -28 32q-14 8 -40 22q-20 11 -20 33q0 29 21 39q20 10 51 10h395q60 0 60 -43q0 -28 -27 -40q-40 -18 -53 -25q-20 -12 -32 -25q-12 -14 -23 -38q-12 -28 -20 -59t-21 -89q-6 -28 -15 -71 q-4 -18 -11 -54t-10 -52l-25 -122q-4 -19 -23 -119q-4 -19 -10.5 -50.5t-8.5 -44.5q-2 -11 -4.5 -23t-4 -19t-1.5 -10q-18 -90 -18 -156q0 -129 80 -194q81 -66 219 -66q361 0 446 391l29 135q7 30 17.5 86.5t12.5 64.5l28 142q15 76 20 111q12 73 12 125q0 62 -21 89 q-21 28 -46 42l-46 25q-20 11 -20 38q0 51 80 51h358q72 0 72 -47q-2 -29 -29 -41q-32 -14 -57 -28q-19 -10 -45 -28q-19 -14 -37 -41q-14 -22 -31 -64q-12 -29 -29 -95l-22 -101l-36 -164l-38 -178l-31 -145q-17 -80 -35 -132q-18 -54 -47 -103q-83 -148 -235 -233 t-356 -85q-91 0 -183 20t-160 65q-70 46 -114 120q-43 73 -43 183zM643 1620q0 4 4 8l227 221q12 12 20 16q10 5 26 5h159q25 0 37 -21l133 -213q6 -11 6 -14q0 -10 -14 -10h-90q-12 0 -18 3q-9 4 -15 13l-121 137q-7 7 -10 7q-1 0 -14 -9l-162 -137q-15 -14 -41 -14h-113 q-14 0 -14 8z" />
<glyph unicode="&#xdc;" horiz-adv-x="1531" d="M123 365q0 82 24 196l117 582q13 54 16 77q5 38 5 60q0 28 -7 46q-8 21 -28 32q-14 8 -40 22q-20 11 -20 33q0 29 21 39q20 10 51 10h395q60 0 60 -43q0 -28 -27 -40q-40 -18 -53 -25q-20 -12 -32 -25q-12 -14 -23 -38q-12 -28 -20 -59t-21 -89q-6 -28 -15 -71 q-4 -18 -11 -54t-10 -52l-25 -122q-4 -19 -23 -119q-4 -19 -10.5 -50.5t-8.5 -44.5q-2 -11 -4.5 -23t-4 -19t-1.5 -10q-18 -90 -18 -156q0 -129 80 -194q81 -66 219 -66q361 0 446 391l29 135q7 30 17.5 86.5t12.5 64.5l28 142q15 76 20 111q12 73 12 125q0 62 -21 89 q-21 28 -46 42l-46 25q-20 11 -20 38q0 51 80 51h358q72 0 72 -47q-2 -29 -29 -41q-32 -14 -57 -28q-19 -10 -45 -28q-19 -14 -37 -41q-14 -22 -31 -64q-12 -29 -29 -95l-22 -101l-36 -164l-38 -178l-31 -145q-17 -80 -35 -132q-18 -54 -47 -103q-83 -148 -235 -233 t-356 -85q-91 0 -183 20t-160 65q-70 46 -114 120q-43 73 -43 183zM666 1667q0 21 4 40q6 28 10 41q6 20 15 36t20 24q13 12 41 16q32 5 57 5q66 0 82 -13t16 -47q0 -20 -4 -39q-6 -28 -10 -41q-5 -16 -14 -36q-8 -17 -19 -25q-14 -10 -41 -16t-55 -6q-61 0 -81 14 q-21 15 -21 47zM1051 1667q0 21 4 40q6 28 10 41q6 20 15 36t20 24q13 12 41 16q32 5 57 5q66 0 82 -13t16 -47q0 -20 -4 -39q-6 -28 -10 -41q-5 -16 -14 -36q-8 -17 -19 -25q-14 -10 -41 -16t-55 -6q-61 0 -81 14q-21 15 -21 47z" />
<glyph unicode="&#xdd;" horiz-adv-x="1419" d="M129 1417q0 21 22 34q19 11 56 11h385q57 0 57 -41q0 -19 -16 -31q-15 -11 -37 -22q-21 -10 -37 -28q-16 -17 -16 -50q0 -35 18 -86l164 -467q6 -18 12 -18q4 0 19 16l55 67l71 87l76 96l76 96q62 83 96 138q35 56 35 86q0 27 -12 40q-8 9 -26 23l-25 21q-12 11 -12 28 q0 45 71 45h342q62 0 62 -41q0 -18 -15 -30q-20 -16 -32 -23q-52 -32 -61 -38q-29 -21 -60 -50q-34 -32 -73 -78l-89 -104l-77 -91l-118 -142l-126 -152l-105 -127q-9 -12 -10 -25l-37 -176q-16 -72 -20 -111q-5 -45 -5 -63q0 -49 17 -72q17 -24 37 -35l36 -22 q17 -11 17 -35q0 -27 -21 -37q-20 -10 -55 -10h-430q-57 0 -57 45q0 25 17 36q12 8 40 21q59 28 82 70q4 7 13 25q10 20 16 39q10 32 17 60q6 24 19 89l21 104q4 19 4 25q0 5 -8 31l-217 626q-20 56 -38 101q-13 33 -32 57q-17 20 -30 28l-27 16q-14 9 -21 17q-8 10 -8 27z M637 1643q0 4 8 12l217 184q22 17 37 24t51 7h246q25 0 25 -14q0 -9 -13 -17l-325 -184q-26 -14 -43 -19q-15 -4 -49 -4h-140q-14 0 -14 11z" />
<glyph unicode="&#xde;" horiz-adv-x="1318" d="M-53 45q0 23 19 35q17 11 40 22q28 16 45 31q21 19 35 37q7 9 15 26q9 19 16 40q11 34 16 61q2 11 8.5 41t10.5 49l157 784q2 10 7 32.5t7 33.5q5 32 5 49q0 50 -37 72q-14 8 -40 22q-20 11 -20 35t21 36q19 11 51 11h393q58 0 62 -43q0 -28 -28 -40q-42 -18 -52 -25 q-31 -16 -50 -47q-16 -26 -32 -99q0 -3 -0.5 -6t-1 -4.5t-0.5 -2.5v-5q0 -21 29 -21h51q106 0 205 -7q107 -8 194 -40q90 -33 146 -103q57 -70 57 -196q0 -69 -21 -134q-23 -70 -53 -118q-88 -134 -248 -199q-162 -66 -387 -67h-131q-24 0 -28 -26q-9 -40 -9 -66 q0 -49 18 -72q17 -22 39 -34q21 -12 39 -24q17 -11 17 -36q0 -23 -22 -36q-19 -11 -56 -11h-428q-59 0 -59 45zM446 465q0 -23 27 -23h76q123 1 213 32q86 29 147 108q35 43 52 103q18 63 18 122q0 65 -25 113q-34 65 -105 89q-68 23 -175 23h-80q-35 -2 -41 -35l-104 -518 q-1 -4 -2 -8.5t-1 -5.5z" />
<glyph unicode="&#xe0;" horiz-adv-x="1257" d="M49 283q0 119 39 257t111 255q49 79 106 136q55 54 117 92q59 35 121 52q63 17 118 17q51 0 100 -11q54 -12 84 -23l66 -24q27 -10 47 -10q27 0 44 10t31 24q11 11 28 23q16 11 33 11q22 0 32 -15q11 -16 11 -30q0 -5 -9 -55q-5 -26 -20 -99l-28 -125l-29 -131l-29 -131 q-1 -6 -26 -123q-6 -28 -18 -103q-7 -43 -7 -71q0 -23 8 -41q7 -16 29 -16q16 0 31 9q20 12 30 20q18 14 29 21q15 9 28 9q18 0 26 -11q9 -12 9 -26q0 -21 -18 -45q-45 -64 -121 -109q-73 -43 -145 -43q-46 0 -76 15q-32 16 -49 39q-19 25 -26 57q-7 31 -7 70q0 34 5 81 q4 37 11 72q0 5 1 6t1 5v2q0 4 -4 4q-2 0 -10 -13q-29 -51 -82 -119q-48 -62 -104 -109q-59 -50 -122 -79q-67 -31 -134 -31q-111 0 -171 81q-61 82 -61 225zM322 326q0 -26 3 -51t12 -48q9 -22 25 -37q15 -14 46 -14q52 0 120 66q70 69 146 188q37 57 68 119q33 66 51 111 q17 43 30 96q11 46 11 69q0 32 -22 60q-21 27 -51 45t-64 27q-38 10 -58 10q-67 0 -121 -54q-48 -51 -83 -128q-36 -80 -61 -163q-26 -86 -39 -165q-13 -77 -13 -131zM477 1470q0 17 27 17h239q33 0 48 -6q11 -4 28 -25l146 -174q10 -11 10 -18q0 -15 -19 -15h-131 q-32 0 -45 4q-14 4 -35 19l-256 180q-12 8 -12 18z" />
<glyph unicode="&#xe1;" horiz-adv-x="1257" d="M49 283q0 119 39 257t111 255q49 79 106 136q55 54 117 92q59 35 121 52q63 17 118 17q51 0 100 -11q54 -12 84 -23l66 -24q27 -10 47 -10q27 0 44 10t31 24q11 11 28 23q16 11 33 11q22 0 32 -15q11 -16 11 -30q0 -5 -9 -55q-5 -26 -20 -99l-28 -125l-29 -131l-29 -131 q-1 -6 -26 -123q-6 -28 -18 -103q-7 -43 -7 -71q0 -23 8 -41q7 -16 29 -16q16 0 31 9q20 12 30 20q18 14 29 21q15 9 28 9q18 0 26 -11q9 -12 9 -26q0 -21 -18 -45q-45 -64 -121 -109q-73 -43 -145 -43q-46 0 -76 15q-32 16 -49 39q-19 25 -26 57q-7 31 -7 70q0 34 5 81 q4 37 11 72q0 5 1 6t1 5v2q0 4 -4 4q-2 0 -10 -13q-29 -51 -82 -119q-48 -62 -104 -109q-59 -50 -122 -79q-67 -31 -134 -31q-111 0 -171 81q-61 82 -61 225zM322 326q0 -26 3 -51t12 -48q9 -22 25 -37q15 -14 46 -14q52 0 120 66q70 69 146 188q37 57 68 119q33 66 51 111 q17 43 30 96q11 46 11 69q0 32 -22 60q-21 27 -51 45t-64 27q-38 10 -58 10q-67 0 -121 -54q-48 -51 -83 -128q-36 -80 -61 -163q-26 -86 -39 -165q-13 -77 -13 -131zM477 1260q0 4 8 12l217 184q22 17 37 24t52 7h245q25 0 25 -14q0 -10 -12 -17l-326 -184q-26 -14 -43 -19 q-15 -4 -49 -4h-139q-15 0 -15 11z" />
<glyph unicode="&#xe2;" horiz-adv-x="1257" d="M49 283q0 119 39 257t111 255q49 79 106 136q55 54 117 92q59 35 121 52q63 17 118 17q51 0 100 -11q54 -12 84 -23l66 -24q27 -10 47 -10q27 0 44 10t31 24q11 11 28 23q16 11 33 11q22 0 32 -15q11 -16 11 -30q0 -5 -9 -55q-5 -26 -20 -99l-28 -125l-29 -131l-29 -131 q-1 -6 -26 -123q-6 -28 -18 -103q-7 -43 -7 -71q0 -23 8 -41q7 -16 29 -16q16 0 31 9q20 12 30 20q18 14 29 21q15 9 28 9q18 0 26 -11q9 -12 9 -26q0 -21 -18 -45q-45 -64 -121 -109q-73 -43 -145 -43q-46 0 -76 15q-32 16 -49 39q-19 25 -26 57q-7 31 -7 70q0 34 5 81 q4 37 11 72q0 5 1 6t1 5v2q0 4 -4 4q-2 0 -10 -13q-29 -51 -82 -119q-48 -62 -104 -109q-59 -50 -122 -79q-67 -31 -134 -31q-111 0 -171 81q-61 82 -61 225zM322 326q0 -26 3 -51t12 -48q9 -22 25 -37q15 -14 46 -14q52 0 120 66q70 69 146 188q37 57 68 119q33 66 51 111 q17 43 30 96q11 46 11 69q0 32 -22 60q-21 27 -51 45t-64 27q-38 10 -58 10q-67 0 -121 -54q-48 -51 -83 -128q-36 -80 -61 -163q-26 -86 -39 -165q-13 -77 -13 -131zM430 1237q0 4 4 8l227 221q12 12 20 16q10 5 26 5h159q25 0 37 -21l133 -213q6 -11 6 -14q0 -10 -14 -10 h-90q-12 0 -18 3q-9 4 -15 13l-121 137q-7 7 -10 7q-1 0 -14 -9l-162 -137q-15 -14 -41 -14h-113q-14 0 -14 8z" />
<glyph unicode="&#xe3;" horiz-adv-x="1257" d="M49 283q0 119 39 257t111 255q49 79 106 136q55 54 117 92q59 35 121 52q63 17 118 17q51 0 100 -11q54 -12 84 -23l66 -24q27 -10 47 -10q27 0 44 10t31 24q11 11 28 23q16 11 33 11q22 0 32 -15q11 -16 11 -30q0 -5 -9 -55q-5 -26 -20 -99l-28 -125l-29 -131l-29 -131 q-1 -6 -26 -123q-6 -28 -18 -103q-7 -43 -7 -71q0 -23 8 -41q7 -16 29 -16q16 0 31 9q20 12 30 20q18 14 29 21q15 9 28 9q18 0 26 -11q9 -12 9 -26q0 -21 -18 -45q-45 -64 -121 -109q-73 -43 -145 -43q-46 0 -76 15q-32 16 -49 39q-19 25 -26 57q-7 31 -7 70q0 34 5 81 q4 37 11 72q0 5 1 6t1 5v2q0 4 -4 4q-2 0 -10 -13q-29 -51 -82 -119q-48 -62 -104 -109q-59 -50 -122 -79q-67 -31 -134 -31q-111 0 -171 81q-61 82 -61 225zM322 326q0 -26 3 -51t12 -48q9 -22 25 -37q15 -14 46 -14q52 0 120 66q70 69 146 188q37 57 68 119q33 66 51 111 q17 43 30 96q11 46 11 69q0 32 -22 60q-21 27 -51 45t-64 27q-38 10 -58 10q-67 0 -121 -54q-48 -51 -83 -128q-36 -80 -61 -163q-26 -86 -39 -165q-13 -77 -13 -131zM381 1309q0 14 10 37l19 38q66 127 188 127q63 0 143 -32q60 -23 99 -36q38 -13 71 -13q31 0 54 15 q22 15 45 50q7 14 20 14q4 0 19 -4l28 -8q17 -5 17 -18q0 -9 -10 -32q-12 -28 -15 -34q-38 -74 -84 -104q-48 -31 -106 -31q-41 0 -84 12q-35 10 -90 31q-53 20 -81 29q-33 10 -61 10q-32 0 -54 -19q-21 -18 -38 -49q-11 -18 -22 -18q-6 0 -17 4l-37 12q-14 6 -14 19z" />
<glyph unicode="&#xe4;" horiz-adv-x="1257" d="M49 283q0 119 39 257t111 255q49 79 106 136q55 54 117 92q59 35 121 52q63 17 118 17q51 0 100 -11q54 -12 84 -23l66 -24q27 -10 47 -10q27 0 44 10t31 24q11 11 28 23q16 11 33 11q22 0 32 -15q11 -16 11 -30q0 -5 -9 -55q-5 -26 -20 -99l-28 -125l-29 -131l-29 -131 q-1 -6 -26 -123q-6 -28 -18 -103q-7 -43 -7 -71q0 -23 8 -41q7 -16 29 -16q16 0 31 9q20 12 30 20q18 14 29 21q15 9 28 9q18 0 26 -11q9 -12 9 -26q0 -21 -18 -45q-45 -64 -121 -109q-73 -43 -145 -43q-46 0 -76 15q-32 16 -49 39q-19 25 -26 57q-7 31 -7 70q0 34 5 81 q4 37 11 72q0 5 1 6t1 5v2q0 4 -4 4q-2 0 -10 -13q-29 -51 -82 -119q-48 -62 -104 -109q-59 -50 -122 -79q-67 -31 -134 -31q-111 0 -171 81q-61 82 -61 225zM322 326q0 -26 3 -51t12 -48q9 -22 25 -37q15 -14 46 -14q52 0 120 66q70 69 146 188q37 57 68 119q33 66 51 111 q17 43 30 96q11 46 11 69q0 32 -22 60q-21 27 -51 45t-64 27q-38 10 -58 10q-67 0 -121 -54q-48 -51 -83 -128q-36 -80 -61 -163q-26 -86 -39 -165q-13 -77 -13 -131zM444 1331q0 17 5 40q6 28 10 41q6 20 15 36q10 18 20 25q12 10 41 15q32 5 57 5q66 0 82 -13t16 -46 q0 -21 -4 -40q-6 -28 -10 -41q-5 -16 -14 -36q-8 -17 -19 -25q-14 -10 -41 -16t-55 -6q-61 0 -81 14q-22 16 -22 47zM829 1331q0 17 5 40q6 28 10 41q6 20 15 36q10 18 20 25q12 10 41 15q32 5 57 5q66 0 82 -13t16 -46q0 -21 -4 -40q-6 -28 -10 -41q-5 -16 -14 -36 q-8 -17 -19 -25q-14 -10 -41 -16t-55 -6q-61 0 -81 14q-22 16 -22 47z" />
<glyph unicode="&#xe5;" horiz-adv-x="1257" d="M49 283q0 119 39 257t111 255q49 79 106 136q55 54 117 92q59 35 121 52q63 17 118 17q51 0 100 -11q54 -12 84 -23l66 -24q27 -10 47 -10q27 0 44 10t31 24q11 11 28 23q16 11 33 11q22 0 32 -15q11 -16 11 -30q0 -5 -9 -55q-5 -26 -20 -99l-28 -125l-29 -131l-29 -131 q-1 -6 -26 -123q-6 -28 -18 -103q-7 -43 -7 -71q0 -23 8 -41q7 -16 29 -16q16 0 31 9q20 12 30 20q18 14 29 21q15 9 28 9q18 0 26 -11q9 -12 9 -26q0 -21 -18 -45q-45 -64 -121 -109q-73 -43 -145 -43q-46 0 -76 15q-32 16 -49 39q-19 25 -26 57q-7 31 -7 70q0 34 5 81 q4 37 11 72q0 5 1 6t1 5v2q0 4 -4 4q-2 0 -10 -13q-29 -51 -82 -119q-48 -62 -104 -109q-59 -50 -122 -79q-67 -31 -134 -31q-111 0 -171 81q-61 82 -61 225zM322 326q0 -26 3 -51t12 -48q9 -22 25 -37q15 -14 46 -14q52 0 120 66q70 69 146 188q37 57 68 119q33 66 51 111 q17 43 30 96q11 46 11 69q0 32 -22 60q-21 27 -51 45t-64 27q-38 10 -58 10q-67 0 -121 -54q-48 -51 -83 -128q-36 -80 -61 -163q-26 -86 -39 -165q-13 -77 -13 -131zM551 1346q0 78 54 131q55 53 132 53t132 -53t55 -131q0 -76 -55 -129q-56 -54 -132 -54t-132 54 q-54 53 -54 129zM641 1346q0 -41 28 -69t68 -28q41 0 69 28t28 69q0 39 -28 69q-27 29 -69 29q-41 0 -68 -29q-28 -30 -28 -69z" />
<glyph unicode="&#xe6;" horiz-adv-x="1708" d="M12 229q0 74 47 147q47 72 146 122q84 41 175 68q77 23 179 61q35 13 70 31t67 47q32 28 50 61q20 35 20 78q0 59 -41 89t-98 30q-37 0 -70 -12q-36 -13 -61 -29q-26 -17 -53 -40q-16 -14 -42 -40l-72 -85q-32 -38 -65 -38q-27 0 -46 13t-19 46q0 16 5 46q5 28 14 59 q9 30 23 58q15 30 31 46q25 24 73 47q43 21 95 33q51 12 104 18q61 7 95 7q90 0 179 -26q87 -26 147 -103q8 -13 14 -13q1 0 14 8q77 59 169 97q90 37 194 37q55 0 114 -17q60 -17 103 -49q47 -35 73 -82q27 -49 27 -113q0 -76 -53 -153q-52 -76 -172 -129q-87 -38 -181 -52 q-96 -14 -186 -14h-45q-15 0 -45 2q-27 0 -28 -22q-2 -20 -2 -28v-25q0 -144 61 -206q62 -63 152 -63q59 0 111 22t91 48l75 48q36 22 65 22q19 0 33 -14t14 -36t-20 -51q-19 -28 -66 -69q-73 -65 -171 -100q-96 -34 -196 -34q-113 0 -215 50q-101 50 -156 155q-5 8 -10 8 q-4 0 -10 -8q-25 -35 -70 -76q-37 -34 -92 -65q-49 -27 -113 -46q-62 -18 -129 -18q-57 0 -114 17t-98 49q-42 33 -66 79q-25 48 -25 107zM283 258q0 -56 36 -91q37 -36 97 -36q50 0 104 31t94 92q19 30 32 59q10 23 25 67q10 29 20 79q1 6 8.5 40.5t11.5 55.5q0 6 -6 6 q-1 0 -17 -8q-56 -35 -139 -60q-81 -24 -150 -65q-62 -34 -90 -82q-26 -45 -26 -88zM995 633q0 -15 19 -15q117 0 199 20q81 20 139 62q42 29 64 70t22 76q0 52 -35 82t-88 30q-65 0 -123 -38q-57 -39 -110 -107q-52 -67 -85 -166q-2 -10 -2 -14z" />
<glyph unicode="&#xe7;" horiz-adv-x="1017" d="M47 391q0 138 55 263q55 126 149 224q91 96 216 155q124 59 256 59q55 0 120 -13q63 -13 99 -32q43 -21 59 -54q15 -30 15 -71q0 -44 -17 -87q-17 -42 -61 -42q-24 0 -41 10q-20 12 -36 25t-37 36q-20 22 -46 39q-65 49 -137 49q-58 0 -103 -26t-83 -70q-40 -46 -65 -98 q-27 -55 -45 -113q-18 -56 -27 -113q-9 -56 -9 -98q0 -55 14 -108q13 -51 42 -90q29 -40 71 -63t103 -23t105 20q48 22 83 44l67 44q30 21 56 21q17 0 33 -14q14 -13 14 -29q0 -21 -18 -51q-15 -25 -66 -68q-67 -59 -155 -94q-89 -36 -175 -43q-16 -14 -29 -32 q-14 -19 -14 -34q0 -18 33 -26l73 -16q37 -8 72 -29q33 -19 33 -64q0 -36 -21 -66q-21 -31 -61 -55q-39 -24 -90 -39q-48 -14 -110 -14q-3 0 -39 2q-25 1 -55 8q-27 6 -48 18q-20 11 -20 31q0 22 14 33q15 12 35 12q21 0 39 -8t61 -8q47 0 76 18q11 8 20 20t9 27 q0 22 -25 34t-55 20t-55 20t-25 39q0 26 23 57q27 36 47 56q-76 12 -137 47q-60 34 -101 88q-40 51 -63 123q-23 71 -23 149z" />
<glyph unicode="&#xe8;" horiz-adv-x="1064" d="M47 391q0 123 52 246q52 122 143 226q90 101 209 165q120 64 254 64q149 0 236 -75t87 -190q0 -76 -53 -152q-52 -74 -172 -126q-87 -38 -180 -52q-95 -14 -185 -14h-49q-15 0 -51 2q-14 0 -16 -18q-4 -25 -4 -31q-1 -14 -1 -37q0 -47 13 -97q12 -46 39 -82t66 -56 q41 -21 95 -21q62 0 114 22q47 20 90 47l73 47q35 22 63 22q17 0 33 -14q15 -13 15 -34q0 -20 -19 -52q-17 -28 -65 -70q-75 -65 -171 -99q-100 -35 -202 -35q-91 0 -168 30q-75 29 -131 84q-55 54 -85 130q-30 77 -30 170zM352 633q0 -15 19 -15q117 0 199 20q81 20 139 62 q42 29 64 70t22 76q0 52 -35 82q-34 30 -90 30t-105 -28t-90 -74q-44 -49 -72 -99q-31 -55 -47 -104q-4 -11 -4 -20zM391 1470q0 17 27 17h239q33 0 48 -6q11 -4 28 -25l146 -174q10 -11 10 -18q0 -15 -19 -15h-131q-32 0 -45 4q-14 4 -35 19l-256 180q-12 8 -12 18z" />
<glyph unicode="&#xe9;" horiz-adv-x="1064" d="M47 391q0 123 52 246q52 122 143 226q90 101 209 165q120 64 254 64q149 0 236 -75t87 -190q0 -76 -53 -152q-52 -74 -172 -126q-87 -38 -180 -52q-95 -14 -185 -14h-49q-15 0 -51 2q-14 0 -16 -18q-4 -25 -4 -31q-1 -14 -1 -37q0 -47 13 -97q12 -46 39 -82t66 -56 q41 -21 95 -21q62 0 114 22q47 20 90 47l73 47q35 22 63 22q17 0 33 -14q15 -13 15 -34q0 -20 -19 -52q-17 -28 -65 -70q-75 -65 -171 -99q-100 -35 -202 -35q-91 0 -168 30q-75 29 -131 84q-55 54 -85 130q-30 77 -30 170zM352 633q0 -15 19 -15q117 0 199 20q81 20 139 62 q42 29 64 70t22 76q0 52 -35 82q-34 30 -90 30t-105 -28t-90 -74q-44 -49 -72 -99q-31 -55 -47 -104q-4 -11 -4 -20zM426 1260q0 4 8 12l217 184q22 17 37 24t51 7h246q25 0 25 -14q0 -9 -13 -17l-325 -184q-26 -14 -43 -19q-15 -4 -49 -4h-140q-14 0 -14 11z" />
<glyph unicode="&#xea;" horiz-adv-x="1064" d="M47 391q0 123 52 246q52 122 143 226q90 101 209 165q120 64 254 64q149 0 236 -75t87 -190q0 -76 -53 -152q-52 -74 -172 -126q-87 -38 -180 -52q-95 -14 -185 -14h-49q-15 0 -51 2q-14 0 -16 -18q-4 -25 -4 -31q-1 -14 -1 -37q0 -47 13 -97q12 -46 39 -82t66 -56 q41 -21 95 -21q62 0 114 22q47 20 90 47l73 47q35 22 63 22q17 0 33 -14q15 -13 15 -34q0 -20 -19 -52q-17 -28 -65 -70q-75 -65 -171 -99q-100 -35 -202 -35q-91 0 -168 30q-75 29 -131 84q-55 54 -85 130q-30 77 -30 170zM346 1237q0 4 4 8l228 221q13 13 19 16q10 5 26 5 h159q25 0 37 -21l133 -213q6 -11 6 -14q0 -10 -14 -10h-90q-12 0 -18 3q-9 4 -15 13l-121 137q-7 7 -10 7q-1 0 -14 -9l-162 -137q-15 -14 -41 -14h-113q-14 0 -14 8zM352 633q0 -15 19 -15q117 0 199 20q81 20 139 62q42 29 64 70t22 76q0 52 -35 82q-34 30 -90 30 t-105 -28t-90 -74q-44 -49 -72 -99q-31 -55 -47 -104q-4 -11 -4 -20z" />
<glyph unicode="&#xeb;" horiz-adv-x="1064" d="M47 391q0 123 52 246q52 122 143 226q90 101 209 165q120 64 254 64q149 0 236 -75t87 -190q0 -76 -53 -152q-52 -74 -172 -126q-87 -38 -180 -52q-95 -14 -185 -14h-49q-15 0 -51 2q-14 0 -16 -18q-4 -25 -4 -31q-1 -14 -1 -37q0 -47 13 -97q12 -46 39 -82t66 -56 q41 -21 95 -21q62 0 114 22q47 20 90 47l73 47q35 22 63 22q17 0 33 -14q15 -13 15 -34q0 -20 -19 -52q-17 -28 -65 -70q-75 -65 -171 -99q-100 -35 -202 -35q-91 0 -168 30q-75 29 -131 84q-55 54 -85 130q-30 77 -30 170zM352 633q0 -15 19 -15q117 0 199 20q81 20 139 62 q42 29 64 70t22 76q0 52 -35 82q-34 30 -90 30t-105 -28t-90 -74q-44 -49 -72 -99q-31 -55 -47 -104q-4 -11 -4 -20zM352 1331q0 21 4 40q4 17 11 41q6 20 15 36q10 19 19 25q12 10 41 15q32 5 58 5q66 0 82 -13t16 -46q0 -21 -4 -40q-6 -28 -10 -41q-3 -9 -15 -36 q-8 -18 -18 -25q-14 -10 -41 -16t-55 -6q-61 0 -81 14q-22 16 -22 47zM737 1331q0 21 4 40q4 17 11 41q6 20 15 36q10 19 19 25q12 10 41 15q32 5 58 5q66 0 82 -13t16 -46q0 -21 -4 -40q-6 -28 -10 -41q-3 -9 -15 -36q-8 -18 -18 -25q-14 -10 -41 -16t-55 -6q-61 0 -81 14 q-22 16 -22 47z" />
<glyph unicode="&#xec;" horiz-adv-x="649" d="M98 969q0 47 84 55q142 18 267 61q21 7 34 7q52 0 52 -45q0 -2 -1.5 -8t-1.5 -9l-118 -594l-30 -148q-11 -52 -11 -87q0 -20 7 -35q7 -16 30 -16q16 0 31 9q24 14 31 20l29 21q13 9 27 9t25 -9q10 -9 10 -26q0 -20 -18 -49t-56 -59q-42 -36 -97 -62q-57 -27 -113 -27 q-80 0 -122 50q-42 49 -42 135q0 23 3 47q3 26 9 59l90 449q10 48 13 65q6 40 6 54q0 51 -43 67q-9 4 -19.5 8t-23.5 8.5t-20 7.5q-32 12 -32 42zM145 1470q0 17 27 17h240q32 0 47 -6q11 -4 28 -25l146 -174q10 -11 10 -18q0 -15 -18 -15h-131q-32 0 -45 4q-14 4 -35 19 l-256 180q-13 8 -13 18z" />
<glyph unicode="&#xed;" horiz-adv-x="649" d="M98 969q0 47 84 55q142 18 267 61q21 7 34 7q52 0 52 -45q0 -2 -1.5 -8t-1.5 -9l-118 -594l-30 -148q-11 -52 -11 -87q0 -20 7 -35q7 -16 30 -16q16 0 31 9q24 14 31 20l29 21q13 9 27 9t25 -9q10 -9 10 -26q0 -20 -18 -49t-56 -59q-42 -36 -97 -62q-57 -27 -113 -27 q-80 0 -122 50q-42 49 -42 135q0 23 3 47q3 26 9 59l90 449q10 48 13 65q6 40 6 54q0 51 -43 67q-9 4 -19.5 8t-23.5 8.5t-20 7.5q-32 12 -32 42zM109 1260q0 4 8 12l217 184q22 17 37 24t51 7h246q24 0 24 -14q0 -10 -12 -17l-326 -184q-26 -14 -43 -19q-15 -4 -49 -4h-139 q-14 0 -14 11z" />
<glyph unicode="&#xee;" horiz-adv-x="649" d="M96 1237q0 4 4 8l228 221q13 13 19 16q10 5 26 5h159q25 0 37 -21l133 -213q7 -12 7 -14q0 -10 -15 -10h-90q-12 0 -18 3q-9 4 -15 13l-120 137q-7 7 -11 7q-1 0 -14 -9l-162 -137q-15 -14 -41 -14h-112q-15 0 -15 8zM98 969q0 47 84 55q142 18 267 61q21 7 34 7 q52 0 52 -45q0 -2 -1.5 -8t-1.5 -9l-118 -594l-30 -148q-11 -52 -11 -87q0 -20 7 -35q7 -16 30 -16q16 0 31 9q24 14 31 20l29 21q13 9 27 9t25 -9q10 -9 10 -26q0 -20 -18 -49t-56 -59q-42 -36 -97 -62q-57 -27 -113 -27q-80 0 -122 50q-42 49 -42 135q0 23 3 47q3 26 9 59 l90 449q10 48 13 65q6 40 6 54q0 51 -43 67q-9 4 -19.5 8t-23.5 8.5t-20 7.5q-32 12 -32 42z" />
<glyph unicode="&#xef;" horiz-adv-x="649" d="M98 969q0 47 84 55q142 18 267 61q21 7 34 7q52 0 52 -45q0 -2 -1.5 -8t-1.5 -9l-118 -594l-30 -148q-11 -52 -11 -87q0 -20 7 -35q7 -16 30 -16q16 0 31 9q24 14 31 20l29 21q13 9 27 9t25 -9q10 -9 10 -26q0 -20 -18 -49t-56 -59q-42 -36 -97 -62q-57 -27 -113 -27 q-80 0 -122 50q-42 49 -42 135q0 23 3 47q3 26 9 59l90 449q10 48 13 65q6 40 6 54q0 51 -43 67q-9 4 -19.5 8t-23.5 8.5t-20 7.5q-32 12 -32 42zM109 1331q0 21 4 40q6 28 10 41q6 20 15 36q10 18 20 25q12 10 41 15q32 5 57 5q66 0 82 -13t16 -46q0 -21 -4 -40 q-6 -28 -10 -41q-5 -16 -14 -36q-8 -17 -19 -25q-14 -10 -41 -16t-55 -6q-61 0 -81 14q-21 15 -21 47zM494 1331q0 21 4 40q6 28 10 41q6 20 15 36q10 18 20 25q12 10 41 15q32 5 57 5q66 0 82 -13t16 -46q0 -21 -4 -40q-6 -28 -10 -41q-5 -16 -14 -36q-8 -17 -19 -25 q-14 -10 -41 -16t-55 -6q-61 0 -81 14q-21 15 -21 47z" />
<glyph unicode="&#xf0;" horiz-adv-x="1144" d="M41 371q0 116 43 220q44 107 119 186q77 82 176 129q101 48 217 48q84 0 123 -20q41 -21 51 -21q8 0 8 9q0 2 -2 12q-7 25 -31 82q-24 55 -61 104q-11 13 -16 13q-3 0 -17 -7l-159 -92q-18 -8 -25 -8q-15 0 -29 14l-45 43q-10 10 -10 21q0 10 16 20l150 88q8 6 8 11 q0 4 -8 12q-38 31 -75 44q-32 11 -64 11q-30 0 -48 -3t-47 -3q-18 0 -32 11q-15 12 -15 34q0 24 26 48q24 22 60 46q43 25 84 41q45 17 84 17q72 0 138 -33q68 -34 124 -84q8 -8 19 -8q5 0 16 6l150 88q12 6 22 6q17 0 31 -14l45 -43q10 -10 10 -19q0 -10 -16 -20l-156 -90 q-12 -6 -12 -17q0 -2 8 -18q72 -105 114 -239t42 -281q0 -178 -53 -317q-51 -134 -140 -231q-85 -93 -197 -141q-113 -49 -229 -49q-89 0 -164 29q-74 28 -126 81q-51 51 -79 125q-28 75 -28 159zM311 377q0 -126 49 -196t136 -70q69 0 122 36q57 38 95 100q39 63 60 145 q22 86 22 175q0 120 -49 192q-48 70 -142 70q-78 0 -136 -44q-56 -43 -91 -111t-50 -148q-16 -85 -16 -149z" />
<glyph unicode="&#xf1;" horiz-adv-x="1349" d="M92 8q0 3 2 17l142 692q13 66 13 68q5 33 5 53q0 36 -22 52t-47 23q-16 5 -47 18q-21 9 -21 38q0 25 19 37t65 18q71 11 134 25q78 17 134 36q21 7 33 7q22 0 37 -12q14 -11 14 -33q0 -3 -2 -17l-49 -248l-2 -14q0 -6 4 -6t14 16q101 162 205 237q107 77 221 77 q110 0 170 -65q60 -64 60 -175q0 -57 -17 -153q-18 -103 -37 -190l-37 -182q-16 -83 -16 -126q0 -20 7 -35q7 -16 30 -16q17 0 32 9q20 12 30 20q15 12 30 21t29 9q17 0 24 -10q8 -11 8 -27q0 -23 -20 -49q-22 -28 -55 -57q-40 -35 -95 -62t-112 -27q-79 0 -127 48 q-47 47 -47 133q0 46 16 123q21 103 37 170q18 75 37 176q16 83 16 143q0 58 -20 87q-21 30 -68 30q-58 0 -134 -70q-72 -66 -146 -205q-58 -110 -100 -224q-38 -103 -62 -218q-8 -44 -13 -65l-16 -68q-6 -31 -45 -37l-153 -20q-4 0 -8.5 -1t-6.5 -1.5t-3 -0.5h-5 q-35 0 -35 31zM373 1309q0 14 10 37q7 16 18 38q66 127 189 127q63 0 143 -32q72 -27 98 -36q40 -14 72 -14q29 0 53 16q22 15 45 50q7 14 21 14q3 0 18 -4l29 -8q16 -4 16 -18q0 -11 -9 -32q-12 -28 -15 -34q-38 -74 -84 -104q-48 -31 -107 -31q-40 0 -84 12q-35 10 -90 31 q-53 20 -81 29q-33 10 -60 10q-32 0 -54 -19q-21 -18 -38 -49q-11 -18 -23 -18q-5 0 -16 4l-37 12q-14 6 -14 19z" />
<glyph unicode="&#xf2;" horiz-adv-x="1181" d="M47 414q0 130 50 254q49 121 137 217q85 92 205 150q119 57 255 57q105 0 186 -33q82 -33 134 -90q55 -60 81 -136q27 -79 27 -171q0 -126 -47 -250q-46 -121 -133 -219q-85 -95 -205 -156q-119 -60 -260 -60q-99 0 -180 32q-79 31 -135 89q-54 56 -85 139 q-30 81 -30 177zM322 436q0 -152 53 -240q53 -87 149 -87q71 0 132 44t104 117q41 70 66 172q24 99 24 207q0 162 -56 237q-57 77 -147 77q-72 0 -131 -40q-57 -39 -102 -111q-44 -72 -68 -167q-24 -96 -24 -209zM449 1470q0 17 26 17h240q32 0 47 -6q12 -5 29 -25l145 -174 q10 -11 10 -18q0 -15 -18 -15h-131q-32 0 -45 4q-14 4 -35 19l-256 180q-12 8 -12 18z" />
<glyph unicode="&#xf3;" horiz-adv-x="1181" d="M47 414q0 130 50 254q49 121 137 217q85 92 205 150q119 57 255 57q105 0 186 -33q82 -33 134 -90q55 -60 81 -136q27 -79 27 -171q0 -126 -47 -250q-46 -121 -133 -219q-85 -95 -205 -156q-119 -60 -260 -60q-99 0 -180 32q-79 31 -135 89q-54 56 -85 139 q-30 81 -30 177zM322 436q0 -152 53 -240q53 -87 149 -87q71 0 132 44t104 117q41 70 66 172q24 99 24 207q0 162 -56 237q-57 77 -147 77q-72 0 -131 -40q-57 -39 -102 -111q-44 -72 -68 -167q-24 -96 -24 -209zM391 1260q0 4 8 12l217 184q22 17 37 24t52 7h245 q25 0 25 -14q0 -10 -12 -17l-326 -184q-26 -14 -43 -19q-15 -4 -49 -4h-139q-15 0 -15 11z" />
<glyph unicode="&#xf4;" horiz-adv-x="1181" d="M47 414q0 130 50 254q49 121 137 217q85 92 205 150q119 57 255 57q105 0 186 -33q82 -33 134 -90q55 -60 81 -136q27 -79 27 -171q0 -126 -47 -250q-46 -121 -133 -219q-85 -95 -205 -156q-119 -60 -260 -60q-99 0 -180 32q-79 31 -135 89q-54 56 -85 139 q-30 81 -30 177zM322 436q0 -152 53 -240q53 -87 149 -87q71 0 132 44t104 117q41 70 66 172q24 99 24 207q0 162 -56 237q-57 77 -147 77q-72 0 -131 -40q-57 -39 -102 -111q-44 -72 -68 -167q-24 -96 -24 -209zM383 1237q0 4 4 8l227 221q12 12 20 16q10 5 25 5h160 q25 0 37 -21l133 -213q6 -11 6 -14q0 -10 -14 -10h-90q-13 0 -19 3q-7 4 -14 13l-121 137q-7 7 -10 7q-1 0 -14 -9l-162 -137q-15 -14 -41 -14h-113q-14 0 -14 8z" />
<glyph unicode="&#xf5;" horiz-adv-x="1181" d="M47 414q0 130 50 254q49 121 137 217q85 92 205 150q119 57 255 57q105 0 186 -33q82 -33 134 -90q55 -60 81 -136q27 -79 27 -171q0 -126 -47 -250q-46 -121 -133 -219q-85 -95 -205 -156q-119 -60 -260 -60q-99 0 -180 32q-79 31 -135 89q-54 56 -85 139 q-30 81 -30 177zM322 436q0 -152 53 -240q53 -87 149 -87q71 0 132 44t104 117q41 70 66 172q24 99 24 207q0 162 -56 237q-57 77 -147 77q-72 0 -131 -40q-57 -39 -102 -111q-44 -72 -68 -167q-24 -96 -24 -209zM356 1309q0 12 11 37q7 16 18 38q66 127 188 127 q64 0 144 -32q72 -27 98 -36q38 -13 72 -13q31 0 53 15t45 50q7 14 21 14q3 0 18 -4l29 -8q16 -4 16 -18q0 -11 -9 -32q-6 -14 -16 -34q-38 -75 -83 -104q-48 -31 -107 -31q-40 0 -84 12q-35 10 -90 31q-53 20 -81 29q-33 10 -60 10q-33 0 -55 -19q-21 -18 -38 -49 q-10 -18 -22 -18q-5 0 -16 4l-37 12q-15 6 -15 19z" />
<glyph unicode="&#xf6;" horiz-adv-x="1181" d="M47 414q0 130 50 254q49 121 137 217q85 92 205 150q119 57 255 57q105 0 186 -33q82 -33 134 -90q55 -60 81 -136q27 -79 27 -171q0 -126 -47 -250q-46 -121 -133 -219q-85 -95 -205 -156q-119 -60 -260 -60q-99 0 -180 32q-79 31 -135 89q-54 56 -85 139 q-30 81 -30 177zM322 436q0 -152 53 -240q53 -87 149 -87q71 0 132 44t104 117q41 70 66 172q24 99 24 207q0 162 -56 237q-57 77 -147 77q-72 0 -131 -40q-57 -39 -102 -111q-44 -72 -68 -167q-24 -96 -24 -209zM377 1331q0 21 4 40q6 28 10 41q5 15 16 36q10 19 19 25 q12 10 41 15q32 5 57 5q66 0 82 -13q17 -14 17 -46q0 -21 -4 -40q-4 -17 -11 -41q-5 -16 -14 -36q-8 -18 -18 -25q-14 -10 -41 -16t-56 -6q-61 0 -81 14q-21 15 -21 47zM762 1331q0 21 4 40q6 28 10 41q5 15 16 36q10 19 19 25q12 10 41 15q32 5 57 5q66 0 82 -13 q17 -14 17 -46q0 -21 -4 -40q-4 -17 -11 -41q-5 -16 -14 -36q-8 -18 -18 -25q-14 -10 -41 -16t-56 -6q-61 0 -81 14q-21 15 -21 47z" />
<glyph unicode="&#xf7;" horiz-adv-x="1462" d="M197 690v82q0 27 26 27h1016q27 0 27 -27v-82q0 -26 -27 -26h-1016q-26 0 -26 26zM596 408q0 57 40 97t95 40q57 0 96 -40t39 -97q0 -56 -39 -96t-96 -40q-55 0 -95 40t-40 96zM596 1061q0 55 40 95t95 40q57 0 97 -40t40 -95q0 -57 -40 -96t-97 -39q-55 0 -95 39t-40 96 z" />
<glyph unicode="&#xf8;" horiz-adv-x="1228" d="M-25 10q0 3 7 10l151 146q-63 108 -63 248q0 141 53 267q51 121 142 215q86 89 206 143q118 53 244 53q88 0 161 -25q66 -23 121 -66l54 50q9 9 19 14q8 4 26 4h125q14 0 14 -10q0 -4 -6 -10l-148 -144q62 -103 62 -243q0 -139 -49 -262q-48 -121 -136 -218 q-84 -93 -204 -149t-256 -56q-75 0 -147 21q-73 21 -134 72l-55 -52q-18 -18 -45 -18h-127q-15 0 -15 10zM344 453q0 -27 1 -40q2 -26 3 -38l490 471q-52 117 -168 117q-80 0 -141 -47q-61 -48 -101 -118q-41 -73 -62 -164q-22 -96 -22 -181zM379 227q28 -60 68 -88 q42 -30 100 -30q73 0 133 45q59 44 101 118q43 75 65 167q22 91 22 190v35q0 17 -4 32z" />
<glyph unicode="&#xf9;" horiz-adv-x="1347" d="M111 967q0 47 84 59q135 16 264 59q21 7 35 7q51 0 51 -45q0 -3 -2 -17l-117 -567q-23 -109 -23 -168q0 -57 22 -85t71 -28q60 0 132 69t144 204q55 104 99 225q41 112 63 219l29 133q6 31 45 37l170 23q5 0 8 1t6 1h4q25 0 25 -23l-2 -14l-134 -645q-14 -64 -25 -127 q-9 -49 -9 -80q0 -22 7 -37q7 -16 29 -16q19 0 34 9q20 12 30 19l28 20q13 9 29 9q14 0 25 -9q10 -9 10 -26q0 -40 -76 -106q-44 -38 -95 -63q-56 -28 -114 -28q-85 0 -123 53t-38 144q0 32 4 57q1 7 3.5 26t4.5 28l2 14q0 6 -4 6q-3 0 -8 -6q-96 -159 -205 -241 q-108 -81 -225 -81q-110 0 -170 66t-60 176q0 54 17 148q19 103 37 186l36 175q17 83 17 116q0 31 -22 47q-17 12 -46 23q-13 5 -46 19q-21 9 -21 34zM475 1470q0 17 27 17h239q32 0 47 -6q12 -5 29 -25l146 -174q10 -11 10 -18q0 -15 -19 -15h-131q-32 0 -45 4 q-14 4 -35 19l-256 180q-12 8 -12 18z" />
<glyph unicode="&#xfa;" horiz-adv-x="1347" d="M111 967q0 47 84 59q135 16 264 59q21 7 35 7q51 0 51 -45q0 -3 -2 -17l-117 -567q-23 -109 -23 -168q0 -57 22 -85t71 -28q60 0 132 69t144 204q55 104 99 225q41 112 63 219l29 133q6 31 45 37l170 23q5 0 8 1t6 1h4q25 0 25 -23l-2 -14l-134 -645q-14 -64 -25 -127 q-9 -49 -9 -80q0 -22 7 -37q7 -16 29 -16q19 0 34 9q20 12 30 19l28 20q13 9 29 9q14 0 25 -9q10 -9 10 -26q0 -40 -76 -106q-44 -38 -95 -63q-56 -28 -114 -28q-85 0 -123 53t-38 144q0 32 4 57q1 7 3.5 26t4.5 28l2 14q0 6 -4 6q-3 0 -8 -6q-96 -159 -205 -241 q-108 -81 -225 -81q-110 0 -170 66t-60 176q0 54 17 148q19 103 37 186l36 175q17 83 17 116q0 31 -22 47q-17 12 -46 23q-13 5 -46 19q-21 9 -21 34zM500 1260q0 4 8 12l217 184q22 17 37 24t51 7h246q24 0 24 -14q0 -10 -12 -17l-326 -184q-26 -14 -43 -19q-15 -4 -49 -4 h-139q-14 0 -14 11z" />
<glyph unicode="&#xfb;" horiz-adv-x="1347" d="M111 967q0 47 84 59q135 16 264 59q21 7 35 7q51 0 51 -45q0 -3 -2 -17l-117 -567q-23 -109 -23 -168q0 -57 22 -85t71 -28q60 0 132 69t144 204q55 104 99 225q41 112 63 219l29 133q6 31 45 37l170 23q5 0 8 1t6 1h4q25 0 25 -23l-2 -14l-134 -645q-14 -64 -25 -127 q-9 -49 -9 -80q0 -22 7 -37q7 -16 29 -16q19 0 34 9q20 12 30 19l28 20q13 9 29 9q14 0 25 -9q10 -9 10 -26q0 -40 -76 -106q-44 -38 -95 -63q-56 -28 -114 -28q-85 0 -123 53t-38 144q0 32 4 57q1 7 3.5 26t4.5 28l2 14q0 6 -4 6q-3 0 -8 -6q-96 -159 -205 -241 q-108 -81 -225 -81q-110 0 -170 66t-60 176q0 54 17 148q19 103 37 186l36 175q17 83 17 116q0 31 -22 47q-17 12 -46 23q-13 5 -46 19q-21 9 -21 34zM453 1237q0 4 4 8l227 221q13 13 19 16q10 5 26 5h160q25 0 37 -21l133 -213q6 -11 6 -14q0 -10 -14 -10h-90q-13 0 -19 3 q-7 4 -14 13l-121 137q-7 7 -10 7q-2 0 -15 -9l-161 -137q-15 -14 -41 -14h-113q-14 0 -14 8z" />
<glyph unicode="&#xfc;" horiz-adv-x="1347" d="M111 967q0 47 84 59q135 16 264 59q21 7 35 7q51 0 51 -45q0 -3 -2 -17l-117 -567q-23 -109 -23 -168q0 -57 22 -85t71 -28q60 0 132 69t144 204q55 104 99 225q41 112 63 219l29 133q6 31 45 37l170 23q5 0 8 1t6 1h4q25 0 25 -23l-2 -14l-134 -645q-14 -64 -25 -127 q-9 -49 -9 -80q0 -22 7 -37q7 -16 29 -16q19 0 34 9q20 12 30 19l28 20q13 9 29 9q14 0 25 -9q10 -9 10 -26q0 -40 -76 -106q-44 -38 -95 -63q-56 -28 -114 -28q-85 0 -123 53t-38 144q0 32 4 57q1 7 3.5 26t4.5 28l2 14q0 6 -4 6q-3 0 -8 -6q-96 -159 -205 -241 q-108 -81 -225 -81q-110 0 -170 66t-60 176q0 54 17 148q19 103 37 186l36 175q17 83 17 116q0 31 -22 47q-17 12 -46 23q-13 5 -46 19q-21 9 -21 34zM451 1331q0 21 4 40q6 28 10 41q6 20 15 36q10 18 20 25q12 10 41 15q32 5 57 5q66 0 82 -13t16 -46q0 -21 -4 -40 q-6 -28 -10 -41q-5 -16 -14 -36q-8 -17 -19 -25q-14 -10 -41 -16t-55 -6q-61 0 -81 14q-21 15 -21 47zM836 1331q0 21 4 40q6 28 10 41q6 20 15 36q10 18 20 25q12 10 41 15q32 5 57 5q66 0 82 -13t16 -46q0 -21 -4 -40q-6 -28 -10 -41q-5 -16 -14 -36q-8 -17 -19 -25 q-14 -10 -41 -16t-55 -6q-61 0 -81 14q-21 15 -21 47z" />
<glyph unicode="&#xfd;" horiz-adv-x="1114" d="M-209 -188q0 42 18 69t56 27q26 0 49 -20l50 -44q27 -24 64 -44q35 -19 87 -19q71 0 136 39t130 94q12 12 12 20q0 7 -1 10l-3 15l-40 197l-50 229q-27 117 -54 222q-28 108 -48 173q-22 65 -41 90q-18 24 -62 35q-5 1 -22 5q-8 2 -24 8q-12 5 -19 14q-9 13 -9 29 q0 36 52 53l95 29q50 16 95 36q29 13 53 13q52 0 70 -56q16 -42 33 -103q26 -90 37 -137l37 -157l35 -162q8 -35 32 -153l25 -129q5 -11 10 -11q3 0 7 2l13 13q60 83 108 170q44 81 79 162q31 71 49 141q16 61 16 104q0 52 -18 73t-41 35q-33 20 -42 26q-20 14 -20 46 q1 34 34 65q31 29 93 52q19 8 53 14q30 5 52 5q72 0 96 -41q25 -42 25 -88q0 -71 -33 -180q-33 -110 -94 -239q-59 -125 -152 -274q-86 -137 -205 -280q-159 -189 -314 -286q-159 -99 -296 -99q-89 0 -151 51t-62 156zM387 1260q0 4 8 12l217 184q22 17 37 24t51 7h246 q25 0 25 -14q0 -9 -13 -17l-325 -184q-26 -14 -43 -19q-15 -4 -49 -4h-140q-14 0 -14 11z" />
<glyph unicode="&#xfe;" horiz-adv-x="1273" d="M-94 -354q0 20 10 30q12 12 27 19l37 18q20 10 38 31q34 38 51 92q16 48 35 150l238 1171q10 48 13 65q5 33 5 58q0 34 -21 49q-20 14 -46 24q-32 12 -46 19q-22 11 -22 35q0 45 84 57q131 15 264 60q18 6 35 6q24 0 36 -11q13 -12 13 -34q0 -3 -2 -17l-141 -698 q-4 -19 -4 -22q0 -7 4 -7t10 11q44 75 102 143q62 73 132 123q51 34 105 54q55 20 106 20q63 0 107 -26q43 -25 71 -67q27 -40 39 -94q12 -52 12 -110q0 -116 -41 -259q-40 -138 -115 -264q-52 -83 -110 -141q-55 -55 -116 -91q-54 -32 -117 -48q-59 -15 -111 -15 q-41 0 -79 8q-40 8 -64 15q-29 8 -47 15q-21 8 -25 8q-9 0 -11 -13q-12 -61 -23 -128q-7 -43 -7 -72q0 -49 16 -69t35 -33q5 -3 17 -10.5t18 -11.5q16 -12 16 -36q0 -45 -80 -45h-381q-67 0 -67 41zM414 242q0 -36 22 -61q21 -24 53 -43q27 -16 65 -26t56 -10q68 0 119 54 q43 43 79 116q33 68 62 159q27 86 42 169q16 90 16 148q0 20 -3 46q-3 23 -13 47t-26 37q-18 15 -46 15q-58 0 -124 -69q-71 -74 -141 -183q-37 -57 -68 -119q-27 -55 -50 -113q-17 -44 -32 -98q-11 -40 -11 -69z" />
<glyph unicode="&#xff;" horiz-adv-x="1114" d="M-209 -188q0 42 18 69t56 27q26 0 49 -20l50 -44q27 -24 64 -44q35 -19 87 -19q71 0 136 39t130 94q12 12 12 20q0 7 -1 10l-3 15l-40 197l-50 229q-27 117 -54 222q-28 108 -48 173q-22 65 -41 90q-18 24 -62 35q-5 1 -22 5q-8 2 -24 8q-12 5 -19 14q-9 13 -9 29 q0 36 52 53l95 29q50 16 95 36q29 13 53 13q52 0 70 -56q16 -42 33 -103q26 -90 37 -137l37 -157l35 -162q8 -35 32 -153l25 -129q5 -11 10 -11q3 0 7 2l13 13q60 83 108 170q44 81 79 162q31 71 49 141q16 61 16 104q0 52 -18 73t-41 35q-33 20 -42 26q-20 14 -20 46 q1 34 34 65q31 29 93 52q19 8 53 14q30 5 52 5q72 0 96 -41q25 -42 25 -88q0 -71 -33 -180q-33 -110 -94 -239q-59 -125 -152 -274q-86 -137 -205 -280q-159 -189 -314 -286q-159 -99 -296 -99q-89 0 -151 51t-62 156zM317 1331q0 17 5 40q6 28 10 41q6 20 15 36 q10 18 20 25q12 10 41 15q32 5 57 5q66 0 82 -13t16 -46q0 -21 -4 -40q-6 -28 -10 -41q-5 -16 -14 -36q-8 -17 -19 -25q-14 -10 -41 -16t-55 -6q-61 0 -81 14q-22 16 -22 47zM702 1331q0 17 5 40q6 28 10 41q6 20 15 36q10 18 20 25q12 10 41 15q32 5 57 5q66 0 82 -13 t16 -46q0 -21 -4 -40q-6 -28 -10 -41q-5 -16 -14 -36q-8 -17 -19 -25q-14 -10 -41 -16t-55 -6q-61 0 -81 14q-22 16 -22 47z" />
<glyph unicode="&#x152;" horiz-adv-x="2078" d="M72 612q0 169 69 325q69 155 193 278q125 124 292 196q171 74 369 74q53 0 90 -3q29 -2 67 -8q7 -1 26.5 -4.5t29.5 -4.5q27 -3 60 -3h360q147 0 253 8q119 9 151 9q38 0 57 -11q18 -10 18 -47v-9q0 -1 -2 -15l-23 -131l-24 -138q-6 -42 -25 -60q-18 -17 -51 -17 q-30 0 -44 17t-25 58q-9 34 -27 80q-16 43 -63 76q-46 29 -119 35q-74 6 -178 6h-80q-31 0 -43 -12t-17 -37l-77 -387q-2 -14 -2 -19q0 -30 45 -30h96q59 0 106 4q56 4 105 9q55 5 80 5q26 0 51 -5q22 -4 22 -32q0 -16 -7 -29q-6 -10 -11 -30q-6 -21 -14 -38q-8 -16 -22 -25 t-36 -12t-59 -3q-32 0 -94 2q-18 1 -46.5 2.5t-35.5 1.5q-70 2 -102 2h-87q-30 0 -34 -28l-58 -279q-3 -17 -9 -50.5t-9 -47.5q-8 -43 -8 -70q0 -47 31 -62q34 -16 104 -16q112 0 193 19q78 18 127 48q54 32 81 64q40 46 56 68q37 50 56 73q21 25 60 25q28 0 45 -17 q19 -19 19 -46q0 -32 -21 -82q-21 -48 -34 -96q-16 -61 -23 -82q-12 -38 -30 -65q-19 -29 -50 -44q-32 -16 -80 -16q-12 0 -52 2l-72 5q-54 4 -98 5q-76 2 -132 2h-393q-22 0 -43 -3q-8 -1 -26 -4l-24 -4q-35 -6 -67 -8q-52 -4 -96 -4q-130 0 -249 45q-116 44 -203 126 q-88 83 -137 201q-50 120 -50 263zM365 586q0 -114 26 -196q26 -83 75 -144q47 -59 115 -90t146 -31q23 0 55 5q29 5 54 17q23 11 42 34q16 19 23 52l203 1004q2 14 2 18q0 48 -47 69q-49 22 -113 22q-115 0 -222 -61q-106 -61 -185 -165q-82 -108 -127 -242 q-47 -139 -47 -292z" />
<glyph unicode="&#x153;" horiz-adv-x="1841" d="M47 414q0 130 50 254q49 121 137 217q85 92 205 150q119 57 255 57q126 0 219 -55q95 -56 146 -142q88 88 196 142q110 55 228 55q149 0 236 -75t87 -190q0 -76 -53 -152q-52 -74 -172 -126q-87 -38 -180 -52q-95 -14 -184 -14h-50q-15 0 -51 2q-14 0 -16 -18 q-2 -11 -3 -31q-1 -14 -1 -37q0 -51 12 -97t39 -82t66 -56q41 -21 96 -21q61 0 113 22q47 20 90 47l73 47q35 22 64 22q16 0 32 -14q15 -13 15 -34q0 -20 -19 -52q-17 -28 -65 -70q-75 -65 -171 -99q-100 -35 -202 -35q-96 0 -188 46q-89 45 -150 131q-86 -81 -191 -128 q-110 -49 -233 -49q-99 0 -180 32q-79 31 -135 89q-54 56 -85 139q-30 81 -30 177zM322 436q0 -152 53 -240q53 -87 149 -87q71 0 132 44t104 117q41 70 66 172q24 99 24 207q0 162 -56 237q-57 77 -147 77q-72 0 -131 -40q-57 -39 -102 -111q-44 -72 -68 -167 q-24 -96 -24 -209zM1130 633q0 -15 19 -15q118 0 200 20q79 19 138 62q42 29 64 70t22 76q0 52 -35 82q-34 30 -90 30t-105 -28t-90 -74q-42 -46 -71 -99q-31 -55 -47 -104q-5 -13 -5 -20z" />
<glyph unicode="&#x178;" horiz-adv-x="1419" d="M129 1417q0 21 22 34q19 11 56 11h385q57 0 57 -41q0 -19 -16 -31q-15 -11 -37 -22q-21 -10 -37 -28q-16 -17 -16 -50q0 -35 18 -86l164 -467q6 -18 12 -18q4 0 19 16l55 67l71 87l76 96l76 96q62 83 96 138q35 56 35 86q0 27 -12 40q-8 9 -26 23l-25 21q-12 11 -12 28 q0 45 71 45h342q62 0 62 -41q0 -18 -15 -30q-20 -16 -32 -23q-52 -32 -61 -38q-29 -21 -60 -50q-34 -32 -73 -78l-89 -104l-77 -91l-118 -142l-126 -152l-105 -127q-9 -12 -10 -25l-37 -176q-16 -72 -20 -111q-5 -45 -5 -63q0 -49 17 -72q17 -24 37 -35l36 -22 q17 -11 17 -35q0 -27 -21 -37q-20 -10 -55 -10h-430q-57 0 -57 45q0 25 17 36q12 8 40 21q59 28 82 70q4 7 13 25q10 20 16 39q10 32 17 60q6 24 19 89l21 104q4 19 4 25q0 5 -8 31l-217 626q-20 56 -38 101q-13 33 -32 57q-17 20 -30 28l-27 16q-14 9 -21 17q-8 10 -8 27z M598 1667q0 21 4 40q6 28 10 41q5 15 16 36q9 17 19 24q13 12 41 16q32 5 57 5q66 0 82 -13q17 -14 17 -47q0 -20 -4 -39q-4 -17 -11 -41q-5 -16 -14 -36q-8 -18 -18 -25q-14 -10 -41 -16t-56 -6q-60 0 -80 14q-22 16 -22 47zM983 1667q0 21 4 40q6 28 10 41q5 15 16 36 q9 17 19 24q13 12 41 16q32 5 57 5q66 0 82 -13q17 -14 17 -47q0 -20 -4 -39q-4 -17 -11 -41q-5 -16 -14 -36q-8 -18 -18 -25q-14 -10 -41 -16t-56 -6q-60 0 -80 14q-22 16 -22 47z" />
<glyph unicode="&#x2c6;" horiz-adv-x="1064" d="M227 1237q0 4 4 8l228 221q13 13 19 16q10 5 26 5h160q24 0 36 -21l134 -213q6 -11 6 -14q0 -10 -15 -10h-90q-12 0 -18 3q-9 4 -15 13l-120 137q-7 7 -11 7q-1 0 -14 -9l-162 -137q-15 -14 -41 -14h-112q-15 0 -15 8z" />
<glyph unicode="&#x2dc;" horiz-adv-x="1208" d="M618 1309q0 12 11 37q7 16 18 38q66 127 189 127q63 0 143 -32q72 -27 98 -36q38 -13 72 -13q31 0 53 15t45 50q7 14 21 14q3 0 18 -4l29 -8q16 -4 16 -18q0 -11 -9 -32q-12 -28 -15 -34q-38 -74 -84 -104q-48 -31 -107 -31q-40 0 -84 12q-35 10 -90 31q-53 20 -81 29 q-33 10 -60 10q-33 0 -55 -19q-19 -16 -37 -49q-11 -18 -23 -18q-5 0 -16 4l-37 12q-15 6 -15 19z" />
<glyph unicode="&#x2000;" horiz-adv-x="946" />
<glyph unicode="&#x2001;" horiz-adv-x="1892" />
<glyph unicode="&#x2002;" horiz-adv-x="946" />
<glyph unicode="&#x2003;" horiz-adv-x="1892" />
<glyph unicode="&#x2004;" horiz-adv-x="630" />
<glyph unicode="&#x2005;" horiz-adv-x="473" />
<glyph unicode="&#x2006;" horiz-adv-x="315" />
<glyph unicode="&#x2007;" horiz-adv-x="315" />
<glyph unicode="&#x2008;" horiz-adv-x="236" />
<glyph unicode="&#x2009;" horiz-adv-x="378" />
<glyph unicode="&#x200a;" horiz-adv-x="105" />
<glyph unicode="&#x2010;" horiz-adv-x="774" d="M90 485v4v2q1 2 1.5 5t0.5 6l27 127q6 28 33 28h473q26 0 26 -24q0 -3 -2 -17l-26 -127q-6 -26 -33 -26l-475 -2q-25 0 -25 24z" />
<glyph unicode="&#x2011;" horiz-adv-x="774" d="M90 485v4v2q1 2 1.5 5t0.5 6l27 127q6 28 33 28h473q26 0 26 -24q0 -3 -2 -17l-26 -127q-6 -26 -33 -26l-475 -2q-25 0 -25 24z" />
<glyph unicode="&#x2012;" horiz-adv-x="774" d="M90 485v4v2q1 2 1.5 5t0.5 6l27 127q6 28 33 28h473q26 0 26 -24q0 -3 -2 -17l-26 -127q-6 -26 -33 -26l-475 -2q-25 0 -25 24z" />
<glyph unicode="&#x2013;" horiz-adv-x="1513" d="M90 485v4v2q1 2 1.5 5t0.5 6l27 127q6 28 33 28h1212q27 0 27 -24q0 -3 -2 -17l-27 -127q-6 -26 -33 -26l-1214 -2q-25 0 -25 24z" />
<glyph unicode="&#x2014;" horiz-adv-x="2093" d="M90 485v4v2q1 2 1.5 5t0.5 6l27 127q6 28 33 28h1792q26 0 26 -24q0 -3 -2 -17l-26 -127q-6 -26 -33 -26l-1794 -2q-25 0 -25 24z" />
<glyph unicode="&#x2018;" horiz-adv-x="575" d="M170 1040q0 62 45 145t147 177q8 7 45 36q18 14 58 42q26 18 61 34q29 13 54 13q16 0 34 -16q17 -15 17 -37q0 -17 -10 -26q-11 -9 -27 -18q-33 -18 -41 -22q-21 -11 -51 -37q-31 -25 -56 -59q-26 -36 -26 -80q0 -22 10 -46q11 -27 39 -65q24 -31 41 -60q18 -31 18 -60 q0 -22 -21 -49q-21 -28 -52 -52q-28 -22 -64 -42q-31 -17 -55 -17q-13 0 -29 10q-18 12 -33 25q-21 19 -31 31q-18 22 -26 34q-29 40 -38 74q-9 35 -9 65z" />
<glyph unicode="&#x2019;" horiz-adv-x="649" d="M154 854q0 17 10 26q12 10 26 18l40 22q25 13 53 36q27 22 55 60q27 38 27 80q0 19 -11 46q-10 24 -39 64q-22 28 -41 61q-18 31 -18 60q0 20 22 48q21 28 52 52q30 24 63 42t56 18q12 0 28 -10q18 -12 33 -25q19 -17 32 -33q12 -14 25 -33q29 -40 38 -73q9 -35 9 -66 q0 -61 -45 -144t-147 -177q-12 -13 -44 -37q-8 -6 -18 -13t-22 -15t-19 -13q-26 -18 -61 -34q-29 -13 -53 -13q-19 0 -35 15t-16 38z" />
<glyph unicode="&#x201a;" horiz-adv-x="622" d="M2 -289q0 17 10 26t27 18l40 22q20 10 52 37q29 23 55 59q27 37 27 80q0 22 -10 46t-39 64q-22 28 -41 61t-19 60q0 20 22 48q23 30 52 53q28 22 64 42q31 17 55 17q13 0 29 -10q15 -10 32 -25q19 -17 32 -33q23 -27 26 -32q29 -40 38 -74q9 -35 9 -66q0 -62 -45 -144 q-44 -81 -148 -177q-12 -13 -44 -37q-5 -4 -58 -41q-24 -17 -62 -34q-29 -13 -53 -13q-19 0 -35 15t-16 38z" />
<glyph unicode="&#x201c;" horiz-adv-x="1064" d="M170 1040q0 62 45 145t147 177q8 7 45 36q18 14 58 42q26 18 61 34q29 13 54 13q16 0 34 -16q17 -15 17 -37q0 -17 -10 -26q-11 -9 -27 -18q-33 -18 -41 -22q-21 -11 -51 -37q-31 -25 -56 -59q-26 -36 -26 -80q0 -22 10 -46q11 -27 39 -65q24 -31 41 -60q18 -31 18 -60 q0 -22 -21 -49q-21 -28 -52 -52q-28 -22 -64 -42q-31 -17 -55 -17q-13 0 -29 10q-18 12 -33 25q-21 19 -31 31q-18 22 -26 34q-29 40 -38 74q-9 35 -9 65zM659 1040q0 61 46 145q45 83 147 177q14 12 44 36q18 14 58 42q24 17 62 34q29 13 53 13q17 0 35 -16q16 -15 16 -37 q0 -17 -10 -26t-27 -18q-33 -18 -41 -22q-21 -11 -51 -37q-29 -23 -55 -59q-27 -38 -27 -80q0 -19 11 -46q12 -30 38 -65q24 -31 41 -60q19 -33 19 -60q0 -21 -22 -49q-21 -28 -52 -52q-30 -24 -63 -42q-31 -17 -56 -17q-12 0 -28 10q-18 12 -33 25q-25 23 -32 31 q-14 17 -25 34q-29 40 -38 74q-10 38 -10 65z" />
<glyph unicode="&#x201d;" horiz-adv-x="1138" d="M154 854q0 17 10 26q12 10 26 18l40 22q25 13 53 36q27 22 55 60q27 38 27 80q0 19 -11 46q-10 24 -39 64q-22 28 -41 61q-18 31 -18 60q0 20 22 48q21 28 52 52q30 24 63 42t56 18q12 0 28 -10q18 -12 33 -25q19 -17 32 -33q16 -20 25 -32q29 -40 38 -74q9 -35 9 -66 q0 -61 -45 -144t-147 -177q-12 -13 -44 -37q-8 -6 -18 -13t-22 -15t-19 -13q-26 -18 -61 -34q-29 -13 -53 -13q-19 0 -35 15t-16 38zM643 854q0 17 10 26q11 9 27 18l40 22q23 11 52 36q27 22 55 60q27 38 27 80q0 22 -10 46t-39 64q-22 28 -41 61t-19 60q0 20 22 48 q21 28 52 52q28 22 64 42q33 18 55 18q13 0 29 -10q15 -10 32 -25q19 -17 32 -33q18 -22 26 -33q29 -40 38 -73q9 -35 9 -66q0 -61 -45 -144q-44 -81 -148 -177q-13 -13 -44 -37q-5 -4 -58 -41q-26 -18 -61 -34q-29 -13 -54 -13q-18 0 -35 15q-16 15 -16 38z" />
<glyph unicode="&#x201e;" horiz-adv-x="1112" d="M2 -289q0 17 10 26t27 18l40 22q20 10 52 37q29 23 55 59q27 37 27 80q0 22 -10 46t-39 64q-22 28 -41 61t-19 60q0 20 22 48q23 30 52 53q28 22 64 42q31 17 55 17q13 0 29 -10q15 -10 32 -25q19 -17 32 -33q23 -27 26 -32q29 -40 38 -74q9 -35 9 -66q0 -62 -45 -144 q-44 -81 -148 -177q-12 -13 -44 -37q-5 -4 -58 -41q-24 -17 -62 -34q-29 -13 -53 -13q-19 0 -35 15t-16 38zM492 -289q0 17 10 26q12 11 26 18l40 22q22 11 53 37q29 23 55 59t26 80q0 22 -10 46t-39 64q-22 28 -41 61q-18 32 -18 60q0 21 21 48q22 28 53 53q30 24 63 42 q31 17 55 17q13 0 29 -10q18 -12 33 -25q19 -17 32 -33q16 -20 25 -32q29 -40 38 -74q9 -35 9 -66q0 -62 -45 -144t-147 -177q-13 -13 -44 -37q-8 -6 -18 -13t-22 -15t-19 -13q-26 -18 -61 -34q-29 -13 -53 -13q-19 0 -35 15t-16 38z" />
<glyph unicode="&#x2022;" horiz-adv-x="905" d="M168 598q0 33 36 78q37 46 85 87q53 45 101 71q52 28 85 28q29 0 74 -31q42 -29 81 -74q35 -41 64 -92q27 -48 27 -83q0 -33 -36 -78q-37 -46 -85 -87q-53 -45 -101 -71q-53 -29 -85 -29q-29 0 -74 31q-40 28 -81 75q-35 41 -64 92q-27 48 -27 83z" />
<glyph unicode="&#x2026;" horiz-adv-x="1685" d="M35 164q0 25 24 55q27 34 59 59q42 33 67 47q34 19 55 19q22 0 49 -20q29 -21 54 -51q25 -29 43 -61q17 -30 17 -54q0 -26 -24 -57q-26 -34 -58 -59q-38 -30 -69 -46q-36 -19 -55 -19q-24 0 -51 21q-31 24 -52 49q-23 28 -42 62q-17 31 -17 55zM598 164q0 24 25 55 q29 36 58 59q39 31 68 47q34 19 54 19q22 0 49 -20q28 -21 54 -51q25 -29 43 -61t18 -54q0 -24 -25 -57q-26 -34 -58 -59q-38 -30 -69 -46q-36 -19 -55 -19q-23 0 -50 21q-34 26 -53 49q-23 28 -42 62q-17 31 -17 55zM1155 164q0 24 25 55q29 36 58 59q39 31 68 47 q34 19 54 19q22 0 49 -20q29 -21 54 -51q25 -29 43 -61t18 -54q0 -24 -25 -57q-26 -34 -58 -59q-38 -30 -69 -46q-36 -19 -55 -19q-23 0 -50 21q-34 26 -53 49q-23 28 -42 62q-17 31 -17 55z" />
<glyph unicode="&#x202f;" horiz-adv-x="378" />
<glyph unicode="&#x2039;" horiz-adv-x="811" d="M74 569q0 11 18 23l598 446q8 7 11 8q2 1 6 1q10 0 10 -11l-2 -14l-29 -133q-5 -18 -9 -26q-4 -7 -22 -19l-362 -271q-21 -15 -21 -20q0 -3 11 -14l258 -277q12 -12 12 -26v-5v-1q0 -1 -0.5 -2.5t-1 -4t-0.5 -4.5l-23 -117q-4 -12 -12 -12q-4 0 -10 6l-422 455 q-10 10 -10 18z" />
<glyph unicode="&#x203a;" horiz-adv-x="784" d="M61 100q0 1 2 15l29 133q4 15 9 25q4 9 22 20l362 270q21 15 21 21q0 4 -10 14l-258 276q-13 13 -13 27v4l1 2q0 2 0.5 5t0.5 6l23 116q2 13 12 13q3 0 10 -7l422 -454q11 -11 11 -19q0 -9 -19 -22l-598 -447q-5 -4 -11 -7q-2 -1 -5 -1q-11 0 -11 10z" />
<glyph unicode="&#x205f;" horiz-adv-x="473" />
<glyph unicode="&#x20ac;" horiz-adv-x="1273" d="M68 481q0 1 2 15l10 47q6 24 31 24h88q22 0 24 23l8 45q3 15 11 45q0 4 1 5t1 3v2q0 10 -17 10h-88q-22 0 -22 19v4v1q0 1 0.5 2.5t1 4t0.5 4.5l10 47q2 25 29 25h106q18 0 29 18q50 105 124 191q70 81 160 142q89 60 184 89q101 31 197 31q65 0 113 -14q52 -15 78 -43 q14 -16 19 -39q5 -25 5 -47q0 -30 -6 -60q-7 -35 -10 -45q-12 -32 -24 -48q-15 -19 -50 -19q-33 0 -50 26l-37 59q-19 31 -49 58t-89 27q-55 0 -103 -28q-43 -25 -83 -73q-39 -47 -65 -99q-25 -49 -48 -106q-2 -8 -2 -10q0 -10 16 -10h400q18 0 18 -14v-2q0 -3 -1 -4t-1 -3 l-26 -61q-11 -23 -33 -23h-389q-19 0 -25 -20q-3 -11 -10 -44q-4 -20 -6 -34q0 -3 -0.5 -6.5t-1 -5.5t-0.5 -3v-5q0 -15 16 -15h358q19 0 19 -14q0 -3 -6 -18l-21 -52q-7 -22 -35 -22h-325q-25 0 -25 -21v-32q0 -44 6 -95q6 -50 26 -95q21 -46 53 -74q33 -29 89 -29 q60 0 103 28q40 26 77 65l62 64q29 29 59 29q58 0 58 -59q0 -23 -7 -51q-8 -32 -22 -60q-17 -34 -33 -58q-19 -28 -41 -46q-31 -26 -82 -38q-49 -12 -106 -12q-105 0 -194 30t-154 88q-66 59 -107 145q-42 88 -49 198q0 23 -24 23h-103q-22 0 -22 20z" />
<glyph unicode="&#x2122;" horiz-adv-x="1497" d="M135 1290q0 16 3 34q4 24 7 36q6 22 8 38q4 24 7 36q4 16 16 26q11 10 37 10q32 0 75 -4t134 -4h74q87 0 126 4t68 4q18 0 32 -6q13 -6 13 -28q0 -21 -7 -55q-8 -36 -15 -87q-6 -43 -43 -43q-20 0 -30 13t-15 29l-14 38q-8 22 -23 37q-25 25 -56 25q-14 0 -16 -15 l-57 -284q-15 -72 -15 -97t9 -39q8 -13 19 -20l20 -14q8 -6 8 -19q0 -28 -43 -28h-224q-36 0 -36 26q0 20 22 27q22 8 43 28q28 28 49 129l56 281l2 14q0 11 -11 11q-42 0 -75 -27q-21 -16 -34 -37q-20 -31 -24 -38q-10 -17 -21 -28q-12 -12 -28 -12t-29 10q-12 9 -12 29z M662 903q0 19 17 25t38 28q22 22 39 62q16 37 37 133l41 195q0 3 0.5 6t1 4.5t0.5 2.5v7q0 18 -10 26t-20 12q-4 2 -21 10q-9 4 -9 20q0 28 45 28h174q20 0 28 -5q6 -4 11 -21l56 -258q2 -11 6 -11q3 0 8 7l170 264q11 15 17 19q8 5 24 5h186q33 0 33 -24q0 -18 -12 -22 q-13 -5 -29 -15q-30 -17 -41 -41q-8 -19 -20 -78l-37 -188q-11 -63 -11 -65q-2 -28 -2 -38q0 -21 9 -35q7 -11 18 -19l18 -13q9 -7 9 -19q0 -28 -41 -28h-226q-34 0 -34 26q0 22 19 26q20 5 42 27q30 28 51 131l43 222q0 4 1 5t1 3v2q0 4 -4 4t-10 -10l-203 -326 q-6 -8 -13 -13q-4 -3 -18 -3h-36q-21 0 -27 18l-68 322q-5 12 -6 12q-7 0 -8 -14q-1 -6 -5 -26.5t-7 -34.5q-1 -6 -7 -34.5t-9 -44.5q-8 -41 -12 -79q-5 -43 -5 -66q0 -40 11 -56q12 -18 24 -27q14 -10 23 -15q12 -6 12 -21q0 -28 -43 -28h-176q-43 0 -43 26z" />
<glyph unicode="&#x25fc;" horiz-adv-x="1095" d="M0 0v1096h1096v-1096h-1096z" />
</font>
</defs>
</svg>
